<?xml version="1.0" encoding="UTF-8" standalone="no"?>
<!DOCTYPE svg PUBLIC "-//W3C//DTD SVG 1.1//EN"
 "http://www.w3.org/Graphics/SVG/1.1/DTD/svg11.dtd">
<!-- Generated by graphviz version 2.40.1 (20161225.0304)
 -->
<!-- Title: lpegNode Pages: 1 -->
<svg width="1308pt" height="1218pt"
 viewBox="0.00 0.00 1308.00 1218.00" xmlns="http://www.w3.org/2000/svg" xmlns:xlink="http://www.w3.org/1999/xlink">
<g id="graph0" class="graph" transform="scale(1 1) rotate(0) translate(4 1214.0016)">
<title>lpegNode</title>
<polygon fill="#ffffff" stroke="transparent" points="-4,4 -4,-1214.0016 1304,-1214.0016 1304,4 -4,4"/>
<!-- doc_0 -->
<g id="node1" class="node">
<title>doc_0</title>
<ellipse fill="none" stroke="#000000" cx="274" cy="-1192.0016" rx="42.1216" ry="18"/>
<text text-anchor="middle" x="274" y="-1187.8016" font-family="Helvetica,sans-Serif" font-size="14.00" fill="#000000">doc &#45; 77</text>
</g>
<!-- section_1 -->
<g id="node2" class="node">
<title>section_1</title>
<ellipse fill="none" stroke="#000000" cx="274" cy="-1120.0016" rx="60.9826" ry="18"/>
<text text-anchor="middle" x="274" y="-1115.8016" font-family="Helvetica,sans-Serif" font-size="14.00" fill="#000000">section: 1&#45;24</text>
</g>
<!-- doc_0&#45;&gt;section_1 -->
<g id="edge1" class="edge">
<title>doc_0&#45;&gt;section_1</title>
<path fill="none" stroke="#000000" stroke-dasharray="5,2" d="M274,-1173.8329C274,-1166.1325 274,-1156.9759 274,-1148.4182"/>
<polygon fill="#000000" stroke="#000000" points="277.5001,-1148.4148 274,-1138.4148 270.5001,-1148.4149 277.5001,-1148.4148"/>
</g>
<!-- header_2 -->
<g id="node3" class="node">
<title>header_2</title>
<ellipse fill="none" stroke="#000000" cx="93" cy="-1048.0016" rx="27" ry="18"/>
<text text-anchor="middle" x="93" y="-1043.8016" font-family="Helvetica,sans-Serif" font-size="14.00" fill="#000000">0 : </text>
</g>
<!-- section_1&#45;&gt;header_2 -->
<g id="edge2" class="edge">
<title>section_1&#45;&gt;header_2</title>
<path fill="none" stroke="#000000" stroke-dasharray="5,2" d="M237.3719,-1105.4313C204.7482,-1092.4539 157.4398,-1073.6351 125.9757,-1061.119"/>
<polygon fill="#000000" stroke="#000000" points="126.9411,-1057.7363 116.3556,-1057.2922 124.3537,-1064.2406 126.9411,-1057.7363"/>
</g>
<!-- prose_3 -->
<g id="node4" class="node">
<title>prose_3</title>
<ellipse fill="none" stroke="#000000" cx="186" cy="-1048.0016" rx="32.4585" ry="18"/>
<text text-anchor="middle" x="186" y="-1043.8016" font-family="Helvetica,sans-Serif" font-size="14.00" fill="#000000">prose</text>
</g>
<!-- section_1&#45;&gt;prose_3 -->
<g id="edge3" class="edge">
<title>section_1&#45;&gt;prose_3</title>
<path fill="none" stroke="#000000" stroke-dasharray="5,2" d="M253.1452,-1102.9386C240.8549,-1092.8829 225.1965,-1080.0714 212.0929,-1069.3503"/>
<polygon fill="#000000" stroke="#000000" points="214.2731,-1066.6119 204.3172,-1062.9883 209.8404,-1072.0296 214.2731,-1066.6119"/>
</g>
<!-- codeblock_4 -->
<g id="node5" class="node">
<title>codeblock_4</title>
<ellipse fill="none" stroke="#000000" cx="323" cy="-1048.0016" rx="72.5844" ry="18"/>
<text text-anchor="middle" x="323" y="-1043.8016" font-family="Helvetica,sans-Serif" font-size="14.00" fill="#000000">code block 6&#45;22</text>
</g>
<!-- section_1&#45;&gt;codeblock_4 -->
<g id="edge4" class="edge">
<title>section_1&#45;&gt;codeblock_4</title>
<path fill="none" stroke="#000000" stroke-dasharray="5,2" d="M286.1124,-1102.2038C291.8252,-1093.8095 298.7574,-1083.6233 305.0634,-1074.3574"/>
<polygon fill="#000000" stroke="#000000" points="308.1244,-1076.0805 310.8572,-1065.8441 302.3374,-1072.1421 308.1244,-1076.0805"/>
</g>
<!-- section_5 -->
<g id="node6" class="node">
<title>section_5</title>
<ellipse fill="none" stroke="#000000" cx="702" cy="-1048.0016" rx="65.8187" ry="18"/>
<text text-anchor="middle" x="702" y="-1043.8016" font-family="Helvetica,sans-Serif" font-size="14.00" fill="#000000">section: 25&#45;77</text>
</g>
<!-- section_1&#45;&gt;section_5 -->
<g id="edge5" class="edge">
<title>section_1&#45;&gt;section_5</title>
<path fill="none" stroke="#000000" stroke-dasharray="5,2" d="M326.9105,-1111.1007C404.9261,-1097.9766 550.7392,-1073.4473 635.7589,-1059.1449"/>
<polygon fill="#000000" stroke="#000000" points="636.5363,-1062.5634 645.8171,-1057.4529 635.375,-1055.6604 636.5363,-1062.5634"/>
</g>
<!-- leaf_6 -->
<g id="node7" class="node">
<title>leaf_6</title>
<polygon fill="none" stroke="#c0c0c0" points="128,-899.6014 0,-899.6014 0,-863.6014 128,-863.6014 128,-899.6014"/>
<text text-anchor="middle" x="64" y="-878.1014" font-family="Inconsolata" font-size="14.00" fill="#000000">color.orb* Color</text>
</g>
<!-- header_2&#45;&gt;leaf_6 -->
<g id="edge6" class="edge">
<title>header_2&#45;&gt;leaf_6</title>
<path fill="none" stroke="#000000" stroke-dasharray="5,2" d="M89.8413,-1029.8771C84.8076,-1000.9944 74.9261,-944.2946 68.9476,-909.9906"/>
<polygon fill="#000000" stroke="#000000" points="72.3198,-908.9541 67.1548,-899.7035 65.4238,-910.156 72.3198,-908.9541"/>
</g>
<!-- raw_7 -->
<g id="node8" class="node">
<title>raw_7</title>
<ellipse fill="none" stroke="#000000" cx="173" cy="-881.6014" rx="27" ry="18"/>
<text text-anchor="middle" x="173" y="-877.4014" font-family="Helvetica,sans-Serif" font-size="14.00" fill="#000000">raw</text>
</g>
<!-- prose_3&#45;&gt;raw_7 -->
<g id="edge7" class="edge">
<title>prose_3&#45;&gt;raw_7</title>
<path fill="none" stroke="#000000" stroke-dasharray="5,2" d="M184.584,-1029.8771C182.3276,-1000.9944 177.8979,-944.2946 175.2179,-909.9906"/>
<polygon fill="#000000" stroke="#000000" points="178.6826,-909.4005 174.4142,-899.7035 171.7038,-909.9458 178.6826,-909.4005"/>
</g>
<!-- leaf_9 -->
<g id="node10" class="node">
<title>leaf_9</title>
<polygon fill="none" stroke="#c0c0c0" points="479.5,-993.9018 218.5,-993.9018 218.5,-769.3009 479.5,-769.3009 479.5,-993.9018"/>
<text text-anchor="middle" x="349" y="-978.8016" font-family="Inconsolata" font-size="14.00" fill="#000000">local a = require &quot;src/anterm&quot;</text>
<text text-anchor="middle" x="349" y="-947.4015" font-family="Inconsolata" font-size="14.00" fill="#000000">local C = {}</text>
<text text-anchor="middle" x="349" y="-932.0015" font-family="Inconsolata" font-size="14.00" fill="#000000">C.color = {}</text>
<text text-anchor="middle" x="349" y="-916.6015" font-family="Inconsolata" font-size="14.00" fill="#000000">C.color.number = a.fg(42)</text>
<text text-anchor="middle" x="349" y="-901.2014" font-family="Inconsolata" font-size="14.00" fill="#000000">C.color.string = a.fg(222)</text>
<text text-anchor="middle" x="349" y="-885.8014" font-family="Inconsolata" font-size="14.00" fill="#000000">C.color.table &#160;= a.fg(64)</text>
<text text-anchor="middle" x="349" y="-870.4014" font-family="Inconsolata" font-size="14.00" fill="#000000">C.color.func &#160;&#160;= a.fg24(210,12,120)</text>
<text text-anchor="middle" x="349" y="-855.0013" font-family="Inconsolata" font-size="14.00" fill="#000000">C.color.truth &#160;= a.fg(231)</text>
<text text-anchor="middle" x="349" y="-839.6013" font-family="Inconsolata" font-size="14.00" fill="#000000">C.color.falsehood &#160;= a.fg(94)</text>
<text text-anchor="middle" x="349" y="-824.2013" font-family="Inconsolata" font-size="14.00" fill="#000000">C.color.nilness &#160;&#160;= a.fg(93)</text>
<text text-anchor="middle" x="349" y="-808.8012" font-family="Inconsolata" font-size="14.00" fill="#000000">C.color.field &#160;= a.fg(111)</text>
<text text-anchor="middle" x="349" y="-777.4012" font-family="Inconsolata" font-size="14.00" fill="#000000">C.color.alert = a.fg24(250, 0, 40)</text>
</g>
<!-- codeblock_4&#45;&gt;leaf_9 -->
<g id="edge9" class="edge">
<title>codeblock_4&#45;&gt;leaf_9</title>
<path fill="none" stroke="#000000" stroke-dasharray="5,2" d="M325.832,-1029.8771C326.9474,-1022.7383 328.3283,-1013.9002 329.8563,-1004.121"/>
<polygon fill="#000000" stroke="#000000" points="333.3432,-1004.4766 331.429,-994.0561 326.4271,-1003.3959 333.3432,-1004.4766"/>
</g>
<!-- header_10 -->
<g id="node11" class="node">
<title>header_10</title>
<ellipse fill="none" stroke="#000000" cx="554" cy="-881.6014" rx="56.113" ry="18"/>
<text text-anchor="middle" x="554" y="-877.4014" font-family="Helvetica,sans-Serif" font-size="14.00" fill="#000000">2 : ts(value)</text>
</g>
<!-- section_5&#45;&gt;header_10 -->
<g id="edge10" class="edge">
<title>section_5&#45;&gt;header_10</title>
<path fill="none" stroke="#000000" stroke-dasharray="5,2" d="M670.6894,-1031.9598C654.2505,-1022.475 634.5569,-1009.3267 620,-994.0016 596.0292,-968.7657 577.0379,-933.28 565.6954,-908.9705"/>
<polygon fill="#000000" stroke="#000000" points="568.7695,-907.2749 561.4498,-899.6151 562.3952,-910.1677 568.7695,-907.2749"/>
</g>
<!-- prose_11 -->
<g id="node12" class="node">
<title>prose_11</title>
<ellipse fill="none" stroke="#000000" cx="661" cy="-881.6014" rx="32.4585" ry="18"/>
<text text-anchor="middle" x="661" y="-877.4014" font-family="Helvetica,sans-Serif" font-size="14.00" fill="#000000">prose</text>
</g>
<!-- section_5&#45;&gt;prose_11 -->
<g id="edge11" class="edge">
<title>section_5&#45;&gt;prose_11</title>
<path fill="none" stroke="#000000" stroke-dasharray="5,2" d="M697.5342,-1029.8771C690.3681,-1000.793 676.2521,-943.5027 667.819,-909.2764"/>
<polygon fill="#000000" stroke="#000000" points="671.189,-908.3239 665.3982,-899.4517 664.3923,-909.9986 671.189,-908.3239"/>
</g>
<!-- prose_12 -->
<g id="node13" class="node">
<title>prose_12</title>
<ellipse fill="none" stroke="#000000" cx="743" cy="-881.6014" rx="32.4585" ry="18"/>
<text text-anchor="middle" x="743" y="-877.4014" font-family="Helvetica,sans-Serif" font-size="14.00" fill="#000000">prose</text>
</g>
<!-- section_5&#45;&gt;prose_12 -->
<g id="edge12" class="edge">
<title>section_5&#45;&gt;prose_12</title>
<path fill="none" stroke="#000000" stroke-dasharray="5,2" d="M706.4658,-1029.8771C713.6319,-1000.793 727.7479,-943.5027 736.181,-909.2764"/>
<polygon fill="#000000" stroke="#000000" points="739.6077,-909.9986 738.6018,-899.4517 732.811,-908.3239 739.6077,-909.9986"/>
</g>
<!-- codeblock_13 -->
<g id="node14" class="node">
<title>codeblock_13</title>
<ellipse fill="none" stroke="#000000" cx="933" cy="-881.6014" rx="77.4211" ry="18"/>
<text text-anchor="middle" x="933" y="-877.4014" font-family="Helvetica,sans-Serif" font-size="14.00" fill="#000000">code block 31&#45;73</text>
</g>
<!-- section_5&#45;&gt;codeblock_13 -->
<g id="edge13" class="edge">
<title>section_5&#45;&gt;codeblock_13</title>
<path fill="none" stroke="#000000" stroke-dasharray="5,2" d="M728.1373,-1031.3953C744.3868,-1020.9225 765.6135,-1006.9709 784,-994.0016 825.8713,-964.4669 872.8668,-928.5322 902.6796,-905.3734"/>
<polygon fill="#000000" stroke="#000000" points="904.8736,-908.101 910.6142,-899.1962 900.5734,-902.5775 904.8736,-908.101"/>
</g>
<!-- codeblock_14 -->
<g id="node15" class="node">
<title>codeblock_14</title>
<ellipse fill="none" stroke="#000000" cx="1216" cy="-881.6014" rx="77.4211" ry="18"/>
<text text-anchor="middle" x="1216" y="-877.4014" font-family="Helvetica,sans-Serif" font-size="14.00" fill="#000000">code block 75&#45;77</text>
</g>
<!-- section_5&#45;&gt;codeblock_14 -->
<g id="edge14" class="edge">
<title>section_5&#45;&gt;codeblock_14</title>
<path fill="none" stroke="#000000" stroke-dasharray="5,2" d="M765.9046,-1043.6939C831.1308,-1037.7913 934.5032,-1024.2347 1019,-994.0016 1080.9536,-971.8344 1145.9648,-930.7149 1183.6447,-904.8303"/>
<polygon fill="#000000" stroke="#000000" points="1185.9454,-907.4938 1192.1643,-898.9162 1181.9537,-901.7435 1185.9454,-907.4938"/>
</g>
<!-- leaf_8 -->
<g id="node9" class="node">
<title>leaf_8</title>
<polygon fill="none" stroke="#c0c0c0" points="237,-432.2027 109,-432.2027 109,-392.3985 237,-392.3985 237,-432.2027"/>
<text text-anchor="middle" x="173" y="-400.8006" font-family="Inconsolata" font-size="14.00" fill="#000000">color.orb* Color</text>
</g>
<!-- raw_7&#45;&gt;leaf_8 -->
<g id="edge8" class="edge">
<title>raw_7&#45;&gt;leaf_8</title>
<path fill="none" stroke="#000000" stroke-dasharray="5,2" d="M173,-863.4918C173,-792.3412 173,-531.5173 173,-442.3912"/>
<polygon fill="#000000" stroke="#000000" points="176.5001,-442.1614 173,-432.1615 169.5001,-442.1615 176.5001,-442.1614"/>
</g>
<!-- leaf_15 -->
<g id="node16" class="node">
<title>leaf_15</title>
<polygon fill="none" stroke="#c0c0c0" points="604,-430.3006 504,-430.3006 504,-394.3006 604,-394.3006 604,-430.3006"/>
<text text-anchor="middle" x="554" y="-408.8006" font-family="Inconsolata" font-size="14.00" fill="#000000">** ts(value)</text>
</g>
<!-- header_10&#45;&gt;leaf_15 -->
<g id="edge15" class="edge">
<title>header_10&#45;&gt;leaf_15</title>
<path fill="none" stroke="#000000" stroke-dasharray="5,2" d="M554,-863.4918C554,-791.8482 554,-527.8936 554,-440.5634"/>
<polygon fill="#000000" stroke="#000000" points="557.5001,-440.3562 554,-430.3562 550.5001,-440.3563 557.5001,-440.3562"/>
</g>
<!-- raw_16 -->
<g id="node17" class="node">
<title>raw_16</title>
<ellipse fill="none" stroke="#000000" cx="655" cy="-412.3006" rx="27" ry="18"/>
<text text-anchor="middle" x="655" y="-408.1006" font-family="Helvetica,sans-Serif" font-size="14.00" fill="#000000">raw</text>
</g>
<!-- prose_11&#45;&gt;raw_16 -->
<g id="edge16" class="edge">
<title>prose_11&#45;&gt;raw_16</title>
<path fill="none" stroke="#000000" stroke-dasharray="5,2" d="M660.7685,-863.4918C659.8525,-791.8482 656.4779,-527.8936 655.3613,-440.5634"/>
<polygon fill="#000000" stroke="#000000" points="658.8585,-440.3106 655.2308,-430.3562 651.8591,-440.4002 658.8585,-440.3106"/>
</g>
<!-- raw_18 -->
<g id="node19" class="node">
<title>raw_18</title>
<ellipse fill="none" stroke="#000000" cx="735" cy="-412.3006" rx="27" ry="18"/>
<text text-anchor="middle" x="735" y="-408.1006" font-family="Helvetica,sans-Serif" font-size="14.00" fill="#000000">raw</text>
</g>
<!-- prose_12&#45;&gt;raw_18 -->
<g id="edge18" class="edge">
<title>prose_12&#45;&gt;raw_18</title>
<path fill="none" stroke="#000000" stroke-dasharray="5,2" d="M742.6913,-863.4918C741.47,-791.8482 736.9705,-527.8936 735.4818,-440.5634"/>
<polygon fill="#000000" stroke="#000000" points="738.9778,-440.2951 735.3078,-430.3562 731.9788,-440.4145 738.9778,-440.2951"/>
</g>
<!-- leaf_20 -->
<g id="node21" class="node">
<title>leaf_20</title>
<polygon fill="none" stroke="#c0c0c0" points="1209.5,-733.1018 780.5,-733.1018 780.5,-91.4994 1209.5,-91.4994 1209.5,-733.1018"/>
<text text-anchor="middle" x="995" y="-718.0012" font-family="Inconsolata" font-size="14.00" fill="#000000">local hints = { field = C.color.field,</text>
<text text-anchor="middle" x="995" y="-702.6012" font-family="Inconsolata" font-size="14.00" fill="#000000"> &#160;&#160;&#160;&#160;&#160;&#160;&#160;&#160;&#160;&#160;&#160;&#160;&#160;&#160;&#160;&#160;&#160;fn &#160;= C.color.func }</text>
<text text-anchor="middle" x="995" y="-671.2011" font-family="Inconsolata" font-size="14.00" fill="#000000">local anti_G = {}</text>
<text text-anchor="middle" x="995" y="-639.8011" font-family="Inconsolata" font-size="14.00" fill="#000000">for k, v in pairs(_G) do</text>
<text text-anchor="middle" x="995" y="-624.4011" font-family="Inconsolata" font-size="14.00" fill="#000000"> &#160;&#160;anti_G [v] = k</text>
<text text-anchor="middle" x="995" y="-609.001" font-family="Inconsolata" font-size="14.00" fill="#000000">end</text>
<text text-anchor="middle" x="995" y="-577.601" font-family="Inconsolata" font-size="14.00" fill="#000000">function C.ts(value, hint)</text>
<text text-anchor="middle" x="995" y="-562.201" font-family="Inconsolata" font-size="14.00" fill="#000000"> &#160;&#160;local c = C.color</text>
<text text-anchor="middle" x="995" y="-546.8009" font-family="Inconsolata" font-size="14.00" fill="#000000"> &#160;&#160;local str = tostring(value)</text>
<text text-anchor="middle" x="995" y="-531.4009" font-family="Inconsolata" font-size="14.00" fill="#000000"> &#160;&#160;if hint == &quot;&quot; then</text>
<text text-anchor="middle" x="995" y="-516.0009" font-family="Inconsolata" font-size="14.00" fill="#000000"> &#160;&#160;&#160;&#160;&#160;return str &#45;&#45; or just use tostring()?</text>
<text text-anchor="middle" x="995" y="-500.6008" font-family="Inconsolata" font-size="14.00" fill="#000000"> &#160;&#160;end</text>
<text text-anchor="middle" x="995" y="-485.2008" font-family="Inconsolata" font-size="14.00" fill="#000000"> &#160;&#160;if hint then</text>
<text text-anchor="middle" x="995" y="-469.8008" font-family="Inconsolata" font-size="14.00" fill="#000000"> &#160;&#160;&#160;&#160;&#160;return hints[hint](str)</text>
<text text-anchor="middle" x="995" y="-454.4007" font-family="Inconsolata" font-size="14.00" fill="#000000"> &#160;&#160;end</text>
<text text-anchor="middle" x="995" y="-423.0007" font-family="Inconsolata" font-size="14.00" fill="#000000"> &#160;&#160;local typica = type(value)</text>
<text text-anchor="middle" x="995" y="-407.6007" font-family="Inconsolata" font-size="14.00" fill="#000000"> &#160;&#160;if typica == &#39;number&#39; then</text>
<text text-anchor="middle" x="995" y="-392.2007" font-family="Inconsolata" font-size="14.00" fill="#000000"> &#160;&#160;&#160;&#160;&#160;str = c.number(str)</text>
<text text-anchor="middle" x="995" y="-376.8006" font-family="Inconsolata" font-size="14.00" fill="#000000"> &#160;&#160;elseif typica == &#39;table&#39; then</text>
<text text-anchor="middle" x="995" y="-361.4006" font-family="Inconsolata" font-size="14.00" fill="#000000"> &#160;&#160;&#160;&#160;&#160;str = c.table(str)</text>
<text text-anchor="middle" x="995" y="-346.0006" font-family="Inconsolata" font-size="14.00" fill="#000000"> &#160;&#160;elseif typica == &#39;function&#39; then</text>
<text text-anchor="middle" x="995" y="-330.6005" font-family="Inconsolata" font-size="14.00" fill="#000000"> &#160;&#160;&#160;&#160;&#160;if anti_G[value] then</text>
<text text-anchor="middle" x="995" y="-315.2005" font-family="Inconsolata" font-size="14.00" fill="#000000"> &#160;&#160;&#160;&#160;&#160;&#160;&#160;&#160;&#45;&#45; we have a global name for this function</text>
<text text-anchor="middle" x="995" y="-299.8005" font-family="Inconsolata" font-size="14.00" fill="#000000"> &#160;&#160;&#160;&#160;&#160;&#160;&#160;&#160;str = c.func(anti_G[value])</text>
<text text-anchor="middle" x="995" y="-284.4004" font-family="Inconsolata" font-size="14.00" fill="#000000"> &#160;&#160;&#160;&#160;&#160;else</text>
<text text-anchor="middle" x="995" y="-269.0004" font-family="Inconsolata" font-size="14.00" fill="#000000"> &#160;&#160;&#160;&#160;&#160;&#160;&#160;&#160;local func_handle = &quot;func:&quot; .. string.sub(str, &#45;6)</text>
<text text-anchor="middle" x="995" y="-253.6004" font-family="Inconsolata" font-size="14.00" fill="#000000"> &#160;&#160;&#160;&#160;&#160;&#160;&#160;&#160;str = c.func(func_handle)</text>
<text text-anchor="middle" x="995" y="-238.2003" font-family="Inconsolata" font-size="14.00" fill="#000000"> &#160;&#160;&#160;&#160;&#160;end</text>
<text text-anchor="middle" x="995" y="-222.8003" font-family="Inconsolata" font-size="14.00" fill="#000000"> &#160;&#160;elseif typica == &#39;boolean&#39; then</text>
<text text-anchor="middle" x="995" y="-207.4003" font-family="Inconsolata" font-size="14.00" fill="#000000"> &#160;&#160;&#160;&#160;&#160;str = value and c.truth(str) or c.falsehood(str)</text>
<text text-anchor="middle" x="995" y="-192.0002" font-family="Inconsolata" font-size="14.00" fill="#000000"> &#160;&#160;elseif typica == &#39;string&#39; then</text>
<text text-anchor="middle" x="995" y="-176.6002" font-family="Inconsolata" font-size="14.00" fill="#000000"> &#160;&#160;&#160;&#160;&#160;str = c.string(str)</text>
<text text-anchor="middle" x="995" y="-161.2002" font-family="Inconsolata" font-size="14.00" fill="#000000"> &#160;&#160;elseif typica == &#39;nil&#39; then</text>
<text text-anchor="middle" x="995" y="-145.8002" font-family="Inconsolata" font-size="14.00" fill="#000000"> &#160;&#160;&#160;&#160;&#160;str = c.nilness(str)</text>
<text text-anchor="middle" x="995" y="-130.4001" font-family="Inconsolata" font-size="14.00" fill="#000000"> &#160;&#160;end</text>
<text text-anchor="middle" x="995" y="-115.0001" font-family="Inconsolata" font-size="14.00" fill="#000000"> &#160;&#160;return str</text>
<text text-anchor="middle" x="995" y="-99.6001" font-family="Inconsolata" font-size="14.00" fill="#000000">end</text>
</g>
<!-- codeblock_13&#45;&gt;leaf_20 -->
<g id="edge20" class="edge">
<title>codeblock_13&#45;&gt;leaf_20</title>
<path fill="none" stroke="#000000" stroke-dasharray="5,2" d="M935.3925,-863.4918C938.5076,-839.9123 944.3748,-795.5016 951.2564,-743.4123"/>
<polygon fill="#000000" stroke="#000000" points="954.7591,-743.6212 952.5991,-733.2489 947.8194,-742.7043 954.7591,-743.6212"/>
</g>
<!-- leaf_21 -->
<g id="node22" class="node">
<title>leaf_21</title>
<polygon fill="none" stroke="#c0c0c0" points="1300,-430.3006 1228,-430.3006 1228,-394.3006 1300,-394.3006 1300,-430.3006"/>
<text text-anchor="middle" x="1264" y="-408.8006" font-family="Inconsolata" font-size="14.00" fill="#000000">return C</text>
</g>
<!-- codeblock_14&#45;&gt;leaf_21 -->
<g id="edge21" class="edge">
<title>codeblock_14&#45;&gt;leaf_21</title>
<path fill="none" stroke="#000000" stroke-dasharray="5,2" d="M1217.8522,-863.4918C1225.1799,-791.8482 1252.1772,-527.8936 1261.1093,-440.5634"/>
<polygon fill="#000000" stroke="#000000" points="1264.6175,-440.6605 1262.1533,-430.3562 1257.6539,-439.9482 1264.6175,-440.6605"/>
</g>
<!-- leaf_17 -->
<g id="node18" class="node">
<title>leaf_17</title>
<polygon fill="none" stroke="#c0c0c0" points="736.5,-55.6015 349.5,-55.6015 349.5,.2015 736.5,.2015 736.5,-55.6015"/>
<text text-anchor="middle" x="543" y="-8.2" font-family="Inconsolata" font-size="14.00" fill="#000000">This is rapidly becoming something I&#39;ll move to core.</text>
</g>
<!-- raw_16&#45;&gt;leaf_17 -->
<g id="edge17" class="edge">
<title>raw_16&#45;&gt;leaf_17</title>
<path fill="none" stroke="#000000" stroke-dasharray="5,2" d="M656.8001,-393.9818C660.9858,-342.7988 667.2338,-195.2404 613,-91.4 607.4137,-80.7041 599.2721,-70.9028 590.5008,-62.363"/>
<polygon fill="#000000" stroke="#000000" points="592.7584,-59.6842 583.0271,-55.4943 588.0216,-64.8381 592.7584,-59.6842"/>
</g>
<!-- leaf_19 -->
<g id="node20" class="node">
<title>leaf_19</title>
<polygon fill="none" stroke="#c0c0c0" points="939,-47.6021 755,-47.6021 755,-7.7979 939,-7.7979 939,-47.6021"/>
<text text-anchor="middle" x="847" y="-16.2" font-family="Inconsolata" font-size="14.00" fill="#000000">Some other part of core.</text>
</g>
<!-- raw_18&#45;&gt;leaf_19 -->
<g id="edge19" class="edge">
<title>raw_18&#45;&gt;leaf_19</title>
<path fill="none" stroke="#000000" stroke-dasharray="5,2" d="M732.593,-394.263C726.6641,-343.1967 715.6027,-194.6451 771,-91.4 778.9541,-76.5758 791.9095,-63.7873 804.889,-53.6405"/>
<polygon fill="#000000" stroke="#000000" points="806.9877,-56.4415 812.9292,-47.6694 802.8142,-50.8217 806.9877,-56.4415"/>
</g>
</g>
</svg>
