<?xml version="1.0" encoding="UTF-8" standalone="no"?>
<!DOCTYPE svg PUBLIC "-//W3C//DTD SVG 1.1//EN"
 "http://www.w3.org/Graphics/SVG/1.1/DTD/svg11.dtd">
<!-- Generated by graphviz version 2.40.1 (20161225.0304)
 -->
<!-- Title: lpegNode Pages: 1 -->
<svg width="863pt" height="819pt"
 viewBox="0.00 0.00 862.50 818.60" xmlns="http://www.w3.org/2000/svg" xmlns:xlink="http://www.w3.org/1999/xlink">
<g id="graph0" class="graph" transform="scale(1 1) rotate(0) translate(4 814.6009)">
<title>lpegNode</title>
<polygon fill="#ffffff" stroke="transparent" points="-4,4 -4,-814.6009 858.5,-814.6009 858.5,4 -4,4"/>
<!-- doc_0 -->
<g id="node1" class="node">
<title>doc_0</title>
<ellipse fill="none" stroke="#000000" cx="242" cy="-792.6009" rx="42.1216" ry="18"/>
<text text-anchor="middle" x="242" y="-788.4009" font-family="Helvetica,sans-Serif" font-size="14.00" fill="#000000">doc &#45; 38</text>
</g>
<!-- section_1 -->
<g id="node2" class="node">
<title>section_1</title>
<ellipse fill="none" stroke="#000000" cx="242" cy="-720.6009" rx="60.9826" ry="18"/>
<text text-anchor="middle" x="242" y="-716.4009" font-family="Helvetica,sans-Serif" font-size="14.00" fill="#000000">section: 1&#45;38</text>
</g>
<!-- doc_0&#45;&gt;section_1 -->
<g id="edge1" class="edge">
<title>doc_0&#45;&gt;section_1</title>
<path fill="none" stroke="#000000" stroke-dasharray="5,2" d="M242,-774.4323C242,-766.7319 242,-757.5753 242,-749.0175"/>
<polygon fill="#000000" stroke="#000000" points="245.5001,-749.0141 242,-739.0142 238.5001,-749.0142 245.5001,-749.0141"/>
</g>
<!-- header_2 -->
<g id="node3" class="node">
<title>header_2</title>
<ellipse fill="none" stroke="#000000" cx="114" cy="-648.6009" rx="41.6284" ry="18"/>
<text text-anchor="middle" x="114" y="-644.4009" font-family="Helvetica,sans-Serif" font-size="14.00" fill="#000000">1 : Core</text>
</g>
<!-- section_1&#45;&gt;header_2 -->
<g id="edge2" class="edge">
<title>section_1&#45;&gt;header_2</title>
<path fill="none" stroke="#000000" stroke-dasharray="5,2" d="M213.5927,-704.6218C194.4316,-693.8437 169.0295,-679.555 148.6758,-668.106"/>
<polygon fill="#000000" stroke="#000000" points="150.1516,-664.9205 139.7199,-663.0683 146.7197,-671.0215 150.1516,-664.9205"/>
</g>
<!-- prose_3 -->
<g id="node4" class="node">
<title>prose_3</title>
<ellipse fill="none" stroke="#000000" cx="242" cy="-648.6009" rx="32.4585" ry="18"/>
<text text-anchor="middle" x="242" y="-644.4009" font-family="Helvetica,sans-Serif" font-size="14.00" fill="#000000">prose</text>
</g>
<!-- section_1&#45;&gt;prose_3 -->
<g id="edge3" class="edge">
<title>section_1&#45;&gt;prose_3</title>
<path fill="none" stroke="#000000" stroke-dasharray="5,2" d="M242,-702.4323C242,-694.7319 242,-685.5753 242,-677.0175"/>
<polygon fill="#000000" stroke="#000000" points="245.5001,-677.0141 242,-667.0142 238.5001,-677.0142 245.5001,-677.0141"/>
</g>
<!-- codeblock_4 -->
<g id="node5" class="node">
<title>codeblock_4</title>
<ellipse fill="none" stroke="#000000" cx="523" cy="-648.6009" rx="72.5844" ry="18"/>
<text text-anchor="middle" x="523" y="-644.4009" font-family="Helvetica,sans-Serif" font-size="14.00" fill="#000000">code block 6&#45;38</text>
</g>
<!-- section_1&#45;&gt;codeblock_4 -->
<g id="edge4" class="edge">
<title>section_1&#45;&gt;codeblock_4</title>
<path fill="none" stroke="#000000" stroke-dasharray="5,2" d="M288.0868,-708.7922C335.6258,-696.6114 410.0048,-677.5534 462.3071,-664.1521"/>
<polygon fill="#000000" stroke="#000000" points="463.3132,-667.5075 472.1315,-661.6348 461.5756,-660.7265 463.3132,-667.5075"/>
</g>
<!-- leaf_5 -->
<g id="node6" class="node">
<title>leaf_5</title>
<polygon fill="none" stroke="#c0c0c0" points="58,-369.0005 0,-369.0005 0,-333.0005 58,-333.0005 58,-369.0005"/>
<text text-anchor="middle" x="29" y="-347.5005" font-family="Inconsolata" font-size="14.00" fill="#000000">* Core</text>
</g>
<!-- header_2&#45;&gt;leaf_5 -->
<g id="edge5" class="edge">
<title>header_2&#45;&gt;leaf_5</title>
<path fill="none" stroke="#000000" stroke-dasharray="5,2" d="M95.5332,-632.4189C85.4609,-622.5248 73.7109,-609.0248 67,-594.6009 33.3299,-522.2331 28.5491,-426.041 28.4357,-379.1303"/>
<polygon fill="#000000" stroke="#000000" points="31.9357,-379.116 28.4827,-369.0996 24.9358,-379.0831 31.9357,-379.116"/>
</g>
<!-- raw_6 -->
<g id="node7" class="node">
<title>raw_6</title>
<ellipse fill="none" stroke="#000000" cx="103" cy="-351.0005" rx="27" ry="18"/>
<text text-anchor="middle" x="103" y="-346.8005" font-family="Helvetica,sans-Serif" font-size="14.00" fill="#000000">raw</text>
</g>
<!-- prose_3&#45;&gt;raw_6 -->
<g id="edge6" class="edge">
<title>prose_3&#45;&gt;raw_6</title>
<path fill="none" stroke="#000000" stroke-dasharray="5,2" d="M212.1867,-641.0425C188.4494,-633.4006 156.4141,-619.1322 139,-594.6009 92.4117,-528.9717 94.8761,-428.1282 99.4421,-379.3563"/>
<polygon fill="#000000" stroke="#000000" points="102.9428,-379.5296 100.4939,-369.2217 95.9802,-378.807 102.9428,-379.5296"/>
</g>
<!-- prespace_7 -->
<g id="node8" class="node">
<title>prespace_7</title>
<ellipse fill="none" stroke="#000000" cx="194" cy="-351.0005" rx="46.4736" ry="18"/>
<text text-anchor="middle" x="194" y="-346.8005" font-family="Helvetica,sans-Serif" font-size="14.00" fill="#000000">prespace</text>
</g>
<!-- prose_3&#45;&gt;prespace_7 -->
<g id="edge7" class="edge">
<title>prose_3&#45;&gt;prespace_7</title>
<path fill="none" stroke="#000000" stroke-dasharray="5,2" d="M239.0696,-630.4327C230.9858,-580.3125 208.3248,-439.8142 198.5654,-379.3061"/>
<polygon fill="#000000" stroke="#000000" points="202.0007,-378.6242 196.953,-369.3091 195.0901,-379.7388 202.0007,-378.6242"/>
</g>
<!-- literal_8 -->
<g id="node9" class="node">
<title>literal_8</title>
<ellipse fill="none" stroke="#000000" cx="290" cy="-351.0005" rx="31.481" ry="18"/>
<text text-anchor="middle" x="290" y="-346.8005" font-family="Helvetica,sans-Serif" font-size="14.00" fill="#000000">literal</text>
</g>
<!-- prose_3&#45;&gt;literal_8 -->
<g id="edge8" class="edge">
<title>prose_3&#45;&gt;literal_8</title>
<path fill="none" stroke="#000000" stroke-dasharray="5,2" d="M244.9304,-630.4327C253.0334,-580.1935 275.783,-439.1462 285.5039,-378.8763"/>
<polygon fill="#000000" stroke="#000000" points="288.9709,-379.3607 287.108,-368.9309 282.0602,-378.246 288.9709,-379.3607"/>
</g>
<!-- raw_9 -->
<g id="node10" class="node">
<title>raw_9</title>
<ellipse fill="none" stroke="#000000" cx="366" cy="-351.0005" rx="27" ry="18"/>
<text text-anchor="middle" x="366" y="-346.8005" font-family="Helvetica,sans-Serif" font-size="14.00" fill="#000000">raw</text>
</g>
<!-- prose_3&#45;&gt;raw_9 -->
<g id="edge9" class="edge">
<title>prose_3&#45;&gt;raw_9</title>
<path fill="none" stroke="#000000" stroke-dasharray="5,2" d="M269.6262,-639.0057C289.7117,-630.5344 315.7776,-616.141 330,-594.6009 374.3469,-527.4368 372.9377,-427.316 369.0871,-379.0339"/>
<polygon fill="#000000" stroke="#000000" points="372.5672,-378.6539 368.1902,-369.0054 365.595,-379.2774 372.5672,-378.6539"/>
</g>
<!-- leaf_14 -->
<g id="node15" class="node">
<title>leaf_14</title>
<polygon fill="none" stroke="#c0c0c0" points="854.5,-594.7014 411.5,-594.7014 411.5,-107.2996 854.5,-107.2996 854.5,-594.7014"/>
<text text-anchor="middle" x="633" y="-579.4009" font-family="Inconsolata" font-size="14.00" fill="#000000">local escape_lua_pattern</text>
<text text-anchor="middle" x="633" y="-564.0009" font-family="Inconsolata" font-size="14.00" fill="#000000">do</text>
<text text-anchor="middle" x="633" y="-548.6008" font-family="Inconsolata" font-size="14.00" fill="#000000"> &#160;local matches =</text>
<text text-anchor="middle" x="633" y="-533.2008" font-family="Inconsolata" font-size="14.00" fill="#000000"> &#160;{</text>
<text text-anchor="middle" x="633" y="-517.8008" font-family="Inconsolata" font-size="14.00" fill="#000000"> &#160;&#160;&#160;[&quot;^&quot;] = &quot;%^&quot;;</text>
<text text-anchor="middle" x="633" y="-502.4007" font-family="Inconsolata" font-size="14.00" fill="#000000"> &#160;&#160;&#160;[&quot;$&quot;] = &quot;%$&quot;;</text>
<text text-anchor="middle" x="633" y="-487.0007" font-family="Inconsolata" font-size="14.00" fill="#000000"> &#160;&#160;&#160;[&quot;(&quot;] = &quot;%(&quot;;</text>
<text text-anchor="middle" x="633" y="-471.6007" font-family="Inconsolata" font-size="14.00" fill="#000000"> &#160;&#160;&#160;[&quot;)&quot;] = &quot;%)&quot;;</text>
<text text-anchor="middle" x="633" y="-456.2007" font-family="Inconsolata" font-size="14.00" fill="#000000"> &#160;&#160;&#160;[&quot;%&quot;] = &quot;%%&quot;;</text>
<text text-anchor="middle" x="633" y="-440.8006" font-family="Inconsolata" font-size="14.00" fill="#000000"> &#160;&#160;&#160;[&quot;.&quot;] = &quot;%.&quot;;</text>
<text text-anchor="middle" x="633" y="-425.4006" font-family="Inconsolata" font-size="14.00" fill="#000000"> &#160;&#160;&#160;[&quot;[&quot;] = &quot;%[&quot;;</text>
<text text-anchor="middle" x="633" y="-410.0006" font-family="Inconsolata" font-size="14.00" fill="#000000"> &#160;&#160;&#160;[&quot;]&quot;] = &quot;%]&quot;;</text>
<text text-anchor="middle" x="633" y="-394.6005" font-family="Inconsolata" font-size="14.00" fill="#000000"> &#160;&#160;&#160;[&quot;*&quot;] = &quot;%*&quot;;</text>
<text text-anchor="middle" x="633" y="-379.2005" font-family="Inconsolata" font-size="14.00" fill="#000000"> &#160;&#160;&#160;[&quot;+&quot;] = &quot;%+&quot;;</text>
<text text-anchor="middle" x="633" y="-363.8005" font-family="Inconsolata" font-size="14.00" fill="#000000"> &#160;&#160;&#160;[&quot;&#45;&quot;] = &quot;%&#45;&quot;;</text>
<text text-anchor="middle" x="633" y="-348.4004" font-family="Inconsolata" font-size="14.00" fill="#000000"> &#160;&#160;&#160;[&quot;?&quot;] = &quot;%?&quot;;</text>
<text text-anchor="middle" x="633" y="-333.0004" font-family="Inconsolata" font-size="14.00" fill="#000000"> &#160;&#160;&#160;[&quot;\0&quot;] = &quot;%z&quot;;</text>
<text text-anchor="middle" x="633" y="-317.6004" font-family="Inconsolata" font-size="14.00" fill="#000000"> &#160;}</text>
<text text-anchor="middle" x="633" y="-286.2003" font-family="Inconsolata" font-size="14.00" fill="#000000">local spatToLit = function(s)</text>
<text text-anchor="middle" x="633" y="-270.8003" font-family="Inconsolata" font-size="14.00" fill="#000000"> &#160;&#160;&#160;return (s:gsub(&quot;.&quot;, matches))</text>
<text text-anchor="middle" x="633" y="-255.4003" font-family="Inconsolata" font-size="14.00" fill="#000000"> &#160;end</text>
<text text-anchor="middle" x="633" y="-240.0002" font-family="Inconsolata" font-size="14.00" fill="#000000">end</text>
<text text-anchor="middle" x="633" y="-208.6002" font-family="Inconsolata" font-size="14.00" fill="#000000">local function cleave(str, pat)</text>
<text text-anchor="middle" x="633" y="-193.2002" font-family="Inconsolata" font-size="14.00" fill="#000000"> &#160;&#160;local at = string.find(str, pat)</text>
<text text-anchor="middle" x="633" y="-177.8002" font-family="Inconsolata" font-size="14.00" fill="#000000"> &#160;&#160;return string.sub(str, 1, at &#45; 1), string.sub(str, at + 1)</text>
<text text-anchor="middle" x="633" y="-162.4001" font-family="Inconsolata" font-size="14.00" fill="#000000">end</text>
<text text-anchor="middle" x="633" y="-131.0001" font-family="Inconsolata" font-size="14.00" fill="#000000">return { spatToLit = spatToLit,</text>
<text text-anchor="middle" x="633" y="-115.6001" font-family="Inconsolata" font-size="14.00" fill="#000000"> &#160;&#160;&#160;&#160;&#160;&#160;&#160;&#160;cleave = cleave}</text>
</g>
<!-- codeblock_4&#45;&gt;leaf_14 -->
<g id="edge14" class="edge">
<title>codeblock_4&#45;&gt;leaf_14</title>
<path fill="none" stroke="#000000" stroke-dasharray="5,2" d="M529.7154,-630.4327C532.3225,-623.3794 535.5911,-614.5362 539.3458,-604.378"/>
<polygon fill="#000000" stroke="#000000" points="542.7415,-605.2861 542.9256,-594.6929 536.1757,-602.8592 542.7415,-605.2861"/>
</g>
<!-- leaf_10 -->
<g id="node11" class="node">
<title>leaf_10</title>
<polygon fill="none" stroke="#c0c0c0" points="130,-71.6012 76,-71.6012 76,.2011 130,.2011 130,-71.6012"/>
<text text-anchor="middle" x="103" y="-8.2" font-family="Inconsolata" font-size="14.00" fill="#000000">All</text>
</g>
<!-- raw_6&#45;&gt;leaf_10 -->
<g id="edge10" class="edge">
<title>raw_6&#45;&gt;leaf_10</title>
<path fill="none" stroke="#000000" stroke-dasharray="5,2" d="M103,-332.6857C103,-284.4304 103,-152.665 103,-81.9728"/>
<polygon fill="#000000" stroke="#000000" points="106.5001,-81.5883 103,-71.5884 99.5001,-81.5884 106.5001,-81.5883"/>
</g>
<!-- leaf_11 -->
<g id="node12" class="node">
<title>leaf_11</title>
<polygon fill="none" stroke="#c0c0c0" points="221,-53.7 167,-53.7 167,-17.7 221,-17.7 221,-53.7"/>
<text text-anchor="middle" x="194" y="-32.2" font-family="Inconsolata" font-size="14.00" fill="#000000"> </text>
</g>
<!-- prespace_7&#45;&gt;leaf_11 -->
<g id="edge11" class="edge">
<title>prespace_7&#45;&gt;leaf_11</title>
<path fill="none" stroke="#000000" stroke-dasharray="5,2" d="M194,-332.6857C194,-280.0064 194,-127.8029 194,-64.1813"/>
<polygon fill="#000000" stroke="#000000" points="197.5001,-64.0653 194,-54.0653 190.5001,-64.0653 197.5001,-64.0653"/>
</g>
<!-- leaf_12 -->
<g id="node13" class="node">
<title>leaf_12</title>
<polygon fill="none" stroke="#c0c0c0" points="305,-53.7 251,-53.7 251,-17.7 305,-17.7 305,-53.7"/>
<text text-anchor="middle" x="278" y="-32.2" font-family="Inconsolata" font-size="14.00" fill="#000000">core</text>
</g>
<!-- literal_8&#45;&gt;leaf_12 -->
<g id="edge12" class="edge">
<title>literal_8&#45;&gt;leaf_12</title>
<path fill="none" stroke="#000000" stroke-dasharray="5,2" d="M289.303,-332.6857C287.298,-280.0064 281.5053,-127.8029 279.084,-64.1813"/>
<polygon fill="#000000" stroke="#000000" points="282.5768,-63.9249 278.699,-54.0653 275.5819,-64.1912 282.5768,-63.9249"/>
</g>
<!-- leaf_13 -->
<g id="node14" class="node">
<title>leaf_13</title>
<polygon fill="none" stroke="#c0c0c0" points="759,-53.7 323,-53.7 323,-17.7 759,-17.7 759,-53.7"/>
<text text-anchor="middle" x="541" y="-32.2" font-family="Inconsolata" font-size="14.00" fill="#000000"> modules are supposed to end up in one consistent namespace.</text>
</g>
<!-- raw_9&#45;&gt;leaf_13 -->
<g id="edge13" class="edge">
<title>raw_9&#45;&gt;leaf_13</title>
<path fill="none" stroke="#000000" stroke-dasharray="5,2" d="M363.4632,-332.7574C358.4315,-289.258 351.6539,-177.8258 402,-107.4 418.1728,-84.777 443.6523,-68.7797 468.4035,-57.7274"/>
<polygon fill="#000000" stroke="#000000" points="469.9921,-60.8555 477.833,-53.7302 467.2601,-54.4107 469.9921,-60.8555"/>
</g>
</g>
</svg>
