<?xml version="1.0" encoding="UTF-8" standalone="no"?>
<!DOCTYPE svg PUBLIC "-//W3C//DTD SVG 1.1//EN"
 "http://www.w3.org/Graphics/SVG/1.1/DTD/svg11.dtd">
<!-- Generated by graphviz version 2.40.1 (20161225.0304)
 -->
<!-- Title: lpegNode Pages: 1 -->
<svg width="767pt" height="726pt"
 viewBox="0.00 0.00 767.00 725.60" xmlns="http://www.w3.org/2000/svg" xmlns:xlink="http://www.w3.org/1999/xlink">
<g id="graph0" class="graph" transform="scale(1 1) rotate(0) translate(4 721.6007)">
<title>lpegNode</title>
<polygon fill="#ffffff" stroke="transparent" points="-4,4 -4,-721.6007 763,-721.6007 763,4 -4,4"/>
<!-- doc_0 -->
<g id="node1" class="node">
<title>doc_0</title>
<ellipse fill="none" stroke="#000000" cx="242" cy="-699.6007" rx="42.1216" ry="18"/>
<text text-anchor="middle" x="242" y="-695.4007" font-family="Helvetica,sans-Serif" font-size="14.00" fill="#000000">doc &#45; 32</text>
</g>
<!-- section_1 -->
<g id="node2" class="node">
<title>section_1</title>
<ellipse fill="none" stroke="#000000" cx="242" cy="-627.6007" rx="60.9826" ry="18"/>
<text text-anchor="middle" x="242" y="-623.4007" font-family="Helvetica,sans-Serif" font-size="14.00" fill="#000000">section: 1&#45;32</text>
</g>
<!-- doc_0&#45;&gt;section_1 -->
<g id="edge1" class="edge">
<title>doc_0&#45;&gt;section_1</title>
<path fill="none" stroke="#000000" stroke-dasharray="5,2" d="M242,-681.4321C242,-673.7317 242,-664.5751 242,-656.0174"/>
<polygon fill="#000000" stroke="#000000" points="245.5001,-656.014 242,-646.014 238.5001,-656.0141 245.5001,-656.014"/>
</g>
<!-- header_2 -->
<g id="node3" class="node">
<title>header_2</title>
<ellipse fill="none" stroke="#000000" cx="114" cy="-555.6007" rx="41.6284" ry="18"/>
<text text-anchor="middle" x="114" y="-551.4007" font-family="Helvetica,sans-Serif" font-size="14.00" fill="#000000">1 : Core</text>
</g>
<!-- section_1&#45;&gt;header_2 -->
<g id="edge2" class="edge">
<title>section_1&#45;&gt;header_2</title>
<path fill="none" stroke="#000000" stroke-dasharray="5,2" d="M213.5927,-611.6216C194.4316,-600.8435 169.0295,-586.5549 148.6758,-575.1059"/>
<polygon fill="#000000" stroke="#000000" points="150.1516,-571.9203 139.7199,-570.0682 146.7197,-578.0214 150.1516,-571.9203"/>
</g>
<!-- prose_3 -->
<g id="node4" class="node">
<title>prose_3</title>
<ellipse fill="none" stroke="#000000" cx="242" cy="-555.6007" rx="32.4585" ry="18"/>
<text text-anchor="middle" x="242" y="-551.4007" font-family="Helvetica,sans-Serif" font-size="14.00" fill="#000000">prose</text>
</g>
<!-- section_1&#45;&gt;prose_3 -->
<g id="edge3" class="edge">
<title>section_1&#45;&gt;prose_3</title>
<path fill="none" stroke="#000000" stroke-dasharray="5,2" d="M242,-609.4321C242,-601.7317 242,-592.5751 242,-584.0174"/>
<polygon fill="#000000" stroke="#000000" points="245.5001,-584.014 242,-574.014 238.5001,-584.0141 245.5001,-584.014"/>
</g>
<!-- codeblock_4 -->
<g id="node5" class="node">
<title>codeblock_4</title>
<ellipse fill="none" stroke="#000000" cx="474" cy="-555.6007" rx="72.5844" ry="18"/>
<text text-anchor="middle" x="474" y="-551.4007" font-family="Helvetica,sans-Serif" font-size="14.00" fill="#000000">code block 6&#45;32</text>
</g>
<!-- section_1&#45;&gt;codeblock_4 -->
<g id="edge4" class="edge">
<title>section_1&#45;&gt;codeblock_4</title>
<path fill="none" stroke="#000000" stroke-dasharray="5,2" d="M284.0134,-614.5621C321.7301,-602.8569 377.3569,-585.5934 418.6821,-572.7684"/>
<polygon fill="#000000" stroke="#000000" points="419.8155,-576.0814 428.3287,-569.7746 417.7406,-569.3959 419.8155,-576.0814"/>
</g>
<!-- leaf_5 -->
<g id="node6" class="node">
<title>leaf_5</title>
<polygon fill="none" stroke="#c0c0c0" points="58,-322.5004 0,-322.5004 0,-286.5004 58,-286.5004 58,-322.5004"/>
<text text-anchor="middle" x="29" y="-301.0004" font-family="Inconsolata" font-size="14.00" fill="#000000">* Core</text>
</g>
<!-- header_2&#45;&gt;leaf_5 -->
<g id="edge5" class="edge">
<title>header_2&#45;&gt;leaf_5</title>
<path fill="none" stroke="#000000" stroke-dasharray="5,2" d="M95.7255,-539.3271C85.7174,-529.4026 73.9674,-515.9026 67,-501.6007 39.8075,-445.7834 32.0591,-372.1922 29.8611,-332.6023"/>
<polygon fill="#000000" stroke="#000000" points="33.3571,-332.4327 29.3858,-322.6103 26.365,-332.7654 33.3571,-332.4327"/>
</g>
<!-- raw_6 -->
<g id="node7" class="node">
<title>raw_6</title>
<ellipse fill="none" stroke="#000000" cx="103" cy="-304.5004" rx="27" ry="18"/>
<text text-anchor="middle" x="103" y="-300.3004" font-family="Helvetica,sans-Serif" font-size="14.00" fill="#000000">raw</text>
</g>
<!-- prose_3&#45;&gt;raw_6 -->
<g id="edge6" class="edge">
<title>prose_3&#45;&gt;raw_6</title>
<path fill="none" stroke="#000000" stroke-dasharray="5,2" d="M212.4035,-547.8857C188.7952,-540.1505 156.8278,-525.833 139,-501.6007 101.8168,-451.0598 99.1599,-373.8862 100.8346,-332.7039"/>
<polygon fill="#000000" stroke="#000000" points="104.3374,-332.74 101.3658,-322.5705 97.347,-332.3735 104.3374,-332.74"/>
</g>
<!-- prespace_7 -->
<g id="node8" class="node">
<title>prespace_7</title>
<ellipse fill="none" stroke="#000000" cx="194" cy="-304.5004" rx="46.4736" ry="18"/>
<text text-anchor="middle" x="194" y="-300.3004" font-family="Helvetica,sans-Serif" font-size="14.00" fill="#000000">prespace</text>
</g>
<!-- prose_3&#45;&gt;prespace_7 -->
<g id="edge7" class="edge">
<title>prose_3&#45;&gt;prespace_7</title>
<path fill="none" stroke="#000000" stroke-dasharray="5,2" d="M238.548,-537.5422C230.2825,-494.3036 209.3069,-384.5747 199.3733,-332.6097"/>
<polygon fill="#000000" stroke="#000000" points="202.8007,-331.8976 197.4853,-322.7327 195.9252,-333.212 202.8007,-331.8976"/>
</g>
<!-- literal_8 -->
<g id="node9" class="node">
<title>literal_8</title>
<ellipse fill="none" stroke="#000000" cx="290" cy="-304.5004" rx="31.481" ry="18"/>
<text text-anchor="middle" x="290" y="-300.3004" font-family="Helvetica,sans-Serif" font-size="14.00" fill="#000000">literal</text>
</g>
<!-- prose_3&#45;&gt;literal_8 -->
<g id="edge8" class="edge">
<title>prose_3&#45;&gt;literal_8</title>
<path fill="none" stroke="#000000" stroke-dasharray="5,2" d="M245.452,-537.5422C253.7376,-494.1984 274.7952,-384.0404 284.699,-332.2314"/>
<polygon fill="#000000" stroke="#000000" points="288.1393,-332.8746 286.5792,-322.3953 281.2638,-331.5602 288.1393,-332.8746"/>
</g>
<!-- raw_9 -->
<g id="node10" class="node">
<title>raw_9</title>
<ellipse fill="none" stroke="#000000" cx="366" cy="-304.5004" rx="27" ry="18"/>
<text text-anchor="middle" x="366" y="-300.3004" font-family="Helvetica,sans-Serif" font-size="14.00" fill="#000000">raw</text>
</g>
<!-- prose_3&#45;&gt;raw_9 -->
<g id="edge9" class="edge">
<title>prose_3&#45;&gt;raw_9</title>
<path fill="none" stroke="#000000" stroke-dasharray="5,2" d="M269.4175,-545.8652C289.3937,-537.3204 315.4142,-522.8964 330,-501.6007 365.3661,-449.9654 368.8026,-373.5519 367.7217,-332.695"/>
<polygon fill="#000000" stroke="#000000" points="371.2169,-332.498 367.3433,-322.6367 364.2219,-332.7613 371.2169,-332.498"/>
</g>
<!-- leaf_14 -->
<g id="node15" class="node">
<title>leaf_14</title>
<polygon fill="none" stroke="#c0c0c0" points="658.5,-501.7012 411.5,-501.7012 411.5,-107.2996 658.5,-107.2996 658.5,-501.7012"/>
<text text-anchor="middle" x="535" y="-486.4007" font-family="Inconsolata" font-size="14.00" fill="#000000">local escape_lua_pattern</text>
<text text-anchor="middle" x="535" y="-471.0007" font-family="Inconsolata" font-size="14.00" fill="#000000">do</text>
<text text-anchor="middle" x="535" y="-455.6007" font-family="Inconsolata" font-size="14.00" fill="#000000"> &#160;local matches =</text>
<text text-anchor="middle" x="535" y="-440.2007" font-family="Inconsolata" font-size="14.00" fill="#000000"> &#160;{</text>
<text text-anchor="middle" x="535" y="-424.8006" font-family="Inconsolata" font-size="14.00" fill="#000000"> &#160;&#160;&#160;[&quot;^&quot;] = &quot;%^&quot;;</text>
<text text-anchor="middle" x="535" y="-409.4006" font-family="Inconsolata" font-size="14.00" fill="#000000"> &#160;&#160;&#160;[&quot;$&quot;] = &quot;%$&quot;;</text>
<text text-anchor="middle" x="535" y="-394.0006" font-family="Inconsolata" font-size="14.00" fill="#000000"> &#160;&#160;&#160;[&quot;(&quot;] = &quot;%(&quot;;</text>
<text text-anchor="middle" x="535" y="-378.6005" font-family="Inconsolata" font-size="14.00" fill="#000000"> &#160;&#160;&#160;[&quot;)&quot;] = &quot;%)&quot;;</text>
<text text-anchor="middle" x="535" y="-363.2005" font-family="Inconsolata" font-size="14.00" fill="#000000"> &#160;&#160;&#160;[&quot;%&quot;] = &quot;%%&quot;;</text>
<text text-anchor="middle" x="535" y="-347.8005" font-family="Inconsolata" font-size="14.00" fill="#000000"> &#160;&#160;&#160;[&quot;.&quot;] = &quot;%.&quot;;</text>
<text text-anchor="middle" x="535" y="-332.4004" font-family="Inconsolata" font-size="14.00" fill="#000000"> &#160;&#160;&#160;[&quot;[&quot;] = &quot;%[&quot;;</text>
<text text-anchor="middle" x="535" y="-317.0004" font-family="Inconsolata" font-size="14.00" fill="#000000"> &#160;&#160;&#160;[&quot;]&quot;] = &quot;%]&quot;;</text>
<text text-anchor="middle" x="535" y="-301.6004" font-family="Inconsolata" font-size="14.00" fill="#000000"> &#160;&#160;&#160;[&quot;*&quot;] = &quot;%*&quot;;</text>
<text text-anchor="middle" x="535" y="-286.2003" font-family="Inconsolata" font-size="14.00" fill="#000000"> &#160;&#160;&#160;[&quot;+&quot;] = &quot;%+&quot;;</text>
<text text-anchor="middle" x="535" y="-270.8003" font-family="Inconsolata" font-size="14.00" fill="#000000"> &#160;&#160;&#160;[&quot;&#45;&quot;] = &quot;%&#45;&quot;;</text>
<text text-anchor="middle" x="535" y="-255.4003" font-family="Inconsolata" font-size="14.00" fill="#000000"> &#160;&#160;&#160;[&quot;?&quot;] = &quot;%?&quot;;</text>
<text text-anchor="middle" x="535" y="-240.0002" font-family="Inconsolata" font-size="14.00" fill="#000000"> &#160;&#160;&#160;[&quot;\0&quot;] = &quot;%z&quot;;</text>
<text text-anchor="middle" x="535" y="-224.6002" font-family="Inconsolata" font-size="14.00" fill="#000000"> &#160;}</text>
<text text-anchor="middle" x="535" y="-193.2002" font-family="Inconsolata" font-size="14.00" fill="#000000"> &#160;spatToLit = function(s)</text>
<text text-anchor="middle" x="535" y="-177.8002" font-family="Inconsolata" font-size="14.00" fill="#000000"> &#160;&#160;&#160;return (s:gsub(&quot;.&quot;, matches))</text>
<text text-anchor="middle" x="535" y="-162.4001" font-family="Inconsolata" font-size="14.00" fill="#000000"> &#160;end</text>
<text text-anchor="middle" x="535" y="-147.0001" font-family="Inconsolata" font-size="14.00" fill="#000000">end</text>
<text text-anchor="middle" x="535" y="-115.6001" font-family="Inconsolata" font-size="14.00" fill="#000000">return { spatToLit = spatToLit}</text>
</g>
<!-- codeblock_4&#45;&gt;leaf_14 -->
<g id="edge14" class="edge">
<title>codeblock_4&#45;&gt;leaf_14</title>
<path fill="none" stroke="#000000" stroke-dasharray="5,2" d="M478.387,-537.5422C480.0949,-530.5118 482.2298,-521.7236 484.662,-511.7117"/>
<polygon fill="#000000" stroke="#000000" points="488.1211,-512.2987 487.0808,-501.7551 481.319,-510.6462 488.1211,-512.2987"/>
</g>
<!-- leaf_10 -->
<g id="node11" class="node">
<title>leaf_10</title>
<polygon fill="none" stroke="#c0c0c0" points="130,-71.6012 76,-71.6012 76,.2011 130,.2011 130,-71.6012"/>
<text text-anchor="middle" x="103" y="-8.2" font-family="Inconsolata" font-size="14.00" fill="#000000">All</text>
</g>
<!-- raw_6&#45;&gt;leaf_10 -->
<g id="edge10" class="edge">
<title>raw_6&#45;&gt;leaf_10</title>
<path fill="none" stroke="#000000" stroke-dasharray="5,2" d="M103,-286.4463C103,-244.9409 103,-141.6807 103,-81.4086"/>
<polygon fill="#000000" stroke="#000000" points="106.5001,-81.4 103,-71.4001 99.5001,-81.4001 106.5001,-81.4"/>
</g>
<!-- leaf_11 -->
<g id="node12" class="node">
<title>leaf_11</title>
<polygon fill="none" stroke="#c0c0c0" points="221,-53.7 167,-53.7 167,-17.7 221,-17.7 221,-53.7"/>
<text text-anchor="middle" x="194" y="-32.2" font-family="Inconsolata" font-size="14.00" fill="#000000"> </text>
</g>
<!-- prespace_7&#45;&gt;leaf_11 -->
<g id="edge11" class="edge">
<title>prespace_7&#45;&gt;leaf_11</title>
<path fill="none" stroke="#000000" stroke-dasharray="5,2" d="M194,-286.4463C194,-240.649 194,-119.6651 194,-64.206"/>
<polygon fill="#000000" stroke="#000000" points="197.5001,-64.0295 194,-54.0295 190.5001,-64.0296 197.5001,-64.0295"/>
</g>
<!-- leaf_12 -->
<g id="node13" class="node">
<title>leaf_12</title>
<polygon fill="none" stroke="#c0c0c0" points="305,-53.7 251,-53.7 251,-17.7 305,-17.7 305,-53.7"/>
<text text-anchor="middle" x="278" y="-32.2" font-family="Inconsolata" font-size="14.00" fill="#000000">core</text>
</g>
<!-- literal_8&#45;&gt;leaf_12 -->
<g id="edge12" class="edge">
<title>literal_8&#45;&gt;leaf_12</title>
<path fill="none" stroke="#000000" stroke-dasharray="5,2" d="M289.194,-286.4463C287.1495,-240.649 281.7484,-119.6651 279.2726,-64.206"/>
<polygon fill="#000000" stroke="#000000" points="282.7609,-63.8635 278.8183,-54.0295 275.7678,-64.1757 282.7609,-63.8635"/>
</g>
<!-- leaf_13 -->
<g id="node14" class="node">
<title>leaf_13</title>
<polygon fill="none" stroke="#c0c0c0" points="759,-53.7 323,-53.7 323,-17.7 759,-17.7 759,-53.7"/>
<text text-anchor="middle" x="541" y="-32.2" font-family="Inconsolata" font-size="14.00" fill="#000000"> modules are supposed to end up in one consistent namespace.</text>
</g>
<!-- raw_9&#45;&gt;leaf_13 -->
<g id="edge13" class="edge">
<title>raw_9&#45;&gt;leaf_13</title>
<path fill="none" stroke="#000000" stroke-dasharray="5,2" d="M364.3362,-286.4084C361.8758,-249.0572 361.3113,-162.3225 402,-107.4 418.6976,-84.8612 444.5532,-68.8373 469.4569,-57.7404"/>
<polygon fill="#000000" stroke="#000000" points="471.0915,-60.8491 478.9338,-53.7253 468.3607,-54.4037 471.0915,-60.8491"/>
</g>
</g>
</svg>
