<?xml version="1.0" encoding="UTF-8" standalone="no"?>
<!DOCTYPE svg PUBLIC "-//W3C//DTD SVG 1.1//EN"
 "http://www.w3.org/Graphics/SVG/1.1/DTD/svg11.dtd">
<!-- Generated by graphviz version 2.40.1 (20161225.0304)
 -->
<!-- Title: lpegNode Pages: 1 -->
<svg width="862pt" height="442pt"
 viewBox="0.00 0.00 861.65 442.20" xmlns="http://www.w3.org/2000/svg" xmlns:xlink="http://www.w3.org/1999/xlink">
<g id="graph0" class="graph" transform="scale(1 1) rotate(0) translate(4 438.2001)">
<title>lpegNode</title>
<polygon fill="#ffffff" stroke="transparent" points="-4,4 -4,-438.2001 857.6545,-438.2001 857.6545,4 -4,4"/>
<!-- doc_0 -->
<g id="node1" class="node">
<title>doc_0</title>
<ellipse fill="none" stroke="#000000" cx="182.6545" cy="-416.2001" rx="42.1216" ry="18"/>
<text text-anchor="middle" x="182.6545" y="-412.0001" font-family="Helvetica,sans-Serif" font-size="14.00" fill="#000000">doc &#45; 17</text>
</g>
<!-- section_1 -->
<g id="node2" class="node">
<title>section_1</title>
<ellipse fill="none" stroke="#000000" cx="182.6545" cy="-344.2001" rx="55.6456" ry="18"/>
<text text-anchor="middle" x="182.6545" y="-340.0001" font-family="Helvetica,sans-Serif" font-size="14.00" fill="#000000">section: 1&#45;8</text>
</g>
<!-- doc_0&#45;&gt;section_1 -->
<g id="edge1" class="edge">
<title>doc_0&#45;&gt;section_1</title>
<path fill="none" stroke="#000000" stroke-dasharray="5,2" d="M182.6545,-398.0315C182.6545,-390.331 182.6545,-381.1744 182.6545,-372.6167"/>
<polygon fill="#000000" stroke="#000000" points="186.1546,-372.6133 182.6545,-362.6134 179.1546,-372.6134 186.1546,-372.6133"/>
</g>
<!-- header_2 -->
<g id="node3" class="node">
<title>header_2</title>
<ellipse fill="none" stroke="#000000" cx="36.6545" cy="-272.2001" rx="36.8096" ry="18"/>
<text text-anchor="middle" x="36.6545" y="-268.0001" font-family="Helvetica,sans-Serif" font-size="14.00" fill="#000000">1 : Lex</text>
</g>
<!-- section_1&#45;&gt;header_2 -->
<g id="edge2" class="edge">
<title>section_1&#45;&gt;header_2</title>
<path fill="none" stroke="#000000" stroke-dasharray="5,2" d="M152.0481,-329.1065C128.7216,-317.603 96.5572,-301.7412 72.1108,-289.6854"/>
<polygon fill="#000000" stroke="#000000" points="73.3389,-286.3886 62.8222,-285.1047 70.2429,-292.6667 73.3389,-286.3886"/>
</g>
<!-- prose_3 -->
<g id="node4" class="node">
<title>prose_3</title>
<ellipse fill="none" stroke="#000000" cx="123.6545" cy="-272.2001" rx="32.4585" ry="18"/>
<text text-anchor="middle" x="123.6545" y="-268.0001" font-family="Helvetica,sans-Serif" font-size="14.00" fill="#000000">prose</text>
</g>
<!-- section_1&#45;&gt;prose_3 -->
<g id="edge3" class="edge">
<title>section_1&#45;&gt;prose_3</title>
<path fill="none" stroke="#000000" stroke-dasharray="5,2" d="M168.3722,-326.7709C161.0186,-317.7969 151.9276,-306.7029 143.8669,-296.8661"/>
<polygon fill="#000000" stroke="#000000" points="146.4444,-294.4894 137.399,-288.973 141.03,-298.9262 146.4444,-294.4894"/>
</g>
<!-- codeblock_4 -->
<g id="node5" class="node">
<title>codeblock_4</title>
<ellipse fill="none" stroke="#000000" cx="241.6545" cy="-272.2001" rx="67.748" ry="18"/>
<text text-anchor="middle" x="241.6545" y="-268.0001" font-family="Helvetica,sans-Serif" font-size="14.00" fill="#000000">code block 3&#45;6</text>
</g>
<!-- section_1&#45;&gt;codeblock_4 -->
<g id="edge4" class="edge">
<title>section_1&#45;&gt;codeblock_4</title>
<path fill="none" stroke="#000000" stroke-dasharray="5,2" d="M196.9367,-326.7709C204.0773,-318.0571 212.8558,-307.3442 220.7386,-297.7245"/>
<polygon fill="#000000" stroke="#000000" points="223.4628,-299.9222 227.0939,-289.969 218.0484,-295.4854 223.4628,-299.9222"/>
</g>
<!-- section_5 -->
<g id="node6" class="node">
<title>section_5</title>
<ellipse fill="none" stroke="#000000" cx="513.6545" cy="-272.2001" rx="60.9826" ry="18"/>
<text text-anchor="middle" x="513.6545" y="-268.0001" font-family="Helvetica,sans-Serif" font-size="14.00" fill="#000000">section: 9&#45;17</text>
</g>
<!-- section_1&#45;&gt;section_5 -->
<g id="edge5" class="edge">
<title>section_1&#45;&gt;section_5</title>
<path fill="none" stroke="#000000" stroke-dasharray="5,2" d="M229.0271,-334.113C288.053,-321.2735 390.0857,-299.0791 454.6109,-285.0434"/>
<polygon fill="#000000" stroke="#000000" points="455.6048,-288.4091 464.6324,-282.8635 454.1169,-281.5691 455.6048,-288.4091"/>
</g>
<!-- leaf_6 -->
<g id="node7" class="node">
<title>leaf_6</title>
<polygon fill="none" stroke="#c0c0c0" points="63.6545,-218.2001 9.6545,-218.2001 9.6545,-182.2001 63.6545,-182.2001 63.6545,-218.2001"/>
<text text-anchor="middle" x="36.6545" y="-196.7001" font-family="Inconsolata" font-size="14.00" fill="#000000">* Lex</text>
</g>
<!-- header_2&#45;&gt;leaf_6 -->
<g id="edge6" class="edge">
<title>header_2&#45;&gt;leaf_6</title>
<path fill="none" stroke="#000000" stroke-dasharray="5,2" d="M36.6545,-254.0315C36.6545,-246.331 36.6545,-237.1744 36.6545,-228.6167"/>
<polygon fill="#000000" stroke="#000000" points="40.1546,-228.6133 36.6545,-218.6134 33.1546,-228.6134 40.1546,-228.6133"/>
</g>
<!-- raw_7 -->
<g id="node8" class="node">
<title>raw_7</title>
<ellipse fill="none" stroke="#000000" cx="121.6545" cy="-200.2001" rx="27" ry="18"/>
<text text-anchor="middle" x="121.6545" y="-196.0001" font-family="Helvetica,sans-Serif" font-size="14.00" fill="#000000">raw</text>
</g>
<!-- prose_3&#45;&gt;raw_7 -->
<g id="edge7" class="edge">
<title>prose_3&#45;&gt;raw_7</title>
<path fill="none" stroke="#000000" stroke-dasharray="5,2" d="M123.1498,-254.0315C122.9359,-246.331 122.6816,-237.1744 122.4438,-228.6167"/>
<polygon fill="#000000" stroke="#000000" points="125.9424,-228.5123 122.166,-218.6134 118.9451,-228.7067 125.9424,-228.5123"/>
</g>
<!-- leaf_9 -->
<g id="node10" class="node">
<title>leaf_9</title>
<polygon fill="none" stroke="#c0c0c0" points="316.1545,-218.2001 167.1545,-218.2001 167.1545,-182.2001 316.1545,-182.2001 316.1545,-218.2001"/>
<text text-anchor="middle" x="241.6545" y="-196.7001" font-family="Inconsolata" font-size="14.00" fill="#000000">local Lex = meta {}</text>
</g>
<!-- codeblock_4&#45;&gt;leaf_9 -->
<g id="edge9" class="edge">
<title>codeblock_4&#45;&gt;leaf_9</title>
<path fill="none" stroke="#000000" stroke-dasharray="5,2" d="M241.6545,-254.0315C241.6545,-246.331 241.6545,-237.1744 241.6545,-228.6167"/>
<polygon fill="#000000" stroke="#000000" points="245.1546,-228.6133 241.6545,-218.6134 238.1546,-228.6134 245.1546,-228.6133"/>
</g>
<!-- header_10 -->
<g id="node11" class="node">
<title>header_10</title>
<ellipse fill="none" stroke="#000000" cx="437.6545" cy="-200.2001" rx="103.0387" ry="18"/>
<text text-anchor="middle" x="437.6545" y="-196.0001" font-family="Helvetica,sans-Serif" font-size="14.00" fill="#000000">2 : Lex.lua_thor(linebuf)</text>
</g>
<!-- section_5&#45;&gt;header_10 -->
<g id="edge10" class="edge">
<title>section_5&#45;&gt;header_10</title>
<path fill="none" stroke="#000000" stroke-dasharray="5,2" d="M495.257,-254.7709C485.7831,-245.7956 474.0707,-234.6997 463.6863,-224.8618"/>
<polygon fill="#000000" stroke="#000000" points="466.0772,-222.3056 456.4105,-217.969 461.263,-227.3873 466.0772,-222.3056"/>
</g>
<!-- prose_11 -->
<g id="node12" class="node">
<title>prose_11</title>
<ellipse fill="none" stroke="#000000" cx="590.6545" cy="-200.2001" rx="32.4585" ry="18"/>
<text text-anchor="middle" x="590.6545" y="-196.0001" font-family="Helvetica,sans-Serif" font-size="14.00" fill="#000000">prose</text>
</g>
<!-- section_5&#45;&gt;prose_11 -->
<g id="edge11" class="edge">
<title>section_5&#45;&gt;prose_11</title>
<path fill="none" stroke="#000000" stroke-dasharray="5,2" d="M532.294,-254.7709C542.6367,-245.0998 555.6127,-232.9665 566.7012,-222.598"/>
<polygon fill="#000000" stroke="#000000" points="569.1069,-225.1402 574.0207,-215.7538 564.326,-220.0272 569.1069,-225.1402"/>
</g>
<!-- codeblock_12 -->
<g id="node13" class="node">
<title>codeblock_12</title>
<ellipse fill="none" stroke="#000000" cx="729.6545" cy="-200.2001" rx="77.4211" ry="18"/>
<text text-anchor="middle" x="729.6545" y="-196.0001" font-family="Helvetica,sans-Serif" font-size="14.00" fill="#000000">code block 13&#45;17</text>
</g>
<!-- section_5&#45;&gt;codeblock_12 -->
<g id="edge12" class="edge">
<title>section_5&#45;&gt;codeblock_12</title>
<path fill="none" stroke="#000000" stroke-dasharray="5,2" d="M554.0291,-258.7419C588.2163,-247.3461 637.5312,-230.9078 675.2061,-218.3496"/>
<polygon fill="#000000" stroke="#000000" points="676.6282,-221.5649 685.0082,-215.0822 674.4145,-214.9242 676.6282,-221.5649"/>
</g>
<!-- leaf_8 -->
<g id="node9" class="node">
<title>leaf_8</title>
<polygon fill="none" stroke="#c0c0c0" points="148.6545,-136.8001 94.6545,-136.8001 94.6545,-100.8001 148.6545,-100.8001 148.6545,-136.8001"/>
</g>
<!-- raw_7&#45;&gt;leaf_8 -->
<g id="edge8" class="edge">
<title>raw_7&#45;&gt;leaf_8</title>
<path fill="none" stroke="#000000" stroke-dasharray="5,2" d="M121.6545,-182.1348C121.6545,-171.807 121.6545,-158.628 121.6545,-146.9692"/>
<polygon fill="#000000" stroke="#000000" points="125.1546,-146.8148 121.6545,-136.8149 118.1546,-146.8149 125.1546,-146.8148"/>
</g>
<!-- leaf_13 -->
<g id="node14" class="node">
<title>leaf_13</title>
<polygon fill="none" stroke="#c0c0c0" points="529.6545,-136.8001 345.6545,-136.8001 345.6545,-100.8001 529.6545,-100.8001 529.6545,-136.8001"/>
<text text-anchor="middle" x="437.6545" y="-115.3001" font-family="Inconsolata" font-size="14.00" fill="#000000">** Lex.lua_thor(linebuf)</text>
</g>
<!-- header_10&#45;&gt;leaf_13 -->
<g id="edge13" class="edge">
<title>header_10&#45;&gt;leaf_13</title>
<path fill="none" stroke="#000000" stroke-dasharray="5,2" d="M437.6545,-182.1348C437.6545,-171.807 437.6545,-158.628 437.6545,-146.9692"/>
<polygon fill="#000000" stroke="#000000" points="441.1546,-146.8148 437.6545,-136.8149 434.1546,-146.8149 441.1546,-146.8148"/>
</g>
<!-- raw_14 -->
<g id="node15" class="node">
<title>raw_14</title>
<ellipse fill="none" stroke="#000000" cx="582.6545" cy="-118.8001" rx="27" ry="18"/>
<text text-anchor="middle" x="582.6545" y="-114.6001" font-family="Helvetica,sans-Serif" font-size="14.00" fill="#000000">raw</text>
</g>
<!-- prose_11&#45;&gt;raw_14 -->
<g id="edge14" class="edge">
<title>prose_11&#45;&gt;raw_14</title>
<path fill="none" stroke="#000000" stroke-dasharray="5,2" d="M588.879,-182.1348C587.864,-171.807 586.5688,-158.628 585.423,-146.9692"/>
<polygon fill="#000000" stroke="#000000" points="588.8864,-146.4246 584.425,-136.8149 581.9199,-147.1093 588.8864,-146.4246"/>
</g>
<!-- leaf_16 -->
<g id="node17" class="node">
<title>leaf_16</title>
<polygon fill="none" stroke="#c0c0c0" points="853.6545,-146.1005 627.6545,-146.1005 627.6545,-91.4996 853.6545,-91.4996 853.6545,-146.1005"/>
<text text-anchor="middle" x="740.6545" y="-131.0001" font-family="Inconsolata" font-size="14.00" fill="#000000">function Lex.lua_thor(linebuf)</text>
<text text-anchor="middle" x="740.6545" y="-99.6001" font-family="Inconsolata" font-size="14.00" fill="#000000">end</text>
</g>
<!-- codeblock_12&#45;&gt;leaf_16 -->
<g id="edge16" class="edge">
<title>codeblock_12&#45;&gt;leaf_16</title>
<path fill="none" stroke="#000000" stroke-dasharray="5,2" d="M732.0957,-182.1348C733.1259,-174.5119 734.3659,-165.3357 735.5783,-156.364"/>
<polygon fill="#000000" stroke="#000000" points="739.0519,-156.7938 736.9227,-146.4152 732.115,-155.8564 739.0519,-156.7938"/>
</g>
<!-- leaf_15 -->
<g id="node16" class="node">
<title>leaf_15</title>
<polygon fill="none" stroke="#c0c0c0" points="636.1545,-55.6015 529.1545,-55.6015 529.1545,.2015 636.1545,.2015 636.1545,-55.6015"/>
<text text-anchor="middle" x="582.6545" y="-8.2" font-family="Inconsolata" font-size="14.00" fill="#000000">...it&#39;s late.</text>
</g>
<!-- raw_14&#45;&gt;leaf_15 -->
<g id="edge15" class="edge">
<title>raw_14&#45;&gt;leaf_15</title>
<path fill="none" stroke="#000000" stroke-dasharray="5,2" d="M582.6545,-100.3646C582.6545,-90.392 582.6545,-77.693 582.6545,-65.7101"/>
<polygon fill="#000000" stroke="#000000" points="586.1546,-65.4505 582.6545,-55.4505 579.1546,-65.4506 586.1546,-65.4505"/>
</g>
</g>
</svg>
