<?xml version="1.0" encoding="UTF-8" standalone="no"?>
<!DOCTYPE svg PUBLIC "-//W3C//DTD SVG 1.1//EN"
 "http://www.w3.org/Graphics/SVG/1.1/DTD/svg11.dtd">
<!-- Generated by graphviz version 2.40.1 (20161225.0304)
 -->
<!-- Title: lpegNode Pages: 1 -->
<svg width="3760pt" height="366pt"
 viewBox="0.00 0.00 3759.50 366.20" xmlns="http://www.w3.org/2000/svg" xmlns:xlink="http://www.w3.org/1999/xlink">
<g id="graph0" class="graph" transform="scale(1 1) rotate(0) translate(4 362.2001)">
<title>lpegNode</title>
<polygon fill="#ffffff" stroke="transparent" points="-4,4 -4,-362.2001 3755.5,-362.2001 3755.5,4 -4,4"/>
<!-- doc_0 -->
<g id="node1" class="node">
<title>doc_0</title>
<ellipse fill="none" stroke="#000000" cx="1598.5" cy="-340.2001" rx="42.1216" ry="18"/>
<text text-anchor="middle" x="1598.5" y="-336.0001" font-family="Helvetica,sans-Serif" font-size="14.00" fill="#000000">doc &#45; 26</text>
</g>
<!-- section_1 -->
<g id="node2" class="node">
<title>section_1</title>
<ellipse fill="none" stroke="#000000" cx="1598.5" cy="-268.2001" rx="60.9826" ry="18"/>
<text text-anchor="middle" x="1598.5" y="-264.0001" font-family="Helvetica,sans-Serif" font-size="14.00" fill="#000000">section: 1&#45;26</text>
</g>
<!-- doc_0&#45;&gt;section_1 -->
<g id="edge1" class="edge">
<title>doc_0&#45;&gt;section_1</title>
<path fill="none" stroke="#000000" stroke-dasharray="5,2" d="M1598.5,-322.0315C1598.5,-314.331 1598.5,-305.1744 1598.5,-296.6167"/>
<polygon fill="#000000" stroke="#000000" points="1602.0001,-296.6133 1598.5,-286.6134 1595.0001,-296.6134 1602.0001,-296.6133"/>
</g>
<!-- header_2 -->
<g id="node3" class="node">
<title>header_2</title>
<ellipse fill="none" stroke="#000000" cx="1018.5" cy="-196.2001" rx="242.3497" ry="18"/>
<text text-anchor="middle" x="1018.5" y="-192.0001" font-family="Helvetica,sans-Serif" font-size="14.00" fill="#000000">1 : Out of Order: System Design in the Weird Hardware Era</text>
</g>
<!-- section_1&#45;&gt;header_2 -->
<g id="edge2" class="edge">
<title>section_1&#45;&gt;header_2</title>
<path fill="none" stroke="#000000" stroke-dasharray="5,2" d="M1542.3602,-261.231C1453.1828,-250.1607 1276.6444,-228.2456 1153.263,-212.9293"/>
<polygon fill="#000000" stroke="#000000" points="1153.3415,-209.4123 1142.9864,-211.6536 1152.4791,-216.3589 1153.3415,-209.4123"/>
</g>
<!-- prose_3 -->
<g id="node4" class="node">
<title>prose_3</title>
<ellipse fill="none" stroke="#000000" cx="1311.5" cy="-196.2001" rx="32.4585" ry="18"/>
<text text-anchor="middle" x="1311.5" y="-192.0001" font-family="Helvetica,sans-Serif" font-size="14.00" fill="#000000">prose</text>
</g>
<!-- section_1&#45;&gt;prose_3 -->
<g id="edge3" class="edge">
<title>section_1&#45;&gt;prose_3</title>
<path fill="none" stroke="#000000" stroke-dasharray="5,2" d="M1544.905,-259.5887C1494.519,-250.7568 1417.3574,-235.3258 1352.5,-214.2001 1350.2548,-213.4688 1347.9652,-212.6576 1345.6733,-211.7958"/>
<polygon fill="#000000" stroke="#000000" points="1346.9305,-208.529 1336.3468,-208.0429 1344.3174,-215.023 1346.9305,-208.529"/>
</g>
<!-- prose_4 -->
<g id="node5" class="node">
<title>prose_4</title>
<ellipse fill="none" stroke="#000000" cx="1393.5" cy="-196.2001" rx="32.4585" ry="18"/>
<text text-anchor="middle" x="1393.5" y="-192.0001" font-family="Helvetica,sans-Serif" font-size="14.00" fill="#000000">prose</text>
</g>
<!-- section_1&#45;&gt;prose_4 -->
<g id="edge4" class="edge">
<title>section_1&#45;&gt;prose_4</title>
<path fill="none" stroke="#000000" stroke-dasharray="5,2" d="M1555.632,-255.3183C1522.3113,-245.0097 1475.088,-229.751 1434.5,-214.2001 1432.295,-213.3553 1430.0361,-212.4575 1427.767,-211.5313"/>
<polygon fill="#000000" stroke="#000000" points="1429.069,-208.2819 1418.4945,-207.626 1426.3519,-214.7331 1429.069,-208.2819"/>
</g>
<!-- prose_5 -->
<g id="node6" class="node">
<title>prose_5</title>
<ellipse fill="none" stroke="#000000" cx="1475.5" cy="-196.2001" rx="32.4585" ry="18"/>
<text text-anchor="middle" x="1475.5" y="-192.0001" font-family="Helvetica,sans-Serif" font-size="14.00" fill="#000000">prose</text>
</g>
<!-- section_1&#45;&gt;prose_5 -->
<g id="edge5" class="edge">
<title>section_1&#45;&gt;prose_5</title>
<path fill="none" stroke="#000000" stroke-dasharray="5,2" d="M1570.8964,-252.0419C1551.8555,-240.896 1526.5105,-226.0599 1506.7307,-214.4815"/>
<polygon fill="#000000" stroke="#000000" points="1508.4752,-211.4471 1498.0769,-209.4158 1504.9389,-217.4882 1508.4752,-211.4471"/>
</g>
<!-- prose_6 -->
<g id="node7" class="node">
<title>prose_6</title>
<ellipse fill="none" stroke="#000000" cx="1557.5" cy="-196.2001" rx="32.4585" ry="18"/>
<text text-anchor="middle" x="1557.5" y="-192.0001" font-family="Helvetica,sans-Serif" font-size="14.00" fill="#000000">prose</text>
</g>
<!-- section_1&#45;&gt;prose_6 -->
<g id="edge6" class="edge">
<title>section_1&#45;&gt;prose_6</title>
<path fill="none" stroke="#000000" stroke-dasharray="5,2" d="M1588.3652,-250.4023C1583.5632,-241.9696 1577.7315,-231.7286 1572.4358,-222.4289"/>
<polygon fill="#000000" stroke="#000000" points="1575.3667,-220.5026 1567.3768,-213.5447 1569.2838,-223.9665 1575.3667,-220.5026"/>
</g>
<!-- prose_7 -->
<g id="node8" class="node">
<title>prose_7</title>
<ellipse fill="none" stroke="#000000" cx="1639.5" cy="-196.2001" rx="32.4585" ry="18"/>
<text text-anchor="middle" x="1639.5" y="-192.0001" font-family="Helvetica,sans-Serif" font-size="14.00" fill="#000000">prose</text>
</g>
<!-- section_1&#45;&gt;prose_7 -->
<g id="edge7" class="edge">
<title>section_1&#45;&gt;prose_7</title>
<path fill="none" stroke="#000000" stroke-dasharray="5,2" d="M1608.6348,-250.4023C1613.4368,-241.9696 1619.2685,-231.7286 1624.5642,-222.4289"/>
<polygon fill="#000000" stroke="#000000" points="1627.7162,-223.9665 1629.6232,-213.5447 1621.6333,-220.5026 1627.7162,-223.9665"/>
</g>
<!-- prose_8 -->
<g id="node9" class="node">
<title>prose_8</title>
<ellipse fill="none" stroke="#000000" cx="1785.5" cy="-196.2001" rx="32.4585" ry="18"/>
<text text-anchor="middle" x="1785.5" y="-192.0001" font-family="Helvetica,sans-Serif" font-size="14.00" fill="#000000">prose</text>
</g>
<!-- section_1&#45;&gt;prose_8 -->
<g id="edge8" class="edge">
<title>section_1&#45;&gt;prose_8</title>
<path fill="none" stroke="#000000" stroke-dasharray="5,2" d="M1635.8928,-253.8029C1668.8308,-241.1209 1716.5102,-222.763 1749.1364,-210.2011"/>
<polygon fill="#000000" stroke="#000000" points="1750.671,-213.3607 1758.7455,-206.5013 1748.1557,-206.8282 1750.671,-213.3607"/>
</g>
<!-- prose_9 -->
<g id="node10" class="node">
<title>prose_9</title>
<ellipse fill="none" stroke="#000000" cx="1995.5" cy="-196.2001" rx="32.4585" ry="18"/>
<text text-anchor="middle" x="1995.5" y="-192.0001" font-family="Helvetica,sans-Serif" font-size="14.00" fill="#000000">prose</text>
</g>
<!-- section_1&#45;&gt;prose_9 -->
<g id="edge9" class="edge">
<title>section_1&#45;&gt;prose_9</title>
<path fill="none" stroke="#000000" stroke-dasharray="5,2" d="M1650.4008,-258.7874C1730.3312,-244.2912 1881.9146,-216.8 1954.6101,-203.6159"/>
<polygon fill="#000000" stroke="#000000" points="1955.5304,-207.0062 1964.7453,-201.7778 1954.2812,-200.1185 1955.5304,-207.0062"/>
</g>
<!-- prose_10 -->
<g id="node11" class="node">
<title>prose_10</title>
<ellipse fill="none" stroke="#000000" cx="2306.5" cy="-196.2001" rx="32.4585" ry="18"/>
<text text-anchor="middle" x="2306.5" y="-192.0001" font-family="Helvetica,sans-Serif" font-size="14.00" fill="#000000">prose</text>
</g>
<!-- section_1&#45;&gt;prose_10 -->
<g id="edge10" class="edge">
<title>section_1&#45;&gt;prose_10</title>
<path fill="none" stroke="#000000" stroke-dasharray="5,2" d="M1656.1384,-262.3386C1794.7075,-248.2468 2143.9613,-212.7295 2264.6816,-200.4528"/>
<polygon fill="#000000" stroke="#000000" points="2265.0493,-203.9336 2274.6438,-199.4397 2264.341,-196.9695 2265.0493,-203.9336"/>
</g>
<!-- prose_11 -->
<g id="node12" class="node">
<title>prose_11</title>
<ellipse fill="none" stroke="#000000" cx="3472.5" cy="-196.2001" rx="32.4585" ry="18"/>
<text text-anchor="middle" x="3472.5" y="-192.0001" font-family="Helvetica,sans-Serif" font-size="14.00" fill="#000000">prose</text>
</g>
<!-- section_1&#45;&gt;prose_11 -->
<g id="edge11" class="edge">
<title>section_1&#45;&gt;prose_11</title>
<path fill="none" stroke="#000000" stroke-dasharray="5,2" d="M1658.9923,-265.8759C1947.9297,-254.7748 3183.6523,-207.2978 3429.7669,-197.8419"/>
<polygon fill="#000000" stroke="#000000" points="3430.2226,-201.3271 3440.0808,-197.4457 3429.9537,-194.3323 3430.2226,-201.3271"/>
</g>
<!-- leaf_12 -->
<g id="node13" class="node">
<title>leaf_12</title>
<polygon fill="none" stroke="#c0c0c0" points="1219,-142.2001 818,-142.2001 818,-106.2001 1219,-106.2001 1219,-142.2001"/>
<text text-anchor="middle" x="1018.5" y="-120.7001" font-family="Inconsolata" font-size="14.00" fill="#000000">* Out of Order: System Design in the Weird Hardware Era</text>
</g>
<!-- header_2&#45;&gt;leaf_12 -->
<g id="edge12" class="edge">
<title>header_2&#45;&gt;leaf_12</title>
<path fill="none" stroke="#000000" stroke-dasharray="5,2" d="M1018.5,-178.0315C1018.5,-170.331 1018.5,-161.1744 1018.5,-152.6167"/>
<polygon fill="#000000" stroke="#000000" points="1022.0001,-152.6133 1018.5,-142.6134 1015.0001,-152.6134 1022.0001,-152.6133"/>
</g>
<!-- raw_13 -->
<g id="node14" class="node">
<title>raw_13</title>
<ellipse fill="none" stroke="#000000" cx="1278.5" cy="-124.2001" rx="27" ry="18"/>
<text text-anchor="middle" x="1278.5" y="-120.0001" font-family="Helvetica,sans-Serif" font-size="14.00" fill="#000000">raw</text>
</g>
<!-- prose_3&#45;&gt;raw_13 -->
<g id="edge13" class="edge">
<title>prose_3&#45;&gt;raw_13</title>
<path fill="none" stroke="#000000" stroke-dasharray="5,2" d="M1303.3427,-178.4023C1299.518,-170.0575 1294.8816,-159.9418 1290.6549,-150.7198"/>
<polygon fill="#000000" stroke="#000000" points="1293.7979,-149.177 1286.4496,-141.5447 1287.4345,-152.0936 1293.7979,-149.177"/>
</g>
<!-- raw_15 -->
<g id="node16" class="node">
<title>raw_15</title>
<ellipse fill="none" stroke="#000000" cx="1378.5" cy="-124.2001" rx="27" ry="18"/>
<text text-anchor="middle" x="1378.5" y="-120.0001" font-family="Helvetica,sans-Serif" font-size="14.00" fill="#000000">raw</text>
</g>
<!-- prose_4&#45;&gt;raw_15 -->
<g id="edge15" class="edge">
<title>prose_4&#45;&gt;raw_15</title>
<path fill="none" stroke="#000000" stroke-dasharray="5,2" d="M1389.7149,-178.0315C1388.068,-170.1267 1386.1015,-160.6873 1384.2784,-151.9366"/>
<polygon fill="#000000" stroke="#000000" points="1387.698,-151.1894 1382.232,-142.1135 1380.8452,-152.6172 1387.698,-151.1894"/>
</g>
<!-- raw_17 -->
<g id="node18" class="node">
<title>raw_17</title>
<ellipse fill="none" stroke="#000000" cx="1462.5" cy="-124.2001" rx="27" ry="18"/>
<text text-anchor="middle" x="1462.5" y="-120.0001" font-family="Helvetica,sans-Serif" font-size="14.00" fill="#000000">raw</text>
</g>
<!-- prose_5&#45;&gt;raw_17 -->
<g id="edge17" class="edge">
<title>prose_5&#45;&gt;raw_17</title>
<path fill="none" stroke="#000000" stroke-dasharray="5,2" d="M1472.2196,-178.0315C1470.8078,-170.2126 1469.125,-160.8924 1467.5595,-152.2222"/>
<polygon fill="#000000" stroke="#000000" points="1470.9556,-151.3325 1465.7344,-142.1135 1464.067,-152.5763 1470.9556,-151.3325"/>
</g>
<!-- raw_19 -->
<g id="node20" class="node">
<title>raw_19</title>
<ellipse fill="none" stroke="#000000" cx="1545.5" cy="-124.2001" rx="27" ry="18"/>
<text text-anchor="middle" x="1545.5" y="-120.0001" font-family="Helvetica,sans-Serif" font-size="14.00" fill="#000000">raw</text>
</g>
<!-- prose_6&#45;&gt;raw_19 -->
<g id="edge19" class="edge">
<title>prose_6&#45;&gt;raw_19</title>
<path fill="none" stroke="#000000" stroke-dasharray="5,2" d="M1554.4719,-178.0315C1553.1687,-170.2126 1551.6154,-160.8924 1550.1703,-152.2222"/>
<polygon fill="#000000" stroke="#000000" points="1553.582,-151.402 1548.4856,-142.1135 1546.6773,-152.5529 1553.582,-151.402"/>
</g>
<!-- raw_21 -->
<g id="node22" class="node">
<title>raw_21</title>
<ellipse fill="none" stroke="#000000" cx="1639.5" cy="-124.2001" rx="27" ry="18"/>
<text text-anchor="middle" x="1639.5" y="-120.0001" font-family="Helvetica,sans-Serif" font-size="14.00" fill="#000000">raw</text>
</g>
<!-- prose_7&#45;&gt;raw_21 -->
<g id="edge21" class="edge">
<title>prose_7&#45;&gt;raw_21</title>
<path fill="none" stroke="#000000" stroke-dasharray="5,2" d="M1639.5,-178.0315C1639.5,-170.331 1639.5,-161.1744 1639.5,-152.6167"/>
<polygon fill="#000000" stroke="#000000" points="1643.0001,-152.6133 1639.5,-142.6134 1636.0001,-152.6134 1643.0001,-152.6133"/>
</g>
<!-- raw_23 -->
<g id="node24" class="node">
<title>raw_23</title>
<ellipse fill="none" stroke="#000000" cx="1848.5" cy="-124.2001" rx="27" ry="18"/>
<text text-anchor="middle" x="1848.5" y="-120.0001" font-family="Helvetica,sans-Serif" font-size="14.00" fill="#000000">raw</text>
</g>
<!-- prose_8&#45;&gt;raw_23 -->
<g id="edge23" class="edge">
<title>prose_8&#45;&gt;raw_23</title>
<path fill="none" stroke="#000000" stroke-dasharray="5,2" d="M1799.7957,-179.8622C1808.1274,-170.3402 1818.7756,-158.1708 1827.9896,-147.6406"/>
<polygon fill="#000000" stroke="#000000" points="1830.7428,-149.8091 1834.6939,-139.9785 1825.4748,-145.1996 1830.7428,-149.8091"/>
</g>
<!-- raw_25 -->
<g id="node26" class="node">
<title>raw_25</title>
<ellipse fill="none" stroke="#000000" cx="2123.5" cy="-124.2001" rx="27" ry="18"/>
<text text-anchor="middle" x="2123.5" y="-120.0001" font-family="Helvetica,sans-Serif" font-size="14.00" fill="#000000">raw</text>
</g>
<!-- prose_9&#45;&gt;raw_25 -->
<g id="edge25" class="edge">
<title>prose_9&#45;&gt;raw_25</title>
<path fill="none" stroke="#000000" stroke-dasharray="5,2" d="M2018.3838,-183.3279C2039.3666,-171.5251 2070.5747,-153.9706 2093.5377,-141.0539"/>
<polygon fill="#000000" stroke="#000000" points="2095.5114,-143.9595 2102.5112,-136.0063 2092.0795,-137.8584 2095.5114,-143.9595"/>
</g>
<!-- raw_27 -->
<g id="node28" class="node">
<title>raw_27</title>
<ellipse fill="none" stroke="#000000" cx="2535.5" cy="-124.2001" rx="27" ry="18"/>
<text text-anchor="middle" x="2535.5" y="-120.0001" font-family="Helvetica,sans-Serif" font-size="14.00" fill="#000000">raw</text>
</g>
<!-- prose_10&#45;&gt;raw_27 -->
<g id="edge27" class="edge">
<title>prose_10&#45;&gt;raw_27</title>
<path fill="none" stroke="#000000" stroke-dasharray="5,2" d="M2335.04,-187.2268C2377.1746,-173.9793 2455.907,-149.225 2501.148,-135.0007"/>
<polygon fill="#000000" stroke="#000000" points="2502.318,-138.3019 2510.8078,-131.9636 2500.2184,-131.6242 2502.318,-138.3019"/>
</g>
<!-- raw_29 -->
<g id="node30" class="node">
<title>raw_29</title>
<ellipse fill="none" stroke="#000000" cx="3338.5" cy="-124.2001" rx="27" ry="18"/>
<text text-anchor="middle" x="3338.5" y="-120.0001" font-family="Helvetica,sans-Serif" font-size="14.00" fill="#000000">raw</text>
</g>
<!-- prose_11&#45;&gt;raw_29 -->
<g id="edge29" class="edge">
<title>prose_11&#45;&gt;raw_29</title>
<path fill="none" stroke="#000000" stroke-dasharray="5,2" d="M3449.159,-183.6587C3426.8184,-171.6547 3393.007,-153.4875 3368.6397,-140.3946"/>
<polygon fill="#000000" stroke="#000000" points="3370.2723,-137.2986 3359.8067,-135.6485 3366.9591,-143.4648 3370.2723,-137.2986"/>
</g>
<!-- prespace_30 -->
<g id="node31" class="node">
<title>prespace_30</title>
<ellipse fill="none" stroke="#000000" cx="3472.5" cy="-124.2001" rx="46.4736" ry="18"/>
<text text-anchor="middle" x="3472.5" y="-120.0001" font-family="Helvetica,sans-Serif" font-size="14.00" fill="#000000">prespace</text>
</g>
<!-- prose_11&#45;&gt;prespace_30 -->
<g id="edge30" class="edge">
<title>prose_11&#45;&gt;prespace_30</title>
<path fill="none" stroke="#000000" stroke-dasharray="5,2" d="M3472.5,-178.0315C3472.5,-170.331 3472.5,-161.1744 3472.5,-152.6167"/>
<polygon fill="#000000" stroke="#000000" points="3476.0001,-152.6133 3472.5,-142.6134 3469.0001,-152.6134 3476.0001,-152.6133"/>
</g>
<!-- italic_31 -->
<g id="node32" class="node">
<title>italic_31</title>
<ellipse fill="none" stroke="#000000" cx="3564.5" cy="-124.2001" rx="27.5976" ry="18"/>
<text text-anchor="middle" x="3564.5" y="-120.0001" font-family="Helvetica,sans-Serif" font-size="14.00" fill="#000000">italic</text>
</g>
<!-- prose_11&#45;&gt;italic_31 -->
<g id="edge31" class="edge">
<title>prose_11&#45;&gt;italic_31</title>
<path fill="none" stroke="#000000" stroke-dasharray="5,2" d="M3491.5625,-181.2816C3505.2401,-170.5774 3523.8236,-156.0338 3538.8092,-144.3059"/>
<polygon fill="#000000" stroke="#000000" points="3540.9924,-147.0418 3546.7104,-138.1224 3536.6782,-141.5293 3540.9924,-147.0418"/>
</g>
<!-- raw_32 -->
<g id="node33" class="node">
<title>raw_32</title>
<ellipse fill="none" stroke="#000000" cx="3658.5" cy="-124.2001" rx="27" ry="18"/>
<text text-anchor="middle" x="3658.5" y="-120.0001" font-family="Helvetica,sans-Serif" font-size="14.00" fill="#000000">raw</text>
</g>
<!-- prose_11&#45;&gt;raw_32 -->
<g id="edge32" class="edge">
<title>prose_11&#45;&gt;raw_32</title>
<path fill="none" stroke="#000000" stroke-dasharray="5,2" d="M3499.1493,-185.8842C3532.4792,-172.9823 3589.5334,-150.8968 3625.5647,-136.9492"/>
<polygon fill="#000000" stroke="#000000" points="3627.0706,-140.1195 3635.1328,-133.2455 3624.5436,-133.5915 3627.0706,-140.1195"/>
</g>
<!-- leaf_14 -->
<g id="node15" class="node">
<title>leaf_14</title>
<polygon fill="none" stroke="#c0c0c0" points="121,-63.0015 0,-63.0015 0,-7.1986 121,-7.1986 121,-63.0015"/>
<text text-anchor="middle" x="60.5" y="-15.6001" font-family="Inconsolata" font-size="14.00" fill="#000000">talking points:</text>
</g>
<!-- raw_13&#45;&gt;leaf_14 -->
<g id="edge14" class="edge">
<title>raw_13&#45;&gt;leaf_14</title>
<path fill="none" stroke="#000000" stroke-dasharray="5,2" d="M1255.5553,-114.4187C1246.9202,-111.1889 1236.912,-107.9715 1227.5,-106.2001 987.5812,-61.045 365.94,-130.9959 129.5,-70.2001 125.7272,-69.23 121.9242,-68.0296 118.1463,-66.6636"/>
<polygon fill="#000000" stroke="#000000" points="119.4239,-63.4051 108.8383,-62.9634 116.838,-69.91 119.4239,-63.4051"/>
</g>
<!-- leaf_16 -->
<g id="node17" class="node">
<title>leaf_16</title>
<polygon fill="none" stroke="#c0c0c0" points="484,-55.0021 139,-55.0021 139,-15.198 484,-15.198 484,-55.0021"/>
<text text-anchor="middle" x="311.5" y="-23.6001" font-family="Inconsolata" font-size="14.00" fill="#000000">&#45; All machines are weird until proven otherwise</text>
</g>
<!-- raw_15&#45;&gt;leaf_16 -->
<g id="edge16" class="edge">
<title>raw_15&#45;&gt;leaf_16</title>
<path fill="none" stroke="#000000" stroke-dasharray="5,2" d="M1354.1784,-115.9335C1342.3482,-112.2813 1327.8341,-108.3378 1314.5,-106.2001 953.4273,-48.3128 855.6554,-113.126 492.5,-70.2001 465.4407,-67.0016 436.3639,-62.0493 409.6031,-56.8631"/>
<polygon fill="#000000" stroke="#000000" points="409.9572,-53.3657 399.4693,-54.8672 408.6044,-60.2337 409.9572,-53.3657"/>
</g>
<!-- leaf_18 -->
<g id="node19" class="node">
<title>leaf_18</title>
<polygon fill="none" stroke="#c0c0c0" points="805,-55.0021 502,-55.0021 502,-15.198 805,-15.198 805,-55.0021"/>
<text text-anchor="middle" x="653.5" y="-23.6001" font-family="Inconsolata" font-size="14.00" fill="#000000">&#45; In important cases, this is just proven</text>
</g>
<!-- raw_17&#45;&gt;leaf_18 -->
<g id="edge18" class="edge">
<title>raw_17&#45;&gt;leaf_18</title>
<path fill="none" stroke="#000000" stroke-dasharray="5,2" d="M1439.9665,-114.1654C1432.0653,-111.0754 1423.0316,-108.0127 1414.5,-106.2001 1153.1865,-50.6808 1079.1325,-106.7618 814.5,-70.2001 790.9434,-66.9455 765.7098,-62.1037 742.372,-57.0487"/>
<polygon fill="#000000" stroke="#000000" points="743.0154,-53.6066 732.4965,-54.8732 741.5094,-60.4426 743.0154,-53.6066"/>
</g>
<!-- leaf_20 -->
<g id="node21" class="node">
<title>leaf_20</title>
<polygon fill="none" stroke="#c0c0c0" points="1357.5,-70.3004 823.5,-70.3004 823.5,.1003 1357.5,.1003 1357.5,-70.3004"/>
<text text-anchor="middle" x="1090.5" y="-39.0001" font-family="Inconsolata" font-size="14.00" fill="#000000"> &#160;&#45; &#160;Meltdown, Spectre: The most basic contract is &quot;do not follow opposite</text>
<text text-anchor="middle" x="1090.5" y="-23.6001" font-family="Inconsolata" font-size="14.00" fill="#000000"> &#160;&#160;&#160;&#160;conditional branches&quot;, and this is violated, and it turns out that</text>
<text text-anchor="middle" x="1090.5" y="-8.2" font-family="Inconsolata" font-size="14.00" fill="#000000"> &#160;&#160;&#160;&#160;matters.</text>
</g>
<!-- raw_19&#45;&gt;leaf_20 -->
<g id="edge20" class="edge">
<title>raw_19&#45;&gt;leaf_20</title>
<path fill="none" stroke="#000000" stroke-dasharray="5,2" d="M1522.3689,-114.3222C1514.8577,-111.3911 1506.4177,-108.3841 1498.5,-106.2001 1450.1708,-92.8694 1397.9009,-81.5258 1347.4223,-72.0759"/>
<polygon fill="#000000" stroke="#000000" points="1347.8223,-68.5906 1337.3521,-70.2112 1346.5476,-75.4736 1347.8223,-68.5906"/>
</g>
<!-- leaf_22 -->
<g id="node23" class="node">
<title>leaf_22</title>
<polygon fill="none" stroke="#c0c0c0" points="1903,-70.3004 1376,-70.3004 1376,.1003 1903,.1003 1903,-70.3004"/>
<text text-anchor="middle" x="1639.5" y="-39.0001" font-family="Inconsolata" font-size="14.00" fill="#000000"> &#160;&#45; &#160;Exploits on microSD, GSM band, other actors with arbitrary access to</text>
<text text-anchor="middle" x="1639.5" y="-23.6001" font-family="Inconsolata" font-size="14.00" fill="#000000"> &#160;&#160;&#160;&#160;system memory. &#160;&quot;Every circuit is either Turing Complete or aspires</text>
<text text-anchor="middle" x="1639.5" y="-8.2" font-family="Inconsolata" font-size="14.00" fill="#000000"> &#160;&#160;&#160;&#160;to be&quot;.</text>
</g>
<!-- raw_21&#45;&gt;leaf_22 -->
<g id="edge22" class="edge">
<title>raw_21&#45;&gt;leaf_22</title>
<path fill="none" stroke="#000000" stroke-dasharray="5,2" d="M1639.5,-106.1694C1639.5,-98.7063 1639.5,-89.6821 1639.5,-80.6051"/>
<polygon fill="#000000" stroke="#000000" points="1643.0001,-80.4147 1639.5,-70.4147 1636.0001,-80.4148 1643.0001,-80.4147"/>
</g>
<!-- leaf_24 -->
<g id="node25" class="node">
<title>leaf_24</title>
<polygon fill="none" stroke="#c0c0c0" points="2028,-55.0021 1921,-55.0021 1921,-15.198 2028,-15.198 2028,-55.0021"/>
<text text-anchor="middle" x="1974.5" y="-23.6001" font-family="Inconsolata" font-size="14.00" fill="#000000">&#45; &#160;Successes:</text>
</g>
<!-- raw_23&#45;&gt;leaf_24 -->
<g id="edge24" class="edge">
<title>raw_23&#45;&gt;leaf_24</title>
<path fill="none" stroke="#000000" stroke-dasharray="5,2" d="M1867.0917,-111.0531C1885.7479,-97.8605 1914.9752,-77.1926 1938.2339,-60.7453"/>
<polygon fill="#000000" stroke="#000000" points="1940.3583,-63.5299 1946.5023,-54.8984 1936.3166,-57.8145 1940.3583,-63.5299"/>
</g>
<!-- leaf_26 -->
<g id="node27" class="node">
<title>leaf_26</title>
<polygon fill="none" stroke="#c0c0c0" points="2587,-62.4005 2046,-62.4005 2046,-7.7996 2587,-7.7996 2587,-62.4005"/>
<text text-anchor="middle" x="2316.5" y="-31.3001" font-family="Inconsolata" font-size="14.00" fill="#000000"> &#160;&#45; &#160;ASICs for hash mining. Pure pipeline&#45;fed number crunching. Notable for</text>
<text text-anchor="middle" x="2316.5" y="-15.9" font-family="Inconsolata" font-size="14.00" fill="#000000"> &#160;&#160;&#160;&#160;what it cannot do.</text>
</g>
<!-- raw_25&#45;&gt;leaf_26 -->
<g id="edge26" class="edge">
<title>raw_25&#45;&gt;leaf_26</title>
<path fill="none" stroke="#000000" stroke-dasharray="5,2" d="M2146.0173,-113.8048C2170.8452,-102.3428 2212.0021,-83.3424 2247.657,-66.882"/>
<polygon fill="#000000" stroke="#000000" points="2249.456,-69.9065 2257.0682,-62.5372 2246.522,-63.5511 2249.456,-69.9065"/>
</g>
<!-- leaf_28 -->
<g id="node29" class="node">
<title>leaf_28</title>
<polygon fill="none" stroke="#c0c0c0" points="3125.5,-70.3004 2605.5,-70.3004 2605.5,.1003 3125.5,.1003 3125.5,-70.3004"/>
<text text-anchor="middle" x="2865.5" y="-39.0001" font-family="Inconsolata" font-size="14.00" fill="#000000"> &#160;&#45; &#160;Greenarrays: quirky, but if there was ever a chip that fulfills its</text>
<text text-anchor="middle" x="2865.5" y="-23.6001" font-family="Inconsolata" font-size="14.00" fill="#000000"> &#160;&#160;&#160;&#160;written specification, it&#39;s one that was synthesized from written</text>
<text text-anchor="middle" x="2865.5" y="-8.2" font-family="Inconsolata" font-size="14.00" fill="#000000"> &#160;&#160;&#160;&#160;Forth...</text>
</g>
<!-- raw_27&#45;&gt;leaf_28 -->
<g id="edge28" class="edge">
<title>raw_27&#45;&gt;leaf_28</title>
<path fill="none" stroke="#000000" stroke-dasharray="5,2" d="M2560.5745,-117.43C2595.9108,-107.8892 2663.0192,-89.7699 2725.3025,-72.9534"/>
<polygon fill="#000000" stroke="#000000" points="2726.5096,-76.2529 2735.2515,-70.2671 2724.6849,-69.4949 2726.5096,-76.2529"/>
</g>
<!-- leaf_33 -->
<g id="node34" class="node">
<title>leaf_33</title>
<polygon fill="none" stroke="#c0c0c0" points="3447,-55.0021 3144,-55.0021 3144,-15.198 3447,-15.198 3447,-55.0021"/>
<text text-anchor="middle" x="3295.5" y="-23.6001" font-family="Inconsolata" font-size="14.00" fill="#000000"> &#160;&#160;&#160;&#160;Admittedly weird hardware! But is it</text>
</g>
<!-- raw_29&#45;&gt;leaf_33 -->
<g id="edge33" class="edge">
<title>raw_29&#45;&gt;leaf_33</title>
<path fill="none" stroke="#000000" stroke-dasharray="5,2" d="M3330.2092,-107.0207C3324.3795,-94.941 3316.4343,-78.4778 3309.6166,-64.3509"/>
<polygon fill="#000000" stroke="#000000" points="3312.6151,-62.5113 3305.1166,-55.0265 3306.3109,-65.5538 3312.6151,-62.5113"/>
</g>
<!-- leaf_34 -->
<g id="node35" class="node">
<title>leaf_34</title>
<polygon fill="none" stroke="#c0c0c0" points="3519.5,-53.1 3465.5,-53.1 3465.5,-17.1 3519.5,-17.1 3519.5,-53.1"/>
<text text-anchor="middle" x="3492.5" y="-31.6001" font-family="Inconsolata" font-size="14.00" fill="#000000"> </text>
</g>
<!-- prespace_30&#45;&gt;leaf_34 -->
<g id="edge34" class="edge">
<title>prespace_30&#45;&gt;leaf_34</title>
<path fill="none" stroke="#000000" stroke-dasharray="5,2" d="M3476.5473,-106.1694C3479.3124,-93.8509 3483.0322,-77.2793 3486.1842,-63.2369"/>
<polygon fill="#000000" stroke="#000000" points="3489.6835,-63.6278 3488.4587,-53.104 3482.8535,-62.0946 3489.6835,-63.6278"/>
</g>
<!-- leaf_35 -->
<g id="node36" class="node">
<title>leaf_35</title>
<polygon fill="none" stroke="#c0c0c0" points="3591.5,-53.1 3537.5,-53.1 3537.5,-17.1 3591.5,-17.1 3591.5,-53.1"/>
<text text-anchor="middle" x="3564.5" y="-31.6001" font-family="Inconsolata" font-size="14.00" fill="#000000">weird</text>
</g>
<!-- italic_31&#45;&gt;leaf_35 -->
<g id="edge35" class="edge">
<title>italic_31&#45;&gt;leaf_35</title>
<path fill="none" stroke="#000000" stroke-dasharray="5,2" d="M3564.5,-106.1694C3564.5,-93.8509 3564.5,-77.2793 3564.5,-63.2369"/>
<polygon fill="#000000" stroke="#000000" points="3568.0001,-63.1039 3564.5,-53.104 3561.0001,-63.104 3568.0001,-63.1039"/>
</g>
<!-- leaf_36 -->
<g id="node37" class="node">
<title>leaf_36</title>
<polygon fill="none" stroke="#c0c0c0" points="3751.5,-53.1 3609.5,-53.1 3609.5,-17.1 3751.5,-17.1 3751.5,-53.1"/>
<text text-anchor="middle" x="3680.5" y="-31.6001" font-family="Inconsolata" font-size="14.00" fill="#000000"> weird hardware...</text>
</g>
<!-- raw_32&#45;&gt;leaf_36 -->
<g id="edge36" class="edge">
<title>raw_32&#45;&gt;leaf_36</title>
<path fill="none" stroke="#000000" stroke-dasharray="5,2" d="M3662.952,-106.1694C3666.0234,-93.7301 3670.1657,-76.9539 3673.6544,-62.8246"/>
<polygon fill="#000000" stroke="#000000" points="3677.0553,-63.6514 3676.0546,-53.104 3670.2594,-61.9734 3677.0553,-63.6514"/>
</g>
</g>
</svg>
