<?xml version="1.0" encoding="UTF-8" standalone="no"?>
<!DOCTYPE svg PUBLIC "-//W3C//DTD SVG 1.1//EN"
 "http://www.w3.org/Graphics/SVG/1.1/DTD/svg11.dtd">
<!-- Generated by graphviz version 2.40.1 (20161225.0304)
 -->
<!-- Title: lpegNode Pages: 1 -->
<svg width="2015pt" height="710pt"
 viewBox="0.00 0.00 2015.00 710.20" xmlns="http://www.w3.org/2000/svg" xmlns:xlink="http://www.w3.org/1999/xlink">
<g id="graph0" class="graph" transform="scale(1 1) rotate(0) translate(4 706.2007)">
<title>lpegNode</title>
<polygon fill="#ffffff" stroke="transparent" points="-4,4 -4,-706.2007 2011,-706.2007 2011,4 -4,4"/>
<!-- doc_0 -->
<g id="node1" class="node">
<title>doc_0</title>
<ellipse fill="none" stroke="#000000" cx="1290" cy="-684.2007" rx="42.1216" ry="18"/>
<text text-anchor="middle" x="1290" y="-680.0007" font-family="Helvetica,sans-Serif" font-size="14.00" fill="#000000">doc &#45; 41</text>
</g>
<!-- section_1 -->
<g id="node2" class="node">
<title>section_1</title>
<ellipse fill="none" stroke="#000000" cx="1290" cy="-612.2007" rx="60.9826" ry="18"/>
<text text-anchor="middle" x="1290" y="-608.0007" font-family="Helvetica,sans-Serif" font-size="14.00" fill="#000000">section: 1&#45;41</text>
</g>
<!-- doc_0&#45;&gt;section_1 -->
<g id="edge1" class="edge">
<title>doc_0&#45;&gt;section_1</title>
<path fill="none" stroke="#000000" stroke-dasharray="5,2" d="M1290,-666.0321C1290,-658.3317 1290,-649.1751 1290,-640.6174"/>
<polygon fill="#000000" stroke="#000000" points="1293.5001,-640.6139 1290,-630.614 1286.5001,-640.614 1293.5001,-640.6139"/>
</g>
<!-- header_2 -->
<g id="node3" class="node">
<title>header_2</title>
<ellipse fill="none" stroke="#000000" cx="120" cy="-540.2007" rx="50.3327" ry="18"/>
<text text-anchor="middle" x="120" y="-536.0007" font-family="Helvetica,sans-Serif" font-size="14.00" fill="#000000">1 : Resbuf</text>
</g>
<!-- section_1&#45;&gt;header_2 -->
<g id="edge2" class="edge">
<title>section_1&#45;&gt;header_2</title>
<path fill="none" stroke="#000000" stroke-dasharray="5,2" d="M1229.4092,-610.553C1070.5748,-605.9006 629.1286,-590.8259 263,-558.2007 234.6164,-555.6715 203.1868,-551.8304 177.0384,-548.3452"/>
<polygon fill="#000000" stroke="#000000" points="177.3022,-544.8491 166.9239,-546.98 176.3658,-551.7862 177.3022,-544.8491"/>
</g>
<!-- prose_3 -->
<g id="node4" class="node">
<title>prose_3</title>
<ellipse fill="none" stroke="#000000" cx="304" cy="-540.2007" rx="32.4585" ry="18"/>
<text text-anchor="middle" x="304" y="-536.0007" font-family="Helvetica,sans-Serif" font-size="14.00" fill="#000000">prose</text>
</g>
<!-- section_1&#45;&gt;prose_3 -->
<g id="edge3" class="edge">
<title>section_1&#45;&gt;prose_3</title>
<path fill="none" stroke="#000000" stroke-dasharray="5,2" d="M1230.9084,-607.8857C1049.3638,-594.6289 502.5743,-554.7011 346.1963,-543.282"/>
<polygon fill="#000000" stroke="#000000" points="346.2729,-539.7783 336.0445,-542.5407 345.763,-546.7598 346.2729,-539.7783"/>
</g>
<!-- prose_4 -->
<g id="node5" class="node">
<title>prose_4</title>
<ellipse fill="none" stroke="#000000" cx="1290" cy="-540.2007" rx="32.4585" ry="18"/>
<text text-anchor="middle" x="1290" y="-536.0007" font-family="Helvetica,sans-Serif" font-size="14.00" fill="#000000">prose</text>
</g>
<!-- section_1&#45;&gt;prose_4 -->
<g id="edge4" class="edge">
<title>section_1&#45;&gt;prose_4</title>
<path fill="none" stroke="#000000" stroke-dasharray="5,2" d="M1290,-594.0321C1290,-586.3317 1290,-577.1751 1290,-568.6174"/>
<polygon fill="#000000" stroke="#000000" points="1293.5001,-568.6139 1290,-558.614 1286.5001,-568.614 1293.5001,-568.6139"/>
</g>
<!-- codeblock_5 -->
<g id="node6" class="node">
<title>codeblock_5</title>
<ellipse fill="none" stroke="#000000" cx="1515" cy="-540.2007" rx="72.5844" ry="18"/>
<text text-anchor="middle" x="1515" y="-536.0007" font-family="Helvetica,sans-Serif" font-size="14.00" fill="#000000">code block 9&#45;13</text>
</g>
<!-- section_1&#45;&gt;codeblock_5 -->
<g id="edge5" class="edge">
<title>section_1&#45;&gt;codeblock_5</title>
<path fill="none" stroke="#000000" stroke-dasharray="5,2" d="M1331.5307,-598.9109C1367.8953,-587.2742 1420.9812,-570.2867 1460.7049,-557.5752"/>
<polygon fill="#000000" stroke="#000000" points="1461.7839,-560.9048 1470.2414,-554.5235 1459.6504,-554.2378 1461.7839,-560.9048"/>
</g>
<!-- codeblock_6 -->
<g id="node7" class="node">
<title>codeblock_6</title>
<ellipse fill="none" stroke="#000000" cx="1791" cy="-540.2007" rx="77.4211" ry="18"/>
<text text-anchor="middle" x="1791" y="-536.0007" font-family="Helvetica,sans-Serif" font-size="14.00" fill="#000000">code block 15&#45;41</text>
</g>
<!-- section_1&#45;&gt;codeblock_6 -->
<g id="edge6" class="edge">
<title>section_1&#45;&gt;codeblock_6</title>
<path fill="none" stroke="#000000" stroke-dasharray="5,2" d="M1345.0489,-604.2895C1434.8389,-591.3855 1612.9997,-565.7816 1714.8556,-551.1436"/>
<polygon fill="#000000" stroke="#000000" points="1715.3706,-554.6057 1724.771,-549.7187 1714.3748,-547.6768 1715.3706,-554.6057"/>
</g>
<!-- leaf_7 -->
<g id="node8" class="node">
<title>leaf_7</title>
<polygon fill="none" stroke="#c0c0c0" points="72,-306.8004 0,-306.8004 0,-270.8004 72,-270.8004 72,-306.8004"/>
<text text-anchor="middle" x="36" y="-285.3004" font-family="Inconsolata" font-size="14.00" fill="#000000">* Resbuf</text>
</g>
<!-- header_2&#45;&gt;leaf_7 -->
<g id="edge7" class="edge">
<title>header_2&#45;&gt;leaf_7</title>
<path fill="none" stroke="#000000" stroke-dasharray="5,2" d="M104.6889,-522.8385C96.547,-512.7656 87.0054,-499.4767 81,-486.2007 55.3105,-429.4098 43.6189,-356.5797 38.859,-317.1799"/>
<polygon fill="#000000" stroke="#000000" points="42.3079,-316.5324 37.6945,-306.9948 35.3532,-317.3277 42.3079,-316.5324"/>
</g>
<!-- raw_8 -->
<g id="node9" class="node">
<title>raw_8</title>
<ellipse fill="none" stroke="#000000" cx="117" cy="-288.8004" rx="27" ry="18"/>
<text text-anchor="middle" x="117" y="-284.6004" font-family="Helvetica,sans-Serif" font-size="14.00" fill="#000000">raw</text>
</g>
<!-- prose_3&#45;&gt;raw_8 -->
<g id="edge8" class="edge">
<title>prose_3&#45;&gt;raw_8</title>
<path fill="none" stroke="#000000" stroke-dasharray="5,2" d="M273.958,-533.2311C234.6532,-523.5029 168.9009,-504.9314 153,-486.2007 112.0392,-437.9506 111.086,-358.7603 113.9845,-316.8493"/>
<polygon fill="#000000" stroke="#000000" points="117.4798,-317.0485 114.8051,-306.7969 110.503,-316.4789 117.4798,-317.0485"/>
</g>
<!-- prespace_9 -->
<g id="node10" class="node">
<title>prespace_9</title>
<ellipse fill="none" stroke="#000000" cx="208" cy="-288.8004" rx="46.4736" ry="18"/>
<text text-anchor="middle" x="208" y="-284.6004" font-family="Helvetica,sans-Serif" font-size="14.00" fill="#000000">prespace</text>
</g>
<!-- prose_3&#45;&gt;prespace_9 -->
<g id="edge9" class="edge">
<title>prose_3&#45;&gt;prespace_9</title>
<path fill="none" stroke="#000000" stroke-dasharray="5,2" d="M289.3323,-523.7249C280.9027,-513.5238 270.6924,-499.8113 264,-486.2007 236.0669,-429.3917 219.9297,-356.3315 212.6718,-316.9568"/>
<polygon fill="#000000" stroke="#000000" points="216.0999,-316.244 210.8971,-307.0146 209.2088,-317.474 216.0999,-316.244"/>
</g>
<!-- literal_10 -->
<g id="node11" class="node">
<title>literal_10</title>
<ellipse fill="none" stroke="#000000" cx="304" cy="-288.8004" rx="31.481" ry="18"/>
<text text-anchor="middle" x="304" y="-284.6004" font-family="Helvetica,sans-Serif" font-size="14.00" fill="#000000">literal</text>
</g>
<!-- prose_3&#45;&gt;literal_10 -->
<g id="edge10" class="edge">
<title>prose_3&#45;&gt;literal_10</title>
<path fill="none" stroke="#000000" stroke-dasharray="5,2" d="M304,-522.1206C304,-478.9207 304,-369.4288 304,-317.2699"/>
<polygon fill="#000000" stroke="#000000" points="307.5001,-317.0544 304,-307.0544 300.5001,-317.0545 307.5001,-317.0544"/>
</g>
<!-- raw_11 -->
<g id="node12" class="node">
<title>raw_11</title>
<ellipse fill="none" stroke="#000000" cx="454" cy="-288.8004" rx="27" ry="18"/>
<text text-anchor="middle" x="454" y="-284.6004" font-family="Helvetica,sans-Serif" font-size="14.00" fill="#000000">raw</text>
</g>
<!-- prose_3&#45;&gt;raw_11 -->
<g id="edge11" class="edge">
<title>prose_3&#45;&gt;raw_11</title>
<path fill="none" stroke="#000000" stroke-dasharray="5,2" d="M317.1864,-523.5744C325.2772,-513.094 335.6511,-499.1415 344,-486.2007 382.2346,-426.9374 421.0126,-353.5669 440.7174,-315.1242"/>
<polygon fill="#000000" stroke="#000000" points="443.8776,-316.6314 445.3042,-306.133 437.6421,-313.4503 443.8776,-316.6314"/>
</g>
<!-- raw_16 -->
<g id="node17" class="node">
<title>raw_16</title>
<ellipse fill="none" stroke="#000000" cx="1044" cy="-288.8004" rx="27" ry="18"/>
<text text-anchor="middle" x="1044" y="-284.6004" font-family="Helvetica,sans-Serif" font-size="14.00" fill="#000000">raw</text>
</g>
<!-- prose_4&#45;&gt;raw_16 -->
<g id="edge16" class="edge">
<title>prose_4&#45;&gt;raw_16</title>
<path fill="none" stroke="#000000" stroke-dasharray="5,2" d="M1262.9823,-530.1032C1240.9083,-520.9504 1209.7481,-505.8872 1187,-486.2007 1128.1955,-435.3106 1080.1282,-355.7628 1057.6846,-314.9242"/>
<polygon fill="#000000" stroke="#000000" points="1060.6283,-313.0099 1052.7885,-305.8833 1054.473,-316.3434 1060.6283,-313.0099"/>
</g>
<!-- prespace_17 -->
<g id="node18" class="node">
<title>prespace_17</title>
<ellipse fill="none" stroke="#000000" cx="1242" cy="-288.8004" rx="46.4736" ry="18"/>
<text text-anchor="middle" x="1242" y="-284.6004" font-family="Helvetica,sans-Serif" font-size="14.00" fill="#000000">prespace</text>
</g>
<!-- prose_4&#45;&gt;prespace_17 -->
<g id="edge17" class="edge">
<title>prose_4&#45;&gt;prespace_17</title>
<path fill="none" stroke="#000000" stroke-dasharray="5,2" d="M1286.548,-522.1206C1278.2825,-478.8304 1257.3069,-368.9704 1247.3733,-316.9433"/>
<polygon fill="#000000" stroke="#000000" points="1250.7987,-316.2206 1245.4853,-307.0544 1243.9229,-317.5334 1250.7987,-316.2206"/>
</g>
<!-- literal_18 -->
<g id="node19" class="node">
<title>literal_18</title>
<ellipse fill="none" stroke="#000000" cx="1338" cy="-288.8004" rx="31.481" ry="18"/>
<text text-anchor="middle" x="1338" y="-284.6004" font-family="Helvetica,sans-Serif" font-size="14.00" fill="#000000">literal</text>
</g>
<!-- prose_4&#45;&gt;literal_18 -->
<g id="edge18" class="edge">
<title>prose_4&#45;&gt;literal_18</title>
<path fill="none" stroke="#000000" stroke-dasharray="5,2" d="M1293.452,-522.1206C1301.7376,-478.725 1322.7952,-368.4354 1332.699,-316.5645"/>
<polygon fill="#000000" stroke="#000000" points="1336.1416,-317.1956 1334.5792,-306.7166 1329.2658,-315.8828 1336.1416,-317.1956"/>
</g>
<!-- raw_19 -->
<g id="node20" class="node">
<title>raw_19</title>
<ellipse fill="none" stroke="#000000" cx="1414" cy="-288.8004" rx="27" ry="18"/>
<text text-anchor="middle" x="1414" y="-284.6004" font-family="Helvetica,sans-Serif" font-size="14.00" fill="#000000">raw</text>
</g>
<!-- prose_4&#45;&gt;raw_19 -->
<g id="edge19" class="edge">
<title>prose_4&#45;&gt;raw_19</title>
<path fill="none" stroke="#000000" stroke-dasharray="5,2" d="M1317.4192,-530.4663C1337.3962,-521.922 1363.417,-507.4983 1378,-486.2007 1413.4112,-434.4846 1416.8294,-357.9557 1415.7337,-317.0373"/>
<polygon fill="#000000" stroke="#000000" points="1419.2282,-316.8239 1415.3514,-306.9639 1412.2333,-317.0895 1419.2282,-316.8239"/>
</g>
<!-- leaf_24 -->
<g id="node25" class="node">
<title>leaf_24</title>
<polygon fill="none" stroke="#c0c0c0" points="1678.5,-316.0008 1459.5,-316.0008 1459.5,-261.5999 1678.5,-261.5999 1678.5,-316.0008"/>
<text text-anchor="middle" x="1569" y="-300.7004" font-family="Inconsolata" font-size="14.00" fill="#000000">assert (meta)</text>
<text text-anchor="middle" x="1569" y="-285.3004" font-family="Inconsolata" font-size="14.00" fill="#000000">assert (ipairs)</text>
<text text-anchor="middle" x="1569" y="-269.9004" font-family="Inconsolata" font-size="14.00" fill="#000000">local color = require &quot;color&quot;</text>
</g>
<!-- codeblock_5&#45;&gt;leaf_24 -->
<g id="edge24" class="edge">
<title>codeblock_5&#45;&gt;leaf_24</title>
<path fill="none" stroke="#000000" stroke-dasharray="5,2" d="M1518.8835,-522.1206C1527.6757,-481.1881 1549.2518,-380.7394 1561.0229,-325.9384"/>
<polygon fill="#000000" stroke="#000000" points="1564.4924,-326.4518 1563.1706,-315.9397 1557.6485,-324.9817 1564.4924,-326.4518"/>
</g>
<!-- leaf_25 -->
<g id="node26" class="node">
<title>leaf_25</title>
<polygon fill="none" stroke="#c0c0c0" points="2007,-486.1011 1697,-486.1011 1697,-91.4996 2007,-91.4996 2007,-486.1011"/>
<text text-anchor="middle" x="1852" y="-471.0007" font-family="Inconsolata" font-size="14.00" fill="#000000">local Resbuf = meta {}</text>
<text text-anchor="middle" x="1852" y="-439.6007" font-family="Inconsolata" font-size="14.00" fill="#000000">function Resbuf.ts(resbuf)</text>
<text text-anchor="middle" x="1852" y="-424.2007" font-family="Inconsolata" font-size="14.00" fill="#000000"> &#160;&#160;local res_map = {}</text>
<text text-anchor="middle" x="1852" y="-408.8006" font-family="Inconsolata" font-size="14.00" fill="#000000"> &#160;&#160;if resbuf.frozen then</text>
<text text-anchor="middle" x="1852" y="-393.4006" font-family="Inconsolata" font-size="14.00" fill="#000000"> &#160;&#160;&#160;&#160;&#160;for i, v in ipairs(resbuf) do</text>
<text text-anchor="middle" x="1852" y="-378.0006" font-family="Inconsolata" font-size="14.00" fill="#000000"> &#160;&#160;&#160;&#160;&#160;&#160;&#160;&#160;res_map[i] = v</text>
<text text-anchor="middle" x="1852" y="-362.6005" font-family="Inconsolata" font-size="14.00" fill="#000000"> &#160;&#160;&#160;&#160;&#160;end</text>
<text text-anchor="middle" x="1852" y="-347.2005" font-family="Inconsolata" font-size="14.00" fill="#000000"> &#160;&#160;else</text>
<text text-anchor="middle" x="1852" y="-331.8005" font-family="Inconsolata" font-size="14.00" fill="#000000"> &#160;&#160;&#160;&#160;&#160;for i, v in ipairs(resbuf) do</text>
<text text-anchor="middle" x="1852" y="-316.4004" font-family="Inconsolata" font-size="14.00" fill="#000000"> &#160;&#160;&#160;&#160;&#160;&#160;&#160;&#160;res_map[i] = color.ts(v)</text>
<text text-anchor="middle" x="1852" y="-301.0004" font-family="Inconsolata" font-size="14.00" fill="#000000"> &#160;&#160;&#160;&#160;&#160;end</text>
<text text-anchor="middle" x="1852" y="-285.6004" font-family="Inconsolata" font-size="14.00" fill="#000000"> &#160;&#160;end</text>
<text text-anchor="middle" x="1852" y="-254.2003" font-family="Inconsolata" font-size="14.00" fill="#000000"> &#160;&#160;return res_map</text>
<text text-anchor="middle" x="1852" y="-238.8003" font-family="Inconsolata" font-size="14.00" fill="#000000">end</text>
<text text-anchor="middle" x="1852" y="-207.4003" font-family="Inconsolata" font-size="14.00" fill="#000000">function new(results, frozen)</text>
<text text-anchor="middle" x="1852" y="-192.0002" font-family="Inconsolata" font-size="14.00" fill="#000000"> &#160;&#160;local resbuf = meta(Resbuf)</text>
<text text-anchor="middle" x="1852" y="-176.6002" font-family="Inconsolata" font-size="14.00" fill="#000000"> &#160;&#160;if frozen then resbuf.frozen = true end</text>
<text text-anchor="middle" x="1852" y="-161.2002" font-family="Inconsolata" font-size="14.00" fill="#000000"> &#160;&#160;for k, v in pairs(results) do</text>
<text text-anchor="middle" x="1852" y="-145.8002" font-family="Inconsolata" font-size="14.00" fill="#000000"> &#160;&#160;&#160;&#160;&#160;resbuf[k] = v</text>
<text text-anchor="middle" x="1852" y="-130.4001" font-family="Inconsolata" font-size="14.00" fill="#000000"> &#160;&#160;end</text>
<text text-anchor="middle" x="1852" y="-115.0001" font-family="Inconsolata" font-size="14.00" fill="#000000"> &#160;&#160;return resbuf</text>
<text text-anchor="middle" x="1852" y="-99.6001" font-family="Inconsolata" font-size="14.00" fill="#000000">end</text>
</g>
<!-- codeblock_6&#45;&gt;leaf_25 -->
<g id="edge25" class="edge">
<title>codeblock_6&#45;&gt;leaf_25</title>
<path fill="none" stroke="#000000" stroke-dasharray="5,2" d="M1795.387,-522.1206C1797.0949,-515.0818 1799.2298,-506.2831 1801.662,-496.2592"/>
<polygon fill="#000000" stroke="#000000" points="1805.124,-496.8341 1804.0808,-486.2907 1798.3214,-495.1834 1805.124,-496.8341"/>
</g>
<!-- leaf_12 -->
<g id="node13" class="node">
<title>leaf_12</title>
<polygon fill="none" stroke="#c0c0c0" points="124.5,-55.6015 31.5,-55.6015 31.5,.2015 124.5,.2015 124.5,-55.6015"/>
<text text-anchor="middle" x="78" y="-8.2" font-family="Inconsolata" font-size="14.00" fill="#000000">Next in the</text>
</g>
<!-- raw_8&#45;&gt;leaf_12 -->
<g id="edge12" class="edge">
<title>raw_8&#45;&gt;leaf_12</title>
<path fill="none" stroke="#000000" stroke-dasharray="5,2" d="M114.3194,-270.8539C108.0334,-228.7699 92.2315,-122.9782 83.6905,-65.797"/>
<polygon fill="#000000" stroke="#000000" points="87.1231,-65.0852 82.1841,-55.712 80.1999,-66.1194 87.1231,-65.0852"/>
</g>
<!-- leaf_13 -->
<g id="node14" class="node">
<title>leaf_13</title>
<polygon fill="none" stroke="#c0c0c0" points="197,-45.7 143,-45.7 143,-9.7 197,-9.7 197,-45.7"/>
<text text-anchor="middle" x="170" y="-24.2" font-family="Inconsolata" font-size="14.00" fill="#000000"> </text>
</g>
<!-- prespace_9&#45;&gt;leaf_13 -->
<g id="edge13" class="edge">
<title>prespace_9&#45;&gt;leaf_13</title>
<path fill="none" stroke="#000000" stroke-dasharray="5,2" d="M205.3279,-270.4403C198.8005,-225.5899 182.0058,-110.1924 174.1575,-56.2667"/>
<polygon fill="#000000" stroke="#000000" points="177.5729,-55.4314 172.6691,-46.0398 170.6459,-56.4396 177.5729,-55.4314"/>
</g>
<!-- leaf_14 -->
<g id="node15" class="node">
<title>leaf_14</title>
<polygon fill="none" stroke="#c0c0c0" points="269,-45.7 215,-45.7 215,-9.7 269,-9.7 269,-45.7"/>
<text text-anchor="middle" x="242" y="-24.2" font-family="Inconsolata" font-size="14.00" fill="#000000">buf</text>
</g>
<!-- literal_10&#45;&gt;leaf_14 -->
<g id="edge14" class="edge">
<title>literal_10&#45;&gt;leaf_14</title>
<path fill="none" stroke="#000000" stroke-dasharray="5,2" d="M300.9475,-270.6756C294.9032,-235.7154 280.4726,-156.6558 263,-91.4 259.8179,-79.5155 255.6853,-66.5905 251.9289,-55.5081"/>
<polygon fill="#000000" stroke="#000000" points="255.1945,-54.2418 248.6229,-45.9312 248.5776,-56.526 255.1945,-54.2418"/>
</g>
<!-- leaf_15 -->
<g id="node16" class="node">
<title>leaf_15</title>
<polygon fill="none" stroke="#c0c0c0" points="695,-47.0006 287,-47.0006 287,-8.3994 695,-8.3994 695,-47.0006"/>
<text text-anchor="middle" x="491" y="-31.9" font-family="Inconsolata" font-size="14.00" fill="#000000"> series, this will encapsulate results and their various</text>
<text text-anchor="middle" x="491" y="-16.5" font-family="Inconsolata" font-size="14.00" fill="#000000">representations.</text>
</g>
<!-- raw_11&#45;&gt;leaf_15 -->
<g id="edge15" class="edge">
<title>raw_11&#45;&gt;leaf_15</title>
<path fill="none" stroke="#000000" stroke-dasharray="5,2" d="M456.5432,-270.8539C462.8188,-226.5682 479.0916,-111.7346 486.8143,-57.2377"/>
<polygon fill="#000000" stroke="#000000" points="490.3015,-57.5737 488.2393,-47.1816 483.3708,-56.5915 490.3015,-57.5737"/>
</g>
<!-- leaf_20 -->
<g id="node21" class="node">
<title>leaf_20</title>
<polygon fill="none" stroke="#c0c0c0" points="1268.5,-55.0004 713.5,-55.0004 713.5,-.3996 1268.5,-.3996 1268.5,-55.0004"/>
<text text-anchor="middle" x="991" y="-23.9" font-family="Inconsolata" font-size="14.00" fill="#000000">This should get us from string concatenation to a phrase&#45;like paradigm we can</text>
<text text-anchor="middle" x="991" y="-8.5" font-family="Inconsolata" font-size="14.00" fill="#000000">generalize into</text>
</g>
<!-- raw_16&#45;&gt;leaf_20 -->
<g id="edge20" class="edge">
<title>raw_16&#45;&gt;leaf_20</title>
<path fill="none" stroke="#000000" stroke-dasharray="5,2" d="M1040.3571,-270.8539C1031.7926,-228.6614 1010.2295,-122.4325 998.6436,-65.3558"/>
<polygon fill="#000000" stroke="#000000" points="1002.0212,-64.4008 996.6018,-55.2969 995.1611,-65.7933 1002.0212,-64.4008"/>
</g>
<!-- leaf_21 -->
<g id="node22" class="node">
<title>leaf_21</title>
<polygon fill="none" stroke="#c0c0c0" points="1341,-45.7 1287,-45.7 1287,-9.7 1341,-9.7 1341,-45.7"/>
<text text-anchor="middle" x="1314" y="-24.2" font-family="Inconsolata" font-size="14.00" fill="#000000"> </text>
</g>
<!-- prespace_17&#45;&gt;leaf_21 -->
<g id="edge21" class="edge">
<title>prespace_17&#45;&gt;leaf_21</title>
<path fill="none" stroke="#000000" stroke-dasharray="5,2" d="M1246.9489,-270.8539C1259.28,-226.1361 1291.4467,-109.4872 1306.2899,-55.66"/>
<polygon fill="#000000" stroke="#000000" points="1309.7322,-56.3427 1309.0165,-45.7721 1302.984,-54.4818 1309.7322,-56.3427"/>
</g>
<!-- leaf_22 -->
<g id="node23" class="node">
<title>leaf_22</title>
<polygon fill="none" stroke="#c0c0c0" points="1424.5,-45.7 1359.5,-45.7 1359.5,-9.7 1424.5,-9.7 1424.5,-45.7"/>
<text text-anchor="middle" x="1392" y="-24.2" font-family="Inconsolata" font-size="14.00" fill="#000000">rainbuf</text>
</g>
<!-- literal_18&#45;&gt;leaf_22 -->
<g id="edge22" class="edge">
<title>literal_18&#45;&gt;leaf_22</title>
<path fill="none" stroke="#000000" stroke-dasharray="5,2" d="M1341.5415,-270.8164C1348.4014,-236.0968 1364.0549,-157.4306 1378,-91.4 1380.4646,-79.7303 1383.2712,-66.8792 1385.7212,-55.7947"/>
<polygon fill="#000000" stroke="#000000" points="1389.1885,-56.3256 1387.9381,-45.8048 1382.3547,-54.809 1389.1885,-56.3256"/>
</g>
<!-- leaf_23 -->
<g id="node24" class="node">
<title>leaf_23</title>
<polygon fill="none" stroke="#c0c0c0" points="1497,-45.7 1443,-45.7 1443,-9.7 1497,-9.7 1497,-45.7"/>
<text text-anchor="middle" x="1470" y="-24.2" font-family="Inconsolata" font-size="14.00" fill="#000000">s.</text>
</g>
<!-- raw_19&#45;&gt;leaf_23 -->
<g id="edge23" class="edge">
<title>raw_19&#45;&gt;leaf_23</title>
<path fill="none" stroke="#000000" stroke-dasharray="5,2" d="M1416.5366,-270.6781C1421.5984,-235.7223 1433.8678,-156.6697 1450,-91.4 1452.9386,-79.5109 1456.8583,-66.585 1460.4487,-55.5033"/>
<polygon fill="#000000" stroke="#000000" points="1463.7986,-56.5206 1463.6159,-45.9273 1457.1527,-54.3225 1463.7986,-56.5206"/>
</g>
</g>
</svg>
