<?xml version="1.0" encoding="UTF-8" standalone="no"?>
<!DOCTYPE svg PUBLIC "-//W3C//DTD SVG 1.1//EN"
 "http://www.w3.org/Graphics/SVG/1.1/DTD/svg11.dtd">
<!-- Generated by graphviz version 2.40.1 (20161225.0304)
 -->
<!-- Title: lpegNode Pages: 1 -->
<svg width="2302pt" height="663pt"
 viewBox="0.00 0.00 2301.50 663.40" xmlns="http://www.w3.org/2000/svg" xmlns:xlink="http://www.w3.org/1999/xlink">
<g id="graph0" class="graph" transform="scale(1 1) rotate(0) translate(4 659.4007)">
<title>lpegNode</title>
<polygon fill="#ffffff" stroke="transparent" points="-4,4 -4,-659.4007 2297.5,-659.4007 2297.5,4 -4,4"/>
<!-- doc_0 -->
<g id="node1" class="node">
<title>doc_0</title>
<ellipse fill="none" stroke="#000000" cx="968" cy="-637.4007" rx="42.1216" ry="18"/>
<text text-anchor="middle" x="968" y="-633.2007" font-family="Helvetica,sans-Serif" font-size="14.00" fill="#000000">doc &#45; 62</text>
</g>
<!-- section_1 -->
<g id="node2" class="node">
<title>section_1</title>
<ellipse fill="none" stroke="#000000" cx="968" cy="-565.4007" rx="60.9826" ry="18"/>
<text text-anchor="middle" x="968" y="-561.2007" font-family="Helvetica,sans-Serif" font-size="14.00" fill="#000000">section: 1&#45;62</text>
</g>
<!-- doc_0&#45;&gt;section_1 -->
<g id="edge1" class="edge">
<title>doc_0&#45;&gt;section_1</title>
<path fill="none" stroke="#000000" stroke-dasharray="5,2" d="M968,-619.232C968,-611.5316 968,-602.375 968,-593.8173"/>
<polygon fill="#000000" stroke="#000000" points="971.5001,-593.8139 968,-583.8139 964.5001,-593.814 971.5001,-593.8139"/>
</g>
<!-- header_2 -->
<g id="node3" class="node">
<title>header_2</title>
<ellipse fill="none" stroke="#000000" cx="120" cy="-493.4007" rx="50.3327" ry="18"/>
<text text-anchor="middle" x="120" y="-489.2007" font-family="Helvetica,sans-Serif" font-size="14.00" fill="#000000">1 : Search</text>
</g>
<!-- section_1&#45;&gt;header_2 -->
<g id="edge2" class="edge">
<title>section_1&#45;&gt;header_2</title>
<path fill="none" stroke="#000000" stroke-dasharray="5,2" d="M908.025,-561.797C786.277,-554.2631 501.4605,-535.5267 263,-511.4007 234.7585,-508.5433 203.4662,-504.6838 177.3726,-501.2713"/>
<polygon fill="#000000" stroke="#000000" points="177.6473,-497.7773 167.2754,-499.9394 176.7317,-504.7172 177.6473,-497.7773"/>
</g>
<!-- prose_3 -->
<g id="node4" class="node">
<title>prose_3</title>
<ellipse fill="none" stroke="#000000" cx="304" cy="-493.4007" rx="32.4585" ry="18"/>
<text text-anchor="middle" x="304" y="-489.2007" font-family="Helvetica,sans-Serif" font-size="14.00" fill="#000000">prose</text>
</g>
<!-- section_1&#45;&gt;prose_3 -->
<g id="edge3" class="edge">
<title>section_1&#45;&gt;prose_3</title>
<path fill="none" stroke="#000000" stroke-dasharray="5,2" d="M910.813,-559.1997C779.7934,-544.9927 460.3851,-510.3581 345.7863,-497.9317"/>
<polygon fill="#000000" stroke="#000000" points="345.9833,-494.4326 335.6642,-496.8341 345.2286,-501.3918 345.9833,-494.4326"/>
</g>
<!-- codeblock_4 -->
<g id="node5" class="node">
<title>codeblock_4</title>
<ellipse fill="none" stroke="#000000" cx="719" cy="-493.4007" rx="67.748" ry="18"/>
<text text-anchor="middle" x="719" y="-489.2007" font-family="Helvetica,sans-Serif" font-size="14.00" fill="#000000">code block 7&#45;9</text>
</g>
<!-- section_1&#45;&gt;codeblock_4 -->
<g id="edge4" class="edge">
<title>section_1&#45;&gt;codeblock_4</title>
<path fill="none" stroke="#000000" stroke-dasharray="5,2" d="M924.3426,-552.7768C882.761,-540.7532 819.983,-522.6006 774.7909,-509.533"/>
<polygon fill="#000000" stroke="#000000" points="775.721,-506.1586 765.1423,-506.743 773.7765,-512.8831 775.721,-506.1586"/>
</g>
<!-- codeblock_5 -->
<g id="node6" class="node">
<title>codeblock_5</title>
<ellipse fill="none" stroke="#000000" cx="968" cy="-493.4007" rx="76.6175" ry="18"/>
<text text-anchor="middle" x="968" y="-489.2007" font-family="Helvetica,sans-Serif" font-size="14.00" fill="#000000">code block 11&#45;15</text>
</g>
<!-- section_1&#45;&gt;codeblock_5 -->
<g id="edge5" class="edge">
<title>section_1&#45;&gt;codeblock_5</title>
<path fill="none" stroke="#000000" stroke-dasharray="5,2" d="M968,-547.232C968,-539.5316 968,-530.375 968,-521.8173"/>
<polygon fill="#000000" stroke="#000000" points="971.5001,-521.8139 968,-511.8139 964.5001,-521.814 971.5001,-521.8139"/>
</g>
<!-- codeblock_6 -->
<g id="node7" class="node">
<title>codeblock_6</title>
<ellipse fill="none" stroke="#000000" cx="1244" cy="-493.4007" rx="77.4211" ry="18"/>
<text text-anchor="middle" x="1244" y="-489.2007" font-family="Helvetica,sans-Serif" font-size="14.00" fill="#000000">code block 18&#45;34</text>
</g>
<!-- section_1&#45;&gt;codeblock_6 -->
<g id="edge6" class="edge">
<title>section_1&#45;&gt;codeblock_6</title>
<path fill="none" stroke="#000000" stroke-dasharray="5,2" d="M1013.8856,-553.4305C1060.0147,-541.3968 1131.4154,-522.7706 1182.4437,-509.4588"/>
<polygon fill="#000000" stroke="#000000" points="1183.5715,-512.7818 1192.3642,-506.8709 1181.8045,-506.0085 1183.5715,-512.7818"/>
</g>
<!-- codeblock_7 -->
<g id="node8" class="node">
<title>codeblock_7</title>
<ellipse fill="none" stroke="#000000" cx="1655" cy="-493.4007" rx="77.4211" ry="18"/>
<text text-anchor="middle" x="1655" y="-489.2007" font-family="Helvetica,sans-Serif" font-size="14.00" fill="#000000">code block 36&#45;58</text>
</g>
<!-- section_1&#45;&gt;codeblock_7 -->
<g id="edge7" class="edge">
<title>section_1&#45;&gt;codeblock_7</title>
<path fill="none" stroke="#000000" stroke-dasharray="5,2" d="M1025.3916,-559.3858C1147.5405,-546.5842 1433.5366,-516.6108 1574.1053,-501.8787"/>
<polygon fill="#000000" stroke="#000000" points="1574.7997,-505.3252 1584.3804,-500.8018 1574.07,-498.3633 1574.7997,-505.3252"/>
</g>
<!-- codeblock_8 -->
<g id="node9" class="node">
<title>codeblock_8</title>
<ellipse fill="none" stroke="#000000" cx="2034" cy="-493.4007" rx="77.4211" ry="18"/>
<text text-anchor="middle" x="2034" y="-489.2007" font-family="Helvetica,sans-Serif" font-size="14.00" fill="#000000">code block 60&#45;62</text>
</g>
<!-- section_1&#45;&gt;codeblock_8 -->
<g id="edge8" class="edge">
<title>section_1&#45;&gt;codeblock_8</title>
<path fill="none" stroke="#000000" stroke-dasharray="5,2" d="M1027.597,-561.3753C1206.7354,-549.2759 1740.8088,-513.2034 1949.2981,-499.1216"/>
<polygon fill="#000000" stroke="#000000" points="1949.5351,-502.6137 1959.2765,-498.4476 1949.0633,-495.6296 1949.5351,-502.6137"/>
</g>
<!-- leaf_9 -->
<g id="node10" class="node">
<title>leaf_9</title>
<polygon fill="none" stroke="#c0c0c0" points="72,-291.4003 0,-291.4003 0,-255.4003 72,-255.4003 72,-291.4003"/>
<text text-anchor="middle" x="36" y="-269.9004" font-family="Inconsolata" font-size="14.00" fill="#000000">* Search</text>
</g>
<!-- header_2&#45;&gt;leaf_9 -->
<g id="edge9" class="edge">
<title>header_2&#45;&gt;leaf_9</title>
<path fill="none" stroke="#000000" stroke-dasharray="5,2" d="M104.8964,-475.9421C96.8193,-465.839 87.2736,-452.5521 81,-439.4007 59.1908,-393.682 46.5255,-335.6616 40.4623,-301.719"/>
<polygon fill="#000000" stroke="#000000" points="43.865,-300.8539 38.7224,-291.5908 36.9661,-302.039 43.865,-300.8539"/>
</g>
<!-- raw_10 -->
<g id="node11" class="node">
<title>raw_10</title>
<ellipse fill="none" stroke="#000000" cx="117" cy="-273.4003" rx="27" ry="18"/>
<text text-anchor="middle" x="117" y="-269.2003" font-family="Helvetica,sans-Serif" font-size="14.00" fill="#000000">raw</text>
</g>
<!-- prose_3&#45;&gt;raw_10 -->
<g id="edge10" class="edge">
<title>prose_3&#45;&gt;raw_10</title>
<path fill="none" stroke="#000000" stroke-dasharray="5,2" d="M271.813,-490.8682C237.2746,-486.3768 183.3065,-473.9232 153,-439.4007 119.2365,-400.9402 114.7061,-338.3366 115.2904,-301.9994"/>
<polygon fill="#000000" stroke="#000000" points="118.8004,-301.7242 115.6092,-291.6214 111.8037,-301.5092 118.8004,-301.7242"/>
</g>
<!-- prespace_11 -->
<g id="node12" class="node">
<title>prespace_11</title>
<ellipse fill="none" stroke="#000000" cx="208" cy="-273.4003" rx="46.4736" ry="18"/>
<text text-anchor="middle" x="208" y="-269.2003" font-family="Helvetica,sans-Serif" font-size="14.00" fill="#000000">prespace</text>
</g>
<!-- prose_3&#45;&gt;prespace_11 -->
<g id="edge11" class="edge">
<title>prose_3&#45;&gt;prespace_11</title>
<path fill="none" stroke="#000000" stroke-dasharray="5,2" d="M289.5729,-476.8029C281.2285,-466.5586 271.0233,-452.8434 264,-439.4007 240.1072,-393.6695 223.2894,-335.6531 214.6617,-301.7147"/>
<polygon fill="#000000" stroke="#000000" points="217.9544,-300.451 212.1497,-291.5879 211.1603,-302.1364 217.9544,-300.451"/>
</g>
<!-- literal_12 -->
<g id="node13" class="node">
<title>literal_12</title>
<ellipse fill="none" stroke="#000000" cx="304" cy="-273.4003" rx="31.481" ry="18"/>
<text text-anchor="middle" x="304" y="-269.2003" font-family="Helvetica,sans-Serif" font-size="14.00" fill="#000000">literal</text>
</g>
<!-- prose_3&#45;&gt;literal_12 -->
<g id="edge12" class="edge">
<title>prose_3&#45;&gt;literal_12</title>
<path fill="none" stroke="#000000" stroke-dasharray="5,2" d="M304,-475.3971C304,-437.2049 304,-347.8084 304,-301.8259"/>
<polygon fill="#000000" stroke="#000000" points="307.5001,-301.6526 304,-291.6527 300.5001,-301.6527 307.5001,-301.6526"/>
</g>
<!-- raw_13 -->
<g id="node14" class="node">
<title>raw_13</title>
<ellipse fill="none" stroke="#000000" cx="380" cy="-273.4003" rx="27" ry="18"/>
<text text-anchor="middle" x="380" y="-269.2003" font-family="Helvetica,sans-Serif" font-size="14.00" fill="#000000">raw</text>
</g>
<!-- prose_3&#45;&gt;raw_13 -->
<g id="edge13" class="edge">
<title>prose_3&#45;&gt;raw_13</title>
<path fill="none" stroke="#000000" stroke-dasharray="5,2" d="M318.9809,-477.0728C327.5216,-466.9242 337.7387,-453.2149 344,-439.4007 364.652,-393.8364 373.7418,-335.7658 377.5243,-301.7717"/>
<polygon fill="#000000" stroke="#000000" points="381.0261,-301.9341 378.5738,-291.627 374.0632,-301.2137 381.0261,-301.9341"/>
</g>
<!-- leaf_18 -->
<g id="node19" class="node">
<title>leaf_18</title>
<polygon fill="none" stroke="#c0c0c0" points="840.5,-291.4003 425.5,-291.4003 425.5,-255.4003 840.5,-255.4003 840.5,-291.4003"/>
<text text-anchor="middle" x="633" y="-269.9004" font-family="Inconsolata" font-size="14.00" fill="#000000">local clone = assert(table.clone, &quot;requires table.clone&quot;)</text>
</g>
<!-- codeblock_4&#45;&gt;leaf_18 -->
<g id="edge18" class="edge">
<title>codeblock_4&#45;&gt;leaf_18</title>
<path fill="none" stroke="#000000" stroke-dasharray="5,2" d="M711.9623,-475.3971C696.9696,-437.0437 661.7915,-347.0531 643.8852,-301.2462"/>
<polygon fill="#000000" stroke="#000000" points="647.0356,-299.692 640.135,-291.6527 640.5161,-302.2406 647.0356,-299.692"/>
</g>
<!-- leaf_19 -->
<g id="node20" class="node">
<title>leaf_19</title>
<polygon fill="none" stroke="#c0c0c0" points="1077.5,-300.7008 858.5,-300.7008 858.5,-246.0999 1077.5,-246.0999 1077.5,-300.7008"/>
<text text-anchor="middle" x="968" y="-285.6004" font-family="Inconsolata" font-size="14.00" fill="#000000">local Nerf = require &quot;nerf&quot;</text>
<text text-anchor="middle" x="968" y="-254.2003" font-family="Inconsolata" font-size="14.00" fill="#000000">local Search = clone(Nerf, 3)</text>
</g>
<!-- codeblock_5&#45;&gt;leaf_19 -->
<g id="edge19" class="edge">
<title>codeblock_5&#45;&gt;leaf_19</title>
<path fill="none" stroke="#000000" stroke-dasharray="5,2" d="M968,-475.3971C968,-439.6197 968,-358.9085 968,-311.0449"/>
<polygon fill="#000000" stroke="#000000" points="971.5001,-310.7823 968,-300.7823 964.5001,-310.7824 971.5001,-310.7823"/>
</g>
<!-- leaf_20 -->
<g id="node21" class="node">
<title>leaf_20</title>
<polygon fill="none" stroke="#c0c0c0" points="1602,-392.9008 1096,-392.9008 1096,-153.8999 1602,-153.8999 1602,-392.9008"/>
<text text-anchor="middle" x="1349" y="-377.7006" font-family="Inconsolata" font-size="14.00" fill="#000000">function Search.NAV.RETURN(modeS, category, value)</text>
<text text-anchor="middle" x="1349" y="-362.3005" font-family="Inconsolata" font-size="14.00" fill="#000000"> &#160;&#160;local searchResult = modeS.hist:search(tostring(modeS.txtbuf))</text>
<text text-anchor="middle" x="1349" y="-346.9005" font-family="Inconsolata" font-size="14.00" fill="#000000"> &#160;&#160;if #searchResult &gt; 0 then</text>
<text text-anchor="middle" x="1349" y="-331.5005" font-family="Inconsolata" font-size="14.00" fill="#000000"> &#160;&#160;&#160;&#160;&#160;local result</text>
<text text-anchor="middle" x="1349" y="-316.1005" font-family="Inconsolata" font-size="14.00" fill="#000000"> &#160;&#160;&#160;&#160;&#160;modeS.txtbuf, result = modeS.hist:index(searchResult.cursors[1])</text>
<text text-anchor="middle" x="1349" y="-300.7004" font-family="Inconsolata" font-size="14.00" fill="#000000"> &#160;&#160;&#160;&#160;&#160;if not result then</text>
<text text-anchor="middle" x="1349" y="-285.3004" font-family="Inconsolata" font-size="14.00" fill="#000000"> &#160;&#160;&#160;&#160;&#160;&#160;&#160;&#160;result = {n=1}</text>
<text text-anchor="middle" x="1349" y="-269.9004" font-family="Inconsolata" font-size="14.00" fill="#000000"> &#160;&#160;&#160;&#160;&#160;end</text>
<text text-anchor="middle" x="1349" y="-254.5003" font-family="Inconsolata" font-size="14.00" fill="#000000"> &#160;&#160;&#160;&#160;&#160;modeS:printResults(result)</text>
<text text-anchor="middle" x="1349" y="-239.1003" font-family="Inconsolata" font-size="14.00" fill="#000000"> &#160;&#160;&#160;&#160;&#160;modeS:shiftMode(modeS.raga_default)</text>
<text text-anchor="middle" x="1349" y="-223.7003" font-family="Inconsolata" font-size="14.00" fill="#000000"> &#160;&#160;else</text>
<text text-anchor="middle" x="1349" y="-208.3002" font-family="Inconsolata" font-size="14.00" fill="#000000"> &#160;&#160;&#160;&#160;&#160;modeS:shiftMode(modeS.raga_default)</text>
<text text-anchor="middle" x="1349" y="-192.9002" font-family="Inconsolata" font-size="14.00" fill="#000000"> &#160;&#160;&#160;&#160;&#160;modeS:clearResults()</text>
<text text-anchor="middle" x="1349" y="-177.5002" font-family="Inconsolata" font-size="14.00" fill="#000000"> &#160;&#160;end</text>
<text text-anchor="middle" x="1349" y="-162.1001" font-family="Inconsolata" font-size="14.00" fill="#000000">end</text>
</g>
<!-- codeblock_6&#45;&gt;leaf_20 -->
<g id="edge20" class="edge">
<title>codeblock_6&#45;&gt;leaf_20</title>
<path fill="none" stroke="#000000" stroke-dasharray="5,2" d="M1252.5926,-475.3971C1260.7376,-458.3314 1273.762,-431.042 1287.637,-401.9706"/>
<polygon fill="#000000" stroke="#000000" points="1290.8172,-403.433 1291.9659,-392.9006 1284.4998,-400.4178 1290.8172,-403.433"/>
</g>
<!-- leaf_21 -->
<g id="node22" class="node">
<title>leaf_21</title>
<polygon fill="none" stroke="#c0c0c0" points="2168,-439.401 1620,-439.401 1620,-107.3997 2168,-107.3997 2168,-439.401"/>
<text text-anchor="middle" x="1894" y="-424.2007" font-family="Inconsolata" font-size="14.00" fill="#000000">local function _makeControl(num)</text>
<text text-anchor="middle" x="1894" y="-408.8006" font-family="Inconsolata" font-size="14.00" fill="#000000"> &#160;&#160;&#160;return function(modeS, category, value)</text>
<text text-anchor="middle" x="1894" y="-393.4006" font-family="Inconsolata" font-size="14.00" fill="#000000"> &#160;&#160;&#160;&#160;&#160;&#160;local searchResult = modeS.hist:search(tostring(modeS.txtbuf))</text>
<text text-anchor="middle" x="1894" y="-378.0006" font-family="Inconsolata" font-size="14.00" fill="#000000"> &#160;&#160;&#160;&#160;&#160;&#160;if #searchResult &gt; 0 then</text>
<text text-anchor="middle" x="1894" y="-362.6005" font-family="Inconsolata" font-size="14.00" fill="#000000"> &#160;&#160;&#160;&#160;&#160;&#160;&#160;&#160;&#160;local result</text>
<text text-anchor="middle" x="1894" y="-347.2005" font-family="Inconsolata" font-size="14.00" fill="#000000"> &#160;&#160;&#160;&#160;&#160;&#160;&#160;&#160;&#160;modeS.txtbuf, result = modeS.hist:index(searchResult.cursors[num])</text>
<text text-anchor="middle" x="1894" y="-331.8005" font-family="Inconsolata" font-size="14.00" fill="#000000"> &#160;&#160;&#160;&#160;&#160;&#160;&#160;&#160;&#160;if not result then</text>
<text text-anchor="middle" x="1894" y="-316.4004" font-family="Inconsolata" font-size="14.00" fill="#000000"> &#160;&#160;&#160;&#160;&#160;&#160;&#160;&#160;&#160;&#160;&#160;&#160;result = {n=1}</text>
<text text-anchor="middle" x="1894" y="-301.0004" font-family="Inconsolata" font-size="14.00" fill="#000000"> &#160;&#160;&#160;&#160;&#160;&#160;&#160;&#160;&#160;end</text>
<text text-anchor="middle" x="1894" y="-285.6004" font-family="Inconsolata" font-size="14.00" fill="#000000"> &#160;&#160;&#160;&#160;&#160;&#160;&#160;&#160;&#160;modeS:printResults(result)</text>
<text text-anchor="middle" x="1894" y="-270.2003" font-family="Inconsolata" font-size="14.00" fill="#000000"> &#160;&#160;&#160;&#160;&#160;&#160;&#160;&#160;&#160;modeS:shiftMode(modeS.raga_default)</text>
<text text-anchor="middle" x="1894" y="-254.8003" font-family="Inconsolata" font-size="14.00" fill="#000000"> &#160;&#160;&#160;&#160;&#160;&#160;else</text>
<text text-anchor="middle" x="1894" y="-239.4003" font-family="Inconsolata" font-size="14.00" fill="#000000"> &#160;&#160;&#160;&#160;&#160;&#160;&#160;&#160;&#160;modeS:shiftMode(modeS.raga_default)</text>
<text text-anchor="middle" x="1894" y="-224.0002" font-family="Inconsolata" font-size="14.00" fill="#000000"> &#160;&#160;&#160;&#160;&#160;&#160;&#160;&#160;&#160;modeS:clearResults()</text>
<text text-anchor="middle" x="1894" y="-208.6002" font-family="Inconsolata" font-size="14.00" fill="#000000"> &#160;&#160;&#160;&#160;&#160;&#160;end</text>
<text text-anchor="middle" x="1894" y="-193.2002" font-family="Inconsolata" font-size="14.00" fill="#000000"> &#160;&#160;&#160;end</text>
<text text-anchor="middle" x="1894" y="-177.8002" font-family="Inconsolata" font-size="14.00" fill="#000000">end</text>
<text text-anchor="middle" x="1894" y="-146.4001" font-family="Inconsolata" font-size="14.00" fill="#000000">for i = 1, 9 do</text>
<text text-anchor="middle" x="1894" y="-131.0001" font-family="Inconsolata" font-size="14.00" fill="#000000"> &#160;&#160;Search.ALT[&quot;M&#45;&quot; ..tostring(i)] = _makeControl(i)</text>
<text text-anchor="middle" x="1894" y="-115.6001" font-family="Inconsolata" font-size="14.00" fill="#000000">end</text>
</g>
<!-- codeblock_7&#45;&gt;leaf_21 -->
<g id="edge21" class="edge">
<title>codeblock_7&#45;&gt;leaf_21</title>
<path fill="none" stroke="#000000" stroke-dasharray="5,2" d="M1674.1544,-475.769C1682.6732,-467.9274 1693.5931,-457.8756 1706.0005,-446.4545"/>
<polygon fill="#000000" stroke="#000000" points="1708.4837,-448.9258 1713.4708,-439.5781 1703.7429,-443.7756 1708.4837,-448.9258"/>
</g>
<!-- leaf_22 -->
<g id="node23" class="node">
<title>leaf_22</title>
<polygon fill="none" stroke="#c0c0c0" points="2293.5,-291.4003 2186.5,-291.4003 2186.5,-255.4003 2293.5,-255.4003 2293.5,-291.4003"/>
<text text-anchor="middle" x="2240" y="-269.9004" font-family="Inconsolata" font-size="14.00" fill="#000000">return Search</text>
</g>
<!-- codeblock_8&#45;&gt;leaf_22 -->
<g id="edge22" class="edge">
<title>codeblock_8&#45;&gt;leaf_22</title>
<path fill="none" stroke="#000000" stroke-dasharray="5,2" d="M2095.2601,-482.3306C2123.2691,-474.5019 2155.0269,-461.3373 2177,-439.4007 2215.1213,-401.3425 2230.554,-337.8921 2236.5101,-301.4496"/>
<polygon fill="#000000" stroke="#000000" points="2239.9805,-301.9075 2238.0096,-291.4976 2233.0586,-300.8645 2239.9805,-301.9075"/>
</g>
<!-- leaf_14 -->
<g id="node15" class="node">
<title>leaf_14</title>
<polygon fill="none" stroke="#c0c0c0" points="175,-71.6012 19,-71.6012 19,.2011 175,.2011 175,-71.6012"/>
<text text-anchor="middle" x="97" y="-8.2" font-family="Inconsolata" font-size="14.00" fill="#000000">A light wrapper over</text>
</g>
<!-- raw_10&#45;&gt;leaf_14 -->
<g id="edge14" class="edge">
<title>raw_10&#45;&gt;leaf_14</title>
<path fill="none" stroke="#000000" stroke-dasharray="5,2" d="M115.4638,-255.1431C112.3682,-218.3509 105.2975,-134.3164 100.8595,-81.5707"/>
<polygon fill="#000000" stroke="#000000" points="104.3352,-81.1333 100.009,-71.462 97.3598,-81.7203 104.3352,-81.1333"/>
</g>
<!-- leaf_15 -->
<g id="node16" class="node">
<title>leaf_15</title>
<polygon fill="none" stroke="#c0c0c0" points="247,-53.7 193,-53.7 193,-17.7 247,-17.7 247,-53.7"/>
<text text-anchor="middle" x="220" y="-32.2" font-family="Inconsolata" font-size="14.00" fill="#000000"> </text>
</g>
<!-- prespace_11&#45;&gt;leaf_15 -->
<g id="edge15" class="edge">
<title>prespace_11&#45;&gt;leaf_15</title>
<path fill="none" stroke="#000000" stroke-dasharray="5,2" d="M208.9217,-255.1431C211.0027,-213.922 216.0774,-113.4001 218.5703,-64.0197"/>
<polygon fill="#000000" stroke="#000000" points="222.0664,-64.1833 219.0752,-54.0195 215.0753,-63.8303 222.0664,-64.1833"/>
</g>
<!-- leaf_16 -->
<g id="node17" class="node">
<title>leaf_16</title>
<polygon fill="none" stroke="#c0c0c0" points="331,-53.7 277,-53.7 277,-17.7 331,-17.7 331,-53.7"/>
<text text-anchor="middle" x="304" y="-32.2" font-family="Inconsolata" font-size="14.00" fill="#000000">nerf</text>
</g>
<!-- literal_12&#45;&gt;leaf_16 -->
<g id="edge16" class="edge">
<title>literal_12&#45;&gt;leaf_16</title>
<path fill="none" stroke="#000000" stroke-dasharray="5,2" d="M304,-255.1431C304,-213.922 304,-113.4001 304,-64.0197"/>
<polygon fill="#000000" stroke="#000000" points="307.5001,-64.0194 304,-54.0195 300.5001,-64.0195 307.5001,-64.0194"/>
</g>
<!-- leaf_17 -->
<g id="node18" class="node">
<title>leaf_17</title>
<polygon fill="none" stroke="#c0c0c0" points="407,-55.6021 353,-55.6021 353,-15.7979 407,-15.7979 407,-55.6021"/>
<text text-anchor="middle" x="380" y="-40.2" font-family="Inconsolata" font-size="14.00" fill="#000000">.</text>
</g>
<!-- raw_13&#45;&gt;leaf_17 -->
<g id="edge17" class="edge">
<title>raw_13&#45;&gt;leaf_17</title>
<path fill="none" stroke="#000000" stroke-dasharray="5,2" d="M380,-255.1431C380,-214.4284 380,-115.861 380,-65.8626"/>
<polygon fill="#000000" stroke="#000000" points="383.5001,-65.6831 380,-55.6832 376.5001,-65.6832 383.5001,-65.6831"/>
</g>
</g>
</svg>
