<?xml version="1.0" encoding="UTF-8" standalone="no"?>
<!DOCTYPE svg PUBLIC "-//W3C//DTD SVG 1.1//EN"
 "http://www.w3.org/Graphics/SVG/1.1/DTD/svg11.dtd">
<!-- Generated by graphviz version 2.40.1 (20161225.0304)
 -->
<!-- Title: lpegNode Pages: 1 -->
<svg width="1603pt" height="463pt"
 viewBox="0.00 0.00 1602.50 462.60" xmlns="http://www.w3.org/2000/svg" xmlns:xlink="http://www.w3.org/1999/xlink">
<g id="graph0" class="graph" transform="scale(1 1) rotate(0) translate(4 458.6003)">
<title>lpegNode</title>
<polygon fill="#ffffff" stroke="transparent" points="-4,4 -4,-458.6003 1598.5,-458.6003 1598.5,4 -4,4"/>
<!-- doc_0 -->
<g id="node1" class="node">
<title>doc_0</title>
<ellipse fill="none" stroke="#000000" cx="633" cy="-436.6003" rx="42.1216" ry="18"/>
<text text-anchor="middle" x="633" y="-432.4003" font-family="Helvetica,sans-Serif" font-size="14.00" fill="#000000">doc &#45; 27</text>
</g>
<!-- section_1 -->
<g id="node2" class="node">
<title>section_1</title>
<ellipse fill="none" stroke="#000000" cx="633" cy="-364.6003" rx="60.9826" ry="18"/>
<text text-anchor="middle" x="633" y="-360.4003" font-family="Helvetica,sans-Serif" font-size="14.00" fill="#000000">section: 1&#45;27</text>
</g>
<!-- doc_0&#45;&gt;section_1 -->
<g id="edge1" class="edge">
<title>doc_0&#45;&gt;section_1</title>
<path fill="none" stroke="#000000" stroke-dasharray="5,2" d="M633,-418.4316C633,-410.7312 633,-401.5746 633,-393.0169"/>
<polygon fill="#000000" stroke="#000000" points="636.5001,-393.0135 633,-383.0135 629.5001,-393.0136 636.5001,-393.0135"/>
</g>
<!-- header_2 -->
<g id="node3" class="node">
<title>header_2</title>
<ellipse fill="none" stroke="#000000" cx="120" cy="-292.6003" rx="50.3327" ry="18"/>
<text text-anchor="middle" x="120" y="-288.4003" font-family="Helvetica,sans-Serif" font-size="14.00" fill="#000000">1 : Search</text>
</g>
<!-- section_1&#45;&gt;header_2 -->
<g id="edge2" class="edge">
<title>section_1&#45;&gt;header_2</title>
<path fill="none" stroke="#000000" stroke-dasharray="5,2" d="M578.1,-356.895C480.2404,-343.1603 276.6196,-314.582 177.1583,-300.6225"/>
<polygon fill="#000000" stroke="#000000" points="177.3888,-297.1206 166.9994,-299.1967 176.4158,-304.0527 177.3888,-297.1206"/>
</g>
<!-- prose_3 -->
<g id="node4" class="node">
<title>prose_3</title>
<ellipse fill="none" stroke="#000000" cx="304" cy="-292.6003" rx="32.4585" ry="18"/>
<text text-anchor="middle" x="304" y="-288.4003" font-family="Helvetica,sans-Serif" font-size="14.00" fill="#000000">prose</text>
</g>
<!-- section_1&#45;&gt;prose_3 -->
<g id="edge3" class="edge">
<title>section_1&#45;&gt;prose_3</title>
<path fill="none" stroke="#000000" stroke-dasharray="5,2" d="M584.1006,-353.8989C518.9536,-339.6418 404.8942,-314.6805 344.3769,-301.4366"/>
<polygon fill="#000000" stroke="#000000" points="344.9483,-297.9789 334.4313,-299.26 343.4518,-304.817 344.9483,-297.9789"/>
</g>
<!-- codeblock_4 -->
<g id="node5" class="node">
<title>codeblock_4</title>
<ellipse fill="none" stroke="#000000" cx="633" cy="-292.6003" rx="67.748" ry="18"/>
<text text-anchor="middle" x="633" y="-288.4003" font-family="Helvetica,sans-Serif" font-size="14.00" fill="#000000">code block 7&#45;9</text>
</g>
<!-- section_1&#45;&gt;codeblock_4 -->
<g id="edge4" class="edge">
<title>section_1&#45;&gt;codeblock_4</title>
<path fill="none" stroke="#000000" stroke-dasharray="5,2" d="M633,-346.4316C633,-338.7312 633,-329.5746 633,-321.0169"/>
<polygon fill="#000000" stroke="#000000" points="636.5001,-321.0135 633,-311.0135 629.5001,-321.0136 636.5001,-321.0135"/>
</g>
<!-- codeblock_5 -->
<g id="node6" class="node">
<title>codeblock_5</title>
<ellipse fill="none" stroke="#000000" cx="881" cy="-292.6003" rx="76.6175" ry="18"/>
<text text-anchor="middle" x="881" y="-288.4003" font-family="Helvetica,sans-Serif" font-size="14.00" fill="#000000">code block 11&#45;15</text>
</g>
<!-- section_1&#45;&gt;codeblock_5 -->
<g id="edge5" class="edge">
<title>section_1&#45;&gt;codeblock_5</title>
<path fill="none" stroke="#000000" stroke-dasharray="5,2" d="M676.4821,-351.9764C717.0349,-340.203 777.8297,-322.5529 822.6011,-309.5548"/>
<polygon fill="#000000" stroke="#000000" points="823.8411,-312.8394 832.4687,-306.69 821.8894,-306.117 823.8411,-312.8394"/>
</g>
<!-- codeblock_6 -->
<g id="node7" class="node">
<title>codeblock_6</title>
<ellipse fill="none" stroke="#000000" cx="1199" cy="-292.6003" rx="77.4211" ry="18"/>
<text text-anchor="middle" x="1199" y="-288.4003" font-family="Helvetica,sans-Serif" font-size="14.00" fill="#000000">code block 18&#45;27</text>
</g>
<!-- section_1&#45;&gt;codeblock_6 -->
<g id="edge6" class="edge">
<title>section_1&#45;&gt;codeblock_6</title>
<path fill="none" stroke="#000000" stroke-dasharray="5,2" d="M688.8193,-357.4996C790.2048,-344.6025 1004.8134,-317.3025 1120.7539,-302.5538"/>
<polygon fill="#000000" stroke="#000000" points="1121.4977,-305.9875 1130.9761,-301.2535 1120.6143,-299.0435 1121.4977,-305.9875"/>
</g>
<!-- leaf_7 -->
<g id="node8" class="node">
<title>leaf_7</title>
<polygon fill="none" stroke="#c0c0c0" points="72,-191.0002 0,-191.0002 0,-155.0002 72,-155.0002 72,-191.0002"/>
<text text-anchor="middle" x="36" y="-169.5002" font-family="Inconsolata" font-size="14.00" fill="#000000">* Search</text>
</g>
<!-- header_2&#45;&gt;leaf_7 -->
<g id="edge7" class="edge">
<title>header_2&#45;&gt;leaf_7</title>
<path fill="none" stroke="#000000" stroke-dasharray="5,2" d="M107.2461,-275.1671C99.5756,-264.6266 89.6538,-250.8935 81,-238.6003 71.9799,-225.7867 62.1159,-211.4452 53.9279,-199.4473"/>
<polygon fill="#000000" stroke="#000000" points="56.8198,-197.4756 48.298,-191.1804 51.034,-201.4159 56.8198,-197.4756"/>
</g>
<!-- raw_8 -->
<g id="node9" class="node">
<title>raw_8</title>
<ellipse fill="none" stroke="#000000" cx="117" cy="-173.0002" rx="27" ry="18"/>
<text text-anchor="middle" x="117" y="-168.8002" font-family="Helvetica,sans-Serif" font-size="14.00" fill="#000000">raw</text>
</g>
<!-- prose_3&#45;&gt;raw_8 -->
<g id="edge8" class="edge">
<title>prose_3&#45;&gt;raw_8</title>
<path fill="none" stroke="#000000" stroke-dasharray="5,2" d="M272.6692,-288.1144C239.6219,-281.9736 187.6344,-268.1394 153,-238.6003 141.1063,-228.4563 132.44,-213.3553 126.5947,-200.1983"/>
<polygon fill="#000000" stroke="#000000" points="129.7027,-198.5526 122.668,-190.6303 123.2269,-201.2104 129.7027,-198.5526"/>
</g>
<!-- prespace_9 -->
<g id="node10" class="node">
<title>prespace_9</title>
<ellipse fill="none" stroke="#000000" cx="208" cy="-173.0002" rx="46.4736" ry="18"/>
<text text-anchor="middle" x="208" y="-168.8002" font-family="Helvetica,sans-Serif" font-size="14.00" fill="#000000">prespace</text>
</g>
<!-- prose_3&#45;&gt;prespace_9 -->
<g id="edge9" class="edge">
<title>prose_3&#45;&gt;prespace_9</title>
<path fill="none" stroke="#000000" stroke-dasharray="5,2" d="M290.6516,-275.9704C274.5001,-255.8483 247.1404,-221.7626 228.3536,-198.3574"/>
<polygon fill="#000000" stroke="#000000" points="230.8459,-195.8709 221.8567,-190.2633 225.3869,-200.2527 230.8459,-195.8709"/>
</g>
<!-- literal_10 -->
<g id="node11" class="node">
<title>literal_10</title>
<ellipse fill="none" stroke="#000000" cx="304" cy="-173.0002" rx="31.481" ry="18"/>
<text text-anchor="middle" x="304" y="-168.8002" font-family="Helvetica,sans-Serif" font-size="14.00" fill="#000000">literal</text>
</g>
<!-- prose_3&#45;&gt;literal_10 -->
<g id="edge10" class="edge">
<title>prose_3&#45;&gt;literal_10</title>
<path fill="none" stroke="#000000" stroke-dasharray="5,2" d="M304,-274.4356C304,-255.0295 304,-224.0103 304,-201.3781"/>
<polygon fill="#000000" stroke="#000000" points="307.5001,-201.3358 304,-191.3358 300.5001,-201.3358 307.5001,-201.3358"/>
</g>
<!-- raw_11 -->
<g id="node12" class="node">
<title>raw_11</title>
<ellipse fill="none" stroke="#000000" cx="380" cy="-173.0002" rx="27" ry="18"/>
<text text-anchor="middle" x="380" y="-168.8002" font-family="Helvetica,sans-Serif" font-size="14.00" fill="#000000">raw</text>
</g>
<!-- prose_3&#45;&gt;raw_11 -->
<g id="edge11" class="edge">
<title>prose_3&#45;&gt;raw_11</title>
<path fill="none" stroke="#000000" stroke-dasharray="5,2" d="M317.2159,-275.993C325.3179,-265.5197 335.6931,-251.5681 344,-238.6003 352.0728,-225.998 360.1703,-211.4534 366.6354,-199.2666"/>
<polygon fill="#000000" stroke="#000000" points="369.9065,-200.5642 371.4387,-190.0807 363.7033,-197.3205 369.9065,-200.5642"/>
</g>
<!-- leaf_16 -->
<g id="node17" class="node">
<title>leaf_16</title>
<polygon fill="none" stroke="#c0c0c0" points="840.5,-191.0002 425.5,-191.0002 425.5,-155.0002 840.5,-155.0002 840.5,-191.0002"/>
<text text-anchor="middle" x="633" y="-169.5002" font-family="Inconsolata" font-size="14.00" fill="#000000">local clone = assert(table.clone, &quot;requires table.clone&quot;)</text>
</g>
<!-- codeblock_4&#45;&gt;leaf_16 -->
<g id="edge16" class="edge">
<title>codeblock_4&#45;&gt;leaf_16</title>
<path fill="none" stroke="#000000" stroke-dasharray="5,2" d="M633,-274.4356C633,-255.0295 633,-224.0103 633,-201.3781"/>
<polygon fill="#000000" stroke="#000000" points="636.5001,-201.3358 633,-191.3358 629.5001,-201.3358 636.5001,-201.3358"/>
</g>
<!-- leaf_17 -->
<g id="node18" class="node">
<title>leaf_17</title>
<polygon fill="none" stroke="#c0c0c0" points="1077.5,-200.3006 858.5,-200.3006 858.5,-145.6997 1077.5,-145.6997 1077.5,-200.3006"/>
<text text-anchor="middle" x="968" y="-185.2002" font-family="Inconsolata" font-size="14.00" fill="#000000">local Nerf = require &quot;nerf&quot;</text>
<text text-anchor="middle" x="968" y="-153.8002" font-family="Inconsolata" font-size="14.00" fill="#000000">local Search = clone(Nerf, 3)</text>
</g>
<!-- codeblock_5&#45;&gt;leaf_17 -->
<g id="edge17" class="edge">
<title>codeblock_5&#45;&gt;leaf_17</title>
<path fill="none" stroke="#000000" stroke-dasharray="5,2" d="M894.0248,-274.6949C906.6627,-257.3214 926.1974,-230.4667 942.0195,-208.7159"/>
<polygon fill="#000000" stroke="#000000" points="945.0471,-210.5037 948.0993,-200.358 939.3863,-206.3859 945.0471,-210.5037"/>
</g>
<!-- leaf_18 -->
<g id="node19" class="node">
<title>leaf_18</title>
<polygon fill="none" stroke="#c0c0c0" points="1594.5,-238.7006 1095.5,-238.7006 1095.5,-107.2998 1594.5,-107.2998 1594.5,-238.7006"/>
<text text-anchor="middle" x="1345" y="-223.4003" font-family="Inconsolata" font-size="14.00" fill="#000000">function Search.NAV.RETURN(modeS, category, value)</text>
<text text-anchor="middle" x="1345" y="-208.0002" font-family="Inconsolata" font-size="14.00" fill="#000000"> &#160;&#160;local searchResult = modeS.hist:search(tostring(modeS.txtbuf)</text>
<text text-anchor="middle" x="1345" y="-192.6002" font-family="Inconsolata" font-size="14.00" fill="#000000"> &#160;&#160;if #searchResult &gt; 0 then</text>
<text text-anchor="middle" x="1345" y="-177.2002" font-family="Inconsolata" font-size="14.00" fill="#000000"> &#160;&#160;&#160;&#160;&#160;local result</text>
<text text-anchor="middle" x="1345" y="-161.8002" font-family="Inconsolata" font-size="14.00" fill="#000000"> &#160;&#160;&#160;&#160;&#160;modeS.txtbuf, result = modeS.hist:index(searchResult.cursor[1])</text>
<text text-anchor="middle" x="1345" y="-146.4001" font-family="Inconsolata" font-size="14.00" fill="#000000"> &#160;&#160;&#160;&#160;&#160;modeS.printResults(result)</text>
<text text-anchor="middle" x="1345" y="-131.0001" font-family="Inconsolata" font-size="14.00" fill="#000000"> &#160;&#160;end</text>
<text text-anchor="middle" x="1345" y="-115.6001" font-family="Inconsolata" font-size="14.00" fill="#000000">end</text>
</g>
<!-- codeblock_6&#45;&gt;leaf_18 -->
<g id="edge18" class="edge">
<title>codeblock_6&#45;&gt;leaf_18</title>
<path fill="none" stroke="#000000" stroke-dasharray="5,2" d="M1220.2297,-275.2094C1230.3448,-266.9233 1243.1922,-256.399 1256.7755,-245.2718"/>
<polygon fill="#000000" stroke="#000000" points="1259.3253,-247.7075 1264.8432,-238.6629 1254.8894,-242.2924 1259.3253,-247.7075"/>
</g>
<!-- leaf_12 -->
<g id="node13" class="node">
<title>leaf_12</title>
<polygon fill="none" stroke="#c0c0c0" points="175,-71.6012 19,-71.6012 19,.2011 175,.2011 175,-71.6012"/>
<text text-anchor="middle" x="97" y="-8.2" font-family="Inconsolata" font-size="14.00" fill="#000000">A light wrapper over</text>
</g>
<!-- raw_8&#45;&gt;leaf_12 -->
<g id="edge12" class="edge">
<title>raw_8&#45;&gt;leaf_12</title>
<path fill="none" stroke="#000000" stroke-dasharray="5,2" d="M114.3853,-155.0506C111.6866,-136.5233 107.3663,-106.8647 103.7078,-81.749"/>
<polygon fill="#000000" stroke="#000000" points="107.1442,-81.0585 102.2392,-71.6675 100.2173,-82.0676 107.1442,-81.0585"/>
</g>
<!-- leaf_13 -->
<g id="node14" class="node">
<title>leaf_13</title>
<polygon fill="none" stroke="#c0c0c0" points="247,-53.7 193,-53.7 193,-17.7 247,-17.7 247,-53.7"/>
<text text-anchor="middle" x="220" y="-32.2" font-family="Inconsolata" font-size="14.00" fill="#000000"> </text>
</g>
<!-- prespace_9&#45;&gt;leaf_13 -->
<g id="edge13" class="edge">
<title>prespace_9&#45;&gt;leaf_13</title>
<path fill="none" stroke="#000000" stroke-dasharray="5,2" d="M209.5935,-154.7678C211.6197,-131.5846 215.1401,-91.3052 217.519,-64.0863"/>
<polygon fill="#000000" stroke="#000000" points="221.0158,-64.2746 218.3999,-54.0078 214.0424,-63.6651 221.0158,-64.2746"/>
</g>
<!-- leaf_14 -->
<g id="node15" class="node">
<title>leaf_14</title>
<polygon fill="none" stroke="#c0c0c0" points="331,-53.7 277,-53.7 277,-17.7 331,-17.7 331,-53.7"/>
<text text-anchor="middle" x="304" y="-32.2" font-family="Inconsolata" font-size="14.00" fill="#000000">nerf</text>
</g>
<!-- literal_10&#45;&gt;leaf_14 -->
<g id="edge14" class="edge">
<title>literal_10&#45;&gt;leaf_14</title>
<path fill="none" stroke="#000000" stroke-dasharray="5,2" d="M304,-154.7678C304,-131.5846 304,-91.3052 304,-64.0863"/>
<polygon fill="#000000" stroke="#000000" points="307.5001,-64.0078 304,-54.0078 300.5001,-64.0079 307.5001,-64.0078"/>
</g>
<!-- leaf_15 -->
<g id="node16" class="node">
<title>leaf_15</title>
<polygon fill="none" stroke="#c0c0c0" points="407,-55.6021 353,-55.6021 353,-15.7979 407,-15.7979 407,-55.6021"/>
<text text-anchor="middle" x="380" y="-40.2" font-family="Inconsolata" font-size="14.00" fill="#000000">.</text>
</g>
<!-- raw_11&#45;&gt;leaf_15 -->
<g id="edge15" class="edge">
<title>raw_11&#45;&gt;leaf_15</title>
<path fill="none" stroke="#000000" stroke-dasharray="5,2" d="M380,-154.7678C380,-132.0998 380,-93.0869 380,-65.9199"/>
<polygon fill="#000000" stroke="#000000" points="383.5001,-65.7932 380,-55.7933 376.5001,-65.7933 383.5001,-65.7932"/>
</g>
</g>
</svg>
