<?xml version="1.0" encoding="UTF-8" standalone="no"?>
<!DOCTYPE svg PUBLIC "-//W3C//DTD SVG 1.1//EN"
 "http://www.w3.org/Graphics/SVG/1.1/DTD/svg11.dtd">
<!-- Generated by graphviz version 2.40.1 (20161225.0304)
 -->
<!-- Title: lpegNode Pages: 1 -->
<svg width="2793pt" height="755pt"
 viewBox="0.00 0.00 2793.46 754.80" xmlns="http://www.w3.org/2000/svg" xmlns:xlink="http://www.w3.org/1999/xlink">
<g id="graph0" class="graph" transform="scale(1 1) rotate(0) translate(4 750.8007)">
<title>lpegNode</title>
<polygon fill="#ffffff" stroke="transparent" points="-4,4 -4,-750.8007 2789.4605,-750.8007 2789.4605,4 -4,4"/>
<!-- doc_0 -->
<g id="node1" class="node">
<title>doc_0</title>
<ellipse fill="none" stroke="#000000" cx="968" cy="-728.8007" rx="42.1216" ry="18"/>
<text text-anchor="middle" x="968" y="-724.6007" font-family="Helvetica,sans-Serif" font-size="14.00" fill="#000000">doc &#45; 73</text>
</g>
<!-- section_1 -->
<g id="node2" class="node">
<title>section_1</title>
<ellipse fill="none" stroke="#000000" cx="968" cy="-656.8007" rx="60.9826" ry="18"/>
<text text-anchor="middle" x="968" y="-652.6007" font-family="Helvetica,sans-Serif" font-size="14.00" fill="#000000">section: 1&#45;61</text>
</g>
<!-- doc_0&#45;&gt;section_1 -->
<g id="edge1" class="edge">
<title>doc_0&#45;&gt;section_1</title>
<path fill="none" stroke="#000000" stroke-dasharray="5,2" d="M968,-710.632C968,-702.9316 968,-693.775 968,-685.2173"/>
<polygon fill="#000000" stroke="#000000" points="971.5001,-685.2139 968,-675.214 964.5001,-685.214 971.5001,-685.2139"/>
</g>
<!-- header_2 -->
<g id="node3" class="node">
<title>header_2</title>
<ellipse fill="none" stroke="#000000" cx="120" cy="-584.8007" rx="50.3327" ry="18"/>
<text text-anchor="middle" x="120" y="-580.6007" font-family="Helvetica,sans-Serif" font-size="14.00" fill="#000000">1 : Search</text>
</g>
<!-- section_1&#45;&gt;header_2 -->
<g id="edge2" class="edge">
<title>section_1&#45;&gt;header_2</title>
<path fill="none" stroke="#000000" stroke-dasharray="5,2" d="M908.025,-653.197C786.277,-645.6632 501.4605,-626.9267 263,-602.8007 234.7585,-599.9434 203.4662,-596.0838 177.3726,-592.6714"/>
<polygon fill="#000000" stroke="#000000" points="177.6473,-589.1774 167.2754,-591.3394 176.7317,-596.1172 177.6473,-589.1774"/>
</g>
<!-- prose_3 -->
<g id="node4" class="node">
<title>prose_3</title>
<ellipse fill="none" stroke="#000000" cx="304" cy="-584.8007" rx="32.4585" ry="18"/>
<text text-anchor="middle" x="304" y="-580.6007" font-family="Helvetica,sans-Serif" font-size="14.00" fill="#000000">prose</text>
</g>
<!-- section_1&#45;&gt;prose_3 -->
<g id="edge3" class="edge">
<title>section_1&#45;&gt;prose_3</title>
<path fill="none" stroke="#000000" stroke-dasharray="5,2" d="M910.813,-650.5997C779.7934,-636.3927 460.3851,-601.7581 345.7863,-589.3317"/>
<polygon fill="#000000" stroke="#000000" points="345.9833,-585.8327 335.6642,-588.2342 345.2286,-592.7919 345.9833,-585.8327"/>
</g>
<!-- codeblock_4 -->
<g id="node5" class="node">
<title>codeblock_4</title>
<ellipse fill="none" stroke="#000000" cx="720" cy="-584.8007" rx="67.748" ry="18"/>
<text text-anchor="middle" x="720" y="-580.6007" font-family="Helvetica,sans-Serif" font-size="14.00" fill="#000000">code block 7&#45;9</text>
</g>
<!-- section_1&#45;&gt;codeblock_4 -->
<g id="edge4" class="edge">
<title>section_1&#45;&gt;codeblock_4</title>
<path fill="none" stroke="#000000" stroke-dasharray="5,2" d="M924.5179,-644.1769C883.1034,-632.1533 820.5775,-614.0006 775.5668,-600.933"/>
<polygon fill="#000000" stroke="#000000" points="776.5363,-597.57 765.957,-598.143 774.5846,-604.2924 776.5363,-597.57"/>
</g>
<!-- codeblock_5 -->
<g id="node6" class="node">
<title>codeblock_5</title>
<ellipse fill="none" stroke="#000000" cx="968" cy="-584.8007" rx="76.6175" ry="18"/>
<text text-anchor="middle" x="968" y="-580.6007" font-family="Helvetica,sans-Serif" font-size="14.00" fill="#000000">code block 11&#45;15</text>
</g>
<!-- section_1&#45;&gt;codeblock_5 -->
<g id="edge5" class="edge">
<title>section_1&#45;&gt;codeblock_5</title>
<path fill="none" stroke="#000000" stroke-dasharray="5,2" d="M968,-638.632C968,-630.9316 968,-621.775 968,-613.2173"/>
<polygon fill="#000000" stroke="#000000" points="971.5001,-613.2139 968,-603.214 964.5001,-613.214 971.5001,-613.2139"/>
</g>
<!-- codeblock_6 -->
<g id="node7" class="node">
<title>codeblock_6</title>
<ellipse fill="none" stroke="#000000" cx="1246" cy="-584.8007" rx="77.4211" ry="18"/>
<text text-anchor="middle" x="1246" y="-580.6007" font-family="Helvetica,sans-Serif" font-size="14.00" fill="#000000">code block 18&#45;35</text>
</g>
<!-- section_1&#45;&gt;codeblock_6 -->
<g id="edge6" class="edge">
<title>section_1&#45;&gt;codeblock_6</title>
<path fill="none" stroke="#000000" stroke-dasharray="5,2" d="M1013.906,-644.9114C1060.4128,-632.8664 1132.6516,-614.1571 1184.1767,-600.8125"/>
<polygon fill="#000000" stroke="#000000" points="1185.0653,-604.1979 1193.8684,-598.3024 1183.3102,-597.4215 1185.0653,-604.1979"/>
</g>
<!-- codeblock_7 -->
<g id="node8" class="node">
<title>codeblock_7</title>
<ellipse fill="none" stroke="#000000" cx="1660" cy="-584.8007" rx="77.4211" ry="18"/>
<text text-anchor="middle" x="1660" y="-580.6007" font-family="Helvetica,sans-Serif" font-size="14.00" fill="#000000">code block 37&#45;59</text>
</g>
<!-- section_1&#45;&gt;codeblock_7 -->
<g id="edge7" class="edge">
<title>section_1&#45;&gt;codeblock_7</title>
<path fill="none" stroke="#000000" stroke-dasharray="5,2" d="M1025.5133,-650.8166C1148.4381,-638.0268 1437.0621,-607.9965 1578.7014,-593.2595"/>
<polygon fill="#000000" stroke="#000000" points="1579.4698,-596.6985 1589.0539,-592.1824 1578.7454,-589.7361 1579.4698,-596.6985"/>
</g>
<!-- section_8 -->
<g id="node9" class="node">
<title>section_8</title>
<ellipse fill="none" stroke="#000000" cx="2407" cy="-584.8007" rx="65.8187" ry="18"/>
<text text-anchor="middle" x="2407" y="-580.6007" font-family="Helvetica,sans-Serif" font-size="14.00" fill="#000000">section: 62&#45;73</text>
</g>
<!-- section_1&#45;&gt;section_8 -->
<g id="edge8" class="edge">
<title>section_1&#45;&gt;section_8</title>
<path fill="none" stroke="#000000" stroke-dasharray="5,2" d="M1028,-653.7986C1257.401,-642.3206 2078.7636,-601.2239 2332.0722,-588.5497"/>
<polygon fill="#000000" stroke="#000000" points="2332.4627,-592.0346 2342.2753,-588.0392 2332.1129,-585.0434 2332.4627,-592.0346"/>
</g>
<!-- leaf_9 -->
<g id="node10" class="node">
<title>leaf_9</title>
<polygon fill="none" stroke="#c0c0c0" points="72,-382.8004 0,-382.8004 0,-346.8004 72,-346.8004 72,-382.8004"/>
<text text-anchor="middle" x="36" y="-361.3004" font-family="Inconsolata" font-size="14.00" fill="#000000">* Search</text>
</g>
<!-- header_2&#45;&gt;leaf_9 -->
<g id="edge9" class="edge">
<title>header_2&#45;&gt;leaf_9</title>
<path fill="none" stroke="#000000" stroke-dasharray="5,2" d="M104.8964,-567.3421C96.8193,-557.239 87.2736,-543.9521 81,-530.8007 59.1908,-485.082 46.5255,-427.0616 40.4623,-393.119"/>
<polygon fill="#000000" stroke="#000000" points="43.865,-392.2539 38.7224,-382.9908 36.9661,-393.4391 43.865,-392.2539"/>
</g>
<!-- raw_10 -->
<g id="node11" class="node">
<title>raw_10</title>
<ellipse fill="none" stroke="#000000" cx="117" cy="-364.8004" rx="27" ry="18"/>
<text text-anchor="middle" x="117" y="-360.6004" font-family="Helvetica,sans-Serif" font-size="14.00" fill="#000000">raw</text>
</g>
<!-- prose_3&#45;&gt;raw_10 -->
<g id="edge10" class="edge">
<title>prose_3&#45;&gt;raw_10</title>
<path fill="none" stroke="#000000" stroke-dasharray="5,2" d="M271.813,-582.2683C237.2746,-577.7768 183.3065,-565.3233 153,-530.8007 119.2365,-492.3402 114.7061,-429.7367 115.2904,-393.3995"/>
<polygon fill="#000000" stroke="#000000" points="118.8004,-393.1242 115.6092,-383.0215 111.8037,-392.9092 118.8004,-393.1242"/>
</g>
<!-- prespace_11 -->
<g id="node12" class="node">
<title>prespace_11</title>
<ellipse fill="none" stroke="#000000" cx="208" cy="-364.8004" rx="46.4736" ry="18"/>
<text text-anchor="middle" x="208" y="-360.6004" font-family="Helvetica,sans-Serif" font-size="14.00" fill="#000000">prespace</text>
</g>
<!-- prose_3&#45;&gt;prespace_11 -->
<g id="edge11" class="edge">
<title>prose_3&#45;&gt;prespace_11</title>
<path fill="none" stroke="#000000" stroke-dasharray="5,2" d="M289.5729,-568.2029C281.2285,-557.9586 271.0233,-544.2435 264,-530.8007 240.1072,-485.0695 223.2894,-427.0532 214.6617,-393.1147"/>
<polygon fill="#000000" stroke="#000000" points="217.9544,-391.8511 212.1497,-382.9879 211.1603,-393.5364 217.9544,-391.8511"/>
</g>
<!-- literal_12 -->
<g id="node13" class="node">
<title>literal_12</title>
<ellipse fill="none" stroke="#000000" cx="304" cy="-364.8004" rx="31.481" ry="18"/>
<text text-anchor="middle" x="304" y="-360.6004" font-family="Helvetica,sans-Serif" font-size="14.00" fill="#000000">literal</text>
</g>
<!-- prose_3&#45;&gt;literal_12 -->
<g id="edge12" class="edge">
<title>prose_3&#45;&gt;literal_12</title>
<path fill="none" stroke="#000000" stroke-dasharray="5,2" d="M304,-566.7971C304,-528.6049 304,-439.2085 304,-393.226"/>
<polygon fill="#000000" stroke="#000000" points="307.5001,-393.0527 304,-383.0527 300.5001,-393.0527 307.5001,-393.0527"/>
</g>
<!-- raw_13 -->
<g id="node14" class="node">
<title>raw_13</title>
<ellipse fill="none" stroke="#000000" cx="380" cy="-364.8004" rx="27" ry="18"/>
<text text-anchor="middle" x="380" y="-360.6004" font-family="Helvetica,sans-Serif" font-size="14.00" fill="#000000">raw</text>
</g>
<!-- prose_3&#45;&gt;raw_13 -->
<g id="edge13" class="edge">
<title>prose_3&#45;&gt;raw_13</title>
<path fill="none" stroke="#000000" stroke-dasharray="5,2" d="M318.9809,-568.4729C327.5216,-558.3242 337.7387,-544.6149 344,-530.8007 364.652,-485.2365 373.7418,-427.1658 377.5243,-393.1717"/>
<polygon fill="#000000" stroke="#000000" points="381.0261,-393.3342 378.5738,-383.0271 374.0632,-392.6138 381.0261,-393.3342"/>
</g>
<!-- leaf_18 -->
<g id="node19" class="node">
<title>leaf_18</title>
<polygon fill="none" stroke="#c0c0c0" points="840.5,-382.8004 425.5,-382.8004 425.5,-346.8004 840.5,-346.8004 840.5,-382.8004"/>
<text text-anchor="middle" x="633" y="-361.3004" font-family="Inconsolata" font-size="14.00" fill="#000000">local clone = assert(table.clone, &quot;requires table.clone&quot;)</text>
</g>
<!-- codeblock_4&#45;&gt;leaf_18 -->
<g id="edge18" class="edge">
<title>codeblock_4&#45;&gt;leaf_18</title>
<path fill="none" stroke="#000000" stroke-dasharray="5,2" d="M712.8804,-566.7971C697.6816,-528.3632 661.9767,-438.0748 643.8978,-392.3581"/>
<polygon fill="#000000" stroke="#000000" points="647.1502,-391.0648 640.2179,-383.0527 640.6407,-393.6391 647.1502,-391.0648"/>
</g>
<!-- leaf_19 -->
<g id="node20" class="node">
<title>leaf_19</title>
<polygon fill="none" stroke="#c0c0c0" points="1077.5,-392.1008 858.5,-392.1008 858.5,-337.4999 1077.5,-337.4999 1077.5,-392.1008"/>
<text text-anchor="middle" x="968" y="-377.0004" font-family="Inconsolata" font-size="14.00" fill="#000000">local Nerf = require &quot;nerf&quot;</text>
<text text-anchor="middle" x="968" y="-345.6004" font-family="Inconsolata" font-size="14.00" fill="#000000">local Search = clone(Nerf, 3)</text>
</g>
<!-- codeblock_5&#45;&gt;leaf_19 -->
<g id="edge19" class="edge">
<title>codeblock_5&#45;&gt;leaf_19</title>
<path fill="none" stroke="#000000" stroke-dasharray="5,2" d="M968,-566.7971C968,-531.0197 968,-450.3085 968,-402.4449"/>
<polygon fill="#000000" stroke="#000000" points="971.5001,-402.1823 968,-392.1824 964.5001,-402.1824 971.5001,-402.1823"/>
</g>
<!-- leaf_20 -->
<g id="node21" class="node">
<title>leaf_20</title>
<polygon fill="none" stroke="#c0c0c0" points="1608.5,-492.2012 1095.5,-492.2012 1095.5,-237.3996 1608.5,-237.3996 1608.5,-492.2012"/>
<text text-anchor="middle" x="1352" y="-476.8006" font-family="Inconsolata" font-size="14.00" fill="#000000">function Search.NAV.RETURN(modeS, category, value)</text>
<text text-anchor="middle" x="1352" y="-461.4006" font-family="Inconsolata" font-size="14.00" fill="#000000"> &#160;&#160;local searchResult = modeS.hist:search(tostring(modeS.txtbuf))</text>
<text text-anchor="middle" x="1352" y="-446.0006" font-family="Inconsolata" font-size="14.00" fill="#000000"> &#160;&#160;if #searchResult &gt; 0 then</text>
<text text-anchor="middle" x="1352" y="-430.6005" font-family="Inconsolata" font-size="14.00" fill="#000000"> &#160;&#160;&#160;&#160;&#160;local result</text>
<text text-anchor="middle" x="1352" y="-415.2005" font-family="Inconsolata" font-size="14.00" fill="#000000"> &#160;&#160;&#160;&#160;&#160;local hl = searchResult.hl</text>
<text text-anchor="middle" x="1352" y="-399.8005" font-family="Inconsolata" font-size="14.00" fill="#000000"> &#160;&#160;&#160;&#160;&#160;modeS.txtbuf, result = modeS.hist:index(searchResult.cursors[hl])</text>
<text text-anchor="middle" x="1352" y="-384.4004" font-family="Inconsolata" font-size="14.00" fill="#000000"> &#160;&#160;&#160;&#160;&#160;if not result then</text>
<text text-anchor="middle" x="1352" y="-369.0004" font-family="Inconsolata" font-size="14.00" fill="#000000"> &#160;&#160;&#160;&#160;&#160;&#160;&#160;&#160;result = {n=1}</text>
<text text-anchor="middle" x="1352" y="-353.6004" font-family="Inconsolata" font-size="14.00" fill="#000000"> &#160;&#160;&#160;&#160;&#160;end</text>
<text text-anchor="middle" x="1352" y="-338.2003" font-family="Inconsolata" font-size="14.00" fill="#000000"> &#160;&#160;&#160;&#160;&#160;modeS.zones.results:replace(result)</text>
<text text-anchor="middle" x="1352" y="-322.8003" font-family="Inconsolata" font-size="14.00" fill="#000000"> &#160;&#160;&#160;&#160;&#160;modeS:shiftMode(modeS.raga_default)</text>
<text text-anchor="middle" x="1352" y="-307.4003" font-family="Inconsolata" font-size="14.00" fill="#000000"> &#160;&#160;else</text>
<text text-anchor="middle" x="1352" y="-292.0002" font-family="Inconsolata" font-size="14.00" fill="#000000"> &#160;&#160;&#160;&#160;&#160;modeS:shiftMode(modeS.raga_default)</text>
<text text-anchor="middle" x="1352" y="-276.6002" font-family="Inconsolata" font-size="14.00" fill="#000000"> &#160;&#160;&#160;&#160;&#160;modeS.zones.results:replace &quot;&quot;</text>
<text text-anchor="middle" x="1352" y="-261.2002" font-family="Inconsolata" font-size="14.00" fill="#000000"> &#160;&#160;end</text>
<text text-anchor="middle" x="1352" y="-245.8002" font-family="Inconsolata" font-size="14.00" fill="#000000">end</text>
</g>
<!-- codeblock_6&#45;&gt;leaf_20 -->
<g id="edge20" class="edge">
<title>codeblock_6&#45;&gt;leaf_20</title>
<path fill="none" stroke="#000000" stroke-dasharray="5,2" d="M1254.6744,-566.7971C1262.1272,-551.3291 1273.6268,-527.462 1286.1446,-501.4817"/>
<polygon fill="#000000" stroke="#000000" points="1289.4222,-502.7424 1290.6097,-492.2143 1283.116,-499.7039 1289.4222,-502.7424"/>
</g>
<!-- leaf_21 -->
<g id="node22" class="node">
<title>leaf_21</title>
<polygon fill="none" stroke="#c0c0c0" points="2175,-530.801 1627,-530.801 1627,-198.7998 2175,-198.7998 2175,-530.801"/>
<text text-anchor="middle" x="1901" y="-515.6007" font-family="Inconsolata" font-size="14.00" fill="#000000">local function _makeControl(num)</text>
<text text-anchor="middle" x="1901" y="-500.2007" font-family="Inconsolata" font-size="14.00" fill="#000000"> &#160;&#160;&#160;return function(modeS, category, value)</text>
<text text-anchor="middle" x="1901" y="-484.8006" font-family="Inconsolata" font-size="14.00" fill="#000000"> &#160;&#160;&#160;&#160;&#160;&#160;local searchResult = modeS.hist:search(tostring(modeS.txtbuf))</text>
<text text-anchor="middle" x="1901" y="-469.4006" font-family="Inconsolata" font-size="14.00" fill="#000000"> &#160;&#160;&#160;&#160;&#160;&#160;if #searchResult &gt; 0 then</text>
<text text-anchor="middle" x="1901" y="-454.0006" font-family="Inconsolata" font-size="14.00" fill="#000000"> &#160;&#160;&#160;&#160;&#160;&#160;&#160;&#160;&#160;local result</text>
<text text-anchor="middle" x="1901" y="-438.6005" font-family="Inconsolata" font-size="14.00" fill="#000000"> &#160;&#160;&#160;&#160;&#160;&#160;&#160;&#160;&#160;modeS.txtbuf, result = modeS.hist:index(searchResult.cursors[num])</text>
<text text-anchor="middle" x="1901" y="-423.2005" font-family="Inconsolata" font-size="14.00" fill="#000000"> &#160;&#160;&#160;&#160;&#160;&#160;&#160;&#160;&#160;if not result then</text>
<text text-anchor="middle" x="1901" y="-407.8005" font-family="Inconsolata" font-size="14.00" fill="#000000"> &#160;&#160;&#160;&#160;&#160;&#160;&#160;&#160;&#160;&#160;&#160;&#160;result = {n=1}</text>
<text text-anchor="middle" x="1901" y="-392.4004" font-family="Inconsolata" font-size="14.00" fill="#000000"> &#160;&#160;&#160;&#160;&#160;&#160;&#160;&#160;&#160;end</text>
<text text-anchor="middle" x="1901" y="-377.0004" font-family="Inconsolata" font-size="14.00" fill="#000000"> &#160;&#160;&#160;&#160;&#160;&#160;&#160;&#160;&#160;modeS.zones.results:replace(result)</text>
<text text-anchor="middle" x="1901" y="-361.6004" font-family="Inconsolata" font-size="14.00" fill="#000000"> &#160;&#160;&#160;&#160;&#160;&#160;&#160;&#160;&#160;modeS:shiftMode(modeS.raga_default)</text>
<text text-anchor="middle" x="1901" y="-346.2003" font-family="Inconsolata" font-size="14.00" fill="#000000"> &#160;&#160;&#160;&#160;&#160;&#160;else</text>
<text text-anchor="middle" x="1901" y="-330.8003" font-family="Inconsolata" font-size="14.00" fill="#000000"> &#160;&#160;&#160;&#160;&#160;&#160;&#160;&#160;&#160;modeS:shiftMode(modeS.raga_default)</text>
<text text-anchor="middle" x="1901" y="-315.4003" font-family="Inconsolata" font-size="14.00" fill="#000000"> &#160;&#160;&#160;&#160;&#160;&#160;&#160;&#160;&#160;modeS.zones.results:replace &quot;&quot;</text>
<text text-anchor="middle" x="1901" y="-300.0002" font-family="Inconsolata" font-size="14.00" fill="#000000"> &#160;&#160;&#160;&#160;&#160;&#160;end</text>
<text text-anchor="middle" x="1901" y="-284.6002" font-family="Inconsolata" font-size="14.00" fill="#000000"> &#160;&#160;&#160;end</text>
<text text-anchor="middle" x="1901" y="-269.2002" font-family="Inconsolata" font-size="14.00" fill="#000000">end</text>
<text text-anchor="middle" x="1901" y="-237.8002" font-family="Inconsolata" font-size="14.00" fill="#000000">for i = 1, 9 do</text>
<text text-anchor="middle" x="1901" y="-222.4001" font-family="Inconsolata" font-size="14.00" fill="#000000"> &#160;&#160;Search.ALT[&quot;M&#45;&quot; ..tostring(i)] = _makeControl(i)</text>
<text text-anchor="middle" x="1901" y="-207.0001" font-family="Inconsolata" font-size="14.00" fill="#000000">end</text>
</g>
<!-- codeblock_7&#45;&gt;leaf_21 -->
<g id="edge21" class="edge">
<title>codeblock_7&#45;&gt;leaf_21</title>
<path fill="none" stroke="#000000" stroke-dasharray="5,2" d="M1679.3147,-567.169C1687.9048,-559.3274 1698.916,-549.2756 1711.4273,-537.8546"/>
<polygon fill="#000000" stroke="#000000" points="1713.9342,-540.3051 1718.9601,-530.9782 1709.2148,-535.1352 1713.9342,-540.3051"/>
</g>
<!-- header_22 -->
<g id="node23" class="node">
<title>header_22</title>
<ellipse fill="none" stroke="#000000" cx="2275" cy="-364.8004" rx="82.3868" ry="18"/>
<text text-anchor="middle" x="2275" y="-360.6004" font-family="Helvetica,sans-Serif" font-size="14.00" fill="#000000">3 : UP and DOWN</text>
</g>
<!-- section_8&#45;&gt;header_22 -->
<g id="edge22" class="edge">
<title>section_8&#45;&gt;header_22</title>
<path fill="none" stroke="#000000" stroke-dasharray="5,2" d="M2392.2636,-566.7941C2384.1295,-556.5196 2374.0712,-543.2437 2366,-530.8007 2335.3965,-483.6206 2305.049,-425.3493 2288.2874,-391.8913"/>
<polygon fill="#000000" stroke="#000000" points="2291.3232,-390.1356 2283.7337,-382.743 2285.0566,-393.2549 2291.3232,-390.1356"/>
</g>
<!-- prose_23 -->
<g id="node24" class="node">
<title>prose_23</title>
<ellipse fill="none" stroke="#000000" cx="2407" cy="-364.8004" rx="32.4585" ry="18"/>
<text text-anchor="middle" x="2407" y="-360.6004" font-family="Helvetica,sans-Serif" font-size="14.00" fill="#000000">prose</text>
</g>
<!-- section_8&#45;&gt;prose_23 -->
<g id="edge23" class="edge">
<title>section_8&#45;&gt;prose_23</title>
<path fill="none" stroke="#000000" stroke-dasharray="5,2" d="M2407,-566.7971C2407,-528.6049 2407,-439.2085 2407,-393.226"/>
<polygon fill="#000000" stroke="#000000" points="2410.5001,-393.0527 2407,-383.0527 2403.5001,-393.0527 2410.5001,-393.0527"/>
</g>
<!-- codeblock_24 -->
<g id="node25" class="node">
<title>codeblock_24</title>
<ellipse fill="none" stroke="#000000" cx="2535" cy="-364.8004" rx="77.4211" ry="18"/>
<text text-anchor="middle" x="2535" y="-360.6004" font-family="Helvetica,sans-Serif" font-size="14.00" fill="#000000">code block 66&#45;69</text>
</g>
<!-- section_8&#45;&gt;codeblock_24 -->
<g id="edge24" class="edge">
<title>section_8&#45;&gt;codeblock_24</title>
<path fill="none" stroke="#000000" stroke-dasharray="5,2" d="M2421.8267,-566.8521C2429.9891,-556.5957 2440.0456,-543.3187 2448,-530.8007 2477.8595,-483.8101 2506.6706,-425.475 2522.495,-391.9538"/>
<polygon fill="#000000" stroke="#000000" points="2525.7165,-393.3274 2526.79,-382.7871 2519.3778,-390.3574 2525.7165,-393.3274"/>
</g>
<!-- codeblock_25 -->
<g id="node26" class="node">
<title>codeblock_25</title>
<ellipse fill="none" stroke="#000000" cx="2708" cy="-364.8004" rx="77.4211" ry="18"/>
<text text-anchor="middle" x="2708" y="-360.6004" font-family="Helvetica,sans-Serif" font-size="14.00" fill="#000000">code block 71&#45;73</text>
</g>
<!-- section_8&#45;&gt;codeblock_25 -->
<g id="edge25" class="edge">
<title>section_8&#45;&gt;codeblock_25</title>
<path fill="none" stroke="#000000" stroke-dasharray="5,2" d="M2464.0423,-575.811C2518.8665,-566.2303 2596.8523,-549.8383 2621,-530.8007 2666.0769,-495.2628 2690.3421,-429.8737 2701.0727,-392.6518"/>
<polygon fill="#000000" stroke="#000000" points="2704.4641,-393.5189 2703.7464,-382.9484 2697.7156,-391.6594 2704.4641,-393.5189"/>
</g>
<!-- leaf_14 -->
<g id="node15" class="node">
<title>leaf_14</title>
<polygon fill="none" stroke="#c0c0c0" points="175,-163.0012 19,-163.0012 19,-91.1989 175,-91.1989 175,-163.0012"/>
<text text-anchor="middle" x="97" y="-99.6001" font-family="Inconsolata" font-size="14.00" fill="#000000">A light wrapper over</text>
</g>
<!-- raw_10&#45;&gt;leaf_14 -->
<g id="edge14" class="edge">
<title>raw_10&#45;&gt;leaf_14</title>
<path fill="none" stroke="#000000" stroke-dasharray="5,2" d="M115.4638,-346.5431C112.3682,-309.7509 105.2975,-225.7164 100.8595,-172.9707"/>
<polygon fill="#000000" stroke="#000000" points="104.3352,-172.5334 100.009,-162.862 97.3598,-173.1203 104.3352,-172.5334"/>
</g>
<!-- leaf_15 -->
<g id="node16" class="node">
<title>leaf_15</title>
<polygon fill="none" stroke="#c0c0c0" points="247,-145.1 193,-145.1 193,-109.1 247,-109.1 247,-145.1"/>
<text text-anchor="middle" x="220" y="-123.6001" font-family="Inconsolata" font-size="14.00" fill="#000000"> </text>
</g>
<!-- prespace_11&#45;&gt;leaf_15 -->
<g id="edge15" class="edge">
<title>prespace_11&#45;&gt;leaf_15</title>
<path fill="none" stroke="#000000" stroke-dasharray="5,2" d="M208.9217,-346.5431C211.0027,-305.322 216.0774,-204.8001 218.5703,-155.4197"/>
<polygon fill="#000000" stroke="#000000" points="222.0664,-155.5833 219.0752,-145.4195 215.0753,-155.2303 222.0664,-155.5833"/>
</g>
<!-- leaf_16 -->
<g id="node17" class="node">
<title>leaf_16</title>
<polygon fill="none" stroke="#c0c0c0" points="331,-145.1 277,-145.1 277,-109.1 331,-109.1 331,-145.1"/>
<text text-anchor="middle" x="304" y="-123.6001" font-family="Inconsolata" font-size="14.00" fill="#000000">nerf</text>
</g>
<!-- literal_12&#45;&gt;leaf_16 -->
<g id="edge16" class="edge">
<title>literal_12&#45;&gt;leaf_16</title>
<path fill="none" stroke="#000000" stroke-dasharray="5,2" d="M304,-346.5431C304,-305.322 304,-204.8001 304,-155.4197"/>
<polygon fill="#000000" stroke="#000000" points="307.5001,-155.4195 304,-145.4195 300.5001,-155.4195 307.5001,-155.4195"/>
</g>
<!-- leaf_17 -->
<g id="node18" class="node">
<title>leaf_17</title>
<polygon fill="none" stroke="#c0c0c0" points="407,-147.0021 353,-147.0021 353,-107.198 407,-107.198 407,-147.0021"/>
<text text-anchor="middle" x="380" y="-131.6001" font-family="Inconsolata" font-size="14.00" fill="#000000">.</text>
</g>
<!-- raw_13&#45;&gt;leaf_17 -->
<g id="edge17" class="edge">
<title>raw_13&#45;&gt;leaf_17</title>
<path fill="none" stroke="#000000" stroke-dasharray="5,2" d="M380,-346.5431C380,-305.8284 380,-207.261 380,-157.2626"/>
<polygon fill="#000000" stroke="#000000" points="383.5001,-157.0832 380,-147.0832 376.5001,-157.0832 383.5001,-157.0832"/>
</g>
<!-- leaf_26 -->
<g id="node27" class="node">
<title>leaf_26</title>
<polygon fill="none" stroke="#c0c0c0" points="2335.5,-145.1 2214.5,-145.1 2214.5,-109.1 2335.5,-109.1 2335.5,-145.1"/>
<text text-anchor="middle" x="2275" y="-123.6001" font-family="Inconsolata" font-size="14.00" fill="#000000">*** UP and DOWN</text>
</g>
<!-- header_22&#45;&gt;leaf_26 -->
<g id="edge26" class="edge">
<title>header_22&#45;&gt;leaf_26</title>
<path fill="none" stroke="#000000" stroke-dasharray="5,2" d="M2275,-346.5431C2275,-305.322 2275,-204.8001 2275,-155.4197"/>
<polygon fill="#000000" stroke="#000000" points="2278.5001,-155.4195 2275,-145.4195 2271.5001,-155.4195 2278.5001,-155.4195"/>
</g>
<!-- raw_27 -->
<g id="node28" class="node">
<title>raw_27</title>
<ellipse fill="none" stroke="#000000" cx="2407" cy="-127.1" rx="27" ry="18"/>
<text text-anchor="middle" x="2407" y="-122.9" font-family="Helvetica,sans-Serif" font-size="14.00" fill="#000000">raw</text>
</g>
<!-- prose_23&#45;&gt;raw_27 -->
<g id="edge27" class="edge">
<title>prose_23&#45;&gt;raw_27</title>
<path fill="none" stroke="#000000" stroke-dasharray="5,2" d="M2407,-346.5431C2407,-305.322 2407,-204.8001 2407,-155.4197"/>
<polygon fill="#000000" stroke="#000000" points="2410.5001,-155.4195 2407,-145.4195 2403.5001,-155.4195 2410.5001,-155.4195"/>
</g>
<!-- leaf_29 -->
<g id="node30" class="node">
<title>leaf_29</title>
<polygon fill="none" stroke="#c0c0c0" points="2616.5,-146.4006 2453.5,-146.4006 2453.5,-107.7995 2616.5,-107.7995 2616.5,-146.4006"/>
<text text-anchor="middle" x="2535" y="-131.3001" font-family="Inconsolata" font-size="14.00" fill="#000000">Search.NAV.UP = nil</text>
<text text-anchor="middle" x="2535" y="-115.9" font-family="Inconsolata" font-size="14.00" fill="#000000">Search.NAV.DOWN = nil</text>
</g>
<!-- codeblock_24&#45;&gt;leaf_29 -->
<g id="edge29" class="edge">
<title>codeblock_24&#45;&gt;leaf_29</title>
<path fill="none" stroke="#000000" stroke-dasharray="5,2" d="M2535,-346.5431C2535,-305.6258 2535,-206.2788 2535,-156.52"/>
<polygon fill="#000000" stroke="#000000" points="2538.5001,-156.4104 2535,-146.4104 2531.5001,-156.4104 2538.5001,-156.4104"/>
</g>
<!-- leaf_30 -->
<g id="node31" class="node">
<title>leaf_30</title>
<polygon fill="none" stroke="#c0c0c0" points="2761.5,-145.1 2654.5,-145.1 2654.5,-109.1 2761.5,-109.1 2761.5,-145.1"/>
<text text-anchor="middle" x="2708" y="-123.6001" font-family="Inconsolata" font-size="14.00" fill="#000000">return Search</text>
</g>
<!-- codeblock_25&#45;&gt;leaf_30 -->
<g id="edge30" class="edge">
<title>codeblock_25&#45;&gt;leaf_30</title>
<path fill="none" stroke="#000000" stroke-dasharray="5,2" d="M2708,-346.5431C2708,-305.322 2708,-204.8001 2708,-155.4197"/>
<polygon fill="#000000" stroke="#000000" points="2711.5001,-155.4195 2708,-145.4195 2704.5001,-155.4195 2711.5001,-155.4195"/>
</g>
<!-- leaf_28 -->
<g id="node29" class="node">
<title>leaf_28</title>
<polygon fill="none" stroke="#c0c0c0" points="2590,-55.6015 2224,-55.6015 2224,.2015 2590,.2015 2590,-55.6015"/>
<text text-anchor="middle" x="2407" y="-8.2" font-family="Inconsolata" font-size="14.00" fill="#000000">Disabled for now, intended to choose among options</text>
</g>
<!-- raw_27&#45;&gt;leaf_28 -->
<g id="edge28" class="edge">
<title>raw_27&#45;&gt;leaf_28</title>
<path fill="none" stroke="#000000" stroke-dasharray="5,2" d="M2407,-108.8685C2407,-96.8719 2407,-80.7197 2407,-65.9832"/>
<polygon fill="#000000" stroke="#000000" points="2410.5001,-65.5826 2407,-55.5827 2403.5001,-65.5827 2410.5001,-65.5826"/>
</g>
</g>
</svg>
