<?xml version="1.0" encoding="UTF-8" standalone="no"?>
<!DOCTYPE svg PUBLIC "-//W3C//DTD SVG 1.1//EN"
 "http://www.w3.org/Graphics/SVG/1.1/DTD/svg11.dtd">
<!-- Generated by graphviz version 2.40.1 (20161225.0304)
 -->
<!-- Title: lpegNode Pages: 1 -->
<svg width="198pt" height="336pt"
 viewBox="0.00 0.00 198.09 336.00" xmlns="http://www.w3.org/2000/svg" xmlns:xlink="http://www.w3.org/1999/xlink">
<g id="graph0" class="graph" transform="scale(1 1) rotate(0) translate(4 332)">
<title>lpegNode</title>
<polygon fill="#ffffff" stroke="transparent" points="-4,4 -4,-332 194.0862,-332 194.0862,4 -4,4"/>
<!-- doc_0 -->
<g id="node1" class="node">
<title>doc_0</title>
<ellipse fill="none" stroke="#000000" cx="105.8578" cy="-310" rx="37.2854" ry="18"/>
<text text-anchor="middle" x="105.8578" y="-305.8" font-family="Helvetica,sans-Serif" font-size="14.00" fill="#000000">doc &#45; 3</text>
</g>
<!-- section_1 -->
<g id="node2" class="node">
<title>section_1</title>
<ellipse fill="none" stroke="#000000" cx="105.8578" cy="-238" rx="55.6456" ry="18"/>
<text text-anchor="middle" x="105.8578" y="-233.8" font-family="Helvetica,sans-Serif" font-size="14.00" fill="#000000">section: 1&#45;3</text>
</g>
<!-- doc_0&#45;&gt;section_1 -->
<g id="edge1" class="edge">
<title>doc_0&#45;&gt;section_1</title>
<path fill="none" stroke="#000000" stroke-dasharray="5,2" d="M105.8578,-291.8314C105.8578,-284.131 105.8578,-274.9743 105.8578,-266.4166"/>
<polygon fill="#000000" stroke="#000000" points="109.3579,-266.4132 105.8578,-256.4133 102.3579,-266.4133 109.3579,-266.4132"/>
</g>
<!-- header_2 -->
<g id="node3" class="node">
<title>header_2</title>
<ellipse fill="none" stroke="#000000" cx="53.8578" cy="-166" rx="53.716" ry="18"/>
<text text-anchor="middle" x="53.8578" y="-161.8" font-family="Helvetica,sans-Serif" font-size="14.00" fill="#000000">1 : Session</text>
</g>
<!-- section_1&#45;&gt;header_2 -->
<g id="edge2" class="edge">
<title>section_1&#45;&gt;header_2</title>
<path fill="none" stroke="#000000" stroke-dasharray="5,2" d="M93.0039,-220.2022C86.8327,-211.6576 79.3208,-201.2564 72.5338,-191.859"/>
<polygon fill="#000000" stroke="#000000" points="75.2562,-189.6506 66.5639,-183.593 69.5814,-193.7491 75.2562,-189.6506"/>
</g>
<!-- prose_3 -->
<g id="node4" class="node">
<title>prose_3</title>
<ellipse fill="none" stroke="#000000" cx="157.8578" cy="-166" rx="32.4585" ry="18"/>
<text text-anchor="middle" x="157.8578" y="-161.8" font-family="Helvetica,sans-Serif" font-size="14.00" fill="#000000">prose</text>
</g>
<!-- section_1&#45;&gt;prose_3 -->
<g id="edge3" class="edge">
<title>section_1&#45;&gt;prose_3</title>
<path fill="none" stroke="#000000" stroke-dasharray="5,2" d="M118.7117,-220.2022C124.975,-211.5301 132.6194,-200.9455 139.4852,-191.4389"/>
<polygon fill="#000000" stroke="#000000" points="142.4922,-193.2533 145.5098,-183.0972 136.8175,-189.1548 142.4922,-193.2533"/>
</g>
<!-- leaf_4 -->
<g id="node5" class="node">
<title>leaf_4</title>
<polygon fill="none" stroke="#c0c0c0" points="93.3578,-112 14.3578,-112 14.3578,-76 93.3578,-76 93.3578,-112"/>
<text text-anchor="middle" x="53.8578" y="-90.5" font-family="Inconsolata" font-size="14.00" fill="#000000">* Session</text>
</g>
<!-- header_2&#45;&gt;leaf_4 -->
<g id="edge4" class="edge">
<title>header_2&#45;&gt;leaf_4</title>
<path fill="none" stroke="#000000" stroke-dasharray="5,2" d="M53.8578,-147.8314C53.8578,-140.131 53.8578,-130.9743 53.8578,-122.4166"/>
<polygon fill="#000000" stroke="#000000" points="57.3579,-122.4132 53.8578,-112.4133 50.3579,-122.4133 57.3579,-122.4132"/>
</g>
<!-- raw_5 -->
<g id="node6" class="node">
<title>raw_5</title>
<ellipse fill="none" stroke="#000000" cx="157.8578" cy="-94" rx="27" ry="18"/>
<text text-anchor="middle" x="157.8578" y="-89.8" font-family="Helvetica,sans-Serif" font-size="14.00" fill="#000000">raw</text>
</g>
<!-- prose_3&#45;&gt;raw_5 -->
<g id="edge5" class="edge">
<title>prose_3&#45;&gt;raw_5</title>
<path fill="none" stroke="#000000" stroke-dasharray="5,2" d="M157.8578,-147.8314C157.8578,-140.131 157.8578,-130.9743 157.8578,-122.4166"/>
<polygon fill="#000000" stroke="#000000" points="161.3579,-122.4132 157.8578,-112.4133 154.3579,-122.4133 161.3579,-122.4132"/>
</g>
<!-- leaf_6 -->
<g id="node7" class="node">
<title>leaf_6</title>
<polygon fill="none" stroke="#c0c0c0" points="184.8578,-40 130.8578,-40 130.8578,0 184.8578,0 184.8578,-40"/>
</g>
<!-- raw_5&#45;&gt;leaf_6 -->
<g id="edge6" class="edge">
<title>raw_5&#45;&gt;leaf_6</title>
<path fill="none" stroke="#000000" stroke-dasharray="5,2" d="M157.8578,-75.7079C157.8578,-68.04 157.8578,-58.9175 157.8578,-50.2971"/>
<polygon fill="#000000" stroke="#000000" points="161.3579,-50.1627 157.8578,-40.1628 154.3579,-50.1628 161.3579,-50.1627"/>
</g>
</g>
</svg>
