<?xml version="1.0" encoding="UTF-8" standalone="no"?>
<!DOCTYPE svg PUBLIC "-//W3C//DTD SVG 1.1//EN"
 "http://www.w3.org/Graphics/SVG/1.1/DTD/svg11.dtd">
<!-- Generated by graphviz version 2.40.1 (20161225.0304)
 -->
<!-- Title: lpegNode Pages: 1 -->
<svg width="2286pt" height="537pt"
 viewBox="0.00 0.00 2285.50 536.80" xmlns="http://www.w3.org/2000/svg" xmlns:xlink="http://www.w3.org/1999/xlink">
<g id="graph0" class="graph" transform="scale(1 1) rotate(0) translate(4 532.8004)">
<title>lpegNode</title>
<polygon fill="#ffffff" stroke="transparent" points="-4,4 -4,-532.8004 2281.5,-532.8004 2281.5,4 -4,4"/>
<!-- doc_0 -->
<g id="node1" class="node">
<title>doc_0</title>
<ellipse fill="none" stroke="#000000" cx="866.5" cy="-510.8004" rx="42.1216" ry="18"/>
<text text-anchor="middle" x="866.5" y="-506.6004" font-family="Helvetica,sans-Serif" font-size="14.00" fill="#000000">doc &#45; 34</text>
</g>
<!-- section_1 -->
<g id="node2" class="node">
<title>section_1</title>
<ellipse fill="none" stroke="#000000" cx="866.5" cy="-438.8004" rx="60.9826" ry="18"/>
<text text-anchor="middle" x="866.5" y="-434.6004" font-family="Helvetica,sans-Serif" font-size="14.00" fill="#000000">section: 1&#45;13</text>
</g>
<!-- doc_0&#45;&gt;section_1 -->
<g id="edge1" class="edge">
<title>doc_0&#45;&gt;section_1</title>
<path fill="none" stroke="#000000" stroke-dasharray="5,2" d="M866.5,-492.6317C866.5,-484.9313 866.5,-475.7747 866.5,-467.217"/>
<polygon fill="#000000" stroke="#000000" points="870.0001,-467.2136 866.5,-457.2136 863.0001,-467.2137 870.0001,-467.2136"/>
</g>
<!-- header_2 -->
<g id="node3" class="node">
<title>header_2</title>
<ellipse fill="none" stroke="#000000" cx="633.5" cy="-366.8004" rx="57.0907" ry="18"/>
<text text-anchor="middle" x="633.5" y="-362.6004" font-family="Helvetica,sans-Serif" font-size="14.00" fill="#000000">1 : SQLayer</text>
</g>
<!-- section_1&#45;&gt;header_2 -->
<g id="edge2" class="edge">
<title>section_1&#45;&gt;header_2</title>
<path fill="none" stroke="#000000" stroke-dasharray="5,2" d="M824.3055,-425.7617C784.9693,-413.6063 726.2356,-395.4569 684.3331,-382.5085"/>
<polygon fill="#000000" stroke="#000000" points="685.1861,-379.1088 674.5985,-379.5003 683.1194,-385.7968 685.1861,-379.1088"/>
</g>
<!-- prose_3 -->
<g id="node4" class="node">
<title>prose_3</title>
<ellipse fill="none" stroke="#000000" cx="770.5" cy="-366.8004" rx="32.4585" ry="18"/>
<text text-anchor="middle" x="770.5" y="-362.6004" font-family="Helvetica,sans-Serif" font-size="14.00" fill="#000000">prose</text>
</g>
<!-- section_1&#45;&gt;prose_3 -->
<g id="edge3" class="edge">
<title>section_1&#45;&gt;prose_3</title>
<path fill="none" stroke="#000000" stroke-dasharray="5,2" d="M843.7493,-421.7374C830.0298,-411.4478 812.4631,-398.2727 797.972,-387.4044"/>
<polygon fill="#000000" stroke="#000000" points="799.9476,-384.5111 789.8476,-381.3111 795.7476,-390.1111 799.9476,-384.5111"/>
</g>
<!-- prose_4 -->
<g id="node5" class="node">
<title>prose_4</title>
<ellipse fill="none" stroke="#000000" cx="866.5" cy="-366.8004" rx="32.4585" ry="18"/>
<text text-anchor="middle" x="866.5" y="-362.6004" font-family="Helvetica,sans-Serif" font-size="14.00" fill="#000000">prose</text>
</g>
<!-- section_1&#45;&gt;prose_4 -->
<g id="edge4" class="edge">
<title>section_1&#45;&gt;prose_4</title>
<path fill="none" stroke="#000000" stroke-dasharray="5,2" d="M866.5,-420.6317C866.5,-412.9313 866.5,-403.7747 866.5,-395.217"/>
<polygon fill="#000000" stroke="#000000" points="870.0001,-395.2136 866.5,-385.2136 863.0001,-395.2137 870.0001,-395.2136"/>
</g>
<!-- codeblock_5 -->
<g id="node6" class="node">
<title>codeblock_5</title>
<ellipse fill="none" stroke="#000000" cx="1041.5" cy="-366.8004" rx="71.7805" ry="18"/>
<text text-anchor="middle" x="1041.5" y="-362.6004" font-family="Helvetica,sans-Serif" font-size="14.00" fill="#000000">code block 8&#45;11</text>
</g>
<!-- section_1&#45;&gt;codeblock_5 -->
<g id="edge5" class="edge">
<title>section_1&#45;&gt;codeblock_5</title>
<path fill="none" stroke="#000000" stroke-dasharray="5,2" d="M902.3362,-424.0564C928.9291,-413.1152 965.4413,-398.0931 994.394,-386.1811"/>
<polygon fill="#000000" stroke="#000000" points="995.9815,-389.3127 1003.8977,-382.271 993.3181,-382.8392 995.9815,-389.3127"/>
</g>
<!-- section_6 -->
<g id="node7" class="node">
<title>section_6</title>
<ellipse fill="none" stroke="#000000" cx="1569.5" cy="-366.8004" rx="65.8187" ry="18"/>
<text text-anchor="middle" x="1569.5" y="-362.6004" font-family="Helvetica,sans-Serif" font-size="14.00" fill="#000000">section: 14&#45;34</text>
</g>
<!-- section_1&#45;&gt;section_6 -->
<g id="edge6" class="edge">
<title>section_1&#45;&gt;section_6</title>
<path fill="none" stroke="#000000" stroke-dasharray="5,2" d="M924.0294,-432.9083C1051.5967,-419.8431 1357.9365,-388.4683 1497.7449,-374.1494"/>
<polygon fill="#000000" stroke="#000000" points="1498.3315,-377.6077 1507.9228,-373.107 1497.6182,-370.6442 1498.3315,-377.6077"/>
</g>
<!-- leaf_7 -->
<g id="node8" class="node">
<title>leaf_7</title>
<polygon fill="none" stroke="#c0c0c0" points="610,-311.4003 531,-311.4003 531,-275.4003 610,-275.4003 610,-311.4003"/>
<text text-anchor="middle" x="570.5" y="-289.9004" font-family="Inconsolata" font-size="14.00" fill="#000000">* SQLayer</text>
</g>
<!-- header_2&#45;&gt;leaf_7 -->
<g id="edge7" class="edge">
<title>header_2&#45;&gt;leaf_7</title>
<path fill="none" stroke="#000000" stroke-dasharray="5,2" d="M618.5699,-349.4056C610.8178,-340.3738 601.1941,-329.1614 592.5985,-319.1469"/>
<polygon fill="#000000" stroke="#000000" points="595.1498,-316.7454 585.9809,-311.4368 589.838,-321.3046 595.1498,-316.7454"/>
</g>
<!-- raw_8 -->
<g id="node9" class="node">
<title>raw_8</title>
<ellipse fill="none" stroke="#000000" cx="655.5" cy="-293.4003" rx="27" ry="18"/>
<text text-anchor="middle" x="655.5" y="-289.2003" font-family="Helvetica,sans-Serif" font-size="14.00" fill="#000000">raw</text>
</g>
<!-- prose_3&#45;&gt;raw_8 -->
<g id="edge8" class="edge">
<title>prose_3&#45;&gt;raw_8</title>
<path fill="none" stroke="#000000" stroke-dasharray="5,2" d="M749.1389,-353.1664C730.6931,-341.3932 703.903,-324.2941 683.6993,-311.3988"/>
<polygon fill="#000000" stroke="#000000" points="685.5234,-308.411 675.211,-305.9811 681.7573,-314.3116 685.5234,-308.411"/>
</g>
<!-- raw_10 -->
<g id="node11" class="node">
<title>raw_10</title>
<ellipse fill="none" stroke="#000000" cx="727.5" cy="-293.4003" rx="27" ry="18"/>
<text text-anchor="middle" x="727.5" y="-289.2003" font-family="Helvetica,sans-Serif" font-size="14.00" fill="#000000">raw</text>
</g>
<!-- prose_4&#45;&gt;raw_10 -->
<g id="edge10" class="edge">
<title>prose_4&#45;&gt;raw_10</title>
<path fill="none" stroke="#000000" stroke-dasharray="5,2" d="M842.7318,-354.4371C821.8294,-343.5413 790.5989,-327.205 763.5,-312.8004 761.7133,-311.8506 759.8783,-310.8719 758.0277,-309.8825"/>
<polygon fill="#000000" stroke="#000000" points="759.2652,-306.5745 748.7988,-304.9299 755.9552,-312.7425 759.2652,-306.5745"/>
</g>
<!-- prespace_11 -->
<g id="node12" class="node">
<title>prespace_11</title>
<ellipse fill="none" stroke="#000000" cx="818.5" cy="-293.4003" rx="46.4736" ry="18"/>
<text text-anchor="middle" x="818.5" y="-289.2003" font-family="Helvetica,sans-Serif" font-size="14.00" fill="#000000">prespace</text>
</g>
<!-- prose_4&#45;&gt;prespace_11 -->
<g id="edge11" class="edge">
<title>prose_4&#45;&gt;prespace_11</title>
<path fill="none" stroke="#000000" stroke-dasharray="5,2" d="M855.3672,-349.7764C849.4981,-340.8016 842.1714,-329.5979 835.5992,-319.548"/>
<polygon fill="#000000" stroke="#000000" points="838.476,-317.552 830.0736,-311.0983 832.6175,-321.3832 838.476,-317.552"/>
</g>
<!-- literal_12 -->
<g id="node13" class="node">
<title>literal_12</title>
<ellipse fill="none" stroke="#000000" cx="914.5" cy="-293.4003" rx="31.481" ry="18"/>
<text text-anchor="middle" x="914.5" y="-289.2003" font-family="Helvetica,sans-Serif" font-size="14.00" fill="#000000">literal</text>
</g>
<!-- prose_4&#45;&gt;literal_12 -->
<g id="edge12" class="edge">
<title>prose_4&#45;&gt;literal_12</title>
<path fill="none" stroke="#000000" stroke-dasharray="5,2" d="M877.6328,-349.7764C883.6304,-340.6051 891.1502,-329.1061 897.8314,-318.8894"/>
<polygon fill="#000000" stroke="#000000" points="900.8837,-320.6169 903.4276,-310.332 895.0252,-316.7857 900.8837,-320.6169"/>
</g>
<!-- raw_13 -->
<g id="node14" class="node">
<title>raw_13</title>
<ellipse fill="none" stroke="#000000" cx="990.5" cy="-293.4003" rx="27" ry="18"/>
<text text-anchor="middle" x="990.5" y="-289.2003" font-family="Helvetica,sans-Serif" font-size="14.00" fill="#000000">raw</text>
</g>
<!-- prose_4&#45;&gt;raw_13 -->
<g id="edge13" class="edge">
<title>prose_4&#45;&gt;raw_13</title>
<path fill="none" stroke="#000000" stroke-dasharray="5,2" d="M888.6687,-353.6779C908.9958,-341.6456 939.2286,-323.7497 961.474,-310.5819"/>
<polygon fill="#000000" stroke="#000000" points="963.3446,-313.5419 970.1671,-305.4361 959.7788,-307.5181 963.3446,-313.5419"/>
</g>
<!-- leaf_18 -->
<g id="node19" class="node">
<title>leaf_18</title>
<polygon fill="none" stroke="#c0c0c0" points="1247.5,-312.7009 1035.5,-312.7009 1035.5,-274.0998 1247.5,-274.0998 1247.5,-312.7009"/>
<text text-anchor="middle" x="1141.5" y="-297.6004" font-family="Inconsolata" font-size="14.00" fill="#000000">local sql = require &quot;sqlite&quot;</text>
<text text-anchor="middle" x="1141.5" y="-282.2003" font-family="Inconsolata" font-size="14.00" fill="#000000">local pcall = assert (pcall)</text>
</g>
<!-- codeblock_5&#45;&gt;leaf_18 -->
<g id="edge18" class="edge">
<title>codeblock_5&#45;&gt;leaf_18</title>
<path fill="none" stroke="#000000" stroke-dasharray="5,2" d="M1064.9456,-349.5913C1077.3752,-340.4679 1092.8892,-329.0807 1106.6952,-318.9471"/>
<polygon fill="#000000" stroke="#000000" points="1109.0374,-321.5696 1115.0279,-312.8309 1104.8953,-315.9266 1109.0374,-321.5696"/>
</g>
<!-- header_19 -->
<g id="node20" class="node">
<title>header_19</title>
<ellipse fill="none" stroke="#000000" cx="1371.5" cy="-293.4003" rx="106.3786" ry="18"/>
<text text-anchor="middle" x="1371.5" y="-289.2003" font-family="Helvetica,sans-Serif" font-size="14.00" fill="#000000">2 : sql.pexec(conn, stmt)</text>
</g>
<!-- section_6&#45;&gt;header_19 -->
<g id="edge19" class="edge">
<title>section_6&#45;&gt;header_19</title>
<path fill="none" stroke="#000000" stroke-dasharray="5,2" d="M1530.3816,-352.2989C1500.3268,-341.1574 1458.4778,-325.6436 1425.2741,-313.3348"/>
<polygon fill="#000000" stroke="#000000" points="1426.3067,-309.9849 1415.7136,-309.7907 1423.8735,-316.5484 1426.3067,-309.9849"/>
</g>
<!-- prose_20 -->
<g id="node21" class="node">
<title>prose_20</title>
<ellipse fill="none" stroke="#000000" cx="1528.5" cy="-293.4003" rx="32.4585" ry="18"/>
<text text-anchor="middle" x="1528.5" y="-289.2003" font-family="Helvetica,sans-Serif" font-size="14.00" fill="#000000">prose</text>
</g>
<!-- section_6&#45;&gt;prose_20 -->
<g id="edge20" class="edge">
<title>section_6&#45;&gt;prose_20</title>
<path fill="none" stroke="#000000" stroke-dasharray="5,2" d="M1559.3652,-348.6565C1554.4772,-339.906 1548.5224,-329.2454 1543.152,-319.6309"/>
<polygon fill="#000000" stroke="#000000" points="1546.1682,-317.8535 1538.2359,-310.83 1540.057,-321.2672 1546.1682,-317.8535"/>
</g>
<!-- prose_21 -->
<g id="node22" class="node">
<title>prose_21</title>
<ellipse fill="none" stroke="#000000" cx="1610.5" cy="-293.4003" rx="32.4585" ry="18"/>
<text text-anchor="middle" x="1610.5" y="-289.2003" font-family="Helvetica,sans-Serif" font-size="14.00" fill="#000000">prose</text>
</g>
<!-- section_6&#45;&gt;prose_21 -->
<g id="edge21" class="edge">
<title>section_6&#45;&gt;prose_21</title>
<path fill="none" stroke="#000000" stroke-dasharray="5,2" d="M1579.6348,-348.6565C1584.5228,-339.906 1590.4776,-329.2454 1595.848,-319.6309"/>
<polygon fill="#000000" stroke="#000000" points="1598.943,-321.2672 1600.7641,-310.83 1592.8318,-317.8535 1598.943,-321.2672"/>
</g>
<!-- codeblock_22 -->
<g id="node23" class="node">
<title>codeblock_22</title>
<ellipse fill="none" stroke="#000000" cx="1881.5" cy="-293.4003" rx="77.4211" ry="18"/>
<text text-anchor="middle" x="1881.5" y="-289.2003" font-family="Helvetica,sans-Serif" font-size="14.00" fill="#000000">code block 20&#45;30</text>
</g>
<!-- section_6&#45;&gt;codeblock_22 -->
<g id="edge22" class="edge">
<title>section_6&#45;&gt;codeblock_22</title>
<path fill="none" stroke="#000000" stroke-dasharray="5,2" d="M1619.6282,-355.0074C1673.2826,-342.3848 1758.574,-322.3195 1817.1513,-308.5388"/>
<polygon fill="#000000" stroke="#000000" points="1818.1054,-311.91 1827.0381,-306.2129 1816.5023,-305.096 1818.1054,-311.91"/>
</g>
<!-- codeblock_23 -->
<g id="node24" class="node">
<title>codeblock_23</title>
<ellipse fill="none" stroke="#000000" cx="2168.5" cy="-293.4003" rx="77.4211" ry="18"/>
<text text-anchor="middle" x="2168.5" y="-289.2003" font-family="Helvetica,sans-Serif" font-size="14.00" fill="#000000">code block 32&#45;34</text>
</g>
<!-- section_6&#45;&gt;codeblock_23 -->
<g id="edge23" class="edge">
<title>section_6&#45;&gt;codeblock_23</title>
<path fill="none" stroke="#000000" stroke-dasharray="5,2" d="M1629.677,-359.4264C1738.6099,-346.0781 1968.4159,-317.9182 2089.7045,-303.0558"/>
<polygon fill="#000000" stroke="#000000" points="2090.1712,-306.5248 2099.6712,-301.8345 2089.3197,-299.5768 2090.1712,-306.5248"/>
</g>
<!-- leaf_9 -->
<g id="node10" class="node">
<title>leaf_9</title>
<polygon fill="none" stroke="#c0c0c0" points="247,-192.6017 0,-192.6017 0,-136.7987 247,-136.7987 247,-192.6017"/>
<text text-anchor="middle" x="123.5" y="-145.2002" font-family="Inconsolata" font-size="14.00" fill="#000000">This will be in pylon eventually.</text>
</g>
<!-- raw_8&#45;&gt;leaf_9 -->
<g id="edge9" class="edge">
<title>raw_8&#45;&gt;leaf_9</title>
<path fill="none" stroke="#000000" stroke-dasharray="5,2" d="M635.3529,-281.0616C630.0411,-278.3105 624.1974,-275.7068 618.5,-274.0003 463.6159,-227.6089 410.8934,-285.9994 256.5,-238.0003 227.0143,-228.8336 196.671,-212.7127 172.426,-197.9192"/>
<polygon fill="#000000" stroke="#000000" points="174.1227,-194.8529 163.7824,-192.5444 170.4262,-200.7973 174.1227,-194.8529"/>
</g>
<!-- leaf_14 -->
<g id="node15" class="node">
<title>leaf_14</title>
<polygon fill="none" stroke="#c0c0c0" points="799.5,-192.0006 265.5,-192.0006 265.5,-137.3997 799.5,-137.3997 799.5,-192.0006"/>
<text text-anchor="middle" x="532.5" y="-160.9002" font-family="Inconsolata" font-size="14.00" fill="#000000">Enhances the existing SQLite bindings, which in turn will be turned into a</text>
<text text-anchor="middle" x="532.5" y="-145.5002" font-family="Inconsolata" font-size="14.00" fill="#000000">statically&#45;linked part of</text>
</g>
<!-- raw_10&#45;&gt;leaf_14 -->
<g id="edge14" class="edge">
<title>raw_10&#45;&gt;leaf_14</title>
<path fill="none" stroke="#000000" stroke-dasharray="5,2" d="M708.0897,-280.5896C679.0402,-261.4168 623.3002,-224.6284 582.3861,-197.6251"/>
<polygon fill="#000000" stroke="#000000" points="584.1696,-194.6086 573.8955,-192.0212 580.3136,-200.4508 584.1696,-194.6086"/>
</g>
<!-- leaf_15 -->
<g id="node16" class="node">
<title>leaf_15</title>
<polygon fill="none" stroke="#c0c0c0" points="871.5,-182.7002 817.5,-182.7002 817.5,-146.7002 871.5,-146.7002 871.5,-182.7002"/>
<text text-anchor="middle" x="844.5" y="-161.2002" font-family="Inconsolata" font-size="14.00" fill="#000000"> </text>
</g>
<!-- prespace_11&#45;&gt;leaf_15 -->
<g id="edge15" class="edge">
<title>prespace_11&#45;&gt;leaf_15</title>
<path fill="none" stroke="#000000" stroke-dasharray="5,2" d="M822.17,-275.2337C826.5059,-253.7713 833.7683,-217.8221 838.8294,-192.7699"/>
<polygon fill="#000000" stroke="#000000" points="842.2991,-193.2695 840.8486,-182.7744 835.4377,-191.8833 842.2991,-193.2695"/>
</g>
<!-- leaf_16 -->
<g id="node17" class="node">
<title>leaf_16</title>
<polygon fill="none" stroke="#c0c0c0" points="943.5,-182.7002 889.5,-182.7002 889.5,-146.7002 943.5,-146.7002 943.5,-182.7002"/>
<text text-anchor="middle" x="916.5" y="-161.2002" font-family="Inconsolata" font-size="14.00" fill="#000000">pylon</text>
</g>
<!-- literal_12&#45;&gt;leaf_16 -->
<g id="edge16" class="edge">
<title>literal_12&#45;&gt;leaf_16</title>
<path fill="none" stroke="#000000" stroke-dasharray="5,2" d="M914.7823,-275.2337C915.1143,-253.8671 915.6695,-218.1428 916.0586,-193.1061"/>
<polygon fill="#000000" stroke="#000000" points="919.5632,-192.8276 916.2191,-182.7744 912.5641,-192.7188 919.5632,-192.8276"/>
</g>
<!-- leaf_17 -->
<g id="node18" class="node">
<title>leaf_17</title>
<polygon fill="none" stroke="#c0c0c0" points="1017.5,-182.7002 963.5,-182.7002 963.5,-146.7002 1017.5,-146.7002 1017.5,-182.7002"/>
<text text-anchor="middle" x="990.5" y="-161.2002" font-family="Inconsolata" font-size="14.00" fill="#000000">.</text>
</g>
<!-- raw_13&#45;&gt;leaf_17 -->
<g id="edge17" class="edge">
<title>raw_13&#45;&gt;leaf_17</title>
<path fill="none" stroke="#000000" stroke-dasharray="5,2" d="M990.5,-275.2337C990.5,-253.8671 990.5,-218.1428 990.5,-193.1061"/>
<polygon fill="#000000" stroke="#000000" points="994.0001,-192.7743 990.5,-182.7744 987.0001,-192.7744 994.0001,-192.7743"/>
</g>
<!-- leaf_24 -->
<g id="node25" class="node">
<title>leaf_24</title>
<polygon fill="none" stroke="#c0c0c0" points="1354.5,-182.7002 1170.5,-182.7002 1170.5,-146.7002 1354.5,-146.7002 1354.5,-182.7002"/>
<text text-anchor="middle" x="1262.5" y="-161.2002" font-family="Inconsolata" font-size="14.00" fill="#000000">** sql.pexec(conn, stmt)</text>
</g>
<!-- header_19&#45;&gt;leaf_24 -->
<g id="edge24" class="edge">
<title>header_19&#45;&gt;leaf_24</title>
<path fill="none" stroke="#000000" stroke-dasharray="5,2" d="M1356.344,-275.5051C1337.6585,-253.4425 1305.761,-215.7799 1284.4101,-190.5702"/>
<polygon fill="#000000" stroke="#000000" points="1287.0124,-188.2272 1277.8787,-182.8583 1281.6707,-192.7513 1287.0124,-188.2272"/>
</g>
<!-- raw_25 -->
<g id="node26" class="node">
<title>raw_25</title>
<ellipse fill="none" stroke="#000000" cx="1399.5" cy="-164.7002" rx="27" ry="18"/>
<text text-anchor="middle" x="1399.5" y="-160.5002" font-family="Helvetica,sans-Serif" font-size="14.00" fill="#000000">raw</text>
</g>
<!-- prose_20&#45;&gt;raw_25 -->
<g id="edge25" class="edge">
<title>prose_20&#45;&gt;raw_25</title>
<path fill="none" stroke="#000000" stroke-dasharray="5,2" d="M1504.7084,-281.2361C1480.7483,-268.6403 1445.8847,-249.259 1435.5,-238.0003 1423.3943,-224.8758 1414.487,-206.925 1408.5608,-192.0728"/>
<polygon fill="#000000" stroke="#000000" points="1411.7168,-190.5201 1404.9317,-182.3829 1405.1614,-192.9752 1411.7168,-190.5201"/>
</g>
<!-- raw_27 -->
<g id="node28" class="node">
<title>raw_27</title>
<ellipse fill="none" stroke="#000000" cx="1471.5" cy="-164.7002" rx="27" ry="18"/>
<text text-anchor="middle" x="1471.5" y="-160.5002" font-family="Helvetica,sans-Serif" font-size="14.00" fill="#000000">raw</text>
</g>
<!-- prose_21&#45;&gt;raw_27 -->
<g id="edge27" class="edge">
<title>prose_21&#45;&gt;raw_27</title>
<path fill="none" stroke="#000000" stroke-dasharray="5,2" d="M1586.2168,-281.3261C1557.7139,-267.0017 1513.541,-244.2687 1507.5,-238.0003 1495.11,-225.1438 1486.1981,-207.1974 1480.3406,-192.2804"/>
<polygon fill="#000000" stroke="#000000" points="1483.4968,-190.721 1476.7683,-182.537 1476.9246,-193.1307 1483.4968,-190.721"/>
</g>
<!-- prespace_28 -->
<g id="node29" class="node">
<title>prespace_28</title>
<ellipse fill="none" stroke="#000000" cx="1562.5" cy="-164.7002" rx="46.4736" ry="18"/>
<text text-anchor="middle" x="1562.5" y="-160.5002" font-family="Helvetica,sans-Serif" font-size="14.00" fill="#000000">prespace</text>
</g>
<!-- prose_21&#45;&gt;prespace_28 -->
<g id="edge28" class="edge">
<title>prose_21&#45;&gt;prespace_28</title>
<path fill="none" stroke="#000000" stroke-dasharray="5,2" d="M1603.9265,-275.775C1595.857,-254.1388 1582.0851,-217.2129 1572.6519,-191.9201"/>
<polygon fill="#000000" stroke="#000000" points="1575.9221,-190.6721 1569.1482,-182.5257 1569.3634,-193.1183 1575.9221,-190.6721"/>
</g>
<!-- literal_29 -->
<g id="node30" class="node">
<title>literal_29</title>
<ellipse fill="none" stroke="#000000" cx="1658.5" cy="-164.7002" rx="31.481" ry="18"/>
<text text-anchor="middle" x="1658.5" y="-160.5002" font-family="Helvetica,sans-Serif" font-size="14.00" fill="#000000">literal</text>
</g>
<!-- prose_21&#45;&gt;literal_29 -->
<g id="edge29" class="edge">
<title>prose_21&#45;&gt;literal_29</title>
<path fill="none" stroke="#000000" stroke-dasharray="5,2" d="M1617.0735,-275.775C1625.143,-254.1388 1638.9149,-217.2129 1648.3481,-191.9201"/>
<polygon fill="#000000" stroke="#000000" points="1651.6366,-193.1183 1651.8518,-182.5257 1645.0779,-190.6721 1651.6366,-193.1183"/>
</g>
<!-- raw_30 -->
<g id="node31" class="node">
<title>raw_30</title>
<ellipse fill="none" stroke="#000000" cx="1734.5" cy="-164.7002" rx="27" ry="18"/>
<text text-anchor="middle" x="1734.5" y="-160.5002" font-family="Helvetica,sans-Serif" font-size="14.00" fill="#000000">raw</text>
</g>
<!-- prose_21&#45;&gt;raw_30 -->
<g id="edge30" class="edge">
<title>prose_21&#45;&gt;raw_30</title>
<path fill="none" stroke="#000000" stroke-dasharray="5,2" d="M1635.9101,-282.1612C1655.0838,-272.6479 1680.9901,-257.4591 1698.5,-238.0003 1710.3662,-224.8134 1719.233,-207.0061 1725.1976,-192.2454"/>
<polygon fill="#000000" stroke="#000000" points="1728.5797,-193.1983 1728.8645,-182.6073 1722.0372,-190.7092 1728.5797,-193.1983"/>
</g>
<!-- leaf_35 -->
<g id="node36" class="node">
<title>leaf_35</title>
<polygon fill="none" stroke="#c0c0c0" points="2173.5,-237.801 1779.5,-237.801 1779.5,-91.5993 2173.5,-91.5993 2173.5,-237.801"/>
<text text-anchor="middle" x="1976.5" y="-222.8003" font-family="Inconsolata" font-size="14.00" fill="#000000">function sql.pexec(conn, stmt)</text>
<text text-anchor="middle" x="1976.5" y="-207.4003" font-family="Inconsolata" font-size="14.00" fill="#000000"> &#160;&#160;&#45;&#45; conn:exec(stmt)</text>
<text text-anchor="middle" x="1976.5" y="-192.0002" font-family="Inconsolata" font-size="14.00" fill="#000000"> &#160;&#160;local success, value = pcall(conn.exec, conn, stmt)</text>
<text text-anchor="middle" x="1976.5" y="-176.6002" font-family="Inconsolata" font-size="14.00" fill="#000000"> &#160;&#160;if success then</text>
<text text-anchor="middle" x="1976.5" y="-161.2002" font-family="Inconsolata" font-size="14.00" fill="#000000"> &#160;&#160;&#160;&#160;&#160;return value</text>
<text text-anchor="middle" x="1976.5" y="-145.8002" font-family="Inconsolata" font-size="14.00" fill="#000000"> &#160;&#160;else</text>
<text text-anchor="middle" x="1976.5" y="-130.4001" font-family="Inconsolata" font-size="14.00" fill="#000000"> &#160;&#160;&#160;&#160;&#160;return false, value</text>
<text text-anchor="middle" x="1976.5" y="-115.0001" font-family="Inconsolata" font-size="14.00" fill="#000000"> &#160;&#160;end</text>
<text text-anchor="middle" x="1976.5" y="-99.6001" font-family="Inconsolata" font-size="14.00" fill="#000000">end</text>
</g>
<!-- codeblock_22&#45;&gt;leaf_35 -->
<g id="edge35" class="edge">
<title>codeblock_22&#45;&gt;leaf_35</title>
<path fill="none" stroke="#000000" stroke-dasharray="5,2" d="M1894.7093,-275.5051C1900.7401,-267.335 1908.3499,-257.0257 1916.4873,-246.0017"/>
<polygon fill="#000000" stroke="#000000" points="1919.3679,-247.9927 1922.4908,-237.8685 1913.736,-243.8355 1919.3679,-247.9927"/>
</g>
<!-- leaf_36 -->
<g id="node37" class="node">
<title>leaf_36</title>
<polygon fill="none" stroke="#c0c0c0" points="2277.5,-182.7002 2191.5,-182.7002 2191.5,-146.7002 2277.5,-146.7002 2277.5,-182.7002"/>
<text text-anchor="middle" x="2234.5" y="-161.2002" font-family="Inconsolata" font-size="14.00" fill="#000000">return sql</text>
</g>
<!-- codeblock_23&#45;&gt;leaf_36 -->
<g id="edge36" class="edge">
<title>codeblock_23&#45;&gt;leaf_36</title>
<path fill="none" stroke="#000000" stroke-dasharray="5,2" d="M2177.677,-275.5051C2188.7953,-253.8245 2207.6388,-217.0796 2220.5561,-191.8908"/>
<polygon fill="#000000" stroke="#000000" points="2223.7393,-193.3536 2225.1882,-182.8583 2217.5106,-190.1594 2223.7393,-193.3536"/>
</g>
<!-- leaf_26 -->
<g id="node27" class="node">
<title>leaf_26</title>
<polygon fill="none" stroke="#c0c0c0" points="1290,-55.6015 931,-55.6015 931,.2015 1290,.2015 1290,-55.6015"/>
<text text-anchor="middle" x="1110.5" y="-8.2" font-family="Inconsolata" font-size="14.00" fill="#000000">Executes the statement on conn in protected mode.</text>
</g>
<!-- raw_25&#45;&gt;leaf_26 -->
<g id="edge26" class="edge">
<title>raw_25&#45;&gt;leaf_26</title>
<path fill="none" stroke="#000000" stroke-dasharray="5,2" d="M1395.3671,-146.8949C1390.544,-130.1118 1380.9117,-105.4935 1363.5,-91.4 1348.0428,-78.8886 1313.4237,-67.4657 1274.6064,-57.8566"/>
<polygon fill="#000000" stroke="#000000" points="1275.1985,-54.3991 1264.6563,-55.4532 1273.5549,-61.2034 1275.1985,-54.3991"/>
</g>
<!-- leaf_31 -->
<g id="node32" class="node">
<title>leaf_31</title>
<polygon fill="none" stroke="#c0c0c0" points="1541,-47.6021 1308,-47.6021 1308,-7.7979 1541,-7.7979 1541,-47.6021"/>
<text text-anchor="middle" x="1424.5" y="-16.2" font-family="Inconsolata" font-size="14.00" fill="#000000">Unwraps and returns success, or</text>
</g>
<!-- raw_27&#45;&gt;leaf_31 -->
<g id="edge31" class="edge">
<title>raw_27&#45;&gt;leaf_31</title>
<path fill="none" stroke="#000000" stroke-dasharray="5,2" d="M1465.4518,-147.0703C1457.6693,-124.3852 1444.0369,-84.648 1434.6527,-57.2941"/>
<polygon fill="#000000" stroke="#000000" points="1437.8409,-55.8012 1431.2852,-47.4781 1431.2197,-58.0728 1437.8409,-55.8012"/>
</g>
<!-- leaf_32 -->
<g id="node33" class="node">
<title>leaf_32</title>
<polygon fill="none" stroke="#c0c0c0" points="1613.5,-45.7 1559.5,-45.7 1559.5,-9.7 1613.5,-9.7 1613.5,-45.7"/>
<text text-anchor="middle" x="1586.5" y="-24.2" font-family="Inconsolata" font-size="14.00" fill="#000000"> </text>
</g>
<!-- prespace_28&#45;&gt;leaf_32 -->
<g id="edge32" class="edge">
<title>prespace_28&#45;&gt;leaf_32</title>
<path fill="none" stroke="#000000" stroke-dasharray="5,2" d="M1565.687,-146.5076C1569.7394,-123.3751 1576.7802,-83.1837 1581.5381,-56.0242"/>
<polygon fill="#000000" stroke="#000000" points="1585.0217,-56.4218 1583.2998,-45.9678 1578.1267,-55.2139 1585.0217,-56.4218"/>
</g>
<!-- leaf_33 -->
<g id="node34" class="node">
<title>leaf_33</title>
<polygon fill="none" stroke="#c0c0c0" points="1685.5,-45.7 1631.5,-45.7 1631.5,-9.7 1685.5,-9.7 1685.5,-45.7"/>
<text text-anchor="middle" x="1658.5" y="-24.2" font-family="Inconsolata" font-size="14.00" fill="#000000">false</text>
</g>
<!-- literal_29&#45;&gt;leaf_33 -->
<g id="edge33" class="edge">
<title>literal_29&#45;&gt;leaf_33</title>
<path fill="none" stroke="#000000" stroke-dasharray="5,2" d="M1658.5,-146.5076C1658.5,-123.3751 1658.5,-83.1837 1658.5,-56.0242"/>
<polygon fill="#000000" stroke="#000000" points="1662.0001,-55.9678 1658.5,-45.9678 1655.0001,-55.9679 1662.0001,-55.9678"/>
</g>
<!-- leaf_34 -->
<g id="node35" class="node">
<title>leaf_34</title>
<polygon fill="none" stroke="#c0c0c0" points="1797,-45.7 1704,-45.7 1704,-9.7 1797,-9.7 1797,-45.7"/>
<text text-anchor="middle" x="1750.5" y="-24.2" font-family="Inconsolata" font-size="14.00" fill="#000000"> and error.</text>
</g>
<!-- raw_30&#45;&gt;leaf_34 -->
<g id="edge34" class="edge">
<title>raw_30&#45;&gt;leaf_34</title>
<path fill="none" stroke="#000000" stroke-dasharray="5,2" d="M1736.6247,-146.5076C1739.3263,-123.3751 1744.0202,-83.1837 1747.1921,-56.0242"/>
<polygon fill="#000000" stroke="#000000" points="1750.6828,-56.3063 1748.3665,-45.9678 1743.7301,-55.4943 1750.6828,-56.3063"/>
</g>
</g>
</svg>
