<?xml version="1.0" encoding="UTF-8" standalone="no"?>
<!DOCTYPE svg PUBLIC "-//W3C//DTD SVG 1.1//EN"
 "http://www.w3.org/Graphics/SVG/1.1/DTD/svg11.dtd">
<!-- Generated by graphviz version 2.40.1 (20161225.0304)
 -->
<!-- Title: lpegNode Pages: 1 -->
<svg width="2921pt" height="552pt"
 viewBox="0.00 0.00 2920.50 552.20" xmlns="http://www.w3.org/2000/svg" xmlns:xlink="http://www.w3.org/1999/xlink">
<g id="graph0" class="graph" transform="scale(1 1) rotate(0) translate(4 548.2004)">
<title>lpegNode</title>
<polygon fill="#ffffff" stroke="transparent" points="-4,4 -4,-548.2004 2916.5,-548.2004 2916.5,4 -4,4"/>
<!-- doc_0 -->
<g id="node1" class="node">
<title>doc_0</title>
<ellipse fill="none" stroke="#000000" cx="1034.5" cy="-526.2004" rx="42.1216" ry="18"/>
<text text-anchor="middle" x="1034.5" y="-522.0004" font-family="Helvetica,sans-Serif" font-size="14.00" fill="#000000">doc &#45; 45</text>
</g>
<!-- section_1 -->
<g id="node2" class="node">
<title>section_1</title>
<ellipse fill="none" stroke="#000000" cx="1034.5" cy="-454.2004" rx="60.9826" ry="18"/>
<text text-anchor="middle" x="1034.5" y="-450.0004" font-family="Helvetica,sans-Serif" font-size="14.00" fill="#000000">section: 1&#45;24</text>
</g>
<!-- doc_0&#45;&gt;section_1 -->
<g id="edge1" class="edge">
<title>doc_0&#45;&gt;section_1</title>
<path fill="none" stroke="#000000" stroke-dasharray="5,2" d="M1034.5,-508.0318C1034.5,-500.3314 1034.5,-491.1748 1034.5,-482.617"/>
<polygon fill="#000000" stroke="#000000" points="1038.0001,-482.6136 1034.5,-472.6137 1031.0001,-482.6137 1038.0001,-482.6136"/>
</g>
<!-- header_2 -->
<g id="node3" class="node">
<title>header_2</title>
<ellipse fill="none" stroke="#000000" cx="609.5" cy="-382.2004" rx="57.0907" ry="18"/>
<text text-anchor="middle" x="609.5" y="-378.0004" font-family="Helvetica,sans-Serif" font-size="14.00" fill="#000000">1 : SQLayer</text>
</g>
<!-- section_1&#45;&gt;header_2 -->
<g id="edge2" class="edge">
<title>section_1&#45;&gt;header_2</title>
<path fill="none" stroke="#000000" stroke-dasharray="5,2" d="M981.5328,-445.2271C902.3911,-431.8196 753.6775,-406.6258 670.2394,-392.4904"/>
<polygon fill="#000000" stroke="#000000" points="670.5936,-389.0006 660.1495,-390.781 669.4244,-395.9023 670.5936,-389.0006"/>
</g>
<!-- prose_3 -->
<g id="node4" class="node">
<title>prose_3</title>
<ellipse fill="none" stroke="#000000" cx="794.5" cy="-382.2004" rx="32.4585" ry="18"/>
<text text-anchor="middle" x="794.5" y="-378.0004" font-family="Helvetica,sans-Serif" font-size="14.00" fill="#000000">prose</text>
</g>
<!-- section_1&#45;&gt;prose_3 -->
<g id="edge3" class="edge">
<title>section_1&#45;&gt;prose_3</title>
<path fill="none" stroke="#000000" stroke-dasharray="5,2" d="M991.5928,-441.3282C946.4369,-427.7815 876.0242,-406.6577 832.7182,-393.6659"/>
<polygon fill="#000000" stroke="#000000" points="833.7005,-390.3065 823.1165,-390.7853 831.689,-397.0113 833.7005,-390.3065"/>
</g>
<!-- prose_4 -->
<g id="node5" class="node">
<title>prose_4</title>
<ellipse fill="none" stroke="#000000" cx="914.5" cy="-382.2004" rx="32.4585" ry="18"/>
<text text-anchor="middle" x="914.5" y="-378.0004" font-family="Helvetica,sans-Serif" font-size="14.00" fill="#000000">prose</text>
</g>
<!-- section_1&#45;&gt;prose_4 -->
<g id="edge4" class="edge">
<title>section_1&#45;&gt;prose_4</title>
<path fill="none" stroke="#000000" stroke-dasharray="5,2" d="M1007.5697,-438.0422C989.0769,-426.9465 964.489,-412.1938 945.2301,-400.6384"/>
<polygon fill="#000000" stroke="#000000" points="946.9019,-397.5599 936.5262,-395.4161 943.3004,-403.5624 946.9019,-397.5599"/>
</g>
<!-- codeblock_5 -->
<g id="node6" class="node">
<title>codeblock_5</title>
<ellipse fill="none" stroke="#000000" cx="1096.5" cy="-382.2004" rx="72.5844" ry="18"/>
<text text-anchor="middle" x="1096.5" y="-378.0004" font-family="Helvetica,sans-Serif" font-size="14.00" fill="#000000">code block 8&#45;12</text>
</g>
<!-- section_1&#45;&gt;codeblock_5 -->
<g id="edge5" class="edge">
<title>section_1&#45;&gt;codeblock_5</title>
<path fill="none" stroke="#000000" stroke-dasharray="5,2" d="M1049.8258,-436.4026C1057.2779,-427.7487 1066.3698,-417.1904 1074.5427,-407.6993"/>
<polygon fill="#000000" stroke="#000000" points="1077.2625,-409.9045 1081.1356,-400.043 1071.9581,-405.3368 1077.2625,-409.9045"/>
</g>
<!-- section_6 -->
<g id="node7" class="node">
<title>section_6</title>
<ellipse fill="none" stroke="#000000" cx="1417.5" cy="-382.2004" rx="65.8187" ry="18"/>
<text text-anchor="middle" x="1417.5" y="-378.0004" font-family="Helvetica,sans-Serif" font-size="14.00" fill="#000000">section: 15&#45;24</text>
</g>
<!-- section_1&#45;&gt;section_6 -->
<g id="edge6" class="edge">
<title>section_1&#45;&gt;section_6</title>
<path fill="none" stroke="#000000" stroke-dasharray="5,2" d="M1086.1531,-444.4902C1155.285,-431.4941 1277.8808,-408.4474 1353.0006,-394.3256"/>
<polygon fill="#000000" stroke="#000000" points="1354.0935,-397.6815 1363.2747,-392.3942 1352.8002,-390.8021 1354.0935,-397.6815"/>
</g>
<!-- section_7 -->
<g id="node8" class="node">
<title>section_7</title>
<ellipse fill="none" stroke="#000000" cx="2141.5" cy="-382.2004" rx="65.8187" ry="18"/>
<text text-anchor="middle" x="2141.5" y="-378.0004" font-family="Helvetica,sans-Serif" font-size="14.00" fill="#000000">section: 25&#45;45</text>
</g>
<!-- section_1&#45;&gt;section_7 -->
<g id="edge7" class="edge">
<title>section_1&#45;&gt;section_7</title>
<path fill="none" stroke="#000000" stroke-dasharray="5,2" d="M1094.0171,-450.3294C1281.7127,-438.1215 1860.9589,-400.447 2067.4427,-387.0171"/>
<polygon fill="#000000" stroke="#000000" points="2067.8261,-390.4997 2077.5778,-386.3579 2067.3717,-383.5145 2067.8261,-390.4997"/>
</g>
<!-- leaf_8 -->
<g id="node9" class="node">
<title>leaf_8</title>
<polygon fill="none" stroke="#c0c0c0" points="610,-319.1004 531,-319.1004 531,-283.1004 610,-283.1004 610,-319.1004"/>
<text text-anchor="middle" x="570.5" y="-297.6004" font-family="Inconsolata" font-size="14.00" fill="#000000">* SQLayer</text>
</g>
<!-- header_2&#45;&gt;leaf_8 -->
<g id="edge8" class="edge">
<title>header_2&#45;&gt;leaf_8</title>
<path fill="none" stroke="#000000" stroke-dasharray="5,2" d="M600.8446,-364.2017C595.7804,-353.6706 589.2852,-340.164 583.6044,-328.3509"/>
<polygon fill="#000000" stroke="#000000" points="586.7541,-326.8245 579.266,-319.3292 580.4457,-329.8582 586.7541,-326.8245"/>
</g>
<!-- raw_9 -->
<g id="node10" class="node">
<title>raw_9</title>
<ellipse fill="none" stroke="#000000" cx="655.5" cy="-301.1004" rx="27" ry="18"/>
<text text-anchor="middle" x="655.5" y="-296.9004" font-family="Helvetica,sans-Serif" font-size="14.00" fill="#000000">raw</text>
</g>
<!-- prose_3&#45;&gt;raw_9 -->
<g id="edge9" class="edge">
<title>prose_3&#45;&gt;raw_9</title>
<path fill="none" stroke="#000000" stroke-dasharray="5,2" d="M769.7344,-370.6257C748.4703,-360.3587 717.2645,-344.5002 691.5,-328.2004 688.1015,-326.0504 684.6163,-323.6711 681.2162,-321.2413"/>
<polygon fill="#000000" stroke="#000000" points="683.1604,-318.3261 673.0375,-315.1991 679.001,-323.9563 683.1604,-318.3261"/>
</g>
<!-- raw_11 -->
<g id="node12" class="node">
<title>raw_11</title>
<ellipse fill="none" stroke="#000000" cx="727.5" cy="-301.1004" rx="27" ry="18"/>
<text text-anchor="middle" x="727.5" y="-296.9004" font-family="Helvetica,sans-Serif" font-size="14.00" fill="#000000">raw</text>
</g>
<!-- prose_4&#45;&gt;raw_11 -->
<g id="edge11" class="edge">
<title>prose_4&#45;&gt;raw_11</title>
<path fill="none" stroke="#000000" stroke-dasharray="5,2" d="M885.0111,-374.5235C853.7416,-365.7369 803.4478,-349.7323 763.5,-328.2004 759.8847,-326.2517 756.2382,-323.9626 752.7253,-321.5546"/>
<polygon fill="#000000" stroke="#000000" points="754.5029,-318.5189 744.3623,-315.4501 750.3759,-324.1729 754.5029,-318.5189"/>
</g>
<!-- prespace_12 -->
<g id="node13" class="node">
<title>prespace_12</title>
<ellipse fill="none" stroke="#000000" cx="818.5" cy="-301.1004" rx="46.4736" ry="18"/>
<text text-anchor="middle" x="818.5" y="-296.9004" font-family="Helvetica,sans-Serif" font-size="14.00" fill="#000000">prespace</text>
</g>
<!-- prose_4&#45;&gt;prespace_12 -->
<g id="edge12" class="edge">
<title>prose_4&#45;&gt;prespace_12</title>
<path fill="none" stroke="#000000" stroke-dasharray="5,2" d="M896.4431,-366.9461C882.29,-354.9897 862.3542,-338.148 846.1877,-324.4907"/>
<polygon fill="#000000" stroke="#000000" points="848.0256,-321.4616 838.1279,-317.6818 843.5082,-326.8089 848.0256,-321.4616"/>
</g>
<!-- literal_13 -->
<g id="node14" class="node">
<title>literal_13</title>
<ellipse fill="none" stroke="#000000" cx="914.5" cy="-301.1004" rx="31.481" ry="18"/>
<text text-anchor="middle" x="914.5" y="-296.9004" font-family="Helvetica,sans-Serif" font-size="14.00" fill="#000000">literal</text>
</g>
<!-- prose_4&#45;&gt;literal_13 -->
<g id="edge13" class="edge">
<title>prose_4&#45;&gt;literal_13</title>
<path fill="none" stroke="#000000" stroke-dasharray="5,2" d="M914.5,-363.7975C914.5,-353.6686 914.5,-340.8803 914.5,-329.4991"/>
<polygon fill="#000000" stroke="#000000" points="918.0001,-329.151 914.5,-319.151 911.0001,-329.1511 918.0001,-329.151"/>
</g>
<!-- raw_14 -->
<g id="node15" class="node">
<title>raw_14</title>
<ellipse fill="none" stroke="#000000" cx="990.5" cy="-301.1004" rx="27" ry="18"/>
<text text-anchor="middle" x="990.5" y="-296.9004" font-family="Helvetica,sans-Serif" font-size="14.00" fill="#000000">raw</text>
</g>
<!-- prose_4&#45;&gt;raw_14 -->
<g id="edge14" class="edge">
<title>prose_4&#45;&gt;raw_14</title>
<path fill="none" stroke="#000000" stroke-dasharray="5,2" d="M929.5152,-366.1776C940.7977,-354.138 956.4104,-337.4775 969.0141,-324.0281"/>
<polygon fill="#000000" stroke="#000000" points="971.7476,-326.2297 976.0317,-316.5396 966.6399,-321.4431 971.7476,-326.2297"/>
</g>
<!-- leaf_19 -->
<g id="node20" class="node">
<title>leaf_19</title>
<polygon fill="none" stroke="#c0c0c0" points="1275.5,-328.3008 1035.5,-328.3008 1035.5,-273.8999 1275.5,-273.8999 1275.5,-328.3008"/>
<text text-anchor="middle" x="1155.5" y="-313.0004" font-family="Inconsolata" font-size="14.00" fill="#000000">local sql = require &quot;sqlite&quot;</text>
<text text-anchor="middle" x="1155.5" y="-297.6004" font-family="Inconsolata" font-size="14.00" fill="#000000">local pcall = assert (pcall)</text>
<text text-anchor="middle" x="1155.5" y="-282.2003" font-family="Inconsolata" font-size="14.00" fill="#000000">local gsub = assert(string.gsub)</text>
</g>
<!-- codeblock_5&#45;&gt;leaf_19 -->
<g id="edge19" class="edge">
<title>codeblock_5&#45;&gt;leaf_19</title>
<path fill="none" stroke="#000000" stroke-dasharray="5,2" d="M1109.594,-364.2017C1115.5282,-356.0447 1122.761,-346.1026 1129.7142,-336.545"/>
<polygon fill="#000000" stroke="#000000" points="1132.6602,-338.4449 1135.7128,-328.2994 1126.9996,-334.3268 1132.6602,-338.4449"/>
</g>
<!-- header_20 -->
<g id="node21" class="node">
<title>header_20</title>
<ellipse fill="none" stroke="#000000" cx="1359.5" cy="-301.1004" rx="66.2599" ry="18"/>
<text text-anchor="middle" x="1359.5" y="-296.9004" font-family="Helvetica,sans-Serif" font-size="14.00" fill="#000000">2 : sql.san(str)</text>
</g>
<!-- section_6&#45;&gt;header_20 -->
<g id="edge20" class="edge">
<title>section_6&#45;&gt;header_20</title>
<path fill="none" stroke="#000000" stroke-dasharray="5,2" d="M1404.6279,-364.2017C1396.8399,-353.3118 1386.7764,-339.2404 1378.1296,-327.1497"/>
<polygon fill="#000000" stroke="#000000" points="1380.8006,-324.8677 1372.1365,-318.7697 1375.1068,-328.9397 1380.8006,-324.8677"/>
</g>
<!-- prose_21 -->
<g id="node22" class="node">
<title>prose_21</title>
<ellipse fill="none" stroke="#000000" cx="1475.5" cy="-301.1004" rx="32.4585" ry="18"/>
<text text-anchor="middle" x="1475.5" y="-296.9004" font-family="Helvetica,sans-Serif" font-size="14.00" fill="#000000">prose</text>
</g>
<!-- section_6&#45;&gt;prose_21 -->
<g id="edge21" class="edge">
<title>section_6&#45;&gt;prose_21</title>
<path fill="none" stroke="#000000" stroke-dasharray="5,2" d="M1430.3721,-364.2017C1438.3212,-353.0865 1448.641,-338.6567 1457.4052,-326.4018"/>
<polygon fill="#000000" stroke="#000000" points="1460.4857,-328.1112 1463.456,-317.9413 1454.7919,-324.0392 1460.4857,-328.1112"/>
</g>
<!-- codeblock_22 -->
<g id="node23" class="node">
<title>codeblock_22</title>
<ellipse fill="none" stroke="#000000" cx="1608.5" cy="-301.1004" rx="77.4211" ry="18"/>
<text text-anchor="middle" x="1608.5" y="-296.9004" font-family="Helvetica,sans-Serif" font-size="14.00" fill="#000000">code block 19&#45;23</text>
</g>
<!-- section_6&#45;&gt;codeblock_22 -->
<g id="edge22" class="edge">
<title>section_6&#45;&gt;codeblock_22</title>
<path fill="none" stroke="#000000" stroke-dasharray="5,2" d="M1453.4256,-366.9461C1484.0137,-353.9582 1528.1778,-335.2058 1561.558,-321.0323"/>
<polygon fill="#000000" stroke="#000000" points="1563.2678,-324.1088 1571.1044,-316.9788 1560.5319,-317.6656 1563.2678,-324.1088"/>
</g>
<!-- header_27 -->
<g id="node28" class="node">
<title>header_27</title>
<ellipse fill="none" stroke="#000000" cx="1912.5" cy="-301.1004" rx="106.3786" ry="18"/>
<text text-anchor="middle" x="1912.5" y="-296.9004" font-family="Helvetica,sans-Serif" font-size="14.00" fill="#000000">2 : sql.pexec(conn, stmt)</text>
</g>
<!-- section_7&#45;&gt;header_27 -->
<g id="edge27" class="edge">
<title>section_7&#45;&gt;header_27</title>
<path fill="none" stroke="#000000" stroke-dasharray="5,2" d="M2101.0865,-367.888C2064.1176,-354.7955 2009.0909,-335.3079 1968.0061,-320.7578"/>
<polygon fill="#000000" stroke="#000000" points="1969.0051,-317.3986 1958.4103,-317.3594 1966.6682,-323.997 1969.0051,-317.3986"/>
</g>
<!-- prose_28 -->
<g id="node29" class="node">
<title>prose_28</title>
<ellipse fill="none" stroke="#000000" cx="2085.5" cy="-301.1004" rx="32.4585" ry="18"/>
<text text-anchor="middle" x="2085.5" y="-296.9004" font-family="Helvetica,sans-Serif" font-size="14.00" fill="#000000">prose</text>
</g>
<!-- section_7&#45;&gt;prose_28 -->
<g id="edge28" class="edge">
<title>section_7&#45;&gt;prose_28</title>
<path fill="none" stroke="#000000" stroke-dasharray="5,2" d="M2129.0718,-364.2017C2121.3967,-353.0865 2111.4329,-338.6567 2102.9708,-326.4018"/>
<polygon fill="#000000" stroke="#000000" points="2105.6909,-324.1814 2097.1287,-317.9413 2099.9307,-328.1589 2105.6909,-324.1814"/>
</g>
<!-- prose_29 -->
<g id="node30" class="node">
<title>prose_29</title>
<ellipse fill="none" stroke="#000000" cx="2197.5" cy="-301.1004" rx="32.4585" ry="18"/>
<text text-anchor="middle" x="2197.5" y="-296.9004" font-family="Helvetica,sans-Serif" font-size="14.00" fill="#000000">prose</text>
</g>
<!-- section_7&#45;&gt;prose_29 -->
<g id="edge29" class="edge">
<title>section_7&#45;&gt;prose_29</title>
<path fill="none" stroke="#000000" stroke-dasharray="5,2" d="M2153.9282,-364.2017C2161.6033,-353.0865 2171.5671,-338.6567 2180.0292,-326.4018"/>
<polygon fill="#000000" stroke="#000000" points="2183.0693,-328.1589 2185.8713,-317.9413 2177.3091,-324.1814 2183.0693,-328.1589"/>
</g>
<!-- codeblock_30 -->
<g id="node31" class="node">
<title>codeblock_30</title>
<ellipse fill="none" stroke="#000000" cx="2468.5" cy="-301.1004" rx="77.4211" ry="18"/>
<text text-anchor="middle" x="2468.5" y="-296.9004" font-family="Helvetica,sans-Serif" font-size="14.00" fill="#000000">code block 31&#45;41</text>
</g>
<!-- section_7&#45;&gt;codeblock_30 -->
<g id="edge30" class="edge">
<title>section_7&#45;&gt;codeblock_30</title>
<path fill="none" stroke="#000000" stroke-dasharray="5,2" d="M2190.4552,-370.0589C2247.787,-355.8399 2342.8807,-332.2555 2405.6248,-316.6942"/>
<polygon fill="#000000" stroke="#000000" points="2406.5429,-320.0726 2415.4063,-314.2682 2404.8579,-313.2784 2406.5429,-320.0726"/>
</g>
<!-- codeblock_31 -->
<g id="node32" class="node">
<title>codeblock_31</title>
<ellipse fill="none" stroke="#000000" cx="2755.5" cy="-301.1004" rx="77.4211" ry="18"/>
<text text-anchor="middle" x="2755.5" y="-296.9004" font-family="Helvetica,sans-Serif" font-size="14.00" fill="#000000">code block 43&#45;45</text>
</g>
<!-- section_7&#45;&gt;codeblock_31 -->
<g id="edge31" class="edge">
<title>section_7&#45;&gt;codeblock_31</title>
<path fill="none" stroke="#000000" stroke-dasharray="5,2" d="M2201.0117,-374.4952C2281.2824,-364.085 2428.6973,-344.9055 2554.5,-328.2004 2595.3391,-322.7775 2640.8331,-316.6509 2678.1967,-311.5965"/>
<polygon fill="#000000" stroke="#000000" points="2679.0688,-315.0105 2688.509,-310.2008 2678.1299,-308.0737 2679.0688,-315.0105"/>
</g>
<!-- leaf_10 -->
<g id="node11" class="node">
<title>leaf_10</title>
<polygon fill="none" stroke="#c0c0c0" points="247,-192.6017 0,-192.6017 0,-136.7987 247,-136.7987 247,-192.6017"/>
<text text-anchor="middle" x="123.5" y="-145.2002" font-family="Inconsolata" font-size="14.00" fill="#000000">This will be in pylon eventually.</text>
</g>
<!-- raw_9&#45;&gt;leaf_10 -->
<g id="edge10" class="edge">
<title>raw_9&#45;&gt;leaf_10</title>
<path fill="none" stroke="#000000" stroke-dasharray="5,2" d="M639.3103,-286.3467C633.2083,-281.6051 625.936,-276.8472 618.5,-274.0003 467.5056,-216.1908 410.8934,-285.9994 256.5,-238.0003 227.0143,-228.8336 196.671,-212.7127 172.426,-197.9192"/>
<polygon fill="#000000" stroke="#000000" points="174.1227,-194.8529 163.7824,-192.5444 170.4262,-200.7973 174.1227,-194.8529"/>
</g>
<!-- leaf_15 -->
<g id="node16" class="node">
<title>leaf_15</title>
<polygon fill="none" stroke="#c0c0c0" points="799.5,-192.0006 265.5,-192.0006 265.5,-137.3997 799.5,-137.3997 799.5,-192.0006"/>
<text text-anchor="middle" x="532.5" y="-160.9002" font-family="Inconsolata" font-size="14.00" fill="#000000">Enhances the existing SQLite bindings, which in turn will be turned into a</text>
<text text-anchor="middle" x="532.5" y="-145.5002" font-family="Inconsolata" font-size="14.00" fill="#000000">statically&#45;linked part of</text>
</g>
<!-- raw_11&#45;&gt;leaf_15 -->
<g id="edge15" class="edge">
<title>raw_11&#45;&gt;leaf_15</title>
<path fill="none" stroke="#000000" stroke-dasharray="5,2" d="M709.6675,-287.4384C703.908,-283.0901 697.4688,-278.2954 691.5,-274.0003 655.2149,-247.8897 613.5517,-219.2992 581.9782,-197.9101"/>
<polygon fill="#000000" stroke="#000000" points="583.5974,-194.7799 573.3533,-192.0763 579.6755,-200.5781 583.5974,-194.7799"/>
</g>
<!-- leaf_16 -->
<g id="node17" class="node">
<title>leaf_16</title>
<polygon fill="none" stroke="#c0c0c0" points="871.5,-182.7002 817.5,-182.7002 817.5,-146.7002 871.5,-146.7002 871.5,-182.7002"/>
<text text-anchor="middle" x="844.5" y="-161.2002" font-family="Inconsolata" font-size="14.00" fill="#000000"> </text>
</g>
<!-- prespace_12&#45;&gt;leaf_16 -->
<g id="edge16" class="edge">
<title>prespace_12&#45;&gt;leaf_16</title>
<path fill="none" stroke="#000000" stroke-dasharray="5,2" d="M821.9526,-282.9875C826.3427,-259.9563 833.9703,-219.9409 839.1246,-192.9004"/>
<polygon fill="#000000" stroke="#000000" points="842.5987,-193.3665 841.0331,-182.888 835.7225,-192.0557 842.5987,-193.3665"/>
</g>
<!-- leaf_17 -->
<g id="node18" class="node">
<title>leaf_17</title>
<polygon fill="none" stroke="#c0c0c0" points="943.5,-182.7002 889.5,-182.7002 889.5,-146.7002 943.5,-146.7002 943.5,-182.7002"/>
<text text-anchor="middle" x="916.5" y="-161.2002" font-family="Inconsolata" font-size="14.00" fill="#000000">pylon</text>
</g>
<!-- literal_13&#45;&gt;leaf_17 -->
<g id="edge17" class="edge">
<title>literal_13&#45;&gt;leaf_17</title>
<path fill="none" stroke="#000000" stroke-dasharray="5,2" d="M914.7656,-282.9875C915.1033,-259.9563 915.69,-219.9409 916.0865,-192.9004"/>
<polygon fill="#000000" stroke="#000000" points="919.5862,-192.9382 916.2333,-182.888 912.587,-192.8356 919.5862,-192.9382"/>
</g>
<!-- leaf_18 -->
<g id="node19" class="node">
<title>leaf_18</title>
<polygon fill="none" stroke="#c0c0c0" points="1017.5,-182.7002 963.5,-182.7002 963.5,-146.7002 1017.5,-146.7002 1017.5,-182.7002"/>
<text text-anchor="middle" x="990.5" y="-161.2002" font-family="Inconsolata" font-size="14.00" fill="#000000">.</text>
</g>
<!-- raw_14&#45;&gt;leaf_18 -->
<g id="edge18" class="edge">
<title>raw_14&#45;&gt;leaf_18</title>
<path fill="none" stroke="#000000" stroke-dasharray="5,2" d="M990.5,-282.9875C990.5,-259.9563 990.5,-219.9409 990.5,-192.9004"/>
<polygon fill="#000000" stroke="#000000" points="994.0001,-192.8879 990.5,-182.888 987.0001,-192.888 994.0001,-192.8879"/>
</g>
<!-- leaf_23 -->
<g id="node24" class="node">
<title>leaf_23</title>
<polygon fill="none" stroke="#c0c0c0" points="1415,-182.7002 1294,-182.7002 1294,-146.7002 1415,-146.7002 1415,-182.7002"/>
<text text-anchor="middle" x="1354.5" y="-161.2002" font-family="Inconsolata" font-size="14.00" fill="#000000">** sql.san(str)</text>
</g>
<!-- header_20&#45;&gt;leaf_23 -->
<g id="edge23" class="edge">
<title>header_20&#45;&gt;leaf_23</title>
<path fill="none" stroke="#000000" stroke-dasharray="5,2" d="M1358.836,-282.9875C1357.9918,-259.9563 1356.5249,-219.9409 1355.5337,-192.9004"/>
<polygon fill="#000000" stroke="#000000" points="1359.0308,-192.753 1355.1667,-182.888 1352.0355,-193.0095 1359.0308,-192.753"/>
</g>
<!-- raw_24 -->
<g id="node25" class="node">
<title>raw_24</title>
<ellipse fill="none" stroke="#000000" cx="1460.5" cy="-164.7002" rx="27" ry="18"/>
<text text-anchor="middle" x="1460.5" y="-160.5002" font-family="Helvetica,sans-Serif" font-size="14.00" fill="#000000">raw</text>
</g>
<!-- prose_21&#45;&gt;raw_24 -->
<g id="edge24" class="edge">
<title>prose_21&#45;&gt;raw_24</title>
<path fill="none" stroke="#000000" stroke-dasharray="5,2" d="M1473.5081,-282.9875C1470.9754,-259.9563 1466.5748,-219.9409 1463.6012,-192.9004"/>
<polygon fill="#000000" stroke="#000000" points="1467.0724,-192.4454 1462.5001,-182.888 1460.1143,-193.2107 1467.0724,-192.4454"/>
</g>
<!-- leaf_26 -->
<g id="node27" class="node">
<title>leaf_26</title>
<polygon fill="none" stroke="#c0c0c0" points="1731.5,-191.9006 1505.5,-191.9006 1505.5,-137.4997 1731.5,-137.4997 1731.5,-191.9006"/>
<text text-anchor="middle" x="1618.5" y="-176.6002" font-family="Inconsolata" font-size="14.00" fill="#000000">function sql.san(str)</text>
<text text-anchor="middle" x="1618.5" y="-161.2002" font-family="Inconsolata" font-size="14.00" fill="#000000"> &#160;&#160;return gsub(str, &quot;&#39;&quot;, &quot;&#39;&#39;&quot;)</text>
<text text-anchor="middle" x="1618.5" y="-145.8002" font-family="Inconsolata" font-size="14.00" fill="#000000">end</text>
</g>
<!-- codeblock_22&#45;&gt;leaf_26 -->
<g id="edge26" class="edge">
<title>codeblock_22&#45;&gt;leaf_26</title>
<path fill="none" stroke="#000000" stroke-dasharray="5,2" d="M1609.8279,-282.9875C1611.3382,-262.3874 1613.8446,-228.1993 1615.7756,-201.8617"/>
<polygon fill="#000000" stroke="#000000" points="1619.2698,-202.0675 1616.5104,-191.8383 1612.2885,-201.5556 1619.2698,-202.0675"/>
</g>
<!-- leaf_25 -->
<g id="node26" class="node">
<title>leaf_25</title>
<polygon fill="none" stroke="#c0c0c0" points="1572,-55.6015 1283,-55.6015 1283,.2015 1572,.2015 1572,-55.6015"/>
<text text-anchor="middle" x="1427.5" y="-8.2" font-family="Inconsolata" font-size="14.00" fill="#000000">Sanitizes a string for SQL(ite) quoting</text>
</g>
<!-- raw_24&#45;&gt;leaf_25 -->
<g id="edge25" class="edge">
<title>raw_24&#45;&gt;leaf_25</title>
<path fill="none" stroke="#000000" stroke-dasharray="5,2" d="M1456.1858,-146.7898C1451.2285,-126.2093 1442.9554,-91.8634 1436.5643,-65.3306"/>
<polygon fill="#000000" stroke="#000000" points="1439.9624,-64.4915 1434.2178,-55.5892 1433.157,-66.1308 1439.9624,-64.4915"/>
</g>
<!-- leaf_32 -->
<g id="node33" class="node">
<title>leaf_32</title>
<polygon fill="none" stroke="#c0c0c0" points="1989.5,-182.7002 1805.5,-182.7002 1805.5,-146.7002 1989.5,-146.7002 1989.5,-182.7002"/>
<text text-anchor="middle" x="1897.5" y="-161.2002" font-family="Inconsolata" font-size="14.00" fill="#000000">** sql.pexec(conn, stmt)</text>
</g>
<!-- header_27&#45;&gt;leaf_32 -->
<g id="edge32" class="edge">
<title>header_27&#45;&gt;leaf_32</title>
<path fill="none" stroke="#000000" stroke-dasharray="5,2" d="M1910.5081,-282.9875C1907.9754,-259.9563 1903.5748,-219.9409 1900.6012,-192.9004"/>
<polygon fill="#000000" stroke="#000000" points="1904.0724,-192.4454 1899.5001,-182.888 1897.1143,-193.2107 1904.0724,-192.4454"/>
</g>
<!-- raw_33 -->
<g id="node34" class="node">
<title>raw_33</title>
<ellipse fill="none" stroke="#000000" cx="2034.5" cy="-164.7002" rx="27" ry="18"/>
<text text-anchor="middle" x="2034.5" y="-160.5002" font-family="Helvetica,sans-Serif" font-size="14.00" fill="#000000">raw</text>
</g>
<!-- prose_28&#45;&gt;raw_33 -->
<g id="edge33" class="edge">
<title>prose_28&#45;&gt;raw_33</title>
<path fill="none" stroke="#000000" stroke-dasharray="5,2" d="M2078.8326,-283.2684C2070.1658,-260.0887 2054.9411,-219.3701 2044.7878,-192.215"/>
<polygon fill="#000000" stroke="#000000" points="2047.9496,-190.6774 2041.169,-182.5365 2041.3929,-193.129 2047.9496,-190.6774"/>
</g>
<!-- raw_35 -->
<g id="node36" class="node">
<title>raw_35</title>
<ellipse fill="none" stroke="#000000" cx="2106.5" cy="-164.7002" rx="27" ry="18"/>
<text text-anchor="middle" x="2106.5" y="-160.5002" font-family="Helvetica,sans-Serif" font-size="14.00" fill="#000000">raw</text>
</g>
<!-- prose_29&#45;&gt;raw_35 -->
<g id="edge35" class="edge">
<title>prose_29&#45;&gt;raw_35</title>
<path fill="none" stroke="#000000" stroke-dasharray="5,2" d="M2181.5368,-285.1863C2169.8184,-272.9668 2154.0051,-255.3059 2142.5,-238.0003 2132.8062,-223.4192 2124.0871,-205.8474 2117.6583,-191.5639"/>
<polygon fill="#000000" stroke="#000000" points="2120.8086,-190.0326 2113.5896,-182.2778 2114.397,-192.8419 2120.8086,-190.0326"/>
</g>
<!-- prespace_36 -->
<g id="node37" class="node">
<title>prespace_36</title>
<ellipse fill="none" stroke="#000000" cx="2197.5" cy="-164.7002" rx="46.4736" ry="18"/>
<text text-anchor="middle" x="2197.5" y="-160.5002" font-family="Helvetica,sans-Serif" font-size="14.00" fill="#000000">prespace</text>
</g>
<!-- prose_29&#45;&gt;prespace_36 -->
<g id="edge36" class="edge">
<title>prose_29&#45;&gt;prespace_36</title>
<path fill="none" stroke="#000000" stroke-dasharray="5,2" d="M2197.5,-282.9875C2197.5,-259.9563 2197.5,-219.9409 2197.5,-192.9004"/>
<polygon fill="#000000" stroke="#000000" points="2201.0001,-192.8879 2197.5,-182.888 2194.0001,-192.888 2201.0001,-192.8879"/>
</g>
<!-- literal_37 -->
<g id="node38" class="node">
<title>literal_37</title>
<ellipse fill="none" stroke="#000000" cx="2293.5" cy="-164.7002" rx="31.481" ry="18"/>
<text text-anchor="middle" x="2293.5" y="-160.5002" font-family="Helvetica,sans-Serif" font-size="14.00" fill="#000000">literal</text>
</g>
<!-- prose_29&#45;&gt;literal_37 -->
<g id="edge37" class="edge">
<title>prose_29&#45;&gt;literal_37</title>
<path fill="none" stroke="#000000" stroke-dasharray="5,2" d="M2212.9529,-285.2605C2224.5563,-272.9375 2240.4528,-255.1111 2252.5,-238.0003 2262.867,-223.276 2272.7734,-205.6992 2280.2509,-191.4488"/>
<polygon fill="#000000" stroke="#000000" points="2283.5516,-192.6838 2285.0154,-182.1906 2277.3274,-189.4807 2283.5516,-192.6838"/>
</g>
<!-- raw_38 -->
<g id="node39" class="node">
<title>raw_38</title>
<ellipse fill="none" stroke="#000000" cx="2369.5" cy="-164.7002" rx="27" ry="18"/>
<text text-anchor="middle" x="2369.5" y="-160.5002" font-family="Helvetica,sans-Serif" font-size="14.00" fill="#000000">raw</text>
</g>
<!-- prose_29&#45;&gt;raw_38 -->
<g id="edge38" class="edge">
<title>prose_29&#45;&gt;raw_38</title>
<path fill="none" stroke="#000000" stroke-dasharray="5,2" d="M2227.1295,-293.6694C2257.1881,-284.8139 2303.4489,-267.394 2333.5,-238.0003 2346.3466,-225.4347 2355.2971,-207.3432 2361.0604,-192.278"/>
<polygon fill="#000000" stroke="#000000" points="2364.5066,-193.0315 2364.5498,-182.4368 2357.9091,-190.6922 2364.5066,-193.0315"/>
</g>
<!-- leaf_43 -->
<g id="node44" class="node">
<title>leaf_43</title>
<polygon fill="none" stroke="#c0c0c0" points="2808.5,-237.801 2414.5,-237.801 2414.5,-91.5993 2808.5,-91.5993 2808.5,-237.801"/>
<text text-anchor="middle" x="2611.5" y="-222.8003" font-family="Inconsolata" font-size="14.00" fill="#000000">function sql.pexec(conn, stmt)</text>
<text text-anchor="middle" x="2611.5" y="-207.4003" font-family="Inconsolata" font-size="14.00" fill="#000000"> &#160;&#160;&#45;&#45; conn:exec(stmt)</text>
<text text-anchor="middle" x="2611.5" y="-192.0002" font-family="Inconsolata" font-size="14.00" fill="#000000"> &#160;&#160;local success, value = pcall(conn.exec, conn, stmt)</text>
<text text-anchor="middle" x="2611.5" y="-176.6002" font-family="Inconsolata" font-size="14.00" fill="#000000"> &#160;&#160;if success then</text>
<text text-anchor="middle" x="2611.5" y="-161.2002" font-family="Inconsolata" font-size="14.00" fill="#000000"> &#160;&#160;&#160;&#160;&#160;return value</text>
<text text-anchor="middle" x="2611.5" y="-145.8002" font-family="Inconsolata" font-size="14.00" fill="#000000"> &#160;&#160;else</text>
<text text-anchor="middle" x="2611.5" y="-130.4001" font-family="Inconsolata" font-size="14.00" fill="#000000"> &#160;&#160;&#160;&#160;&#160;return false, value</text>
<text text-anchor="middle" x="2611.5" y="-115.0001" font-family="Inconsolata" font-size="14.00" fill="#000000"> &#160;&#160;end</text>
<text text-anchor="middle" x="2611.5" y="-99.6001" font-family="Inconsolata" font-size="14.00" fill="#000000">end</text>
</g>
<!-- codeblock_30&#45;&gt;leaf_43 -->
<g id="edge43" class="edge">
<title>codeblock_30&#45;&gt;leaf_43</title>
<path fill="none" stroke="#000000" stroke-dasharray="5,2" d="M2486.902,-283.5477C2497.6631,-273.2832 2512.1003,-259.5123 2527.3298,-244.9857"/>
<polygon fill="#000000" stroke="#000000" points="2530.0368,-247.2405 2534.8571,-237.8058 2525.2053,-242.1753 2530.0368,-247.2405"/>
</g>
<!-- leaf_44 -->
<g id="node45" class="node">
<title>leaf_44</title>
<polygon fill="none" stroke="#c0c0c0" points="2912.5,-182.7002 2826.5,-182.7002 2826.5,-146.7002 2912.5,-146.7002 2912.5,-182.7002"/>
<text text-anchor="middle" x="2869.5" y="-161.2002" font-family="Inconsolata" font-size="14.00" fill="#000000">return sql</text>
</g>
<!-- codeblock_31&#45;&gt;leaf_44 -->
<g id="edge44" class="edge">
<title>codeblock_31&#45;&gt;leaf_44</title>
<path fill="none" stroke="#000000" stroke-dasharray="5,2" d="M2774.2049,-283.6C2786.9443,-271.3203 2803.8981,-254.254 2817.5,-238.0003 2829.9386,-223.1368 2842.5493,-205.4393 2852.2365,-191.1578"/>
<polygon fill="#000000" stroke="#000000" points="2855.2028,-193.0183 2857.8626,-182.7628 2849.3879,-189.1213 2855.2028,-193.0183"/>
</g>
<!-- leaf_34 -->
<g id="node35" class="node">
<title>leaf_34</title>
<polygon fill="none" stroke="#c0c0c0" points="1949,-55.6015 1590,-55.6015 1590,.2015 1949,.2015 1949,-55.6015"/>
<text text-anchor="middle" x="1769.5" y="-8.2" font-family="Inconsolata" font-size="14.00" fill="#000000">Executes the statement on conn in protected mode.</text>
</g>
<!-- raw_33&#45;&gt;leaf_34 -->
<g id="edge34" class="edge">
<title>raw_33&#45;&gt;leaf_34</title>
<path fill="none" stroke="#000000" stroke-dasharray="5,2" d="M2030.1969,-146.6706C2025.2872,-129.9648 2015.6276,-105.6165 1998.5,-91.4 1984.0715,-79.4239 1951.0281,-67.9231 1914.4045,-58.0695"/>
<polygon fill="#000000" stroke="#000000" points="1915.0726,-54.6262 1904.5112,-55.4681 1913.2924,-61.3961 1915.0726,-54.6262"/>
</g>
<!-- leaf_39 -->
<g id="node40" class="node">
<title>leaf_39</title>
<polygon fill="none" stroke="#c0c0c0" points="2200,-47.6021 1967,-47.6021 1967,-7.7979 2200,-7.7979 2200,-47.6021"/>
<text text-anchor="middle" x="2083.5" y="-16.2" font-family="Inconsolata" font-size="14.00" fill="#000000">Unwraps and returns success, or</text>
</g>
<!-- raw_35&#45;&gt;leaf_39 -->
<g id="edge39" class="edge">
<title>raw_35&#45;&gt;leaf_39</title>
<path fill="none" stroke="#000000" stroke-dasharray="5,2" d="M2103.4932,-146.7898C2099.7093,-124.251 2093.1537,-85.2024 2088.5847,-57.9873"/>
<polygon fill="#000000" stroke="#000000" points="2091.9888,-57.1237 2086.8814,-47.8412 2085.0854,-58.2827 2091.9888,-57.1237"/>
</g>
<!-- leaf_40 -->
<g id="node41" class="node">
<title>leaf_40</title>
<polygon fill="none" stroke="#c0c0c0" points="2272.5,-45.7 2218.5,-45.7 2218.5,-9.7 2272.5,-9.7 2272.5,-45.7"/>
<text text-anchor="middle" x="2245.5" y="-24.2" font-family="Inconsolata" font-size="14.00" fill="#000000"> </text>
</g>
<!-- prespace_36&#45;&gt;leaf_40 -->
<g id="edge40" class="edge">
<title>prespace_36&#45;&gt;leaf_40</title>
<path fill="none" stroke="#000000" stroke-dasharray="5,2" d="M2203.7752,-146.7898C2211.8872,-123.6368 2226.1032,-83.0618 2235.6586,-55.7892"/>
<polygon fill="#000000" stroke="#000000" points="2239.0666,-56.6469 2239.0701,-46.0521 2232.4603,-54.3323 2239.0666,-56.6469"/>
</g>
<!-- leaf_41 -->
<g id="node42" class="node">
<title>leaf_41</title>
<polygon fill="none" stroke="#c0c0c0" points="2344.5,-45.7 2290.5,-45.7 2290.5,-9.7 2344.5,-9.7 2344.5,-45.7"/>
<text text-anchor="middle" x="2317.5" y="-24.2" font-family="Inconsolata" font-size="14.00" fill="#000000">false</text>
</g>
<!-- literal_37&#45;&gt;leaf_41 -->
<g id="edge41" class="edge">
<title>literal_37&#45;&gt;leaf_41</title>
<path fill="none" stroke="#000000" stroke-dasharray="5,2" d="M2296.6376,-146.7898C2300.6757,-123.7388 2307.739,-83.4189 2312.516,-56.1504"/>
<polygon fill="#000000" stroke="#000000" points="2316.0069,-56.506 2314.285,-46.0521 2309.1119,-55.2981 2316.0069,-56.506"/>
</g>
<!-- leaf_42 -->
<g id="node43" class="node">
<title>leaf_42</title>
<polygon fill="none" stroke="#c0c0c0" points="2456,-45.7 2363,-45.7 2363,-9.7 2456,-9.7 2456,-45.7"/>
<text text-anchor="middle" x="2409.5" y="-24.2" font-family="Inconsolata" font-size="14.00" fill="#000000"> and error.</text>
</g>
<!-- raw_38&#45;&gt;leaf_42 -->
<g id="edge42" class="edge">
<title>raw_38&#45;&gt;leaf_42</title>
<path fill="none" stroke="#000000" stroke-dasharray="5,2" d="M2374.7293,-146.7898C2381.4893,-123.6368 2393.336,-83.0618 2401.2988,-55.7892"/>
<polygon fill="#000000" stroke="#000000" points="2404.6987,-56.6322 2404.1417,-46.0521 2397.9793,-54.6703 2404.6987,-56.6322"/>
</g>
</g>
</svg>
