<?xml version="1.0" encoding="UTF-8" standalone="no"?>
<!DOCTYPE svg PUBLIC "-//W3C//DTD SVG 1.1//EN"
 "http://www.w3.org/Graphics/SVG/1.1/DTD/svg11.dtd">
<!-- Generated by graphviz version 2.40.1 (20161225.0304)
 -->
<!-- Title: lpegNode Pages: 1 -->
<svg width="2297pt" height="351pt"
 viewBox="0.00 0.00 2296.50 351.40" xmlns="http://www.w3.org/2000/svg" xmlns:xlink="http://www.w3.org/1999/xlink">
<g id="graph0" class="graph" transform="scale(1 1) rotate(0) translate(4 347.4)">
<title>lpegNode</title>
<polygon fill="#ffffff" stroke="transparent" points="-4,4 -4,-347.4 2292.5,-347.4 2292.5,4 -4,4"/>
<!-- doc_0 -->
<g id="node1" class="node">
<title>doc_0</title>
<ellipse fill="none" stroke="#000000" cx="1138" cy="-325.4" rx="42.1216" ry="18"/>
<text text-anchor="middle" x="1138" y="-321.2" font-family="Helvetica,sans-Serif" font-size="14.00" fill="#000000">doc &#45; 14</text>
</g>
<!-- section_1 -->
<g id="node2" class="node">
<title>section_1</title>
<ellipse fill="none" stroke="#000000" cx="1138" cy="-253.4" rx="60.9826" ry="18"/>
<text text-anchor="middle" x="1138" y="-249.2" font-family="Helvetica,sans-Serif" font-size="14.00" fill="#000000">section: 1&#45;14</text>
</g>
<!-- doc_0&#45;&gt;section_1 -->
<g id="edge1" class="edge">
<title>doc_0&#45;&gt;section_1</title>
<path fill="none" stroke="#000000" stroke-dasharray="5,2" d="M1138,-307.2314C1138,-299.531 1138,-290.3744 1138,-281.8167"/>
<polygon fill="#000000" stroke="#000000" points="1141.5001,-281.8133 1138,-271.8133 1134.5001,-281.8133 1141.5001,-281.8133"/>
</g>
<!-- header_2 -->
<g id="node3" class="node">
<title>header_2</title>
<ellipse fill="none" stroke="#000000" cx="918" cy="-181.4" rx="46.6307" ry="18"/>
<text text-anchor="middle" x="918" y="-177.2" font-family="Helvetica,sans-Serif" font-size="14.00" fill="#000000">1 : Txtbuf</text>
</g>
<!-- section_1&#45;&gt;header_2 -->
<g id="edge2" class="edge">
<title>section_1&#45;&gt;header_2</title>
<path fill="none" stroke="#000000" stroke-dasharray="5,2" d="M1097.1353,-240.0261C1059.2178,-227.6168 1002.8693,-209.1754 963.5266,-196.2996"/>
<polygon fill="#000000" stroke="#000000" points="964.5048,-192.9372 953.9122,-193.1531 962.3275,-199.59 964.5048,-192.9372"/>
</g>
<!-- prose_3 -->
<g id="node4" class="node">
<title>prose_3</title>
<ellipse fill="none" stroke="#000000" cx="1015" cy="-181.4" rx="32.4585" ry="18"/>
<text text-anchor="middle" x="1015" y="-177.2" font-family="Helvetica,sans-Serif" font-size="14.00" fill="#000000">prose</text>
</g>
<!-- section_1&#45;&gt;prose_3 -->
<g id="edge3" class="edge">
<title>section_1&#45;&gt;prose_3</title>
<path fill="none" stroke="#000000" stroke-dasharray="5,2" d="M1110.3964,-237.2418C1091.3555,-226.096 1066.0105,-211.2599 1046.2307,-199.6814"/>
<polygon fill="#000000" stroke="#000000" points="1047.9752,-196.6471 1037.5769,-194.6158 1044.4389,-202.6882 1047.9752,-196.6471"/>
</g>
<!-- prose_4 -->
<g id="node5" class="node">
<title>prose_4</title>
<ellipse fill="none" stroke="#000000" cx="1097" cy="-181.4" rx="32.4585" ry="18"/>
<text text-anchor="middle" x="1097" y="-177.2" font-family="Helvetica,sans-Serif" font-size="14.00" fill="#000000">prose</text>
</g>
<!-- section_1&#45;&gt;prose_4 -->
<g id="edge4" class="edge">
<title>section_1&#45;&gt;prose_4</title>
<path fill="none" stroke="#000000" stroke-dasharray="5,2" d="M1127.8652,-235.6023C1123.0632,-227.1695 1117.2315,-216.9286 1111.9358,-207.6288"/>
<polygon fill="#000000" stroke="#000000" points="1114.8667,-205.7025 1106.8768,-198.7446 1108.7838,-209.1664 1114.8667,-205.7025"/>
</g>
<!-- prose_5 -->
<g id="node6" class="node">
<title>prose_5</title>
<ellipse fill="none" stroke="#000000" cx="1179" cy="-181.4" rx="32.4585" ry="18"/>
<text text-anchor="middle" x="1179" y="-177.2" font-family="Helvetica,sans-Serif" font-size="14.00" fill="#000000">prose</text>
</g>
<!-- section_1&#45;&gt;prose_5 -->
<g id="edge5" class="edge">
<title>section_1&#45;&gt;prose_5</title>
<path fill="none" stroke="#000000" stroke-dasharray="5,2" d="M1148.1348,-235.6023C1152.9368,-227.1695 1158.7685,-216.9286 1164.0642,-207.6288"/>
<polygon fill="#000000" stroke="#000000" points="1167.2162,-209.1664 1169.1232,-198.7446 1161.1333,-205.7025 1167.2162,-209.1664"/>
</g>
<!-- prose_6 -->
<g id="node7" class="node">
<title>prose_6</title>
<ellipse fill="none" stroke="#000000" cx="1508" cy="-181.4" rx="32.4585" ry="18"/>
<text text-anchor="middle" x="1508" y="-177.2" font-family="Helvetica,sans-Serif" font-size="14.00" fill="#000000">prose</text>
</g>
<!-- section_1&#45;&gt;prose_6 -->
<g id="edge6" class="edge">
<title>section_1&#45;&gt;prose_6</title>
<path fill="none" stroke="#000000" stroke-dasharray="5,2" d="M1189.0585,-243.4643C1263.3526,-229.0071 1399.7628,-202.4624 1467.5527,-189.2709"/>
<polygon fill="#000000" stroke="#000000" points="1468.2851,-192.6941 1477.4324,-187.3483 1466.948,-185.823 1468.2851,-192.6941"/>
</g>
<!-- prose_7 -->
<g id="node8" class="node">
<title>prose_7</title>
<ellipse fill="none" stroke="#000000" cx="1881" cy="-181.4" rx="32.4585" ry="18"/>
<text text-anchor="middle" x="1881" y="-177.2" font-family="Helvetica,sans-Serif" font-size="14.00" fill="#000000">prose</text>
</g>
<!-- section_1&#45;&gt;prose_7 -->
<g id="edge7" class="edge">
<title>section_1&#45;&gt;prose_7</title>
<path fill="none" stroke="#000000" stroke-dasharray="5,2" d="M1195.9925,-247.7803C1340.3299,-233.7934 1713.1042,-197.6699 1838.8573,-185.4838"/>
<polygon fill="#000000" stroke="#000000" points="1839.251,-188.9622 1848.8668,-184.5139 1838.5758,-181.9948 1839.251,-188.9622"/>
</g>
<!-- leaf_8 -->
<g id="node9" class="node">
<title>leaf_8</title>
<polygon fill="none" stroke="#c0c0c0" points="954,-127.4 882,-127.4 882,-91.4 954,-91.4 954,-127.4"/>
<text text-anchor="middle" x="918" y="-105.9" font-family="Inconsolata" font-size="14.00" fill="#000000">* Txtbuf</text>
</g>
<!-- header_2&#45;&gt;leaf_8 -->
<g id="edge8" class="edge">
<title>header_2&#45;&gt;leaf_8</title>
<path fill="none" stroke="#000000" stroke-dasharray="5,2" d="M918,-163.2314C918,-155.531 918,-146.3744 918,-137.8167"/>
<polygon fill="#000000" stroke="#000000" points="921.5001,-137.8133 918,-127.8133 914.5001,-137.8133 921.5001,-137.8133"/>
</g>
<!-- raw_9 -->
<g id="node10" class="node">
<title>raw_9</title>
<ellipse fill="none" stroke="#000000" cx="1007" cy="-109.4" rx="27" ry="18"/>
<text text-anchor="middle" x="1007" y="-105.2" font-family="Helvetica,sans-Serif" font-size="14.00" fill="#000000">raw</text>
</g>
<!-- prose_3&#45;&gt;raw_9 -->
<g id="edge9" class="edge">
<title>prose_3&#45;&gt;raw_9</title>
<path fill="none" stroke="#000000" stroke-dasharray="5,2" d="M1012.9813,-163.2314C1012.1257,-155.531 1011.1083,-146.3744 1010.1574,-137.8167"/>
<polygon fill="#000000" stroke="#000000" points="1013.6289,-137.3656 1009.0459,-127.8133 1006.6717,-138.1387 1013.6289,-137.3656"/>
</g>
<!-- raw_11 -->
<g id="node12" class="node">
<title>raw_11</title>
<ellipse fill="none" stroke="#000000" cx="1088" cy="-109.4" rx="27" ry="18"/>
<text text-anchor="middle" x="1088" y="-105.2" font-family="Helvetica,sans-Serif" font-size="14.00" fill="#000000">raw</text>
</g>
<!-- prose_4&#45;&gt;raw_11 -->
<g id="edge11" class="edge">
<title>prose_4&#45;&gt;raw_11</title>
<path fill="none" stroke="#000000" stroke-dasharray="5,2" d="M1094.7289,-163.2314C1093.7664,-155.531 1092.6218,-146.3744 1091.5521,-137.8167"/>
<polygon fill="#000000" stroke="#000000" points="1095.0151,-137.3019 1090.3017,-127.8133 1088.0691,-138.1702 1095.0151,-137.3019"/>
</g>
<!-- raw_13 -->
<g id="node14" class="node">
<title>raw_13</title>
<ellipse fill="none" stroke="#000000" cx="1179" cy="-109.4" rx="27" ry="18"/>
<text text-anchor="middle" x="1179" y="-105.2" font-family="Helvetica,sans-Serif" font-size="14.00" fill="#000000">raw</text>
</g>
<!-- prose_5&#45;&gt;raw_13 -->
<g id="edge13" class="edge">
<title>prose_5&#45;&gt;raw_13</title>
<path fill="none" stroke="#000000" stroke-dasharray="5,2" d="M1179,-163.2314C1179,-155.531 1179,-146.3744 1179,-137.8167"/>
<polygon fill="#000000" stroke="#000000" points="1182.5001,-137.8133 1179,-127.8133 1175.5001,-137.8133 1182.5001,-137.8133"/>
</g>
<!-- raw_15 -->
<g id="node16" class="node">
<title>raw_15</title>
<ellipse fill="none" stroke="#000000" cx="1632" cy="-109.4" rx="27" ry="18"/>
<text text-anchor="middle" x="1632" y="-105.2" font-family="Helvetica,sans-Serif" font-size="14.00" fill="#000000">raw</text>
</g>
<!-- prose_6&#45;&gt;raw_15 -->
<g id="edge15" class="edge">
<title>prose_6&#45;&gt;raw_15</title>
<path fill="none" stroke="#000000" stroke-dasharray="5,2" d="M1530.4555,-168.3614C1550.6978,-156.6078 1580.5922,-139.2497 1602.7073,-126.4087"/>
<polygon fill="#000000" stroke="#000000" points="1604.4693,-129.4329 1611.3597,-121.3847 1600.9543,-123.3794 1604.4693,-129.4329"/>
</g>
<!-- raw_17 -->
<g id="node18" class="node">
<title>raw_17</title>
<ellipse fill="none" stroke="#000000" cx="2026" cy="-109.4" rx="27" ry="18"/>
<text text-anchor="middle" x="2026" y="-105.2" font-family="Helvetica,sans-Serif" font-size="14.00" fill="#000000">raw</text>
</g>
<!-- prose_7&#45;&gt;raw_17 -->
<g id="edge17" class="edge">
<title>prose_7&#45;&gt;raw_17</title>
<path fill="none" stroke="#000000" stroke-dasharray="5,2" d="M1905.2697,-169.3489C1929.9341,-157.1017 1968.2278,-138.0869 1995.0574,-124.7646"/>
<polygon fill="#000000" stroke="#000000" points="1996.6281,-127.8925 2004.0281,-120.3102 1993.5149,-121.6229 1996.6281,-127.8925"/>
</g>
<!-- leaf_10 -->
<g id="node11" class="node">
<title>leaf_10</title>
<polygon fill="none" stroke="#c0c0c0" points="352,-55.6015 0,-55.6015 0,.2015 352,.2015 352,-55.6015"/>
<text text-anchor="middle" x="176" y="-8.2" font-family="Inconsolata" font-size="14.00" fill="#000000">We&#39;re not going to have one of these right away.</text>
</g>
<!-- raw_9&#45;&gt;leaf_10 -->
<g id="edge10" class="edge">
<title>raw_9&#45;&gt;leaf_10</title>
<path fill="none" stroke="#000000" stroke-dasharray="5,2" d="M985.0785,-98.7801C978.1682,-95.886 970.4034,-93.0869 963,-91.4 704.8544,-32.5819 629.417,-82.0339 362.2066,-55.4708"/>
<polygon fill="#000000" stroke="#000000" points="362.5152,-51.9843 352.2115,-54.4509 361.8045,-58.9481 362.5152,-51.9843"/>
</g>
<!-- leaf_12 -->
<g id="node13" class="node">
<title>leaf_12</title>
<polygon fill="none" stroke="#c0c0c0" points="883.5,-55.0004 370.5,-55.0004 370.5,-.3996 883.5,-.3996 883.5,-55.0004"/>
<text text-anchor="middle" x="627" y="-23.9" font-family="Inconsolata" font-size="14.00" fill="#000000">This is not much more than an ordinary array of lines that has a bit of</text>
<text text-anchor="middle" x="627" y="-8.5" font-family="Inconsolata" font-size="14.00" fill="#000000">awareness, mostly about which lines have cursors and which don&#39;t.</text>
</g>
<!-- raw_11&#45;&gt;leaf_12 -->
<g id="edge12" class="edge">
<title>raw_11&#45;&gt;leaf_12</title>
<path fill="none" stroke="#000000" stroke-dasharray="5,2" d="M1065.4533,-99.2108C1058.3807,-96.3342 1050.4685,-93.4367 1043,-91.4 990.3269,-77.0361 932.9601,-65.6304 878.1274,-56.6796"/>
<polygon fill="#000000" stroke="#000000" points="878.3493,-53.1704 867.9201,-55.0367 877.2369,-60.0814 878.3493,-53.1704"/>
</g>
<!-- leaf_14 -->
<g id="node15" class="node">
<title>leaf_14</title>
<polygon fill="none" stroke="#c0c0c0" points="1456.5,-55.0004 901.5,-55.0004 901.5,-.3996 1456.5,-.3996 1456.5,-55.0004"/>
<text text-anchor="middle" x="1179" y="-23.9" font-family="Inconsolata" font-size="14.00" fill="#000000">I&#39;ll circle back for quipu but I want a basic editor as soon as possible. The</text>
<text text-anchor="middle" x="1179" y="-8.5" font-family="Inconsolata" font-size="14.00" fill="#000000">interaction dynamics need to be worked out right away, plus I want to use it!</text>
</g>
<!-- raw_13&#45;&gt;leaf_14 -->
<g id="edge14" class="edge">
<title>raw_13&#45;&gt;leaf_14</title>
<path fill="none" stroke="#000000" stroke-dasharray="5,2" d="M1179,-91.2681C1179,-83.5488 1179,-74.2426 1179,-65.1612"/>
<polygon fill="#000000" stroke="#000000" points="1182.5001,-65.1002 1179,-55.1002 1175.5001,-65.1003 1182.5001,-65.1002"/>
</g>
<!-- leaf_16 -->
<g id="node17" class="node">
<title>leaf_16</title>
<polygon fill="none" stroke="#c0c0c0" points="2037,-55.0004 1475,-55.0004 1475,-.3996 2037,-.3996 2037,-55.0004"/>
<text text-anchor="middle" x="1756" y="-23.9" font-family="Inconsolata" font-size="14.00" fill="#000000">Plan: A line that has a cursor on it, and there can be many, gets &#39;opened&#39;</text>
<text text-anchor="middle" x="1756" y="-8.5" font-family="Inconsolata" font-size="14.00" fill="#000000">into a grid of characters. &#160;These in turn get &#39;closed&#39; when the cursor leaves.</text>
</g>
<!-- raw_15&#45;&gt;leaf_16 -->
<g id="edge16" class="edge">
<title>raw_15&#45;&gt;leaf_16</title>
<path fill="none" stroke="#000000" stroke-dasharray="5,2" d="M1651.375,-96.6344C1666.0307,-86.9782 1686.8452,-73.2641 1706.0541,-60.6079"/>
<polygon fill="#000000" stroke="#000000" points="1708.0264,-63.4999 1714.4511,-55.0754 1704.175,-57.6546 1708.0264,-63.4999"/>
</g>
<!-- leaf_18 -->
<g id="node19" class="node">
<title>leaf_18</title>
<polygon fill="none" stroke="#c0c0c0" points="2288.5,-47.6021 2055.5,-47.6021 2055.5,-7.7979 2288.5,-7.7979 2288.5,-47.6021"/>
<text text-anchor="middle" x="2172" y="-16.2" font-family="Inconsolata" font-size="14.00" fill="#000000">A closed line is just a string.</text>
</g>
<!-- raw_17&#45;&gt;leaf_18 -->
<g id="edge18" class="edge">
<title>raw_17&#45;&gt;leaf_18</title>
<path fill="none" stroke="#000000" stroke-dasharray="5,2" d="M2046.9182,-97.6944C2067.9578,-85.9209 2101.0409,-67.4079 2127.8997,-52.3781"/>
<polygon fill="#000000" stroke="#000000" points="2129.7259,-55.367 2136.7433,-47.4293 2126.3075,-49.2583 2129.7259,-55.367"/>
</g>
</g>
</svg>
