<?xml version="1.0" encoding="UTF-8" standalone="no"?>
<!DOCTYPE svg PUBLIC "-//W3C//DTD SVG 1.1//EN"
 "http://www.w3.org/Graphics/SVG/1.1/DTD/svg11.dtd">
<!-- Generated by graphviz version 2.40.1 (20161225.0304)
 -->
<!-- Title: lpegNode Pages: 1 -->
<svg width="4307pt" height="534pt"
 viewBox="0.00 0.00 4307.23 534.20" xmlns="http://www.w3.org/2000/svg" xmlns:xlink="http://www.w3.org/1999/xlink">
<g id="graph0" class="graph" transform="scale(1 1) rotate(0) translate(4 530.2001)">
<title>lpegNode</title>
<polygon fill="#ffffff" stroke="transparent" points="-4,4 -4,-530.2001 4303.2284,-530.2001 4303.2284,4 -4,4"/>
<!-- doc_0 -->
<g id="node1" class="node">
<title>doc_0</title>
<ellipse fill="none" stroke="#000000" cx="1248" cy="-508.2001" rx="42.1216" ry="18"/>
<text text-anchor="middle" x="1248" y="-504.0001" font-family="Helvetica,sans-Serif" font-size="14.00" fill="#000000">doc &#45; 43</text>
</g>
<!-- section_1 -->
<g id="node2" class="node">
<title>section_1</title>
<ellipse fill="none" stroke="#000000" cx="1248" cy="-436.2001" rx="60.9826" ry="18"/>
<text text-anchor="middle" x="1248" y="-432.0001" font-family="Helvetica,sans-Serif" font-size="14.00" fill="#000000">section: 1&#45;16</text>
</g>
<!-- doc_0&#45;&gt;section_1 -->
<g id="edge1" class="edge">
<title>doc_0&#45;&gt;section_1</title>
<path fill="none" stroke="#000000" stroke-dasharray="5,2" d="M1248,-490.0315C1248,-482.331 1248,-473.1744 1248,-464.6167"/>
<polygon fill="#000000" stroke="#000000" points="1251.5001,-464.6133 1248,-454.6134 1244.5001,-464.6134 1251.5001,-464.6133"/>
</g>
<!-- header_2 -->
<g id="node3" class="node">
<title>header_2</title>
<ellipse fill="none" stroke="#000000" cx="987" cy="-364.2001" rx="46.6307" ry="18"/>
<text text-anchor="middle" x="987" y="-360.0001" font-family="Helvetica,sans-Serif" font-size="14.00" fill="#000000">1 : Txtbuf</text>
</g>
<!-- section_1&#45;&gt;header_2 -->
<g id="edge2" class="edge">
<title>section_1&#45;&gt;header_2</title>
<path fill="none" stroke="#000000" stroke-dasharray="5,2" d="M1200.9873,-424.5766C1159.3088,-414.0913 1096.8739,-397.9418 1043,-382.2001 1039.6136,-381.2106 1036.1214,-380.1604 1032.6136,-379.0838"/>
<polygon fill="#000000" stroke="#000000" points="1033.35,-375.6472 1022.7613,-376.0087 1031.2643,-382.3293 1033.35,-375.6472"/>
</g>
<!-- prose_3 -->
<g id="node4" class="node">
<title>prose_3</title>
<ellipse fill="none" stroke="#000000" cx="1084" cy="-364.2001" rx="32.4585" ry="18"/>
<text text-anchor="middle" x="1084" y="-360.0001" font-family="Helvetica,sans-Serif" font-size="14.00" fill="#000000">prose</text>
</g>
<!-- section_1&#45;&gt;prose_3 -->
<g id="edge3" class="edge">
<title>section_1&#45;&gt;prose_3</title>
<path fill="none" stroke="#000000" stroke-dasharray="5,2" d="M1213.6202,-421.1065C1185.8097,-408.897 1146.8158,-391.7778 1118.8739,-379.5106"/>
<polygon fill="#000000" stroke="#000000" points="1120.0513,-376.2051 1109.4879,-375.3899 1117.2374,-382.6146 1120.0513,-376.2051"/>
</g>
<!-- prose_4 -->
<g id="node5" class="node">
<title>prose_4</title>
<ellipse fill="none" stroke="#000000" cx="1166" cy="-364.2001" rx="32.4585" ry="18"/>
<text text-anchor="middle" x="1166" y="-360.0001" font-family="Helvetica,sans-Serif" font-size="14.00" fill="#000000">prose</text>
</g>
<!-- section_1&#45;&gt;prose_4 -->
<g id="edge4" class="edge">
<title>section_1&#45;&gt;prose_4</title>
<path fill="none" stroke="#000000" stroke-dasharray="5,2" d="M1228.5671,-419.1371C1217.3006,-409.2445 1202.9965,-396.6848 1190.9098,-386.0721"/>
<polygon fill="#000000" stroke="#000000" points="1193.1653,-383.3948 1183.3415,-379.4268 1188.5466,-388.6549 1193.1653,-383.3948"/>
</g>
<!-- prose_5 -->
<g id="node6" class="node">
<title>prose_5</title>
<ellipse fill="none" stroke="#000000" cx="1248" cy="-364.2001" rx="32.4585" ry="18"/>
<text text-anchor="middle" x="1248" y="-360.0001" font-family="Helvetica,sans-Serif" font-size="14.00" fill="#000000">prose</text>
</g>
<!-- section_1&#45;&gt;prose_5 -->
<g id="edge5" class="edge">
<title>section_1&#45;&gt;prose_5</title>
<path fill="none" stroke="#000000" stroke-dasharray="5,2" d="M1248,-418.0315C1248,-410.331 1248,-401.1744 1248,-392.6167"/>
<polygon fill="#000000" stroke="#000000" points="1251.5001,-392.6133 1248,-382.6134 1244.5001,-392.6134 1251.5001,-392.6133"/>
</g>
<!-- prose_6 -->
<g id="node7" class="node">
<title>prose_6</title>
<ellipse fill="none" stroke="#000000" cx="1577" cy="-364.2001" rx="32.4585" ry="18"/>
<text text-anchor="middle" x="1577" y="-360.0001" font-family="Helvetica,sans-Serif" font-size="14.00" fill="#000000">prose</text>
</g>
<!-- section_1&#45;&gt;prose_6 -->
<g id="edge6" class="edge">
<title>section_1&#45;&gt;prose_6</title>
<path fill="none" stroke="#000000" stroke-dasharray="5,2" d="M1296.8994,-425.4987C1362.0464,-411.2416 1476.1058,-386.2803 1536.6231,-373.0364"/>
<polygon fill="#000000" stroke="#000000" points="1537.5482,-376.4168 1546.5687,-370.8598 1536.0517,-369.5787 1537.5482,-376.4168"/>
</g>
<!-- prose_7 -->
<g id="node8" class="node">
<title>prose_7</title>
<ellipse fill="none" stroke="#000000" cx="1826" cy="-364.2001" rx="32.4585" ry="18"/>
<text text-anchor="middle" x="1826" y="-360.0001" font-family="Helvetica,sans-Serif" font-size="14.00" fill="#000000">prose</text>
</g>
<!-- section_1&#45;&gt;prose_7 -->
<g id="edge7" class="edge">
<title>section_1&#45;&gt;prose_7</title>
<path fill="none" stroke="#000000" stroke-dasharray="5,2" d="M1304.2096,-429.1982C1419.834,-414.7952 1682.0274,-382.1344 1784.168,-369.411"/>
<polygon fill="#000000" stroke="#000000" points="1784.9064,-372.8462 1794.3971,-368.1368 1784.0411,-365.8998 1784.9064,-372.8462"/>
</g>
<!-- section_8 -->
<g id="node9" class="node">
<title>section_8</title>
<ellipse fill="none" stroke="#000000" cx="3082" cy="-364.2001" rx="65.8187" ry="18"/>
<text text-anchor="middle" x="3082" y="-360.0001" font-family="Helvetica,sans-Serif" font-size="14.00" fill="#000000">section: 17&#45;42</text>
</g>
<!-- section_1&#45;&gt;section_8 -->
<g id="edge8" class="edge">
<title>section_1&#45;&gt;section_8</title>
<path fill="none" stroke="#000000" stroke-dasharray="5,2" d="M1308.2377,-433.8353C1581.4192,-423.1106 2703.6695,-379.0528 3006.4383,-367.1665"/>
<polygon fill="#000000" stroke="#000000" points="3007.0053,-370.6471 3016.8603,-366.7574 3006.7306,-363.6524 3007.0053,-370.6471"/>
</g>
<!-- leaf_9 -->
<g id="node10" class="node">
<title>leaf_9</title>
<polygon fill="none" stroke="#c0c0c0" points="1023,-310.2001 951,-310.2001 951,-274.2001 1023,-274.2001 1023,-310.2001"/>
<text text-anchor="middle" x="987" y="-288.7001" font-family="Inconsolata" font-size="14.00" fill="#000000">* Txtbuf</text>
</g>
<!-- header_2&#45;&gt;leaf_9 -->
<g id="edge9" class="edge">
<title>header_2&#45;&gt;leaf_9</title>
<path fill="none" stroke="#000000" stroke-dasharray="5,2" d="M987,-346.0315C987,-338.331 987,-329.1744 987,-320.6167"/>
<polygon fill="#000000" stroke="#000000" points="990.5001,-320.6133 987,-310.6134 983.5001,-320.6134 990.5001,-320.6133"/>
</g>
<!-- raw_10 -->
<g id="node11" class="node">
<title>raw_10</title>
<ellipse fill="none" stroke="#000000" cx="1076" cy="-292.2001" rx="27" ry="18"/>
<text text-anchor="middle" x="1076" y="-288.0001" font-family="Helvetica,sans-Serif" font-size="14.00" fill="#000000">raw</text>
</g>
<!-- prose_3&#45;&gt;raw_10 -->
<g id="edge10" class="edge">
<title>prose_3&#45;&gt;raw_10</title>
<path fill="none" stroke="#000000" stroke-dasharray="5,2" d="M1081.9813,-346.0315C1081.1257,-338.331 1080.1083,-329.1744 1079.1574,-320.6167"/>
<polygon fill="#000000" stroke="#000000" points="1082.6289,-320.1657 1078.0459,-310.6134 1075.6717,-320.9387 1082.6289,-320.1657"/>
</g>
<!-- raw_12 -->
<g id="node13" class="node">
<title>raw_12</title>
<ellipse fill="none" stroke="#000000" cx="1157" cy="-292.2001" rx="27" ry="18"/>
<text text-anchor="middle" x="1157" y="-288.0001" font-family="Helvetica,sans-Serif" font-size="14.00" fill="#000000">raw</text>
</g>
<!-- prose_4&#45;&gt;raw_12 -->
<g id="edge12" class="edge">
<title>prose_4&#45;&gt;raw_12</title>
<path fill="none" stroke="#000000" stroke-dasharray="5,2" d="M1163.7289,-346.0315C1162.7664,-338.331 1161.6218,-329.1744 1160.5521,-320.6167"/>
<polygon fill="#000000" stroke="#000000" points="1164.0151,-320.102 1159.3017,-310.6134 1157.0691,-320.9703 1164.0151,-320.102"/>
</g>
<!-- raw_14 -->
<g id="node15" class="node">
<title>raw_14</title>
<ellipse fill="none" stroke="#000000" cx="1239" cy="-292.2001" rx="27" ry="18"/>
<text text-anchor="middle" x="1239" y="-288.0001" font-family="Helvetica,sans-Serif" font-size="14.00" fill="#000000">raw</text>
</g>
<!-- prose_5&#45;&gt;raw_14 -->
<g id="edge14" class="edge">
<title>prose_5&#45;&gt;raw_14</title>
<path fill="none" stroke="#000000" stroke-dasharray="5,2" d="M1245.7289,-346.0315C1244.7664,-338.331 1243.6218,-329.1744 1242.5521,-320.6167"/>
<polygon fill="#000000" stroke="#000000" points="1246.0151,-320.102 1241.3017,-310.6134 1239.0691,-320.9703 1246.0151,-320.102"/>
</g>
<!-- raw_16 -->
<g id="node17" class="node">
<title>raw_16</title>
<ellipse fill="none" stroke="#000000" cx="1637" cy="-292.2001" rx="27" ry="18"/>
<text text-anchor="middle" x="1637" y="-288.0001" font-family="Helvetica,sans-Serif" font-size="14.00" fill="#000000">raw</text>
</g>
<!-- prose_6&#45;&gt;raw_16 -->
<g id="edge16" class="edge">
<title>prose_6&#45;&gt;raw_16</title>
<path fill="none" stroke="#000000" stroke-dasharray="5,2" d="M1590.6149,-347.8622C1598.4721,-338.4335 1608.4924,-326.4092 1617.2078,-315.9508"/>
<polygon fill="#000000" stroke="#000000" points="1620.1382,-317.9014 1623.8513,-307.9785 1614.7606,-313.4201 1620.1382,-317.9014"/>
</g>
<!-- raw_18 -->
<g id="node19" class="node">
<title>raw_18</title>
<ellipse fill="none" stroke="#000000" cx="1999" cy="-292.2001" rx="27" ry="18"/>
<text text-anchor="middle" x="1999" y="-288.0001" font-family="Helvetica,sans-Serif" font-size="14.00" fill="#000000">raw</text>
</g>
<!-- prose_7&#45;&gt;raw_18 -->
<g id="edge18" class="edge">
<title>prose_7&#45;&gt;raw_18</title>
<path fill="none" stroke="#000000" stroke-dasharray="5,2" d="M1851.8998,-353.421C1882.5274,-340.6742 1933.5248,-319.4499 1966.7028,-305.6417"/>
<polygon fill="#000000" stroke="#000000" points="1968.0829,-308.8584 1975.9704,-301.7847 1965.3932,-302.3958 1968.0829,-308.8584"/>
</g>
<!-- header_20 -->
<g id="node21" class="node">
<title>header_20</title>
<ellipse fill="none" stroke="#000000" cx="2381" cy="-292.2001" rx="56.6148" ry="18"/>
<text text-anchor="middle" x="2381" y="-288.0001" font-family="Helvetica,sans-Serif" font-size="14.00" fill="#000000">2 : Interface</text>
</g>
<!-- section_8&#45;&gt;header_20 -->
<g id="edge20" class="edge">
<title>section_8&#45;&gt;header_20</title>
<path fill="none" stroke="#000000" stroke-dasharray="5,2" d="M3017.0709,-360.7983C2905.1617,-354.414 2668.9004,-338.6485 2471,-310.2001 2460.2527,-308.6551 2448.8503,-306.6574 2437.9029,-304.5573"/>
<polygon fill="#000000" stroke="#000000" points="2438.4968,-301.1071 2428.0091,-302.6099 2437.1449,-307.9753 2438.4968,-301.1071"/>
</g>
<!-- prose_21 -->
<g id="node22" class="node">
<title>prose_21</title>
<ellipse fill="none" stroke="#000000" cx="2512" cy="-292.2001" rx="32.4585" ry="18"/>
<text text-anchor="middle" x="2512" y="-288.0001" font-family="Helvetica,sans-Serif" font-size="14.00" fill="#000000">prose</text>
</g>
<!-- section_8&#45;&gt;prose_21 -->
<g id="edge21" class="edge">
<title>section_8&#45;&gt;prose_21</title>
<path fill="none" stroke="#000000" stroke-dasharray="5,2" d="M3018.9799,-358.9671C2926.6915,-350.8906 2749.5032,-333.8156 2600,-310.2001 2584.2311,-307.7092 2567.0011,-304.332 2552.0004,-301.1756"/>
<polygon fill="#000000" stroke="#000000" points="2552.5278,-297.7093 2542.0168,-299.0393 2551.0631,-304.5544 2552.5278,-297.7093"/>
</g>
<!-- prose_22 -->
<g id="node23" class="node">
<title>prose_22</title>
<ellipse fill="none" stroke="#000000" cx="2641" cy="-292.2001" rx="32.4585" ry="18"/>
<text text-anchor="middle" x="2641" y="-288.0001" font-family="Helvetica,sans-Serif" font-size="14.00" fill="#000000">prose</text>
</g>
<!-- section_8&#45;&gt;prose_22 -->
<g id="edge22" class="edge">
<title>section_8&#45;&gt;prose_22</title>
<path fill="none" stroke="#000000" stroke-dasharray="5,2" d="M3025.2498,-354.9348C2935.0825,-340.2136 2761.2238,-311.8285 2682.0609,-298.9039"/>
<polygon fill="#000000" stroke="#000000" points="2682.4203,-295.4163 2671.987,-297.2592 2681.2923,-302.3249 2682.4203,-295.4163"/>
</g>
<!-- section_23 -->
<g id="node24" class="node">
<title>section_23</title>
<ellipse fill="none" stroke="#000000" cx="2851" cy="-292.2001" rx="65.8187" ry="18"/>
<text text-anchor="middle" x="2851" y="-288.0001" font-family="Helvetica,sans-Serif" font-size="14.00" fill="#000000">section: 25&#45;27</text>
</g>
<!-- section_8&#45;&gt;section_23 -->
<g id="edge23" class="edge">
<title>section_8&#45;&gt;section_23</title>
<path fill="none" stroke="#000000" stroke-dasharray="5,2" d="M3038.5507,-350.6574C3000.5181,-338.8031 2945.1314,-321.5397 2904.4039,-308.8455"/>
<polygon fill="#000000" stroke="#000000" points="2905.2351,-305.4385 2894.6466,-305.8042 2903.1521,-312.1214 2905.2351,-305.4385"/>
</g>
<!-- section_24 -->
<g id="node25" class="node">
<title>section_24</title>
<ellipse fill="none" stroke="#000000" cx="3082" cy="-292.2001" rx="65.8187" ry="18"/>
<text text-anchor="middle" x="3082" y="-288.0001" font-family="Helvetica,sans-Serif" font-size="14.00" fill="#000000">section: 28&#45;30</text>
</g>
<!-- section_8&#45;&gt;section_24 -->
<g id="edge24" class="edge">
<title>section_8&#45;&gt;section_24</title>
<path fill="none" stroke="#000000" stroke-dasharray="5,2" d="M3082,-346.0315C3082,-338.331 3082,-329.1744 3082,-320.6167"/>
<polygon fill="#000000" stroke="#000000" points="3085.5001,-320.6133 3082,-310.6134 3078.5001,-320.6134 3085.5001,-320.6133"/>
</g>
<!-- section_25 -->
<g id="node26" class="node">
<title>section_25</title>
<ellipse fill="none" stroke="#000000" cx="3293" cy="-292.2001" rx="65.8187" ry="18"/>
<text text-anchor="middle" x="3293" y="-288.0001" font-family="Helvetica,sans-Serif" font-size="14.00" fill="#000000">section: 31&#45;33</text>
</g>
<!-- section_8&#45;&gt;section_25 -->
<g id="edge25" class="edge">
<title>section_8&#45;&gt;section_25</title>
<path fill="none" stroke="#000000" stroke-dasharray="5,2" d="M3123.1838,-350.1468C3157.2026,-338.5385 3205.6489,-322.0071 3242.0956,-309.5703"/>
<polygon fill="#000000" stroke="#000000" points="3243.2262,-312.8828 3251.56,-306.3407 3240.9655,-306.2578 3243.2262,-312.8828"/>
</g>
<!-- section_26 -->
<g id="node27" class="node">
<title>section_26</title>
<ellipse fill="none" stroke="#000000" cx="3535" cy="-292.2001" rx="65.8187" ry="18"/>
<text text-anchor="middle" x="3535" y="-288.0001" font-family="Helvetica,sans-Serif" font-size="14.00" fill="#000000">section: 34&#45;36</text>
</g>
<!-- section_8&#45;&gt;section_26 -->
<g id="edge26" class="edge">
<title>section_8&#45;&gt;section_26</title>
<path fill="none" stroke="#000000" stroke-dasharray="5,2" d="M3138.9141,-355.1541C3222.6591,-341.8437 3378.7753,-317.0305 3467.9575,-302.8559"/>
<polygon fill="#000000" stroke="#000000" points="3468.6358,-306.2921 3477.9624,-301.2657 3467.537,-299.3788 3468.6358,-306.2921"/>
</g>
<!-- section_27 -->
<g id="node28" class="node">
<title>section_27</title>
<ellipse fill="none" stroke="#000000" cx="3779" cy="-292.2001" rx="65.8187" ry="18"/>
<text text-anchor="middle" x="3779" y="-288.0001" font-family="Helvetica,sans-Serif" font-size="14.00" fill="#000000">section: 37&#45;39</text>
</g>
<!-- section_8&#45;&gt;section_27 -->
<g id="edge27" class="edge">
<title>section_8&#45;&gt;section_27</title>
<path fill="none" stroke="#000000" stroke-dasharray="5,2" d="M3143.787,-357.9657C3242.3799,-347.9985 3441.3698,-327.8035 3610,-310.2001 3642.035,-306.856 3677.4781,-303.0909 3707.5982,-299.872"/>
<polygon fill="#000000" stroke="#000000" points="3708.0252,-303.3464 3717.5962,-298.8027 3707.2807,-296.3861 3708.0252,-303.3464"/>
</g>
<!-- section_28 -->
<g id="node29" class="node">
<title>section_28</title>
<ellipse fill="none" stroke="#000000" cx="3987" cy="-292.2001" rx="65.8187" ry="18"/>
<text text-anchor="middle" x="3987" y="-288.0001" font-family="Helvetica,sans-Serif" font-size="14.00" fill="#000000">section: 40&#45;42</text>
</g>
<!-- section_8&#45;&gt;section_28 -->
<g id="edge28" class="edge">
<title>section_8&#45;&gt;section_28</title>
<path fill="none" stroke="#000000" stroke-dasharray="5,2" d="M3146.681,-361.0925C3279.472,-354.4003 3592.3713,-337.0261 3854,-310.2001 3875.2145,-308.0249 3898.2595,-305.1043 3919.1147,-302.2494"/>
<polygon fill="#000000" stroke="#000000" points="3919.7346,-305.697 3929.1592,-300.8567 3918.7732,-298.7633 3919.7346,-305.697"/>
</g>
<!-- section_29 -->
<g id="node30" class="node">
<title>section_29</title>
<ellipse fill="none" stroke="#000000" cx="4178" cy="-292.2001" rx="65.8187" ry="18"/>
<text text-anchor="middle" x="4178" y="-288.0001" font-family="Helvetica,sans-Serif" font-size="14.00" fill="#000000">section: 43&#45;43</text>
</g>
<!-- section_8&#45;&gt;section_29 -->
<g id="edge29" class="edge">
<title>section_8&#45;&gt;section_29</title>
<path fill="none" stroke="#000000" stroke-dasharray="5,2" d="M3147.5499,-362.8262C3305.3733,-359.0313 3718.8283,-346.1911 4062,-310.2001 4078.4493,-308.4749 4096.1272,-306.0346 4112.6015,-303.5059"/>
<polygon fill="#000000" stroke="#000000" points="4113.3446,-306.9322 4122.6818,-301.9256 4112.2604,-300.0167 4113.3446,-306.9322"/>
</g>
<!-- leaf_11 -->
<g id="node12" class="node">
<title>leaf_11</title>
<polygon fill="none" stroke="#c0c0c0" points="352,-238.4016 0,-238.4016 0,-182.5986 352,-182.5986 352,-238.4016"/>
<text text-anchor="middle" x="176" y="-191.0001" font-family="Inconsolata" font-size="14.00" fill="#000000">We&#39;re not going to have one of these right away.</text>
</g>
<!-- raw_10&#45;&gt;leaf_11 -->
<g id="edge11" class="edge">
<title>raw_10&#45;&gt;leaf_11</title>
<path fill="none" stroke="#000000" stroke-dasharray="5,2" d="M1054.0848,-281.5522C1047.1748,-278.657 1039.4085,-275.8642 1032,-274.2001 743.8822,-209.4811 660.0048,-267.0232 362.4318,-238.2886"/>
<polygon fill="#000000" stroke="#000000" points="362.5053,-234.7789 352.209,-237.2758 361.8152,-241.7448 362.5053,-234.7789"/>
</g>
<!-- leaf_13 -->
<g id="node14" class="node">
<title>leaf_13</title>
<polygon fill="none" stroke="#c0c0c0" points="883.5,-237.8005 370.5,-237.8005 370.5,-183.1997 883.5,-183.1997 883.5,-237.8005"/>
<text text-anchor="middle" x="627" y="-206.7001" font-family="Inconsolata" font-size="14.00" fill="#000000">This is not much more than an ordinary array of lines that has a bit of</text>
<text text-anchor="middle" x="627" y="-191.3001" font-family="Inconsolata" font-size="14.00" fill="#000000">awareness, mostly about which lines have cursors and which don&#39;t.</text>
</g>
<!-- raw_12&#45;&gt;leaf_13 -->
<g id="edge13" class="edge">
<title>raw_12&#45;&gt;leaf_13</title>
<path fill="none" stroke="#000000" stroke-dasharray="5,2" d="M1134.4795,-281.9125C1127.408,-279.0319 1119.4898,-276.1569 1112,-274.2001 1068.8373,-262.9233 979.4159,-250.1738 888.9744,-239.0595"/>
<polygon fill="#000000" stroke="#000000" points="889.1519,-235.5553 878.8013,-237.8167 888.303,-242.5036 889.1519,-235.5553"/>
</g>
<!-- leaf_15 -->
<g id="node16" class="node">
<title>leaf_15</title>
<polygon fill="none" stroke="#c0c0c0" points="1456.5,-237.8005 901.5,-237.8005 901.5,-183.1997 1456.5,-183.1997 1456.5,-237.8005"/>
<text text-anchor="middle" x="1179" y="-206.7001" font-family="Inconsolata" font-size="14.00" fill="#000000">I&#39;ll circle back for quipu but I want a basic editor as soon as possible. The</text>
<text text-anchor="middle" x="1179" y="-191.3001" font-family="Inconsolata" font-size="14.00" fill="#000000">interaction dynamics need to be worked out right away, plus I want to use it!</text>
</g>
<!-- raw_14&#45;&gt;leaf_15 -->
<g id="edge15" class="edge">
<title>raw_14&#45;&gt;leaf_15</title>
<path fill="none" stroke="#000000" stroke-dasharray="5,2" d="M1226.8581,-275.6669C1220.5896,-267.1312 1212.6855,-256.3686 1205.1169,-246.0625"/>
<polygon fill="#000000" stroke="#000000" points="1207.8967,-243.9348 1199.1565,-237.9465 1202.2547,-248.0782 1207.8967,-243.9348"/>
</g>
<!-- leaf_17 -->
<g id="node18" class="node">
<title>leaf_17</title>
<polygon fill="none" stroke="#c0c0c0" points="2037,-237.8005 1475,-237.8005 1475,-183.1997 2037,-183.1997 2037,-237.8005"/>
<text text-anchor="middle" x="1756" y="-206.7001" font-family="Inconsolata" font-size="14.00" fill="#000000">Plan: A line that has a cursor on it, and there can be many, gets &#39;opened&#39;</text>
<text text-anchor="middle" x="1756" y="-191.3001" font-family="Inconsolata" font-size="14.00" fill="#000000">into a grid of characters. &#160;These in turn get &#39;closed&#39; when the cursor leaves.</text>
</g>
<!-- raw_16&#45;&gt;leaf_17 -->
<g id="edge17" class="edge">
<title>raw_16&#45;&gt;leaf_17</title>
<path fill="none" stroke="#000000" stroke-dasharray="5,2" d="M1655.8559,-279.2545C1669.8367,-269.6559 1689.5524,-256.12 1707.7969,-243.5941"/>
<polygon fill="#000000" stroke="#000000" points="1709.7871,-246.4733 1716.0502,-237.9278 1705.8251,-240.7025 1709.7871,-246.4733"/>
</g>
<!-- leaf_19 -->
<g id="node20" class="node">
<title>leaf_19</title>
<polygon fill="none" stroke="#c0c0c0" points="2288.5,-238.4016 2055.5,-238.4016 2055.5,-182.5986 2288.5,-182.5986 2288.5,-238.4016"/>
<text text-anchor="middle" x="2172" y="-207.0001" font-family="Inconsolata" font-size="14.00" fill="#000000">A closed line is just a string.</text>
</g>
<!-- raw_18&#45;&gt;leaf_19 -->
<g id="edge19" class="edge">
<title>raw_18&#45;&gt;leaf_19</title>
<path fill="none" stroke="#000000" stroke-dasharray="5,2" d="M2021.2626,-281.6865C2042.0963,-271.8477 2074.3198,-256.63 2103.6339,-242.7863"/>
<polygon fill="#000000" stroke="#000000" points="2105.4833,-245.7836 2113.0311,-238.3484 2102.4941,-239.4539 2105.4833,-245.7836"/>
</g>
<!-- leaf_30 -->
<g id="node31" class="node">
<title>leaf_30</title>
<polygon fill="none" stroke="#c0c0c0" points="2407,-228.5001 2307,-228.5001 2307,-192.5001 2407,-192.5001 2407,-228.5001"/>
<text text-anchor="middle" x="2357" y="-207.0001" font-family="Inconsolata" font-size="14.00" fill="#000000">** Interface</text>
</g>
<!-- header_20&#45;&gt;leaf_30 -->
<g id="edge30" class="edge">
<title>header_20&#45;&gt;leaf_30</title>
<path fill="none" stroke="#000000" stroke-dasharray="5,2" d="M2375.6736,-274.0682C2372.5975,-263.5966 2368.6635,-250.2046 2365.2003,-238.4153"/>
<polygon fill="#000000" stroke="#000000" points="2368.4882,-237.1894 2362.3115,-228.5813 2361.7719,-239.1624 2368.4882,-237.1894"/>
</g>
<!-- raw_31 -->
<g id="node32" class="node">
<title>raw_31</title>
<ellipse fill="none" stroke="#000000" cx="2452" cy="-210.5001" rx="27" ry="18"/>
<text text-anchor="middle" x="2452" y="-206.3001" font-family="Helvetica,sans-Serif" font-size="14.00" fill="#000000">raw</text>
</g>
<!-- prose_21&#45;&gt;raw_31 -->
<g id="edge31" class="edge">
<title>prose_21&#45;&gt;raw_31</title>
<path fill="none" stroke="#000000" stroke-dasharray="5,2" d="M2499.568,-275.2718C2491.0082,-263.6162 2479.5022,-247.9489 2469.9506,-234.9428"/>
<polygon fill="#000000" stroke="#000000" points="2472.7469,-232.8374 2464.0067,-226.8492 2467.1049,-236.9809 2472.7469,-232.8374"/>
</g>
<!-- raw_33 -->
<g id="node34" class="node">
<title>raw_33</title>
<ellipse fill="none" stroke="#000000" cx="2524" cy="-210.5001" rx="27" ry="18"/>
<text text-anchor="middle" x="2524" y="-206.3001" font-family="Helvetica,sans-Serif" font-size="14.00" fill="#000000">raw</text>
</g>
<!-- prose_22&#45;&gt;raw_33 -->
<g id="edge33" class="edge">
<title>prose_22&#45;&gt;raw_33</title>
<path fill="none" stroke="#000000" stroke-dasharray="5,2" d="M2619.7549,-278.5999C2603.2587,-267.9053 2579.918,-252.4774 2560,-238.2001 2556.5389,-235.7191 2552.9361,-233.0523 2549.4055,-230.3885"/>
<polygon fill="#000000" stroke="#000000" points="2551.4688,-227.5602 2541.3987,-224.267 2547.2172,-233.1212 2551.4688,-227.5602"/>
</g>
<!-- header_35 -->
<g id="node36" class="node">
<title>header_35</title>
<ellipse fill="none" stroke="#000000" cx="2685" cy="-210.5001" rx="115.7565" ry="18"/>
<text text-anchor="middle" x="2685" y="-206.3001" font-family="Helvetica,sans-Serif" font-size="14.00" fill="#000000">3 : Txtbuf.__tostring(txtbuf)</text>
</g>
<!-- section_23&#45;&gt;header_35 -->
<g id="edge35" class="edge">
<title>section_23&#45;&gt;header_35</title>
<path fill="none" stroke="#000000" stroke-dasharray="5,2" d="M2818.9935,-276.4475C2793.5152,-263.9079 2757.5702,-246.2169 2729.323,-232.3145"/>
<polygon fill="#000000" stroke="#000000" points="2730.5826,-229.0335 2720.0648,-227.7579 2727.4915,-235.3141 2730.5826,-229.0335"/>
</g>
<!-- prose_36 -->
<g id="node37" class="node">
<title>prose_36</title>
<ellipse fill="none" stroke="#000000" cx="2851" cy="-210.5001" rx="32.4585" ry="18"/>
<text text-anchor="middle" x="2851" y="-206.3001" font-family="Helvetica,sans-Serif" font-size="14.00" fill="#000000">prose</text>
</g>
<!-- section_23&#45;&gt;prose_36 -->
<g id="edge36" class="edge">
<title>section_23&#45;&gt;prose_36</title>
<path fill="none" stroke="#000000" stroke-dasharray="5,2" d="M2851,-274.0682C2851,-263.7023 2851,-250.4748 2851,-238.773"/>
<polygon fill="#000000" stroke="#000000" points="2854.5001,-238.5812 2851,-228.5813 2847.5001,-238.5813 2854.5001,-238.5812"/>
</g>
<!-- header_40 -->
<g id="node41" class="node">
<title>header_40</title>
<ellipse fill="none" stroke="#000000" cx="3020" cy="-210.5001" rx="118.6377" ry="18"/>
<text text-anchor="middle" x="3020" y="-206.3001" font-family="Helvetica,sans-Serif" font-size="14.00" fill="#000000">3 : Txtbuf.insert(txtbuf, frag)</text>
</g>
<!-- section_24&#45;&gt;header_40 -->
<g id="edge40" class="edge">
<title>section_24&#45;&gt;header_40</title>
<path fill="none" stroke="#000000" stroke-dasharray="5,2" d="M3068.5469,-274.4724C3060.1552,-263.4143 3049.2056,-248.9856 3039.8297,-236.6306"/>
<polygon fill="#000000" stroke="#000000" points="3042.4742,-234.3254 3033.6409,-228.4753 3036.898,-238.5571 3042.4742,-234.3254"/>
</g>
<!-- prose_41 -->
<g id="node42" class="node">
<title>prose_41</title>
<ellipse fill="none" stroke="#000000" cx="3189" cy="-210.5001" rx="32.4585" ry="18"/>
<text text-anchor="middle" x="3189" y="-206.3001" font-family="Helvetica,sans-Serif" font-size="14.00" fill="#000000">prose</text>
</g>
<!-- section_24&#45;&gt;prose_41 -->
<g id="edge41" class="edge">
<title>section_24&#45;&gt;prose_41</title>
<path fill="none" stroke="#000000" stroke-dasharray="5,2" d="M3104.4307,-275.0731C3121.0723,-262.3664 3143.8516,-244.9732 3161.5762,-231.4395"/>
<polygon fill="#000000" stroke="#000000" points="3163.9983,-233.9938 3169.8223,-225.1432 3159.7502,-228.4302 3163.9983,-233.9938"/>
</g>
<!-- header_45 -->
<g id="node46" class="node">
<title>header_45</title>
<ellipse fill="none" stroke="#000000" cx="3293" cy="-210.5001" rx="53.24" ry="18"/>
<text text-anchor="middle" x="3293" y="-206.3001" font-family="Helvetica,sans-Serif" font-size="14.00" fill="#000000">3 : .d_back</text>
</g>
<!-- section_25&#45;&gt;header_45 -->
<g id="edge45" class="edge">
<title>section_25&#45;&gt;header_45</title>
<path fill="none" stroke="#000000" stroke-dasharray="5,2" d="M3293,-274.0682C3293,-263.7023 3293,-250.4748 3293,-238.773"/>
<polygon fill="#000000" stroke="#000000" points="3296.5001,-238.5812 3293,-228.5813 3289.5001,-238.5813 3296.5001,-238.5812"/>
</g>
<!-- prose_46 -->
<g id="node47" class="node">
<title>prose_46</title>
<ellipse fill="none" stroke="#000000" cx="3397" cy="-210.5001" rx="32.4585" ry="18"/>
<text text-anchor="middle" x="3397" y="-206.3001" font-family="Helvetica,sans-Serif" font-size="14.00" fill="#000000">prose</text>
</g>
<!-- section_25&#45;&gt;prose_46 -->
<g id="edge46" class="edge">
<title>section_25&#45;&gt;prose_46</title>
<path fill="none" stroke="#000000" stroke-dasharray="5,2" d="M3314.8018,-275.0731C3330.8744,-262.4468 3352.8374,-245.1932 3370.0174,-231.697"/>
<polygon fill="#000000" stroke="#000000" points="3372.3187,-234.34 3378.0202,-225.4101 3367.9944,-228.8354 3372.3187,-234.34"/>
</g>
<!-- header_50 -->
<g id="node51" class="node">
<title>header_50</title>
<ellipse fill="none" stroke="#000000" cx="3535" cy="-210.5001" rx="87.0603" ry="18"/>
<text text-anchor="middle" x="3535" y="-206.3001" font-family="Helvetica,sans-Serif" font-size="14.00" fill="#000000">3 : .d_fwd .left .right</text>
</g>
<!-- section_26&#45;&gt;header_50 -->
<g id="edge50" class="edge">
<title>section_26&#45;&gt;header_50</title>
<path fill="none" stroke="#000000" stroke-dasharray="5,2" d="M3535,-274.0682C3535,-263.7023 3535,-250.4748 3535,-238.773"/>
<polygon fill="#000000" stroke="#000000" points="3538.5001,-238.5812 3535,-228.5813 3531.5001,-238.5813 3538.5001,-238.5812"/>
</g>
<!-- prose_51 -->
<g id="node52" class="node">
<title>prose_51</title>
<ellipse fill="none" stroke="#000000" cx="3673" cy="-210.5001" rx="32.4585" ry="18"/>
<text text-anchor="middle" x="3673" y="-206.3001" font-family="Helvetica,sans-Serif" font-size="14.00" fill="#000000">prose</text>
</g>
<!-- section_26&#45;&gt;prose_51 -->
<g id="edge51" class="edge">
<title>section_26&#45;&gt;prose_51</title>
<path fill="none" stroke="#000000" stroke-dasharray="5,2" d="M3565.152,-275.9534C3584.2241,-265.5019 3609.2875,-251.444 3631,-238.2001 3635.1619,-235.6615 3639.5054,-232.9131 3643.7535,-230.1672"/>
<polygon fill="#000000" stroke="#000000" points="3645.8027,-233.009 3652.2506,-224.6022 3641.9674,-227.1532 3645.8027,-233.009"/>
</g>
<!-- header_55 -->
<g id="node56" class="node">
<title>header_55</title>
<ellipse fill="none" stroke="#000000" cx="3779" cy="-210.5001" rx="55.6628" ry="18"/>
<text text-anchor="middle" x="3779" y="-206.3001" font-family="Helvetica,sans-Serif" font-size="14.00" fill="#000000">3 : suspend</text>
</g>
<!-- section_27&#45;&gt;header_55 -->
<g id="edge55" class="edge">
<title>section_27&#45;&gt;header_55</title>
<path fill="none" stroke="#000000" stroke-dasharray="5,2" d="M3779,-274.0682C3779,-263.7023 3779,-250.4748 3779,-238.773"/>
<polygon fill="#000000" stroke="#000000" points="3782.5001,-238.5812 3779,-228.5813 3775.5001,-238.5813 3782.5001,-238.5812"/>
</g>
<!-- prose_56 -->
<g id="node57" class="node">
<title>prose_56</title>
<ellipse fill="none" stroke="#000000" cx="3885" cy="-210.5001" rx="32.4585" ry="18"/>
<text text-anchor="middle" x="3885" y="-206.3001" font-family="Helvetica,sans-Serif" font-size="14.00" fill="#000000">prose</text>
</g>
<!-- section_27&#45;&gt;prose_56 -->
<g id="edge56" class="edge">
<title>section_27&#45;&gt;prose_56</title>
<path fill="none" stroke="#000000" stroke-dasharray="5,2" d="M3801.2211,-275.0731C3817.7071,-262.3664 3840.2736,-244.9732 3857.8325,-231.4395"/>
<polygon fill="#000000" stroke="#000000" points="3860.2178,-234.0201 3866.0015,-225.1432 3855.9445,-228.4758 3860.2178,-234.0201"/>
</g>
<!-- header_60 -->
<g id="node61" class="node">
<title>header_60</title>
<ellipse fill="none" stroke="#000000" cx="3987" cy="-210.5001" rx="51.7691" ry="18"/>
<text text-anchor="middle" x="3987" y="-206.3001" font-family="Helvetica,sans-Serif" font-size="14.00" fill="#000000">3 : resume</text>
</g>
<!-- section_28&#45;&gt;header_60 -->
<g id="edge60" class="edge">
<title>section_28&#45;&gt;header_60</title>
<path fill="none" stroke="#000000" stroke-dasharray="5,2" d="M3987,-274.0682C3987,-263.7023 3987,-250.4748 3987,-238.773"/>
<polygon fill="#000000" stroke="#000000" points="3990.5001,-238.5812 3987,-228.5813 3983.5001,-238.5813 3990.5001,-238.5812"/>
</g>
<!-- prose_61 -->
<g id="node62" class="node">
<title>prose_61</title>
<ellipse fill="none" stroke="#000000" cx="4089" cy="-210.5001" rx="32.4585" ry="18"/>
<text text-anchor="middle" x="4089" y="-206.3001" font-family="Helvetica,sans-Serif" font-size="14.00" fill="#000000">prose</text>
</g>
<!-- section_28&#45;&gt;prose_61 -->
<g id="edge61" class="edge">
<title>section_28&#45;&gt;prose_61</title>
<path fill="none" stroke="#000000" stroke-dasharray="5,2" d="M4008.6316,-274.8736C4024.4117,-262.234 4045.8823,-245.0365 4062.6619,-231.5964"/>
<polygon fill="#000000" stroke="#000000" points="4064.8599,-234.3202 4070.4768,-225.3368 4060.4838,-228.8567 4064.8599,-234.3202"/>
</g>
<!-- header_65 -->
<g id="node66" class="node">
<title>header_65</title>
<ellipse fill="none" stroke="#000000" cx="4178" cy="-210.5001" rx="38.7388" ry="18"/>
<text text-anchor="middle" x="4178" y="-206.3001" font-family="Helvetica,sans-Serif" font-size="14.00" fill="#000000">3 : new</text>
</g>
<!-- section_29&#45;&gt;header_65 -->
<g id="edge65" class="edge">
<title>section_29&#45;&gt;header_65</title>
<path fill="none" stroke="#000000" stroke-dasharray="5,2" d="M4178,-274.0682C4178,-263.7023 4178,-250.4748 4178,-238.773"/>
<polygon fill="#000000" stroke="#000000" points="4181.5001,-238.5812 4178,-228.5813 4174.5001,-238.5813 4181.5001,-238.5812"/>
</g>
<!-- prose_66 -->
<g id="node67" class="node">
<title>prose_66</title>
<ellipse fill="none" stroke="#000000" cx="4267" cy="-210.5001" rx="32.4585" ry="18"/>
<text text-anchor="middle" x="4267" y="-206.3001" font-family="Helvetica,sans-Serif" font-size="14.00" fill="#000000">prose</text>
</g>
<!-- section_29&#45;&gt;prose_66 -->
<g id="edge66" class="edge">
<title>section_29&#45;&gt;prose_66</title>
<path fill="none" stroke="#000000" stroke-dasharray="5,2" d="M4196.8746,-274.8736C4210.1349,-262.701 4228.0003,-246.3009 4242.3798,-233.1009"/>
<polygon fill="#000000" stroke="#000000" points="4244.9585,-235.4848 4249.9584,-226.1439 4240.2247,-230.3281 4244.9585,-235.4848"/>
</g>
<!-- leaf_32 -->
<g id="node33" class="node">
<title>leaf_32</title>
<polygon fill="none" stroke="#c0c0c0" points="2209,-146.7004 1647,-146.7004 1647,-76.0997 2209,-76.0997 2209,-146.7004"/>
<text text-anchor="middle" x="1928" y="-99.6001" font-family="Inconsolata" font-size="14.00" fill="#000000"> &#160;A txtbuf is a drop&#45;in replacement for a linebuf, used when there&#39;s more than</text>
<text text-anchor="middle" x="1928" y="-84.2" font-family="Inconsolata" font-size="14.00" fill="#000000">one line to buffer.</text>
</g>
<!-- raw_31&#45;&gt;leaf_32 -->
<g id="edge32" class="edge">
<title>raw_31&#45;&gt;leaf_32</title>
<path fill="none" stroke="#000000" stroke-dasharray="5,2" d="M2436.2777,-195.6036C2430.3435,-190.7744 2423.2618,-185.8751 2416,-182.8001 2395.5787,-174.1527 2311.765,-160.811 2219.2117,-147.9906"/>
<polygon fill="#000000" stroke="#000000" points="2219.4467,-144.4899 2209.0624,-146.5915 2218.4907,-151.4244 2219.4467,-144.4899"/>
</g>
<!-- leaf_34 -->
<g id="node35" class="node">
<title>leaf_34</title>
<polygon fill="none" stroke="#c0c0c0" points="2572.5,-139.3015 2227.5,-139.3015 2227.5,-83.4985 2572.5,-83.4985 2572.5,-139.3015"/>
<text text-anchor="middle" x="2400" y="-107.9" font-family="Inconsolata" font-size="14.00" fill="#000000">This means it implements the following methods:</text>
</g>
<!-- raw_33&#45;&gt;leaf_34 -->
<g id="edge34" class="edge">
<title>raw_33&#45;&gt;leaf_34</title>
<path fill="none" stroke="#000000" stroke-dasharray="5,2" d="M2506.4968,-196.5116C2489.9677,-183.3017 2464.5205,-162.9644 2442.6459,-145.4823"/>
<polygon fill="#000000" stroke="#000000" points="2444.7684,-142.6983 2434.7716,-139.1892 2440.3982,-148.1665 2444.7684,-142.6983"/>
</g>
<!-- leaf_37 -->
<g id="node38" class="node">
<title>leaf_37</title>
<polygon fill="none" stroke="#c0c0c0" points="2809.5,-129.4 2590.5,-129.4 2590.5,-93.4 2809.5,-93.4 2809.5,-129.4"/>
<text text-anchor="middle" x="2700" y="-107.9" font-family="Inconsolata" font-size="14.00" fill="#000000">*** Txtbuf.__tostring(txtbuf)</text>
</g>
<!-- header_35&#45;&gt;leaf_37 -->
<g id="edge37" class="edge">
<title>header_35&#45;&gt;leaf_37</title>
<path fill="none" stroke="#000000" stroke-dasharray="5,2" d="M2687.7512,-192.3236C2689.9925,-177.516 2693.195,-156.3582 2695.7633,-139.3904"/>
<polygon fill="#000000" stroke="#000000" points="2699.2301,-139.8725 2697.2662,-129.4613 2692.309,-138.8248 2699.2301,-139.8725"/>
</g>
<!-- raw_38 -->
<g id="node39" class="node">
<title>raw_38</title>
<ellipse fill="none" stroke="#000000" cx="2855" cy="-111.4" rx="27" ry="18"/>
<text text-anchor="middle" x="2855" y="-107.2" font-family="Helvetica,sans-Serif" font-size="14.00" fill="#000000">raw</text>
</g>
<!-- prose_36&#45;&gt;raw_38 -->
<g id="edge38" class="edge">
<title>prose_36&#45;&gt;raw_38</title>
<path fill="none" stroke="#000000" stroke-dasharray="5,2" d="M2851.7337,-192.3236C2852.3257,-177.6557 2853.1693,-156.7569 2853.8508,-139.8718"/>
<polygon fill="#000000" stroke="#000000" points="2857.3647,-139.5943 2854.271,-129.4613 2850.3704,-139.312 2857.3647,-139.5943"/>
</g>
<!-- leaf_39 -->
<g id="node40" class="node">
<title>leaf_39</title>
<polygon fill="none" stroke="#c0c0c0" points="2882,-40 2828,-40 2828,0 2882,0 2882,-40"/>
</g>
<!-- raw_38&#45;&gt;leaf_39 -->
<g id="edge39" class="edge">
<title>raw_38&#45;&gt;leaf_39</title>
<path fill="none" stroke="#000000" stroke-dasharray="5,2" d="M2855,-93.3423C2855,-81.1539 2855,-64.7634 2855,-50.5684"/>
<polygon fill="#000000" stroke="#000000" points="2858.5001,-50.2474 2855,-40.2474 2851.5001,-50.2474 2858.5001,-50.2474"/>
</g>
<!-- leaf_42 -->
<g id="node43" class="node">
<title>leaf_42</title>
<polygon fill="none" stroke="#c0c0c0" points="3136.5,-129.4 2903.5,-129.4 2903.5,-93.4 3136.5,-93.4 3136.5,-129.4"/>
<text text-anchor="middle" x="3020" y="-107.9" font-family="Inconsolata" font-size="14.00" fill="#000000">*** Txtbuf.insert(txtbuf, frag)</text>
</g>
<!-- header_40&#45;&gt;leaf_42 -->
<g id="edge42" class="edge">
<title>header_40&#45;&gt;leaf_42</title>
<path fill="none" stroke="#000000" stroke-dasharray="5,2" d="M3020,-192.3236C3020,-177.6557 3020,-156.7569 3020,-139.8718"/>
<polygon fill="#000000" stroke="#000000" points="3023.5001,-139.4612 3020,-129.4613 3016.5001,-139.4613 3023.5001,-139.4612"/>
</g>
<!-- raw_43 -->
<g id="node44" class="node">
<title>raw_43</title>
<ellipse fill="none" stroke="#000000" cx="3189" cy="-111.4" rx="27" ry="18"/>
<text text-anchor="middle" x="3189" y="-107.2" font-family="Helvetica,sans-Serif" font-size="14.00" fill="#000000">raw</text>
</g>
<!-- prose_41&#45;&gt;raw_43 -->
<g id="edge43" class="edge">
<title>prose_41&#45;&gt;raw_43</title>
<path fill="none" stroke="#000000" stroke-dasharray="5,2" d="M3189,-192.3236C3189,-177.6557 3189,-156.7569 3189,-139.8718"/>
<polygon fill="#000000" stroke="#000000" points="3192.5001,-139.4612 3189,-129.4613 3185.5001,-139.4613 3192.5001,-139.4612"/>
</g>
<!-- leaf_44 -->
<g id="node45" class="node">
<title>leaf_44</title>
<polygon fill="none" stroke="#c0c0c0" points="3216,-40 3162,-40 3162,0 3216,0 3216,-40"/>
</g>
<!-- raw_43&#45;&gt;leaf_44 -->
<g id="edge44" class="edge">
<title>raw_43&#45;&gt;leaf_44</title>
<path fill="none" stroke="#000000" stroke-dasharray="5,2" d="M3189,-93.3423C3189,-81.1539 3189,-64.7634 3189,-50.5684"/>
<polygon fill="#000000" stroke="#000000" points="3192.5001,-50.2474 3189,-40.2474 3185.5001,-50.2474 3192.5001,-50.2474"/>
</g>
<!-- leaf_47 -->
<g id="node48" class="node">
<title>leaf_47</title>
<polygon fill="none" stroke="#c0c0c0" points="3339.5,-129.4 3246.5,-129.4 3246.5,-93.4 3339.5,-93.4 3339.5,-129.4"/>
<text text-anchor="middle" x="3293" y="-107.9" font-family="Inconsolata" font-size="14.00" fill="#000000">*** .d_back</text>
</g>
<!-- header_45&#45;&gt;leaf_47 -->
<g id="edge47" class="edge">
<title>header_45&#45;&gt;leaf_47</title>
<path fill="none" stroke="#000000" stroke-dasharray="5,2" d="M3293,-192.3236C3293,-177.6557 3293,-156.7569 3293,-139.8718"/>
<polygon fill="#000000" stroke="#000000" points="3296.5001,-139.4612 3293,-129.4613 3289.5001,-139.4613 3296.5001,-139.4612"/>
</g>
<!-- raw_48 -->
<g id="node49" class="node">
<title>raw_48</title>
<ellipse fill="none" stroke="#000000" cx="3397" cy="-111.4" rx="27" ry="18"/>
<text text-anchor="middle" x="3397" y="-107.2" font-family="Helvetica,sans-Serif" font-size="14.00" fill="#000000">raw</text>
</g>
<!-- prose_46&#45;&gt;raw_48 -->
<g id="edge48" class="edge">
<title>prose_46&#45;&gt;raw_48</title>
<path fill="none" stroke="#000000" stroke-dasharray="5,2" d="M3397,-192.3236C3397,-177.6557 3397,-156.7569 3397,-139.8718"/>
<polygon fill="#000000" stroke="#000000" points="3400.5001,-139.4612 3397,-129.4613 3393.5001,-139.4613 3400.5001,-139.4612"/>
</g>
<!-- leaf_49 -->
<g id="node50" class="node">
<title>leaf_49</title>
<polygon fill="none" stroke="#c0c0c0" points="3424,-40 3370,-40 3370,0 3424,0 3424,-40"/>
</g>
<!-- raw_48&#45;&gt;leaf_49 -->
<g id="edge49" class="edge">
<title>raw_48&#45;&gt;leaf_49</title>
<path fill="none" stroke="#000000" stroke-dasharray="5,2" d="M3397,-93.3423C3397,-81.1539 3397,-64.7634 3397,-50.5684"/>
<polygon fill="#000000" stroke="#000000" points="3400.5001,-50.2474 3397,-40.2474 3393.5001,-50.2474 3400.5001,-50.2474"/>
</g>
<!-- leaf_52 -->
<g id="node53" class="node">
<title>leaf_52</title>
<polygon fill="none" stroke="#c0c0c0" points="3623.5,-129.4 3446.5,-129.4 3446.5,-93.4 3623.5,-93.4 3623.5,-129.4"/>
<text text-anchor="middle" x="3535" y="-107.9" font-family="Inconsolata" font-size="14.00" fill="#000000">*** .d_fwd .left .right</text>
</g>
<!-- header_50&#45;&gt;leaf_52 -->
<g id="edge52" class="edge">
<title>header_50&#45;&gt;leaf_52</title>
<path fill="none" stroke="#000000" stroke-dasharray="5,2" d="M3535,-192.3236C3535,-177.6557 3535,-156.7569 3535,-139.8718"/>
<polygon fill="#000000" stroke="#000000" points="3538.5001,-139.4612 3535,-129.4613 3531.5001,-139.4613 3538.5001,-139.4612"/>
</g>
<!-- raw_53 -->
<g id="node54" class="node">
<title>raw_53</title>
<ellipse fill="none" stroke="#000000" cx="3673" cy="-111.4" rx="27" ry="18"/>
<text text-anchor="middle" x="3673" y="-107.2" font-family="Helvetica,sans-Serif" font-size="14.00" fill="#000000">raw</text>
</g>
<!-- prose_51&#45;&gt;raw_53 -->
<g id="edge53" class="edge">
<title>prose_51&#45;&gt;raw_53</title>
<path fill="none" stroke="#000000" stroke-dasharray="5,2" d="M3673,-192.3236C3673,-177.6557 3673,-156.7569 3673,-139.8718"/>
<polygon fill="#000000" stroke="#000000" points="3676.5001,-139.4612 3673,-129.4613 3669.5001,-139.4613 3676.5001,-139.4612"/>
</g>
<!-- leaf_54 -->
<g id="node55" class="node">
<title>leaf_54</title>
<polygon fill="none" stroke="#c0c0c0" points="3700,-40 3646,-40 3646,0 3700,0 3700,-40"/>
</g>
<!-- raw_53&#45;&gt;leaf_54 -->
<g id="edge54" class="edge">
<title>raw_53&#45;&gt;leaf_54</title>
<path fill="none" stroke="#000000" stroke-dasharray="5,2" d="M3673,-93.3423C3673,-81.1539 3673,-64.7634 3673,-50.5684"/>
<polygon fill="#000000" stroke="#000000" points="3676.5001,-50.2474 3673,-40.2474 3669.5001,-50.2474 3676.5001,-50.2474"/>
</g>
<!-- leaf_57 -->
<g id="node58" class="node">
<title>leaf_57</title>
<polygon fill="none" stroke="#c0c0c0" points="3825.5,-129.4 3732.5,-129.4 3732.5,-93.4 3825.5,-93.4 3825.5,-129.4"/>
<text text-anchor="middle" x="3779" y="-107.9" font-family="Inconsolata" font-size="14.00" fill="#000000">*** suspend</text>
</g>
<!-- header_55&#45;&gt;leaf_57 -->
<g id="edge57" class="edge">
<title>header_55&#45;&gt;leaf_57</title>
<path fill="none" stroke="#000000" stroke-dasharray="5,2" d="M3779,-192.3236C3779,-177.6557 3779,-156.7569 3779,-139.8718"/>
<polygon fill="#000000" stroke="#000000" points="3782.5001,-139.4612 3779,-129.4613 3775.5001,-139.4613 3782.5001,-139.4612"/>
</g>
<!-- raw_58 -->
<g id="node59" class="node">
<title>raw_58</title>
<ellipse fill="none" stroke="#000000" cx="3885" cy="-111.4" rx="27" ry="18"/>
<text text-anchor="middle" x="3885" y="-107.2" font-family="Helvetica,sans-Serif" font-size="14.00" fill="#000000">raw</text>
</g>
<!-- prose_56&#45;&gt;raw_58 -->
<g id="edge58" class="edge">
<title>prose_56&#45;&gt;raw_58</title>
<path fill="none" stroke="#000000" stroke-dasharray="5,2" d="M3885,-192.3236C3885,-177.6557 3885,-156.7569 3885,-139.8718"/>
<polygon fill="#000000" stroke="#000000" points="3888.5001,-139.4612 3885,-129.4613 3881.5001,-139.4613 3888.5001,-139.4612"/>
</g>
<!-- leaf_59 -->
<g id="node60" class="node">
<title>leaf_59</title>
<polygon fill="none" stroke="#c0c0c0" points="3912,-40 3858,-40 3858,0 3912,0 3912,-40"/>
</g>
<!-- raw_58&#45;&gt;leaf_59 -->
<g id="edge59" class="edge">
<title>raw_58&#45;&gt;leaf_59</title>
<path fill="none" stroke="#000000" stroke-dasharray="5,2" d="M3885,-93.3423C3885,-81.1539 3885,-64.7634 3885,-50.5684"/>
<polygon fill="#000000" stroke="#000000" points="3888.5001,-50.2474 3885,-40.2474 3881.5001,-50.2474 3888.5001,-50.2474"/>
</g>
<!-- leaf_62 -->
<g id="node63" class="node">
<title>leaf_62</title>
<polygon fill="none" stroke="#c0c0c0" points="4030,-129.4 3944,-129.4 3944,-93.4 4030,-93.4 4030,-129.4"/>
<text text-anchor="middle" x="3987" y="-107.9" font-family="Inconsolata" font-size="14.00" fill="#000000">*** resume</text>
</g>
<!-- header_60&#45;&gt;leaf_62 -->
<g id="edge62" class="edge">
<title>header_60&#45;&gt;leaf_62</title>
<path fill="none" stroke="#000000" stroke-dasharray="5,2" d="M3987,-192.3236C3987,-177.6557 3987,-156.7569 3987,-139.8718"/>
<polygon fill="#000000" stroke="#000000" points="3990.5001,-139.4612 3987,-129.4613 3983.5001,-139.4613 3990.5001,-139.4612"/>
</g>
<!-- raw_63 -->
<g id="node64" class="node">
<title>raw_63</title>
<ellipse fill="none" stroke="#000000" cx="4089" cy="-111.4" rx="27" ry="18"/>
<text text-anchor="middle" x="4089" y="-107.2" font-family="Helvetica,sans-Serif" font-size="14.00" fill="#000000">raw</text>
</g>
<!-- prose_61&#45;&gt;raw_63 -->
<g id="edge63" class="edge">
<title>prose_61&#45;&gt;raw_63</title>
<path fill="none" stroke="#000000" stroke-dasharray="5,2" d="M4089,-192.3236C4089,-177.6557 4089,-156.7569 4089,-139.8718"/>
<polygon fill="#000000" stroke="#000000" points="4092.5001,-139.4612 4089,-129.4613 4085.5001,-139.4613 4092.5001,-139.4612"/>
</g>
<!-- leaf_64 -->
<g id="node65" class="node">
<title>leaf_64</title>
<polygon fill="none" stroke="#c0c0c0" points="4116,-40 4062,-40 4062,0 4116,0 4116,-40"/>
</g>
<!-- raw_63&#45;&gt;leaf_64 -->
<g id="edge64" class="edge">
<title>raw_63&#45;&gt;leaf_64</title>
<path fill="none" stroke="#000000" stroke-dasharray="5,2" d="M4089,-93.3423C4089,-81.1539 4089,-64.7634 4089,-50.5684"/>
<polygon fill="#000000" stroke="#000000" points="4092.5001,-50.2474 4089,-40.2474 4085.5001,-50.2474 4092.5001,-50.2474"/>
</g>
<!-- leaf_67 -->
<g id="node68" class="node">
<title>leaf_67</title>
<polygon fill="none" stroke="#c0c0c0" points="4210.5,-131.3021 4145.5,-131.3021 4145.5,-91.4979 4210.5,-91.4979 4210.5,-131.3021"/>
<text text-anchor="middle" x="4178" y="-99.9" font-family="Inconsolata" font-size="14.00" fill="#000000">*** new</text>
</g>
<!-- header_65&#45;&gt;leaf_67 -->
<g id="edge67" class="edge">
<title>header_65&#45;&gt;leaf_67</title>
<path fill="none" stroke="#000000" stroke-dasharray="5,2" d="M4178,-192.3236C4178,-178.1141 4178,-158.057 4178,-141.4662"/>
<polygon fill="#000000" stroke="#000000" points="4181.5001,-141.1605 4178,-131.1605 4174.5001,-141.1606 4181.5001,-141.1605"/>
</g>
<!-- raw_68 -->
<g id="node69" class="node">
<title>raw_68</title>
<ellipse fill="none" stroke="#000000" cx="4267" cy="-111.4" rx="27" ry="18"/>
<text text-anchor="middle" x="4267" y="-107.2" font-family="Helvetica,sans-Serif" font-size="14.00" fill="#000000">raw</text>
</g>
<!-- prose_66&#45;&gt;raw_68 -->
<g id="edge68" class="edge">
<title>prose_66&#45;&gt;raw_68</title>
<path fill="none" stroke="#000000" stroke-dasharray="5,2" d="M4267,-192.3236C4267,-177.6557 4267,-156.7569 4267,-139.8718"/>
<polygon fill="#000000" stroke="#000000" points="4270.5001,-139.4612 4267,-129.4613 4263.5001,-139.4613 4270.5001,-139.4612"/>
</g>
<!-- leaf_69 -->
<g id="node70" class="node">
<title>leaf_69</title>
<polygon fill="none" stroke="#c0c0c0" points="4294,-38 4240,-38 4240,-2 4294,-2 4294,-38"/>
</g>
<!-- raw_68&#45;&gt;leaf_69 -->
<g id="edge69" class="edge">
<title>raw_68&#45;&gt;leaf_69</title>
<path fill="none" stroke="#000000" stroke-dasharray="5,2" d="M4267,-93.3423C4267,-80.4483 4267,-62.8516 4267,-48.1265"/>
<polygon fill="#000000" stroke="#000000" points="4270.5001,-48.0202 4267,-38.0202 4263.5001,-48.0202 4270.5001,-48.0202"/>
</g>
</g>
</svg>
