<?xml version="1.0" encoding="UTF-8" standalone="no"?>
<!DOCTYPE svg PUBLIC "-//W3C//DTD SVG 1.1//EN"
 "http://www.w3.org/Graphics/SVG/1.1/DTD/svg11.dtd">
<!-- Generated by graphviz version 2.40.1 (20161225.0304)
 -->
<!-- Title: lpegNode Pages: 1 -->
<svg width="4808pt" height="864pt"
 viewBox="0.00 0.00 4807.50 864.20" xmlns="http://www.w3.org/2000/svg" xmlns:xlink="http://www.w3.org/1999/xlink">
<g id="graph0" class="graph" transform="scale(1 1) rotate(0) translate(4 860.201)">
<title>lpegNode</title>
<polygon fill="#ffffff" stroke="transparent" points="-4,4 -4,-860.201 4803.5,-860.201 4803.5,4 -4,4"/>
<!-- doc_0 -->
<g id="node1" class="node">
<title>doc_0</title>
<ellipse fill="none" stroke="#000000" cx="2910.5" cy="-838.201" rx="42.1216" ry="18"/>
<text text-anchor="middle" x="2910.5" y="-834.001" font-family="Helvetica,sans-Serif" font-size="14.00" fill="#000000">doc &#45; 83</text>
</g>
<!-- section_1 -->
<g id="node2" class="node">
<title>section_1</title>
<ellipse fill="none" stroke="#000000" cx="2910.5" cy="-766.201" rx="60.9826" ry="18"/>
<text text-anchor="middle" x="2910.5" y="-762.001" font-family="Helvetica,sans-Serif" font-size="14.00" fill="#000000">section: 1&#45;83</text>
</g>
<!-- doc_0&#45;&gt;section_1 -->
<g id="edge1" class="edge">
<title>doc_0&#45;&gt;section_1</title>
<path fill="none" stroke="#000000" stroke-dasharray="5,2" d="M2910.5,-820.0324C2910.5,-812.332 2910.5,-803.1754 2910.5,-794.6177"/>
<polygon fill="#000000" stroke="#000000" points="2914.0001,-794.6143 2910.5,-784.6143 2907.0001,-794.6143 2914.0001,-794.6143"/>
</g>
<!-- header_2 -->
<g id="node3" class="node">
<title>header_2</title>
<ellipse fill="none" stroke="#000000" cx="2114.5" cy="-694.201" rx="54.9955" ry="18"/>
<text text-anchor="middle" x="2114.5" y="-690.001" font-family="Helvetica,sans-Serif" font-size="14.00" fill="#000000">1 : Watcher</text>
</g>
<!-- section_1&#45;&gt;header_2 -->
<g id="edge2" class="edge">
<title>section_1&#45;&gt;header_2</title>
<path fill="none" stroke="#000000" stroke-dasharray="5,2" d="M2851.7378,-761.6319C2740.143,-752.8526 2489.883,-732.6758 2279.5,-712.201 2245.487,-708.8908 2207.5773,-704.7847 2176.6808,-701.3304"/>
<polygon fill="#000000" stroke="#000000" points="2176.8155,-697.8236 2166.4875,-700.186 2176.0345,-704.7799 2176.8155,-697.8236"/>
</g>
<!-- prose_3 -->
<g id="node4" class="node">
<title>prose_3</title>
<ellipse fill="none" stroke="#000000" cx="2320.5" cy="-694.201" rx="32.4585" ry="18"/>
<text text-anchor="middle" x="2320.5" y="-690.001" font-family="Helvetica,sans-Serif" font-size="14.00" fill="#000000">prose</text>
</g>
<!-- section_1&#45;&gt;prose_3 -->
<g id="edge3" class="edge">
<title>section_1&#45;&gt;prose_3</title>
<path fill="none" stroke="#000000" stroke-dasharray="5,2" d="M2851.6425,-761.4546C2758.2466,-753.5554 2570.4894,-736.1776 2412.5,-712.201 2395.4726,-709.6169 2376.8024,-706.0936 2360.7569,-702.849"/>
<polygon fill="#000000" stroke="#000000" points="2361.1351,-699.3537 2350.6354,-700.7697 2359.7265,-706.2105 2361.1351,-699.3537"/>
</g>
<!-- prose_4 -->
<g id="node5" class="node">
<title>prose_4</title>
<ellipse fill="none" stroke="#000000" cx="2453.5" cy="-694.201" rx="32.4585" ry="18"/>
<text text-anchor="middle" x="2453.5" y="-690.001" font-family="Helvetica,sans-Serif" font-size="14.00" fill="#000000">prose</text>
</g>
<!-- section_1&#45;&gt;prose_4 -->
<g id="edge4" class="edge">
<title>section_1&#45;&gt;prose_4</title>
<path fill="none" stroke="#000000" stroke-dasharray="5,2" d="M2852.4671,-760.5522C2775.7654,-752.5477 2636.6531,-736.1621 2519.5,-712.201 2510.454,-710.3509 2500.8155,-707.9644 2491.7787,-705.538"/>
<polygon fill="#000000" stroke="#000000" points="2492.466,-702.0969 2481.8951,-702.8081 2490.6023,-708.8442 2492.466,-702.0969"/>
</g>
<!-- prose_5 -->
<g id="node6" class="node">
<title>prose_5</title>
<ellipse fill="none" stroke="#000000" cx="2560.5" cy="-694.201" rx="32.4585" ry="18"/>
<text text-anchor="middle" x="2560.5" y="-690.001" font-family="Helvetica,sans-Serif" font-size="14.00" fill="#000000">prose</text>
</g>
<!-- section_1&#45;&gt;prose_5 -->
<g id="edge5" class="edge">
<title>section_1&#45;&gt;prose_5</title>
<path fill="none" stroke="#000000" stroke-dasharray="5,2" d="M2855.4427,-758.5386C2795.6219,-749.662 2697.4822,-733.4871 2614.5,-712.201 2608.996,-710.7892 2603.2402,-709.1035 2597.6234,-707.3381"/>
<polygon fill="#000000" stroke="#000000" points="2598.3402,-703.8905 2587.7478,-704.1165 2596.1692,-710.5454 2598.3402,-703.8905"/>
</g>
<!-- prose_6 -->
<g id="node7" class="node">
<title>prose_6</title>
<ellipse fill="none" stroke="#000000" cx="2655.5" cy="-694.201" rx="32.4585" ry="18"/>
<text text-anchor="middle" x="2655.5" y="-690.001" font-family="Helvetica,sans-Serif" font-size="14.00" fill="#000000">prose</text>
</g>
<!-- section_1&#45;&gt;prose_6 -->
<g id="edge6" class="edge">
<title>section_1&#45;&gt;prose_6</title>
<path fill="none" stroke="#000000" stroke-dasharray="5,2" d="M2862.1473,-755.2678C2819.7092,-745.2885 2756.5075,-729.4938 2702.5,-712.201 2698.7683,-711.0062 2694.9018,-709.6776 2691.0622,-708.2988"/>
<polygon fill="#000000" stroke="#000000" points="2692.2586,-705.0096 2681.6656,-704.8157 2689.8256,-711.5732 2692.2586,-705.0096"/>
</g>
<!-- prose_7 -->
<g id="node8" class="node">
<title>prose_7</title>
<ellipse fill="none" stroke="#000000" cx="2743.5" cy="-694.201" rx="32.4585" ry="18"/>
<text text-anchor="middle" x="2743.5" y="-690.001" font-family="Helvetica,sans-Serif" font-size="14.00" fill="#000000">prose</text>
</g>
<!-- section_1&#45;&gt;prose_7 -->
<g id="edge7" class="edge">
<title>section_1&#45;&gt;prose_7</title>
<path fill="none" stroke="#000000" stroke-dasharray="5,2" d="M2875.8975,-751.2826C2847.3145,-738.9594 2806.9288,-721.5476 2778.2935,-709.2018"/>
<polygon fill="#000000" stroke="#000000" points="2779.6354,-705.969 2769.0668,-705.2239 2776.864,-712.397 2779.6354,-705.969"/>
</g>
<!-- prose_8 -->
<g id="node9" class="node">
<title>prose_8</title>
<ellipse fill="none" stroke="#000000" cx="2972.5" cy="-694.201" rx="32.4585" ry="18"/>
<text text-anchor="middle" x="2972.5" y="-690.001" font-family="Helvetica,sans-Serif" font-size="14.00" fill="#000000">prose</text>
</g>
<!-- section_1&#45;&gt;prose_8 -->
<g id="edge8" class="edge">
<title>section_1&#45;&gt;prose_8</title>
<path fill="none" stroke="#000000" stroke-dasharray="5,2" d="M2925.8258,-748.4033C2933.558,-739.424 2943.0557,-728.3944 2951.4604,-718.6341"/>
<polygon fill="#000000" stroke="#000000" points="2954.3275,-720.6684 2958.2005,-710.8069 2949.0231,-716.1007 2954.3275,-720.6684"/>
</g>
<!-- prose_9 -->
<g id="node10" class="node">
<title>prose_9</title>
<ellipse fill="none" stroke="#000000" cx="3196.5" cy="-694.201" rx="32.4585" ry="18"/>
<text text-anchor="middle" x="3196.5" y="-690.001" font-family="Helvetica,sans-Serif" font-size="14.00" fill="#000000">prose</text>
</g>
<!-- section_1&#45;&gt;prose_9 -->
<g id="edge9" class="edge">
<title>section_1&#45;&gt;prose_9</title>
<path fill="none" stroke="#000000" stroke-dasharray="5,2" d="M2957.0874,-754.4727C3012.7341,-740.4638 3104.8405,-717.2762 3157.1003,-704.1198"/>
<polygon fill="#000000" stroke="#000000" points="3158.1554,-707.4635 3166.9984,-701.628 3156.4465,-700.6753 3158.1554,-707.4635"/>
</g>
<!-- codeblock_10 -->
<g id="node11" class="node">
<title>codeblock_10</title>
<ellipse fill="none" stroke="#000000" cx="3509.5" cy="-694.201" rx="77.4211" ry="18"/>
<text text-anchor="middle" x="3509.5" y="-690.001" font-family="Helvetica,sans-Serif" font-size="14.00" fill="#000000">code block 21&#45;56</text>
</g>
<!-- section_1&#45;&gt;codeblock_10 -->
<g id="edge10" class="edge">
<title>section_1&#45;&gt;codeblock_10</title>
<path fill="none" stroke="#000000" stroke-dasharray="5,2" d="M2966.8525,-759.4274C3074.0711,-746.5397 3307.6617,-718.4621 3430.4557,-703.7022"/>
<polygon fill="#000000" stroke="#000000" points="3431.0331,-707.1581 3440.5439,-702.4896 3430.1976,-700.2081 3431.0331,-707.1581"/>
</g>
<!-- codeblock_11 -->
<g id="node12" class="node">
<title>codeblock_11</title>
<ellipse fill="none" stroke="#000000" cx="3897.5" cy="-694.201" rx="77.4211" ry="18"/>
<text text-anchor="middle" x="3897.5" y="-690.001" font-family="Helvetica,sans-Serif" font-size="14.00" fill="#000000">code block 58&#45;62</text>
</g>
<!-- section_1&#45;&gt;codeblock_11 -->
<g id="edge11" class="edge">
<title>section_1&#45;&gt;codeblock_11</title>
<path fill="none" stroke="#000000" stroke-dasharray="5,2" d="M2969.6515,-761.886C3137.579,-749.636 3617.6978,-714.6121 3813.1661,-700.353"/>
<polygon fill="#000000" stroke="#000000" points="3813.6628,-703.8262 3823.3817,-699.6078 3813.1535,-696.8448 3813.6628,-703.8262"/>
</g>
<!-- codeblock_12 -->
<g id="node13" class="node">
<title>codeblock_12</title>
<ellipse fill="none" stroke="#000000" cx="4264.5" cy="-694.201" rx="77.4211" ry="18"/>
<text text-anchor="middle" x="4264.5" y="-690.001" font-family="Helvetica,sans-Serif" font-size="14.00" fill="#000000">code block 64&#45;78</text>
</g>
<!-- section_1&#45;&gt;codeblock_12 -->
<g id="edge12" class="edge">
<title>section_1&#45;&gt;codeblock_12</title>
<path fill="none" stroke="#000000" stroke-dasharray="5,2" d="M2970.7217,-763.4597C3133.8252,-755.9726 3597.7997,-734.2588 3983.5,-712.201 4049.4315,-708.4305 4124.0286,-703.6269 4179.7856,-699.9306"/>
<polygon fill="#000000" stroke="#000000" points="4180.2252,-703.4092 4189.9711,-699.2538 4179.761,-696.4246 4180.2252,-703.4092"/>
</g>
<!-- codeblock_13 -->
<g id="node14" class="node">
<title>codeblock_13</title>
<ellipse fill="none" stroke="#000000" cx="4589.5" cy="-694.201" rx="77.4211" ry="18"/>
<text text-anchor="middle" x="4589.5" y="-690.001" font-family="Helvetica,sans-Serif" font-size="14.00" fill="#000000">code block 80&#45;82</text>
</g>
<!-- section_1&#45;&gt;codeblock_13 -->
<g id="edge13" class="edge">
<title>section_1&#45;&gt;codeblock_13</title>
<path fill="none" stroke="#000000" stroke-dasharray="5,2" d="M2971.2151,-764.2301C3208.7638,-756.4714 4075.587,-727.7025 4350.5,-712.201 4402.352,-709.2773 4460.4535,-704.9259 4506.3856,-701.2339"/>
<polygon fill="#000000" stroke="#000000" points="4506.9052,-704.7034 4516.5904,-700.4084 4506.3408,-697.7262 4506.9052,-704.7034"/>
</g>
<!-- leaf_14 -->
<g id="node15" class="node">
<title>leaf_14</title>
<polygon fill="none" stroke="#c0c0c0" points="2102,-391.8005 2023,-391.8005 2023,-355.8005 2102,-355.8005 2102,-391.8005"/>
<text text-anchor="middle" x="2062.5" y="-370.3005" font-family="Inconsolata" font-size="14.00" fill="#000000">* Watcher</text>
</g>
<!-- header_2&#45;&gt;leaf_14 -->
<g id="edge14" class="edge">
<title>header_2&#45;&gt;leaf_14</title>
<path fill="none" stroke="#000000" stroke-dasharray="5,2" d="M2111.5553,-676.0569C2102.9235,-622.8721 2077.6335,-467.0461 2067.1429,-402.4079"/>
<polygon fill="#000000" stroke="#000000" points="2070.5338,-401.4529 2065.4769,-392.1428 2063.6242,-402.5744 2070.5338,-401.4529"/>
</g>
<!-- raw_15 -->
<g id="node16" class="node">
<title>raw_15</title>
<ellipse fill="none" stroke="#000000" cx="2147.5" cy="-373.8005" rx="27" ry="18"/>
<text text-anchor="middle" x="2147.5" y="-369.6005" font-family="Helvetica,sans-Serif" font-size="14.00" fill="#000000">raw</text>
</g>
<!-- prose_3&#45;&gt;raw_15 -->
<g id="edge15" class="edge">
<title>prose_3&#45;&gt;raw_15</title>
<path fill="none" stroke="#000000" stroke-dasharray="5,2" d="M2288.6904,-690.8424C2256.8292,-685.6826 2208.9719,-672.6961 2183.5,-640.201 2128.1458,-569.5844 2135.6293,-454.7849 2142.7883,-401.9922"/>
<polygon fill="#000000" stroke="#000000" points="2146.266,-402.3985 2144.2427,-391.9987 2139.339,-401.3903 2146.266,-402.3985"/>
</g>
<!-- raw_17 -->
<g id="node18" class="node">
<title>raw_17</title>
<ellipse fill="none" stroke="#000000" cx="2219.5" cy="-373.8005" rx="27" ry="18"/>
<text text-anchor="middle" x="2219.5" y="-369.6005" font-family="Helvetica,sans-Serif" font-size="14.00" fill="#000000">raw</text>
</g>
<!-- prose_4&#45;&gt;raw_17 -->
<g id="edge17" class="edge">
<title>prose_4&#45;&gt;raw_17</title>
<path fill="none" stroke="#000000" stroke-dasharray="5,2" d="M2423.0282,-687.8225C2370.3173,-676.5105 2266.6525,-652.9313 2255.5,-640.201 2196.0864,-572.3823 2205.8439,-455.2082 2214.2084,-401.7933"/>
<polygon fill="#000000" stroke="#000000" points="2217.6991,-402.1383 2215.8942,-391.6983 2210.7948,-400.9852 2217.6991,-402.1383"/>
</g>
<!-- raw_19 -->
<g id="node20" class="node">
<title>raw_19</title>
<ellipse fill="none" stroke="#000000" cx="2291.5" cy="-373.8005" rx="27" ry="18"/>
<text text-anchor="middle" x="2291.5" y="-369.6005" font-family="Helvetica,sans-Serif" font-size="14.00" fill="#000000">raw</text>
</g>
<!-- prose_5&#45;&gt;raw_19 -->
<g id="edge19" class="edge">
<title>prose_5&#45;&gt;raw_19</title>
<path fill="none" stroke="#000000" stroke-dasharray="5,2" d="M2531.6732,-685.9768C2520.1484,-682.7837 2506.7307,-679.1848 2494.5,-676.201 2420.7362,-658.2056 2379.0545,-695.9421 2327.5,-640.201 2266.1516,-573.8708 2277.0021,-455.5134 2285.9379,-401.7502"/>
<polygon fill="#000000" stroke="#000000" points="2289.3862,-402.3495 2287.6776,-391.8934 2282.4927,-401.1328 2289.3862,-402.3495"/>
</g>
<!-- raw_21 -->
<g id="node22" class="node">
<title>raw_21</title>
<ellipse fill="none" stroke="#000000" cx="2363.5" cy="-373.8005" rx="27" ry="18"/>
<text text-anchor="middle" x="2363.5" y="-369.6005" font-family="Helvetica,sans-Serif" font-size="14.00" fill="#000000">raw</text>
</g>
<!-- prose_6&#45;&gt;raw_21 -->
<g id="edge21" class="edge">
<title>prose_6&#45;&gt;raw_21</title>
<path fill="none" stroke="#000000" stroke-dasharray="5,2" d="M2628.2579,-684.2634C2619.7633,-681.397 2610.311,-678.442 2601.5,-676.201 2513.1214,-653.7229 2462.613,-706.025 2399.5,-640.201 2336.8178,-574.8264 2348.4815,-455.4801 2357.7946,-401.5568"/>
<polygon fill="#000000" stroke="#000000" points="2361.2447,-402.1467 2359.6032,-391.6798 2354.3592,-400.8859 2361.2447,-402.1467"/>
</g>
<!-- raw_23 -->
<g id="node24" class="node">
<title>raw_23</title>
<ellipse fill="none" stroke="#000000" cx="2435.5" cy="-373.8005" rx="27" ry="18"/>
<text text-anchor="middle" x="2435.5" y="-369.6005" font-family="Helvetica,sans-Serif" font-size="14.00" fill="#000000">raw</text>
</g>
<!-- prose_7&#45;&gt;raw_23 -->
<g id="edge23" class="edge">
<title>prose_7&#45;&gt;raw_23</title>
<path fill="none" stroke="#000000" stroke-dasharray="5,2" d="M2717.468,-683.1323C2710.7291,-680.5724 2703.42,-678.0582 2696.5,-676.201 2647.5947,-663.0758 2506.8667,-676.439 2471.5,-640.201 2408.2413,-575.384 2420.2026,-455.7499 2429.6934,-401.6547"/>
<polygon fill="#000000" stroke="#000000" points="2433.1489,-402.2165 2431.5356,-391.7452 2426.2668,-400.937 2433.1489,-402.2165"/>
</g>
<!-- prespace_24 -->
<g id="node25" class="node">
<title>prespace_24</title>
<ellipse fill="none" stroke="#000000" cx="2526.5" cy="-373.8005" rx="46.4736" ry="18"/>
<text text-anchor="middle" x="2526.5" y="-369.6005" font-family="Helvetica,sans-Serif" font-size="14.00" fill="#000000">prespace</text>
</g>
<!-- prose_7&#45;&gt;prespace_24 -->
<g id="edge24" class="edge">
<title>prose_7&#45;&gt;prespace_24</title>
<path fill="none" stroke="#000000" stroke-dasharray="5,2" d="M2716.759,-683.6421C2710.1644,-681.1262 2703.0997,-678.5045 2696.5,-676.201 2646.3349,-658.6918 2618.1719,-679.5791 2582.5,-640.201 2521.35,-572.6978 2520.5327,-455.8501 2523.8647,-402.2101"/>
<polygon fill="#000000" stroke="#000000" points="2527.3682,-402.2858 2524.594,-392.0606 2520.3862,-401.784 2527.3682,-402.2858"/>
</g>
<!-- literal_25 -->
<g id="node26" class="node">
<title>literal_25</title>
<ellipse fill="none" stroke="#000000" cx="2622.5" cy="-373.8005" rx="31.481" ry="18"/>
<text text-anchor="middle" x="2622.5" y="-369.6005" font-family="Helvetica,sans-Serif" font-size="14.00" fill="#000000">literal</text>
</g>
<!-- prose_7&#45;&gt;literal_25 -->
<g id="edge25" class="edge">
<title>prose_7&#45;&gt;literal_25</title>
<path fill="none" stroke="#000000" stroke-dasharray="5,2" d="M2717.2735,-683.6647C2698.8827,-674.8578 2675.3682,-660.4589 2662.5,-640.201 2614.6235,-564.8311 2615.9102,-453.711 2619.6585,-402.0843"/>
<polygon fill="#000000" stroke="#000000" points="2623.156,-402.256 2620.4789,-392.005 2616.1791,-401.688 2623.156,-402.256"/>
</g>
<!-- raw_26 -->
<g id="node27" class="node">
<title>raw_26</title>
<ellipse fill="none" stroke="#000000" cx="2698.5" cy="-373.8005" rx="27" ry="18"/>
<text text-anchor="middle" x="2698.5" y="-369.6005" font-family="Helvetica,sans-Serif" font-size="14.00" fill="#000000">raw</text>
</g>
<!-- prose_7&#45;&gt;raw_26 -->
<g id="edge26" class="edge">
<title>prose_7&#45;&gt;raw_26</title>
<path fill="none" stroke="#000000" stroke-dasharray="5,2" d="M2740.3611,-676.2231C2738.5648,-665.7304 2736.3148,-652.2304 2734.5,-640.201 2721.4254,-553.536 2708.1602,-450.6615 2702.0201,-401.9975"/>
<polygon fill="#000000" stroke="#000000" points="2705.4729,-401.4019 2700.7524,-391.9168 2698.5276,-402.2753 2705.4729,-401.4019"/>
</g>
<!-- prespace_27 -->
<g id="node28" class="node">
<title>prespace_27</title>
<ellipse fill="none" stroke="#000000" cx="2789.5" cy="-373.8005" rx="46.4736" ry="18"/>
<text text-anchor="middle" x="2789.5" y="-369.6005" font-family="Helvetica,sans-Serif" font-size="14.00" fill="#000000">prespace</text>
</g>
<!-- prose_7&#45;&gt;prespace_27 -->
<g id="edge27" class="edge">
<title>prose_7&#45;&gt;prespace_27</title>
<path fill="none" stroke="#000000" stroke-dasharray="5,2" d="M2746.105,-676.0569C2753.7407,-622.8721 2776.1127,-467.0461 2785.3928,-402.4079"/>
<polygon fill="#000000" stroke="#000000" points="2788.9099,-402.5387 2786.8666,-392.1428 2781.9809,-401.5439 2788.9099,-402.5387"/>
</g>
<!-- literal_28 -->
<g id="node29" class="node">
<title>literal_28</title>
<ellipse fill="none" stroke="#000000" cx="2885.5" cy="-373.8005" rx="31.481" ry="18"/>
<text text-anchor="middle" x="2885.5" y="-369.6005" font-family="Helvetica,sans-Serif" font-size="14.00" fill="#000000">literal</text>
</g>
<!-- prose_7&#45;&gt;literal_28 -->
<g id="edge28" class="edge">
<title>prose_7&#45;&gt;literal_28</title>
<path fill="none" stroke="#000000" stroke-dasharray="5,2" d="M2772.7093,-686.4568C2795.9708,-678.7043 2827.3763,-664.3777 2844.5,-640.201 2896.2637,-567.117 2893.5453,-454.4143 2888.8755,-402.1787"/>
<polygon fill="#000000" stroke="#000000" points="2892.3348,-401.5933 2887.8683,-391.986 2885.3687,-402.2818 2892.3348,-401.5933"/>
</g>
<!-- raw_29 -->
<g id="node30" class="node">
<title>raw_29</title>
<ellipse fill="none" stroke="#000000" cx="2961.5" cy="-373.8005" rx="27" ry="18"/>
<text text-anchor="middle" x="2961.5" y="-369.6005" font-family="Helvetica,sans-Serif" font-size="14.00" fill="#000000">raw</text>
</g>
<!-- prose_7&#45;&gt;raw_29 -->
<g id="edge29" class="edge">
<title>prose_7&#45;&gt;raw_29</title>
<path fill="none" stroke="#000000" stroke-dasharray="5,2" d="M2774.6713,-689.1193C2821.3084,-680.8567 2905.8804,-663.1036 2925.5,-640.201 2984.0159,-571.8935 2974.8303,-455.4525 2966.7142,-402.0627"/>
<polygon fill="#000000" stroke="#000000" points="2970.1318,-401.2721 2965.0745,-391.9622 2963.2223,-402.3939 2970.1318,-401.2721"/>
</g>
<!-- raw_37 -->
<g id="node38" class="node">
<title>raw_37</title>
<ellipse fill="none" stroke="#000000" cx="3033.5" cy="-373.8005" rx="27" ry="18"/>
<text text-anchor="middle" x="3033.5" y="-369.6005" font-family="Helvetica,sans-Serif" font-size="14.00" fill="#000000">raw</text>
</g>
<!-- prose_8&#45;&gt;raw_37 -->
<g id="edge37" class="edge">
<title>prose_8&#45;&gt;raw_37</title>
<path fill="none" stroke="#000000" stroke-dasharray="5,2" d="M2982.2215,-676.7216C2987.5454,-666.3951 2993.7954,-652.8951 2997.5,-640.201 3022.1148,-555.8568 3029.9954,-451.4937 3032.4425,-402.1696"/>
<polygon fill="#000000" stroke="#000000" points="3035.949,-402.1048 3032.9094,-391.9553 3028.9563,-401.7851 3035.949,-402.1048"/>
</g>
<!-- raw_39 -->
<g id="node40" class="node">
<title>raw_39</title>
<ellipse fill="none" stroke="#000000" cx="3105.5" cy="-373.8005" rx="27" ry="18"/>
<text text-anchor="middle" x="3105.5" y="-369.6005" font-family="Helvetica,sans-Serif" font-size="14.00" fill="#000000">raw</text>
</g>
<!-- prose_9&#45;&gt;raw_39 -->
<g id="edge39" class="edge">
<title>prose_9&#45;&gt;raw_39</title>
<path fill="none" stroke="#000000" stroke-dasharray="5,2" d="M3176.4046,-680.0211C3164.2247,-670.2767 3149.5319,-656.2329 3141.5,-640.201 3101.8664,-561.092 3101.192,-453.046 3103.5094,-402.3117"/>
<polygon fill="#000000" stroke="#000000" points="3107.0162,-402.2757 3104.0536,-392.1035 3100.0261,-401.903 3107.0162,-402.2757"/>
</g>
<!-- prespace_40 -->
<g id="node41" class="node">
<title>prespace_40</title>
<ellipse fill="none" stroke="#000000" cx="3196.5" cy="-373.8005" rx="46.4736" ry="18"/>
<text text-anchor="middle" x="3196.5" y="-369.6005" font-family="Helvetica,sans-Serif" font-size="14.00" fill="#000000">prespace</text>
</g>
<!-- prose_9&#45;&gt;prespace_40 -->
<g id="edge40" class="edge">
<title>prose_9&#45;&gt;prespace_40</title>
<path fill="none" stroke="#000000" stroke-dasharray="5,2" d="M3196.5,-676.0569C3196.5,-622.8721 3196.5,-467.0461 3196.5,-402.4079"/>
<polygon fill="#000000" stroke="#000000" points="3200.0001,-402.1428 3196.5,-392.1428 3193.0001,-402.1428 3200.0001,-402.1428"/>
</g>
<!-- literal_41 -->
<g id="node42" class="node">
<title>literal_41</title>
<ellipse fill="none" stroke="#000000" cx="3292.5" cy="-373.8005" rx="31.481" ry="18"/>
<text text-anchor="middle" x="3292.5" y="-369.6005" font-family="Helvetica,sans-Serif" font-size="14.00" fill="#000000">literal</text>
</g>
<!-- prose_9&#45;&gt;literal_41 -->
<g id="edge41" class="edge">
<title>prose_9&#45;&gt;literal_41</title>
<path fill="none" stroke="#000000" stroke-dasharray="5,2" d="M3216.4952,-679.9704C3228.6351,-670.2057 3243.321,-656.1584 3251.5,-640.201 3292.0659,-561.0561 3294.997,-452.5966 3293.8152,-401.9703"/>
<polygon fill="#000000" stroke="#000000" points="3297.3081,-401.6822 3293.5019,-391.7947 3290.3114,-401.8977 3297.3081,-401.6822"/>
</g>
<!-- raw_42 -->
<g id="node43" class="node">
<title>raw_42</title>
<ellipse fill="none" stroke="#000000" cx="3368.5" cy="-373.8005" rx="27" ry="18"/>
<text text-anchor="middle" x="3368.5" y="-369.6005" font-family="Helvetica,sans-Serif" font-size="14.00" fill="#000000">raw</text>
</g>
<!-- prose_9&#45;&gt;raw_42 -->
<g id="edge42" class="edge">
<title>prose_9&#45;&gt;raw_42</title>
<path fill="none" stroke="#000000" stroke-dasharray="5,2" d="M3228.378,-690.7228C3260.0114,-685.4737 3307.3077,-672.4225 3332.5,-640.201 3387.7657,-569.5151 3380.3266,-454.7504 3373.1952,-401.9794"/>
<polygon fill="#000000" stroke="#000000" points="3376.6456,-401.384 3371.7463,-391.99 3369.7181,-402.3889 3376.6456,-401.384"/>
</g>
<!-- leaf_47 -->
<g id="node48" class="node">
<title>leaf_47</title>
<polygon fill="none" stroke="#c0c0c0" points="3975.5,-640.1016 3413.5,-640.1016 3413.5,-107.4995 3975.5,-107.4995 3975.5,-640.1016"/>
<text text-anchor="middle" x="3694.5" y="-625.001" font-family="Inconsolata" font-size="14.00" fill="#000000">local uv = require &quot;luv&quot;</text>
<text text-anchor="middle" x="3694.5" y="-593.601" font-family="Inconsolata" font-size="14.00" fill="#000000">local function __gc(fse)</text>
<text text-anchor="middle" x="3694.5" y="-578.201" font-family="Inconsolata" font-size="14.00" fill="#000000"> &#160;&#160;print &quot;Collected, stopping event&quot;</text>
<text text-anchor="middle" x="3694.5" y="-562.8009" font-family="Inconsolata" font-size="14.00" fill="#000000"> &#160;&#160;uv.fs_event_stop(fse)</text>
<text text-anchor="middle" x="3694.5" y="-547.4009" font-family="Inconsolata" font-size="14.00" fill="#000000">end</text>
<text text-anchor="middle" x="3694.5" y="-532.0009" font-family="Inconsolata" font-size="14.00" fill="#000000">fse_MT = {__gc = __gc}</text>
<text text-anchor="middle" x="3694.5" y="-500.6008" font-family="Inconsolata" font-size="14.00" fill="#000000">local function watch(watcher, dir, recur)</text>
<text text-anchor="middle" x="3694.5" y="-485.2008" font-family="Inconsolata" font-size="14.00" fill="#000000"> &#160;&#160;&#160;watcher.dir = dir</text>
<text text-anchor="middle" x="3694.5" y="-469.8008" font-family="Inconsolata" font-size="14.00" fill="#000000"> &#160;&#160;&#160;if recur == nil then</text>
<text text-anchor="middle" x="3694.5" y="-454.4007" font-family="Inconsolata" font-size="14.00" fill="#000000"> &#160;&#160;&#160;&#160;&#160;&#160;&#160;recur = true</text>
<text text-anchor="middle" x="3694.5" y="-439.0007" font-family="Inconsolata" font-size="14.00" fill="#000000"> &#160;&#160;&#160;end</text>
<text text-anchor="middle" x="3694.5" y="-423.6007" font-family="Inconsolata" font-size="14.00" fill="#000000"> &#160;&#160;&#160;local fse = uv.new_fs_event()</text>
<text text-anchor="middle" x="3694.5" y="-408.2007" font-family="Inconsolata" font-size="14.00" fill="#000000"> &#160;&#160;&#160;setmetatable(fse, fse_MT)</text>
<text text-anchor="middle" x="3694.5" y="-392.8006" font-family="Inconsolata" font-size="14.00" fill="#000000"> &#160;&#160;&#160;watcher.fse = fse</text>
<text text-anchor="middle" x="3694.5" y="-377.4006" font-family="Inconsolata" font-size="14.00" fill="#000000"> &#160;&#160;&#160;uv.fs_event_start(fse, dir,{recursive = recur},function (err,fname,status)</text>
<text text-anchor="middle" x="3694.5" y="-362.0006" font-family="Inconsolata" font-size="14.00" fill="#000000"> &#160;&#160;&#160;&#160;&#160;&#160;&#160;if(err) then</text>
<text text-anchor="middle" x="3694.5" y="-346.6005" font-family="Inconsolata" font-size="14.00" fill="#000000"> &#160;&#160;&#160;&#160;&#160;&#160;&#160;&#160;&#160;&#160;&#160;print(&quot;Error &quot;..err)</text>
<text text-anchor="middle" x="3694.5" y="-331.2005" font-family="Inconsolata" font-size="14.00" fill="#000000"> &#160;&#160;&#160;&#160;&#160;&#160;&#160;else</text>
<text text-anchor="middle" x="3694.5" y="-315.8005" font-family="Inconsolata" font-size="14.00" fill="#000000"> &#160;&#160;&#160;&#160;&#160;&#160;&#160;&#160;&#160;&#160;&#160;local ev = nil</text>
<text text-anchor="middle" x="3694.5" y="-300.4004" font-family="Inconsolata" font-size="14.00" fill="#000000"> &#160;&#160;&#160;&#160;&#160;&#160;&#160;&#160;&#160;&#160;&#160;for k,v in pairs(status) do</text>
<text text-anchor="middle" x="3694.5" y="-285.0004" font-family="Inconsolata" font-size="14.00" fill="#000000"> &#160;&#160;&#160;&#160;&#160;&#160;&#160;&#160;&#160;&#160;&#160;&#160;&#160;&#160;&#160;ev = k</text>
<text text-anchor="middle" x="3694.5" y="-269.6004" font-family="Inconsolata" font-size="14.00" fill="#000000"> &#160;&#160;&#160;&#160;&#160;&#160;&#160;&#160;&#160;&#160;&#160;end</text>
<text text-anchor="middle" x="3694.5" y="-254.2003" font-family="Inconsolata" font-size="14.00" fill="#000000"> &#160;&#160;&#160;&#160;&#160;&#160;&#160;&#160;&#160;&#160;&#160;if ev == &quot;change&quot; then</text>
<text text-anchor="middle" x="3694.5" y="-238.8003" font-family="Inconsolata" font-size="14.00" fill="#000000"> &#160;&#160;&#160;&#160;&#160;&#160;&#160;&#160;&#160;&#160;&#160;&#160;&#160;&#160;watcher:onchange(fname)</text>
<text text-anchor="middle" x="3694.5" y="-223.4003" font-family="Inconsolata" font-size="14.00" fill="#000000"> &#160;&#160;&#160;&#160;&#160;&#160;&#160;&#160;&#160;&#160;&#160;elseif ev == &quot;rename&quot; then</text>
<text text-anchor="middle" x="3694.5" y="-208.0002" font-family="Inconsolata" font-size="14.00" fill="#000000"> &#160;&#160;&#160;&#160;&#160;&#160;&#160;&#160;&#160;&#160;&#160;&#160;&#160;&#160;watcher:onrename(fname)</text>
<text text-anchor="middle" x="3694.5" y="-192.6002" font-family="Inconsolata" font-size="14.00" fill="#000000"> &#160;&#160;&#160;&#160;&#160;&#160;&#160;&#160;&#160;&#160;&#160;else</text>
<text text-anchor="middle" x="3694.5" y="-177.2002" font-family="Inconsolata" font-size="14.00" fill="#000000"> &#160;&#160;&#160;&#160;&#160;&#160;&#160;&#160;&#160;&#160;&#160;&#160;&#160;&#160;print(&quot;Unrecognized event in watch(&quot; .. dir .. &quot;): &quot; ..ev)</text>
<text text-anchor="middle" x="3694.5" y="-161.8002" font-family="Inconsolata" font-size="14.00" fill="#000000"> &#160;&#160;&#160;&#160;&#160;&#160;&#160;&#160;&#160;&#160;&#160;end</text>
<text text-anchor="middle" x="3694.5" y="-146.4001" font-family="Inconsolata" font-size="14.00" fill="#000000"> &#160;&#160;&#160;&#160;&#160;&#160;&#160;end</text>
<text text-anchor="middle" x="3694.5" y="-131.0001" font-family="Inconsolata" font-size="14.00" fill="#000000"> &#160;&#160;&#160;end)</text>
<text text-anchor="middle" x="3694.5" y="-115.6001" font-family="Inconsolata" font-size="14.00" fill="#000000">end</text>
</g>
<!-- codeblock_10&#45;&gt;leaf_47 -->
<g id="edge47" class="edge">
<title>codeblock_10&#45;&gt;leaf_47</title>
<path fill="none" stroke="#000000" stroke-dasharray="5,2" d="M3519.9765,-676.0569C3524.1682,-668.7972 3529.4643,-659.625 3535.5799,-649.0334"/>
<polygon fill="#000000" stroke="#000000" points="3538.6854,-650.6545 3540.6548,-640.2443 3532.6233,-647.1542 3538.6854,-650.6545"/>
</g>
<!-- leaf_48 -->
<g id="node49" class="node">
<title>leaf_48</title>
<polygon fill="none" stroke="#c0c0c0" points="4233.5,-401.001 3993.5,-401.001 3993.5,-346.6001 4233.5,-346.6001 4233.5,-401.001"/>
<text text-anchor="middle" x="4113.5" y="-385.7006" font-family="Inconsolata" font-size="14.00" fill="#000000">local function stop(watcher)</text>
<text text-anchor="middle" x="4113.5" y="-370.3005" font-family="Inconsolata" font-size="14.00" fill="#000000"> &#160;&#160;uv.fs_event_stop(watcher.fse)</text>
<text text-anchor="middle" x="4113.5" y="-354.9005" font-family="Inconsolata" font-size="14.00" fill="#000000">end</text>
</g>
<!-- codeblock_11&#45;&gt;leaf_48 -->
<g id="edge48" class="edge">
<title>codeblock_11&#45;&gt;leaf_48</title>
<path fill="none" stroke="#000000" stroke-dasharray="5,2" d="M3932.9859,-678.0945C3950.2159,-668.9089 3970.2243,-656.0529 3984.5,-640.201 4046.8185,-571.0019 4085.5509,-466.2772 4102.8614,-411.0002"/>
<polygon fill="#000000" stroke="#000000" points="4106.2584,-411.8607 4105.8453,-401.2739 4099.5662,-409.8076 4106.2584,-411.8607"/>
</g>
<!-- leaf_49 -->
<g id="node50" class="node">
<title>leaf_49</title>
<polygon fill="none" stroke="#c0c0c0" points="4667,-478.7013 4252,-478.7013 4252,-268.8998 4667,-268.8998 4667,-478.7013"/>
<text text-anchor="middle" x="4459.5" y="-463.3007" font-family="Inconsolata" font-size="14.00" fill="#000000">local _W = {__call = watch}</text>
<text text-anchor="middle" x="4459.5" y="-447.9007" font-family="Inconsolata" font-size="14.00" fill="#000000">_W.__index = _W</text>
<text text-anchor="middle" x="4459.5" y="-416.5006" font-family="Inconsolata" font-size="14.00" fill="#000000">local function Watcher(handlers)</text>
<text text-anchor="middle" x="4459.5" y="-401.1006" font-family="Inconsolata" font-size="14.00" fill="#000000"> &#160;&#160;handlers = handlers or {}</text>
<text text-anchor="middle" x="4459.5" y="-385.7006" font-family="Inconsolata" font-size="14.00" fill="#000000"> &#160;&#160;local watcher = {}</text>
<text text-anchor="middle" x="4459.5" y="-370.3005" font-family="Inconsolata" font-size="14.00" fill="#000000"> &#160;&#160;watcher.onchange = handlers.onchange or function() end</text>
<text text-anchor="middle" x="4459.5" y="-354.9005" font-family="Inconsolata" font-size="14.00" fill="#000000"> &#160;&#160;watcher.onrename = handlers.onrename or function() end</text>
<text text-anchor="middle" x="4459.5" y="-339.5005" font-family="Inconsolata" font-size="14.00" fill="#000000"> &#160;&#160;watcher.stop = stop</text>
<text text-anchor="middle" x="4459.5" y="-324.1005" font-family="Inconsolata" font-size="14.00" fill="#000000"> &#160;&#160;return setmetatable(watcher, _W)</text>
<text text-anchor="middle" x="4459.5" y="-308.7004" font-family="Inconsolata" font-size="14.00" fill="#000000">end</text>
<text text-anchor="middle" x="4459.5" y="-277.3004" font-family="Inconsolata" font-size="14.00" fill="#000000">_W.idEst = _W</text>
</g>
<!-- codeblock_12&#45;&gt;leaf_49 -->
<g id="edge49" class="edge">
<title>codeblock_12&#45;&gt;leaf_49</title>
<path fill="none" stroke="#000000" stroke-dasharray="5,2" d="M4275.5428,-676.0569C4297.4084,-640.1299 4347.7797,-557.3659 4390.2935,-487.5124"/>
<polygon fill="#000000" stroke="#000000" points="4393.4932,-488.987 4395.7024,-478.625 4387.5136,-485.3477 4393.4932,-488.987"/>
</g>
<!-- leaf_50 -->
<g id="node51" class="node">
<title>leaf_50</title>
<polygon fill="none" stroke="#c0c0c0" points="4799.5,-391.8005 4685.5,-391.8005 4685.5,-355.8005 4799.5,-355.8005 4799.5,-391.8005"/>
<text text-anchor="middle" x="4742.5" y="-370.3005" font-family="Inconsolata" font-size="14.00" fill="#000000">return Watcher</text>
</g>
<!-- codeblock_13&#45;&gt;leaf_50 -->
<g id="edge50" class="edge">
<title>codeblock_13&#45;&gt;leaf_50</title>
<path fill="none" stroke="#000000" stroke-dasharray="5,2" d="M4628.2127,-678.3754C4645.3657,-669.5255 4664.3663,-656.8749 4676.5,-640.201 4730.1578,-566.4655 4740.4742,-454.0855 4742.2636,-402.0542"/>
<polygon fill="#000000" stroke="#000000" points="4745.7664,-401.9909 4742.5286,-391.9029 4738.7688,-401.8082 4745.7664,-401.9909"/>
</g>
<!-- leaf_16 -->
<g id="node17" class="node">
<title>leaf_16</title>
<polygon fill="none" stroke="#c0c0c0" points="499,-71.6012 0,-71.6012 0,.2011 499,.2011 499,-71.6012"/>
<text text-anchor="middle" x="249.5" y="-8.2" font-family="Inconsolata" font-size="14.00" fill="#000000">Actual, re&#45;entrant event response is inherently similar to callbacks.</text>
</g>
<!-- raw_15&#45;&gt;leaf_16 -->
<g id="edge16" class="edge">
<title>raw_15&#45;&gt;leaf_16</title>
<path fill="none" stroke="#000000" stroke-dasharray="5,2" d="M2151.8099,-355.6771C2162.2235,-306.8389 2182.853,-171.8418 2110.5,-107.4 2078.3647,-78.7785 652.4551,-75.1636 509.3775,-71.0587"/>
<polygon fill="#000000" stroke="#000000" points="509.4224,-67.5576 499.2837,-70.633 509.1273,-74.5513 509.4224,-67.5576"/>
</g>
<!-- leaf_18 -->
<g id="node19" class="node">
<title>leaf_18</title>
<polygon fill="none" stroke="#c0c0c0" points="995.5,-55.6021 517.5,-55.6021 517.5,-15.7979 995.5,-15.7979 995.5,-55.6021"/>
<text text-anchor="middle" x="756.5" y="-24.2" font-family="Inconsolata" font-size="14.00" fill="#000000">First&#45;class continuations are arguably the best way to model this.</text>
</g>
<!-- raw_17&#45;&gt;leaf_18 -->
<g id="edge18" class="edge">
<title>raw_17&#45;&gt;leaf_18</title>
<path fill="none" stroke="#000000" stroke-dasharray="5,2" d="M2223.8592,-355.7192C2234.4089,-306.987 2255.4371,-172.2327 2183.5,-107.4 2134.8216,-63.5291 1069.7841,-77.0775 1004.5,-71.4 965.4153,-68.001 923.0884,-62.5659 884.6551,-56.9512"/>
<polygon fill="#000000" stroke="#000000" points="884.8543,-53.4428 874.4501,-55.4431 883.8309,-60.3675 884.8543,-53.4428"/>
</g>
<!-- leaf_20 -->
<g id="node21" class="node">
<title>leaf_20</title>
<polygon fill="none" stroke="#c0c0c0" points="1569,-70.9004 1014,-70.9004 1014,-.4996 1569,-.4996 1569,-70.9004"/>
<text text-anchor="middle" x="1291.5" y="-39.6001" font-family="Inconsolata" font-size="14.00" fill="#000000">Registered callbacks are a) usable from stock LuaJIT and b) more dynamic than</text>
<text text-anchor="middle" x="1291.5" y="-24.2" font-family="Inconsolata" font-size="14.00" fill="#000000">continuations. &#160;If you want that dynamicism with continuations, you can of</text>
<text text-anchor="middle" x="1291.5" y="-8.8" font-family="Inconsolata" font-size="14.00" fill="#000000">course have it, but you still have to write it.</text>
</g>
<!-- raw_19&#45;&gt;leaf_20 -->
<g id="edge20" class="edge">
<title>raw_19&#45;&gt;leaf_20</title>
<path fill="none" stroke="#000000" stroke-dasharray="5,2" d="M2295.7798,-355.8063C2306.1296,-307.2934 2326.6999,-173.0414 2255.5,-107.4 2202.0097,-58.0857 1690.3243,-76.6542 1579.3122,-71.2173"/>
<polygon fill="#000000" stroke="#000000" points="1579.2774,-67.7076 1569.0698,-70.5458 1578.8194,-74.6926 1579.2774,-67.7076"/>
</g>
<!-- leaf_22 -->
<g id="node23" class="node">
<title>leaf_22</title>
<polygon fill="none" stroke="#c0c0c0" points="2149.5,-55.6021 1587.5,-55.6021 1587.5,-15.7979 2149.5,-15.7979 2149.5,-55.6021"/>
<text text-anchor="middle" x="1868.5" y="-24.2" font-family="Inconsolata" font-size="14.00" fill="#000000">Since we do want to be able to update handlers, we don&#39;t need the extra layer.</text>
</g>
<!-- raw_21&#45;&gt;leaf_22 -->
<g id="edge22" class="edge">
<title>raw_21&#45;&gt;leaf_22</title>
<path fill="none" stroke="#000000" stroke-dasharray="5,2" d="M2367.4784,-355.8421C2376.9172,-307.9982 2395.1036,-176.4133 2327.5,-107.4 2316.9047,-96.5838 2160.7713,-73.782 2033.5067,-56.7798"/>
<polygon fill="#000000" stroke="#000000" points="2033.6088,-53.2626 2023.2342,-55.4116 2032.6846,-60.2013 2033.6088,-53.2626"/>
</g>
<!-- leaf_30 -->
<g id="node31" class="node">
<title>leaf_30</title>
<polygon fill="none" stroke="#c0c0c0" points="2387,-55.6021 2168,-55.6021 2168,-15.7979 2387,-15.7979 2387,-55.6021"/>
<text text-anchor="middle" x="2277.5" y="-24.2" font-family="Inconsolata" font-size="14.00" fill="#000000">To set up a watcher, register</text>
</g>
<!-- raw_23&#45;&gt;leaf_30 -->
<g id="edge30" class="edge">
<title>raw_23&#45;&gt;leaf_30</title>
<path fill="none" stroke="#000000" stroke-dasharray="5,2" d="M2438.0913,-355.7796C2443.6952,-309.9709 2452.4823,-187.0648 2399.5,-107.4 2385.7505,-86.7261 2363.8435,-71.201 2342.3626,-59.9815"/>
<polygon fill="#000000" stroke="#000000" points="2343.7207,-56.7481 2333.2076,-55.4343 2340.6067,-63.0174 2343.7207,-56.7481"/>
</g>
<!-- leaf_31 -->
<g id="node32" class="node">
<title>leaf_31</title>
<polygon fill="none" stroke="#c0c0c0" points="2459.5,-53.7 2405.5,-53.7 2405.5,-17.7 2459.5,-17.7 2459.5,-53.7"/>
<text text-anchor="middle" x="2432.5" y="-32.2" font-family="Inconsolata" font-size="14.00" fill="#000000"> </text>
</g>
<!-- prespace_24&#45;&gt;leaf_31 -->
<g id="edge31" class="edge">
<title>prespace_24&#45;&gt;leaf_31</title>
<path fill="none" stroke="#000000" stroke-dasharray="5,2" d="M2524.6046,-355.5254C2519.653,-311.6239 2504.3713,-197.2047 2471.5,-107.4 2465.8561,-91.9808 2457.3311,-75.8303 2449.6896,-62.7696"/>
<polygon fill="#000000" stroke="#000000" points="2452.4864,-60.6285 2444.3353,-53.8601 2446.4864,-64.2343 2452.4864,-60.6285"/>
</g>
<!-- leaf_32 -->
<g id="node33" class="node">
<title>leaf_32</title>
<polygon fill="none" stroke="#c0c0c0" points="2655,-53.7 2478,-53.7 2478,-17.7 2655,-17.7 2655,-53.7"/>
<text text-anchor="middle" x="2566.5" y="-32.2" font-family="Inconsolata" font-size="14.00" fill="#000000">watcher:onchange(fname)</text>
</g>
<!-- literal_25&#45;&gt;leaf_32 -->
<g id="edge32" class="edge">
<title>literal_25&#45;&gt;leaf_32</title>
<path fill="none" stroke="#000000" stroke-dasharray="5,2" d="M2620.0491,-355.6559C2614.1458,-312.5035 2598.3733,-200.407 2581.5,-107.4 2578.8847,-92.9845 2575.5856,-77.0233 2572.7477,-63.8268"/>
<polygon fill="#000000" stroke="#000000" points="2576.1381,-62.9462 2570.5926,-53.9186 2569.298,-64.434 2576.1381,-62.9462"/>
</g>
<!-- leaf_33 -->
<g id="node34" class="node">
<title>leaf_33</title>
<polygon fill="none" stroke="#c0c0c0" points="2738,-53.7 2673,-53.7 2673,-17.7 2738,-17.7 2738,-53.7"/>
<text text-anchor="middle" x="2705.5" y="-32.2" font-family="Inconsolata" font-size="14.00" fill="#000000"> and/or</text>
</g>
<!-- raw_26&#45;&gt;leaf_33 -->
<g id="edge33" class="edge">
<title>raw_26&#45;&gt;leaf_33</title>
<path fill="none" stroke="#000000" stroke-dasharray="5,2" d="M2698.8764,-355.6228C2700.0277,-300.0132 2703.5089,-131.8706 2704.9082,-64.2837"/>
<polygon fill="#000000" stroke="#000000" points="2708.4139,-64.038 2705.1218,-53.9676 2701.4154,-63.893 2708.4139,-64.038"/>
</g>
<!-- leaf_34 -->
<g id="node35" class="node">
<title>leaf_34</title>
<polygon fill="none" stroke="#c0c0c0" points="2810.5,-53.7 2756.5,-53.7 2756.5,-17.7 2810.5,-17.7 2810.5,-53.7"/>
</g>
<!-- prespace_27&#45;&gt;leaf_34 -->
<g id="edge34" class="edge">
<title>prespace_27&#45;&gt;leaf_34</title>
<path fill="none" stroke="#000000" stroke-dasharray="5,2" d="M2789.1774,-355.6228C2788.1906,-300.0132 2785.2067,-131.8706 2784.0073,-64.2837"/>
<polygon fill="#000000" stroke="#000000" points="2787.5012,-63.9039 2783.8242,-53.9676 2780.5023,-64.0282 2787.5012,-63.9039"/>
</g>
<!-- leaf_35 -->
<g id="node36" class="node">
<title>leaf_35</title>
<polygon fill="none" stroke="#c0c0c0" points="3006,-53.7 2829,-53.7 2829,-17.7 3006,-17.7 3006,-53.7"/>
<text text-anchor="middle" x="2917.5" y="-32.2" font-family="Inconsolata" font-size="14.00" fill="#000000">watcher:onrename(fname)</text>
</g>
<!-- literal_28&#45;&gt;leaf_35 -->
<g id="edge35" class="edge">
<title>literal_28&#45;&gt;leaf_35</title>
<path fill="none" stroke="#000000" stroke-dasharray="5,2" d="M2887.2205,-355.6228C2892.4837,-300.0132 2908.3978,-131.8706 2914.7947,-64.2837"/>
<polygon fill="#000000" stroke="#000000" points="2918.3131,-64.253 2915.771,-53.9676 2911.3443,-63.5933 2918.3131,-64.253"/>
</g>
<!-- leaf_36 -->
<g id="node37" class="node">
<title>leaf_36</title>
<polygon fill="none" stroke="#c0c0c0" points="3078.5,-53.7 3024.5,-53.7 3024.5,-17.7 3078.5,-17.7 3078.5,-53.7"/>
<text text-anchor="middle" x="3051.5" y="-32.2" font-family="Inconsolata" font-size="14.00" fill="#000000">.</text>
</g>
<!-- raw_29&#45;&gt;leaf_36 -->
<g id="edge36" class="edge">
<title>raw_29&#45;&gt;leaf_36</title>
<path fill="none" stroke="#000000" stroke-dasharray="5,2" d="M2960.8596,-355.5411C2959.952,-311.1968 2961.4881,-195.03 2997.5,-107.4 3004.3512,-90.7286 3016.0348,-74.4854 3026.7855,-61.6867"/>
<polygon fill="#000000" stroke="#000000" points="3029.724,-63.6421 3033.6553,-53.8037 3024.4467,-59.0431 3029.724,-63.6421"/>
</g>
<!-- leaf_38 -->
<g id="node39" class="node">
<title>leaf_38</title>
<polygon fill="none" stroke="#c0c0c0" points="3624,-55.6021 3097,-55.6021 3097,-15.7979 3624,-15.7979 3624,-55.6021"/>
<text text-anchor="middle" x="3360.5" y="-24.2" font-family="Inconsolata" font-size="14.00" fill="#000000">This can be done on creation, after creation, or after setting the watch.</text>
</g>
<!-- raw_37&#45;&gt;leaf_38 -->
<g id="edge38" class="edge">
<title>raw_37&#45;&gt;leaf_38</title>
<path fill="none" stroke="#000000" stroke-dasharray="5,2" d="M3029.7945,-355.8142C3021.1727,-308.4671 3005.1038,-179.1021 3069.5,-107.4 3089.1366,-85.5356 3148.1033,-69.0063 3207.8674,-57.361"/>
<polygon fill="#000000" stroke="#000000" points="3208.68,-60.7693 3217.8494,-55.4614 3207.3714,-53.8927 3208.68,-60.7693"/>
</g>
<!-- leaf_43 -->
<g id="node44" class="node">
<title>leaf_43</title>
<polygon fill="none" stroke="#c0c0c0" points="3812.5,-55.6021 3642.5,-55.6021 3642.5,-15.7979 3812.5,-15.7979 3812.5,-55.6021"/>
<text text-anchor="middle" x="3727.5" y="-24.2" font-family="Inconsolata" font-size="14.00" fill="#000000">To stop watching, call</text>
</g>
<!-- raw_39&#45;&gt;leaf_43 -->
<g id="edge43" class="edge">
<title>raw_39&#45;&gt;leaf_43</title>
<path fill="none" stroke="#000000" stroke-dasharray="5,2" d="M3101.2915,-355.8829C3091.1213,-307.5628 3070.9621,-173.7524 3141.5,-107.4 3181.3442,-69.9201 3579.073,-83.1414 3632.5,-71.4 3646.0705,-68.4177 3660.2951,-63.8851 3673.483,-59.0404"/>
<polygon fill="#000000" stroke="#000000" points="3674.7707,-62.2954 3682.8785,-55.4752 3672.2872,-55.7507 3674.7707,-62.2954"/>
</g>
<!-- leaf_44 -->
<g id="node45" class="node">
<title>leaf_44</title>
<polygon fill="none" stroke="#c0c0c0" points="3884.5,-53.7 3830.5,-53.7 3830.5,-17.7 3884.5,-17.7 3884.5,-53.7"/>
<text text-anchor="middle" x="3857.5" y="-32.2" font-family="Inconsolata" font-size="14.00" fill="#000000"> </text>
</g>
<!-- prespace_40&#45;&gt;leaf_44 -->
<g id="edge44" class="edge">
<title>prespace_40&#45;&gt;leaf_44</title>
<path fill="none" stroke="#000000" stroke-dasharray="5,2" d="M3193.7838,-355.6484C3187.612,-306.7378 3178.3476,-171.575 3252.5,-107.4 3348.3015,-24.4889 3705.928,-123.3165 3821.5,-71.4 3827.0552,-68.9046 3832.2372,-65.1504 3836.8419,-61.0001"/>
<polygon fill="#000000" stroke="#000000" points="3839.4393,-63.3518 3844.0104,-53.7938 3834.4765,-58.4151 3839.4393,-63.3518"/>
</g>
<!-- leaf_45 -->
<g id="node46" class="node">
<title>leaf_45</title>
<polygon fill="none" stroke="#c0c0c0" points="4016.5,-53.7 3902.5,-53.7 3902.5,-17.7 4016.5,-17.7 4016.5,-53.7"/>
<text text-anchor="middle" x="3959.5" y="-32.2" font-family="Inconsolata" font-size="14.00" fill="#000000">watcher:stop()</text>
</g>
<!-- literal_41&#45;&gt;leaf_45 -->
<g id="edge45" class="edge">
<title>literal_41&#45;&gt;leaf_45</title>
<path fill="none" stroke="#000000" stroke-dasharray="5,2" d="M3288.5671,-355.8067C3279.139,-307.2949 3261.027,-173.0452 3332.5,-107.4 3378.5026,-65.1484 3833.4703,-88.6592 3893.5,-71.4 3903.7468,-68.454 3914.1876,-63.7427 3923.651,-58.6961"/>
<polygon fill="#000000" stroke="#000000" points="3925.3734,-61.7431 3932.3865,-53.8015 3921.9517,-55.6363 3925.3734,-61.7431"/>
</g>
<!-- leaf_46 -->
<g id="node47" class="node">
<title>leaf_46</title>
<polygon fill="none" stroke="#c0c0c0" points="4088.5,-53.7 4034.5,-53.7 4034.5,-17.7 4088.5,-17.7 4088.5,-53.7"/>
<text text-anchor="middle" x="4061.5" y="-32.2" font-family="Inconsolata" font-size="14.00" fill="#000000">.</text>
</g>
<!-- raw_42&#45;&gt;leaf_46 -->
<g id="edge46" class="edge">
<title>raw_42&#45;&gt;leaf_46</title>
<path fill="none" stroke="#000000" stroke-dasharray="5,2" d="M3364.2371,-355.8246C3353.9299,-307.3578 3333.4572,-173.2114 3404.5,-107.4 3455.2034,-60.4302 3962.3787,-99.555 4025.5,-71.4 4031.0618,-68.9192 4036.2468,-65.1718 4040.8524,-61.0235"/>
<polygon fill="#000000" stroke="#000000" points="4043.45,-63.375 4048.0207,-53.8167 4038.487,-58.4385 4043.45,-63.375"/>
</g>
</g>
</svg>
