<?xml version="1.0" encoding="UTF-8" standalone="no"?>
<!DOCTYPE svg PUBLIC "-//W3C//DTD SVG 1.1//EN"
 "http://www.w3.org/Graphics/SVG/1.1/DTD/svg11.dtd">
<!-- Generated by graphviz version 2.40.1 (20161225.0304)
 -->
<!-- Title: lpegNode Pages: 1 -->
<svg width="5103pt" height="756pt"
 viewBox="0.00 0.00 5102.50 755.80" xmlns="http://www.w3.org/2000/svg" xmlns:xlink="http://www.w3.org/1999/xlink">
<g id="graph0" class="graph" transform="scale(1 1) rotate(0) translate(4 751.8008)">
<title>lpegNode</title>
<polygon fill="#ffffff" stroke="transparent" points="-4,4 -4,-751.8008 5098.5,-751.8008 5098.5,4 -4,4"/>
<!-- doc_0 -->
<g id="node1" class="node">
<title>doc_0</title>
<ellipse fill="none" stroke="#000000" cx="3122.5" cy="-729.8008" rx="42.1216" ry="18"/>
<text text-anchor="middle" x="3122.5" y="-725.6008" font-family="Helvetica,sans-Serif" font-size="14.00" fill="#000000">doc &#45; 76</text>
</g>
<!-- section_1 -->
<g id="node2" class="node">
<title>section_1</title>
<ellipse fill="none" stroke="#000000" cx="3122.5" cy="-657.8008" rx="60.9826" ry="18"/>
<text text-anchor="middle" x="3122.5" y="-653.6008" font-family="Helvetica,sans-Serif" font-size="14.00" fill="#000000">section: 1&#45;76</text>
</g>
<!-- doc_0&#45;&gt;section_1 -->
<g id="edge1" class="edge">
<title>doc_0&#45;&gt;section_1</title>
<path fill="none" stroke="#000000" stroke-dasharray="5,2" d="M3122.5,-711.6322C3122.5,-703.9318 3122.5,-694.7752 3122.5,-686.2175"/>
<polygon fill="#000000" stroke="#000000" points="3126.0001,-686.2141 3122.5,-676.2141 3119.0001,-686.2141 3126.0001,-686.2141"/>
</g>
<!-- header_2 -->
<g id="node3" class="node">
<title>header_2</title>
<ellipse fill="none" stroke="#000000" cx="2107.5" cy="-585.8008" rx="54.9955" ry="18"/>
<text text-anchor="middle" x="2107.5" y="-581.6008" font-family="Helvetica,sans-Serif" font-size="14.00" fill="#000000">1 : Watcher</text>
</g>
<!-- section_1&#45;&gt;header_2 -->
<g id="edge2" class="edge">
<title>section_1&#45;&gt;header_2</title>
<path fill="none" stroke="#000000" stroke-dasharray="5,2" d="M3063.1698,-653.5922C2884.9516,-640.9501 2355.3209,-603.3803 2171.3299,-590.3287"/>
<polygon fill="#000000" stroke="#000000" points="2171.4926,-586.8315 2161.2699,-589.6151 2170.9972,-593.814 2171.4926,-586.8315"/>
</g>
<!-- prose_3 -->
<g id="node4" class="node">
<title>prose_3</title>
<ellipse fill="none" stroke="#000000" cx="2407.5" cy="-585.8008" rx="32.4585" ry="18"/>
<text text-anchor="middle" x="2407.5" y="-581.6008" font-family="Helvetica,sans-Serif" font-size="14.00" fill="#000000">prose</text>
</g>
<!-- section_1&#45;&gt;prose_3 -->
<g id="edge3" class="edge">
<title>section_1&#45;&gt;prose_3</title>
<path fill="none" stroke="#000000" stroke-dasharray="5,2" d="M3063.8664,-653.0231C2959.5093,-644.3612 2734.7244,-624.989 2545.5,-603.8008 2513.0309,-600.1652 2476.3591,-595.3481 2448.984,-591.612"/>
<polygon fill="#000000" stroke="#000000" points="2449.3587,-588.1307 2438.9755,-590.2378 2448.4064,-595.0657 2449.3587,-588.1307"/>
</g>
<!-- prose_4 -->
<g id="node5" class="node">
<title>prose_4</title>
<ellipse fill="none" stroke="#000000" cx="2586.5" cy="-585.8008" rx="32.4585" ry="18"/>
<text text-anchor="middle" x="2586.5" y="-581.6008" font-family="Helvetica,sans-Serif" font-size="14.00" fill="#000000">prose</text>
</g>
<!-- section_1&#45;&gt;prose_4 -->
<g id="edge4" class="edge">
<title>section_1&#45;&gt;prose_4</title>
<path fill="none" stroke="#000000" stroke-dasharray="5,2" d="M3064.5675,-652.224C2979.3032,-643.6911 2815.1232,-626.0214 2676.5,-603.8008 2660.1088,-601.1734 2642.1536,-597.7035 2626.6218,-594.5119"/>
<polygon fill="#000000" stroke="#000000" points="2627.3098,-591.0801 2616.806,-592.4664 2625.8817,-597.9329 2627.3098,-591.0801"/>
</g>
<!-- prose_5 -->
<g id="node6" class="node">
<title>prose_5</title>
<ellipse fill="none" stroke="#000000" cx="2717.5" cy="-585.8008" rx="32.4585" ry="18"/>
<text text-anchor="middle" x="2717.5" y="-581.6008" font-family="Helvetica,sans-Serif" font-size="14.00" fill="#000000">prose</text>
</g>
<!-- section_1&#45;&gt;prose_5 -->
<g id="edge5" class="edge">
<title>section_1&#45;&gt;prose_5</title>
<path fill="none" stroke="#000000" stroke-dasharray="5,2" d="M3066.187,-650.8348C2998.4538,-642.0015 2881.4989,-625.2985 2782.5,-603.8008 2773.8643,-601.9256 2764.6713,-599.5917 2756,-597.2325"/>
<polygon fill="#000000" stroke="#000000" points="2756.6977,-593.7935 2746.125,-594.4773 2754.8165,-600.536 2756.6977,-593.7935"/>
</g>
<!-- prose_6 -->
<g id="node7" class="node">
<title>prose_6</title>
<ellipse fill="none" stroke="#000000" cx="2823.5" cy="-585.8008" rx="32.4585" ry="18"/>
<text text-anchor="middle" x="2823.5" y="-581.6008" font-family="Helvetica,sans-Serif" font-size="14.00" fill="#000000">prose</text>
</g>
<!-- section_1&#45;&gt;prose_6 -->
<g id="edge6" class="edge">
<title>section_1&#45;&gt;prose_6</title>
<path fill="none" stroke="#000000" stroke-dasharray="5,2" d="M3070.7325,-648.1792C3020.665,-638.4651 2942.8401,-622.2855 2876.5,-603.8008 2871.1759,-602.3174 2865.6015,-600.6046 2860.1508,-598.8377"/>
<polygon fill="#000000" stroke="#000000" points="2861.1476,-595.4806 2850.5539,-595.6364 2858.9326,-602.1209 2861.1476,-595.4806"/>
</g>
<!-- prose_7 -->
<g id="node8" class="node">
<title>prose_7</title>
<ellipse fill="none" stroke="#000000" cx="2917.5" cy="-585.8008" rx="32.4585" ry="18"/>
<text text-anchor="middle" x="2917.5" y="-581.6008" font-family="Helvetica,sans-Serif" font-size="14.00" fill="#000000">prose</text>
</g>
<!-- section_1&#45;&gt;prose_7 -->
<g id="edge7" class="edge">
<title>section_1&#45;&gt;prose_7</title>
<path fill="none" stroke="#000000" stroke-dasharray="5,2" d="M3082.9739,-643.9185C3045.8577,-630.8826 2990.7549,-611.5294 2954.4877,-598.7917"/>
<polygon fill="#000000" stroke="#000000" points="2955.3835,-595.3967 2944.7886,-595.3851 2953.0638,-602.0012 2955.3835,-595.3967"/>
</g>
<!-- prose_8 -->
<g id="node9" class="node">
<title>prose_8</title>
<ellipse fill="none" stroke="#000000" cx="3225.5" cy="-585.8008" rx="32.4585" ry="18"/>
<text text-anchor="middle" x="3225.5" y="-581.6008" font-family="Helvetica,sans-Serif" font-size="14.00" fill="#000000">prose</text>
</g>
<!-- section_1&#45;&gt;prose_8 -->
<g id="edge8" class="edge">
<title>section_1&#45;&gt;prose_8</title>
<path fill="none" stroke="#000000" stroke-dasharray="5,2" d="M3146.3892,-641.1016C3161.4319,-630.5863 3180.9368,-616.9518 3196.8152,-605.8524"/>
<polygon fill="#000000" stroke="#000000" points="3199.0212,-608.5807 3205.212,-599.9827 3195.0107,-602.8434 3199.0212,-608.5807"/>
</g>
<!-- prose_9 -->
<g id="node10" class="node">
<title>prose_9</title>
<ellipse fill="none" stroke="#000000" cx="3491.5" cy="-585.8008" rx="32.4585" ry="18"/>
<text text-anchor="middle" x="3491.5" y="-581.6008" font-family="Helvetica,sans-Serif" font-size="14.00" fill="#000000">prose</text>
</g>
<!-- section_1&#45;&gt;prose_9 -->
<g id="edge9" class="edge">
<title>section_1&#45;&gt;prose_9</title>
<path fill="none" stroke="#000000" stroke-dasharray="5,2" d="M3173.4205,-647.8651C3247.5138,-633.4079 3383.5553,-606.8632 3451.162,-593.6717"/>
<polygon fill="#000000" stroke="#000000" points="3451.8705,-597.0995 3461.0151,-591.7491 3450.5298,-590.2291 3451.8705,-597.0995"/>
</g>
<!-- codeblock_10 -->
<g id="node11" class="node">
<title>codeblock_10</title>
<ellipse fill="none" stroke="#000000" cx="3804.5" cy="-585.8008" rx="77.4211" ry="18"/>
<text text-anchor="middle" x="3804.5" y="-581.6008" font-family="Helvetica,sans-Serif" font-size="14.00" fill="#000000">code block 21&#45;49</text>
</g>
<!-- section_1&#45;&gt;codeblock_10 -->
<g id="edge10" class="edge">
<title>section_1&#45;&gt;codeblock_10</title>
<path fill="none" stroke="#000000" stroke-dasharray="5,2" d="M3179.7662,-651.7551C3301.0584,-638.9501 3584.1486,-609.0637 3723.7421,-594.3266"/>
<polygon fill="#000000" stroke="#000000" points="3724.3705,-597.7798 3733.9478,-593.2492 3723.6355,-590.8185 3724.3705,-597.7798"/>
</g>
<!-- codeblock_11 -->
<g id="node12" class="node">
<title>codeblock_11</title>
<ellipse fill="none" stroke="#000000" cx="4192.5" cy="-585.8008" rx="77.4211" ry="18"/>
<text text-anchor="middle" x="4192.5" y="-581.6008" font-family="Helvetica,sans-Serif" font-size="14.00" fill="#000000">code block 51&#45;55</text>
</g>
<!-- section_1&#45;&gt;codeblock_11 -->
<g id="edge11" class="edge">
<title>section_1&#45;&gt;codeblock_11</title>
<path fill="none" stroke="#000000" stroke-dasharray="5,2" d="M3181.9357,-653.8014C3361.4471,-641.7222 3898.5505,-605.5806 4107.7676,-591.5025"/>
<polygon fill="#000000" stroke="#000000" points="4108.0375,-594.9923 4117.7799,-590.8287 4107.5675,-588.0081 4108.0375,-594.9923"/>
</g>
<!-- codeblock_12 -->
<g id="node13" class="node">
<title>codeblock_12</title>
<ellipse fill="none" stroke="#000000" cx="4559.5" cy="-585.8008" rx="77.4211" ry="18"/>
<text text-anchor="middle" x="4559.5" y="-581.6008" font-family="Helvetica,sans-Serif" font-size="14.00" fill="#000000">code block 57&#45;71</text>
</g>
<!-- section_1&#45;&gt;codeblock_12 -->
<g id="edge12" class="edge">
<title>section_1&#45;&gt;codeblock_12</title>
<path fill="none" stroke="#000000" stroke-dasharray="5,2" d="M3182.6911,-655.3566C3354.0545,-648.3187 3859.2337,-627.0201 4278.5,-603.8008 4344.4382,-600.1491 4419.0349,-595.339 4474.7901,-591.6099"/>
<polygon fill="#000000" stroke="#000000" points="4475.2319,-595.0883 4484.9752,-590.9267 4474.7634,-588.104 4475.2319,-595.0883"/>
</g>
<!-- codeblock_13 -->
<g id="node14" class="node">
<title>codeblock_13</title>
<ellipse fill="none" stroke="#000000" cx="4884.5" cy="-585.8008" rx="77.4211" ry="18"/>
<text text-anchor="middle" x="4884.5" y="-581.6008" font-family="Helvetica,sans-Serif" font-size="14.00" fill="#000000">code block 73&#45;75</text>
</g>
<!-- section_1&#45;&gt;codeblock_13 -->
<g id="edge13" class="edge">
<title>section_1&#45;&gt;codeblock_13</title>
<path fill="none" stroke="#000000" stroke-dasharray="5,2" d="M3183.1182,-656.5168C3388.5433,-651.9806 4077.2014,-635.2636 4645.5,-603.8008 4697.355,-600.93 4755.4565,-596.5799 4801.388,-592.8754"/>
<polygon fill="#000000" stroke="#000000" points="4801.9087,-596.3447 4811.5926,-592.0469 4801.3421,-589.3677 4801.9087,-596.3447"/>
</g>
<!-- leaf_14 -->
<g id="node15" class="node">
<title>leaf_14</title>
<polygon fill="none" stroke="#c0c0c0" points="2134,-337.6004 2055,-337.6004 2055,-301.6004 2134,-301.6004 2134,-337.6004"/>
<text text-anchor="middle" x="2094.5" y="-316.1005" font-family="Inconsolata" font-size="14.00" fill="#000000">* Watcher</text>
</g>
<!-- header_2&#45;&gt;leaf_14 -->
<g id="edge14" class="edge">
<title>header_2&#45;&gt;leaf_14</title>
<path fill="none" stroke="#000000" stroke-dasharray="5,2" d="M2106.6065,-567.5038C2104.3746,-521.8025 2098.544,-402.4102 2095.8727,-347.71"/>
<polygon fill="#000000" stroke="#000000" points="2099.3663,-347.4909 2095.3826,-337.6735 2092.3746,-347.8324 2099.3663,-347.4909"/>
</g>
<!-- raw_15 -->
<g id="node16" class="node">
<title>raw_15</title>
<ellipse fill="none" stroke="#000000" cx="2179.5" cy="-319.6004" rx="27" ry="18"/>
<text text-anchor="middle" x="2179.5" y="-315.4004" font-family="Helvetica,sans-Serif" font-size="14.00" fill="#000000">raw</text>
</g>
<!-- prose_3&#45;&gt;raw_15 -->
<g id="edge15" class="edge">
<title>prose_3&#45;&gt;raw_15</title>
<path fill="none" stroke="#000000" stroke-dasharray="5,2" d="M2376.328,-581.14C2327.6474,-573.2127 2236.9154,-555.6184 2215.5,-531.8008 2169.3385,-480.4612 2171.0575,-392.6921 2175.5884,-347.8222"/>
<polygon fill="#000000" stroke="#000000" points="2179.0936,-347.973 2176.7412,-337.6426 2172.138,-347.1852 2179.0936,-347.973"/>
</g>
<!-- raw_17 -->
<g id="node18" class="node">
<title>raw_17</title>
<ellipse fill="none" stroke="#000000" cx="2251.5" cy="-319.6004" rx="27" ry="18"/>
<text text-anchor="middle" x="2251.5" y="-315.4004" font-family="Helvetica,sans-Serif" font-size="14.00" fill="#000000">raw</text>
</g>
<!-- prose_4&#45;&gt;raw_17 -->
<g id="edge17" class="edge">
<title>prose_4&#45;&gt;raw_17</title>
<path fill="none" stroke="#000000" stroke-dasharray="5,2" d="M2555.1233,-581.1226C2480.3092,-569.8357 2296.9375,-541.3392 2287.5,-531.8008 2238.7164,-482.4962 2241.7499,-393.1298 2247.1052,-347.7183"/>
<polygon fill="#000000" stroke="#000000" points="2250.5907,-348.0558 2248.4124,-337.6873 2243.6494,-347.1512 2250.5907,-348.0558"/>
</g>
<!-- raw_19 -->
<g id="node20" class="node">
<title>raw_19</title>
<ellipse fill="none" stroke="#000000" cx="2323.5" cy="-319.6004" rx="27" ry="18"/>
<text text-anchor="middle" x="2323.5" y="-315.4004" font-family="Helvetica,sans-Serif" font-size="14.00" fill="#000000">raw</text>
</g>
<!-- prose_5&#45;&gt;raw_19 -->
<g id="edge19" class="edge">
<title>prose_5&#45;&gt;raw_19</title>
<path fill="none" stroke="#000000" stroke-dasharray="5,2" d="M2687.1778,-579.2345C2669.7661,-575.59 2647.4603,-571.134 2627.5,-567.8008 2568.2302,-557.9034 2402.7174,-573.5515 2359.5,-531.8008 2309.4916,-483.4897 2313.1628,-393.2937 2318.8984,-347.6292"/>
<polygon fill="#000000" stroke="#000000" points="2322.3893,-347.9347 2320.291,-337.5498 2315.4552,-346.9766 2322.3893,-347.9347"/>
</g>
<!-- raw_21 -->
<g id="node22" class="node">
<title>raw_21</title>
<ellipse fill="none" stroke="#000000" cx="2395.5" cy="-319.6004" rx="27" ry="18"/>
<text text-anchor="middle" x="2395.5" y="-315.4004" font-family="Helvetica,sans-Serif" font-size="14.00" fill="#000000">raw</text>
</g>
<!-- prose_6&#45;&gt;raw_21 -->
<g id="edge21" class="edge">
<title>prose_6&#45;&gt;raw_21</title>
<path fill="none" stroke="#000000" stroke-dasharray="5,2" d="M2795.2577,-576.9165C2783.9279,-573.6325 2770.6889,-570.1438 2758.5,-567.8008 2686.7085,-554.0012 2484.6808,-581.9631 2431.5,-531.8008 2380.9184,-484.0902 2384.8497,-393.6217 2390.7701,-347.7636"/>
<polygon fill="#000000" stroke="#000000" points="2394.267,-348.0319 2392.2053,-337.6396 2387.3363,-347.0493 2394.267,-348.0319"/>
</g>
<!-- raw_23 -->
<g id="node24" class="node">
<title>raw_23</title>
<ellipse fill="none" stroke="#000000" cx="2467.5" cy="-319.6004" rx="27" ry="18"/>
<text text-anchor="middle" x="2467.5" y="-315.4004" font-family="Helvetica,sans-Serif" font-size="14.00" fill="#000000">raw</text>
</g>
<!-- prose_7&#45;&gt;raw_23 -->
<g id="edge23" class="edge">
<title>prose_7&#45;&gt;raw_23</title>
<path fill="none" stroke="#000000" stroke-dasharray="5,2" d="M2890.8726,-575.4352C2882.5397,-572.5514 2873.2374,-569.6942 2864.5,-567.8008 2785.7086,-550.727 2562.43,-586.8177 2503.5,-531.8008 2452.6744,-484.3502 2456.7164,-393.7637 2462.7155,-347.8218"/>
<polygon fill="#000000" stroke="#000000" points="2466.2151,-348.0738 2464.1688,-337.6785 2459.2858,-347.081 2466.2151,-348.0738"/>
</g>
<!-- prespace_24 -->
<g id="node25" class="node">
<title>prespace_24</title>
<ellipse fill="none" stroke="#000000" cx="2558.5" cy="-319.6004" rx="46.4736" ry="18"/>
<text text-anchor="middle" x="2558.5" y="-315.4004" font-family="Helvetica,sans-Serif" font-size="14.00" fill="#000000">prespace</text>
</g>
<!-- prose_7&#45;&gt;prespace_24 -->
<g id="edge24" class="edge">
<title>prose_7&#45;&gt;prespace_24</title>
<path fill="none" stroke="#000000" stroke-dasharray="5,2" d="M2890.8192,-575.6692C2882.4842,-572.795 2873.194,-569.8843 2864.5,-567.8008 2809.9169,-554.7203 2656.4042,-569.1433 2614.5,-531.8008 2561.5676,-484.6308 2555.9984,-393.917 2556.9047,-347.8846"/>
<polygon fill="#000000" stroke="#000000" points="2560.4082,-347.8262 2557.2265,-337.7205 2553.4118,-347.6047 2560.4082,-347.8262"/>
</g>
<!-- literal_25 -->
<g id="node26" class="node">
<title>literal_25</title>
<ellipse fill="none" stroke="#000000" cx="2654.5" cy="-319.6004" rx="31.481" ry="18"/>
<text text-anchor="middle" x="2654.5" y="-315.4004" font-family="Helvetica,sans-Serif" font-size="14.00" fill="#000000">literal</text>
</g>
<!-- prose_7&#45;&gt;literal_25 -->
<g id="edge25" class="edge">
<title>prose_7&#45;&gt;literal_25</title>
<path fill="none" stroke="#000000" stroke-dasharray="5,2" d="M2890.4569,-575.9259C2882.1891,-573.0943 2873.0272,-570.1428 2864.5,-567.8008 2790.0267,-547.3467 2748.4965,-587.0188 2694.5,-531.8008 2645.8479,-482.0482 2646.7193,-392.8835 2650.8757,-347.6167"/>
<polygon fill="#000000" stroke="#000000" points="2654.3622,-347.9274 2651.9149,-337.6191 2647.3997,-347.2036 2654.3622,-347.9274"/>
</g>
<!-- raw_26 -->
<g id="node27" class="node">
<title>raw_26</title>
<ellipse fill="none" stroke="#000000" cx="2730.5" cy="-319.6004" rx="27" ry="18"/>
<text text-anchor="middle" x="2730.5" y="-315.4004" font-family="Helvetica,sans-Serif" font-size="14.00" fill="#000000">raw</text>
</g>
<!-- prose_7&#45;&gt;raw_26 -->
<g id="edge26" class="edge">
<title>prose_7&#45;&gt;raw_26</title>
<path fill="none" stroke="#000000" stroke-dasharray="5,2" d="M2889.9238,-576.3332C2846.9261,-561.5164 2768.5738,-534.2744 2766.5,-531.8008 2722.255,-479.0256 2723.0581,-392.2548 2726.9783,-347.7915"/>
<polygon fill="#000000" stroke="#000000" points="2730.475,-347.9976 2727.988,-337.6988 2723.5098,-347.3007 2730.475,-347.9976"/>
</g>
<!-- prespace_27 -->
<g id="node28" class="node">
<title>prespace_27</title>
<ellipse fill="none" stroke="#000000" cx="2821.5" cy="-319.6004" rx="46.4736" ry="18"/>
<text text-anchor="middle" x="2821.5" y="-315.4004" font-family="Helvetica,sans-Serif" font-size="14.00" fill="#000000">prespace</text>
</g>
<!-- prose_7&#45;&gt;prespace_27 -->
<g id="edge27" class="edge">
<title>prose_7&#45;&gt;prespace_27</title>
<path fill="none" stroke="#000000" stroke-dasharray="5,2" d="M2902.7411,-569.3694C2894.2791,-559.184 2884.0668,-545.4725 2877.5,-531.8008 2847.6796,-469.717 2832.051,-389.5076 2825.4405,-347.7246"/>
<polygon fill="#000000" stroke="#000000" points="2828.8831,-347.0822 2823.9158,-337.7239 2821.963,-348.1373 2828.8831,-347.0822"/>
</g>
<!-- literal_28 -->
<g id="node29" class="node">
<title>literal_28</title>
<ellipse fill="none" stroke="#000000" cx="2917.5" cy="-319.6004" rx="31.481" ry="18"/>
<text text-anchor="middle" x="2917.5" y="-315.4004" font-family="Helvetica,sans-Serif" font-size="14.00" fill="#000000">literal</text>
</g>
<!-- prose_7&#45;&gt;literal_28 -->
<g id="edge28" class="edge">
<title>prose_7&#45;&gt;literal_28</title>
<path fill="none" stroke="#000000" stroke-dasharray="5,2" d="M2917.5,-567.5038C2917.5,-521.8025 2917.5,-402.4102 2917.5,-347.71"/>
<polygon fill="#000000" stroke="#000000" points="2921.0001,-347.6735 2917.5,-337.6735 2914.0001,-347.6735 2921.0001,-347.6735"/>
</g>
<!-- raw_29 -->
<g id="node30" class="node">
<title>raw_29</title>
<ellipse fill="none" stroke="#000000" cx="2993.5" cy="-319.6004" rx="27" ry="18"/>
<text text-anchor="middle" x="2993.5" y="-315.4004" font-family="Helvetica,sans-Serif" font-size="14.00" fill="#000000">raw</text>
</g>
<!-- prose_7&#45;&gt;raw_29 -->
<g id="edge29" class="edge">
<title>prose_7&#45;&gt;raw_29</title>
<path fill="none" stroke="#000000" stroke-dasharray="5,2" d="M2932.7105,-569.5739C2941.3326,-559.4611 2951.5546,-545.7539 2957.5,-531.8008 2983.9777,-469.6609 2991.0123,-389.4746 2992.8603,-347.71"/>
<polygon fill="#000000" stroke="#000000" points="2996.3578,-347.838 2993.2343,-337.7141 2989.3627,-347.5761 2996.3578,-347.838"/>
</g>
<!-- prespace_30 -->
<g id="node31" class="node">
<title>prespace_30</title>
<ellipse fill="none" stroke="#000000" cx="3084.5" cy="-319.6004" rx="46.4736" ry="18"/>
<text text-anchor="middle" x="3084.5" y="-315.4004" font-family="Helvetica,sans-Serif" font-size="14.00" fill="#000000">prespace</text>
</g>
<!-- prose_7&#45;&gt;prespace_30 -->
<g id="edge30" class="edge">
<title>prose_7&#45;&gt;prespace_30</title>
<path fill="none" stroke="#000000" stroke-dasharray="5,2" d="M2947.6241,-578.86C2973.0959,-571.44 3008.6758,-557.1572 3029.5,-531.8008 3073.9048,-477.7319 3082.8968,-391.8856 3084.438,-347.7867"/>
<polygon fill="#000000" stroke="#000000" points="3087.9373,-347.8538 3084.683,-337.7712 3080.9394,-347.6826 3087.9373,-347.8538"/>
</g>
<!-- literal_31 -->
<g id="node32" class="node">
<title>literal_31</title>
<ellipse fill="none" stroke="#000000" cx="3180.5" cy="-319.6004" rx="31.481" ry="18"/>
<text text-anchor="middle" x="3180.5" y="-315.4004" font-family="Helvetica,sans-Serif" font-size="14.00" fill="#000000">literal</text>
</g>
<!-- prose_7&#45;&gt;literal_31 -->
<g id="edge31" class="edge">
<title>prose_7&#45;&gt;literal_31</title>
<path fill="none" stroke="#000000" stroke-dasharray="5,2" d="M2949.408,-582.2691C3004.3826,-575.5223 3113.5667,-559.0029 3139.5,-531.8008 3187.4387,-481.5168 3187.4802,-392.9652 3183.8319,-347.8056"/>
<polygon fill="#000000" stroke="#000000" points="3187.3147,-347.4572 3182.9061,-337.8232 3180.3446,-348.1037 3187.3147,-347.4572"/>
</g>
<!-- raw_32 -->
<g id="node33" class="node">
<title>raw_32</title>
<ellipse fill="none" stroke="#000000" cx="3256.5" cy="-319.6004" rx="27" ry="18"/>
<text text-anchor="middle" x="3256.5" y="-315.4004" font-family="Helvetica,sans-Serif" font-size="14.00" fill="#000000">raw</text>
</g>
<!-- prose_7&#45;&gt;raw_32 -->
<g id="edge32" class="edge">
<title>prose_7&#45;&gt;raw_32</title>
<path fill="none" stroke="#000000" stroke-dasharray="5,2" d="M2949.7781,-584.6011C3019.9204,-581.3002 3182.9686,-569.6456 3220.5,-531.8008 3269.3405,-482.5525 3266.2814,-393.1608 3260.9078,-347.7311"/>
<polygon fill="#000000" stroke="#000000" points="3264.3627,-347.158 3259.5963,-337.6959 3257.4217,-348.0652 3264.3627,-347.158"/>
</g>
<!-- raw_43 -->
<g id="node44" class="node">
<title>raw_43</title>
<ellipse fill="none" stroke="#000000" cx="3328.5" cy="-319.6004" rx="27" ry="18"/>
<text text-anchor="middle" x="3328.5" y="-315.4004" font-family="Helvetica,sans-Serif" font-size="14.00" fill="#000000">raw</text>
</g>
<!-- prose_8&#45;&gt;raw_43 -->
<g id="edge43" class="edge">
<title>prose_8&#45;&gt;raw_43</title>
<path fill="none" stroke="#000000" stroke-dasharray="5,2" d="M3248.7626,-573.0897C3263.6884,-563.6814 3282.1489,-549.4577 3292.5,-531.8008 3326.8344,-473.2334 3330.5667,-390.9157 3329.8403,-348.0585"/>
<polygon fill="#000000" stroke="#000000" points="3333.3323,-347.7082 3329.5665,-337.8053 3326.3348,-347.8952 3333.3323,-347.7082"/>
</g>
<!-- raw_45 -->
<g id="node46" class="node">
<title>raw_45</title>
<ellipse fill="none" stroke="#000000" cx="3400.5" cy="-319.6004" rx="27" ry="18"/>
<text text-anchor="middle" x="3400.5" y="-315.4004" font-family="Helvetica,sans-Serif" font-size="14.00" fill="#000000">raw</text>
</g>
<!-- prose_9&#45;&gt;raw_45 -->
<g id="edge45" class="edge">
<title>prose_9&#45;&gt;raw_45</title>
<path fill="none" stroke="#000000" stroke-dasharray="5,2" d="M3471.5881,-571.5271C3459.4813,-561.7452 3444.8012,-547.695 3436.5,-531.8008 3405.1506,-471.7766 3400.1454,-390.3948 3399.8961,-347.974"/>
<polygon fill="#000000" stroke="#000000" points="3403.3964,-347.8313 3399.9248,-337.8214 3396.3964,-347.8114 3403.3964,-347.8313"/>
</g>
<!-- prespace_46 -->
<g id="node47" class="node">
<title>prespace_46</title>
<ellipse fill="none" stroke="#000000" cx="3491.5" cy="-319.6004" rx="46.4736" ry="18"/>
<text text-anchor="middle" x="3491.5" y="-315.4004" font-family="Helvetica,sans-Serif" font-size="14.00" fill="#000000">prespace</text>
</g>
<!-- prose_9&#45;&gt;prespace_46 -->
<g id="edge46" class="edge">
<title>prose_9&#45;&gt;prespace_46</title>
<path fill="none" stroke="#000000" stroke-dasharray="5,2" d="M3491.5,-567.5038C3491.5,-521.8025 3491.5,-402.4102 3491.5,-347.71"/>
<polygon fill="#000000" stroke="#000000" points="3495.0001,-347.6735 3491.5,-337.6735 3488.0001,-347.6735 3495.0001,-347.6735"/>
</g>
<!-- literal_47 -->
<g id="node48" class="node">
<title>literal_47</title>
<ellipse fill="none" stroke="#000000" cx="3587.5" cy="-319.6004" rx="31.481" ry="18"/>
<text text-anchor="middle" x="3587.5" y="-315.4004" font-family="Helvetica,sans-Serif" font-size="14.00" fill="#000000">literal</text>
</g>
<!-- prose_9&#45;&gt;literal_47 -->
<g id="edge47" class="edge">
<title>prose_9&#45;&gt;literal_47</title>
<path fill="none" stroke="#000000" stroke-dasharray="5,2" d="M3511.2888,-571.4619C3523.3464,-561.654 3538.0181,-547.5992 3546.5,-531.8008 3578.6648,-471.8907 3585.8366,-390.4614 3587.2821,-348.0032"/>
<polygon fill="#000000" stroke="#000000" points="3590.7851,-347.9275 3587.5421,-337.8412 3583.7874,-347.7483 3590.7851,-347.9275"/>
</g>
<!-- raw_48 -->
<g id="node49" class="node">
<title>raw_48</title>
<ellipse fill="none" stroke="#000000" cx="3663.5" cy="-319.6004" rx="27" ry="18"/>
<text text-anchor="middle" x="3663.5" y="-315.4004" font-family="Helvetica,sans-Serif" font-size="14.00" fill="#000000">raw</text>
</g>
<!-- prose_9&#45;&gt;raw_48 -->
<g id="edge48" class="edge">
<title>prose_9&#45;&gt;raw_48</title>
<path fill="none" stroke="#000000" stroke-dasharray="5,2" d="M3523.155,-582.1452C3554.6108,-576.7548 3601.7679,-563.5929 3627.5,-531.8008 3670.8274,-478.2698 3670.428,-391.8314 3666.8058,-347.6136"/>
<polygon fill="#000000" stroke="#000000" points="3670.2834,-347.2096 3665.8668,-337.5793 3663.3138,-347.8619 3670.2834,-347.2096"/>
</g>
<!-- leaf_53 -->
<g id="node54" class="node">
<title>leaf_53</title>
<polygon fill="none" stroke="#c0c0c0" points="4270.5,-532.0014 3708.5,-532.0014 3708.5,-107.1994 4270.5,-107.1994 4270.5,-532.0014"/>
<text text-anchor="middle" x="3989.5" y="-516.6008" font-family="Inconsolata" font-size="14.00" fill="#000000">local uv = require &quot;luv&quot;</text>
<text text-anchor="middle" x="3989.5" y="-485.2008" font-family="Inconsolata" font-size="14.00" fill="#000000">local function watch(watcher, dir, recur)</text>
<text text-anchor="middle" x="3989.5" y="-469.8008" font-family="Inconsolata" font-size="14.00" fill="#000000"> &#160;&#160;&#160;watcher.dir = dir</text>
<text text-anchor="middle" x="3989.5" y="-454.4007" font-family="Inconsolata" font-size="14.00" fill="#000000"> &#160;&#160;&#160;if recur == nil then</text>
<text text-anchor="middle" x="3989.5" y="-439.0007" font-family="Inconsolata" font-size="14.00" fill="#000000"> &#160;&#160;&#160;&#160;&#160;&#160;&#160;recur = true</text>
<text text-anchor="middle" x="3989.5" y="-423.6007" font-family="Inconsolata" font-size="14.00" fill="#000000"> &#160;&#160;&#160;end</text>
<text text-anchor="middle" x="3989.5" y="-408.2007" font-family="Inconsolata" font-size="14.00" fill="#000000"> &#160;&#160;&#160;local fse = uv.new_fs_event()</text>
<text text-anchor="middle" x="3989.5" y="-392.8006" font-family="Inconsolata" font-size="14.00" fill="#000000"> &#160;&#160;&#160;watcher.fse = fse</text>
<text text-anchor="middle" x="3989.5" y="-377.4006" font-family="Inconsolata" font-size="14.00" fill="#000000"> &#160;&#160;&#160;uv.fs_event_start(fse, dir,{recursive = recur},function (err,fname,status)</text>
<text text-anchor="middle" x="3989.5" y="-362.0006" font-family="Inconsolata" font-size="14.00" fill="#000000"> &#160;&#160;&#160;&#160;&#160;&#160;&#160;if(err) then</text>
<text text-anchor="middle" x="3989.5" y="-346.6005" font-family="Inconsolata" font-size="14.00" fill="#000000"> &#160;&#160;&#160;&#160;&#160;&#160;&#160;&#160;&#160;&#160;&#160;print(&quot;Error &quot;..err)</text>
<text text-anchor="middle" x="3989.5" y="-331.2005" font-family="Inconsolata" font-size="14.00" fill="#000000"> &#160;&#160;&#160;&#160;&#160;&#160;&#160;else</text>
<text text-anchor="middle" x="3989.5" y="-315.8005" font-family="Inconsolata" font-size="14.00" fill="#000000"> &#160;&#160;&#160;&#160;&#160;&#160;&#160;&#160;&#160;&#160;&#160;local ev = nil</text>
<text text-anchor="middle" x="3989.5" y="-300.4004" font-family="Inconsolata" font-size="14.00" fill="#000000"> &#160;&#160;&#160;&#160;&#160;&#160;&#160;&#160;&#160;&#160;&#160;for k,v in pairs(status) do</text>
<text text-anchor="middle" x="3989.5" y="-285.0004" font-family="Inconsolata" font-size="14.00" fill="#000000"> &#160;&#160;&#160;&#160;&#160;&#160;&#160;&#160;&#160;&#160;&#160;&#160;&#160;&#160;&#160;ev = k</text>
<text text-anchor="middle" x="3989.5" y="-269.6004" font-family="Inconsolata" font-size="14.00" fill="#000000"> &#160;&#160;&#160;&#160;&#160;&#160;&#160;&#160;&#160;&#160;&#160;end</text>
<text text-anchor="middle" x="3989.5" y="-254.2003" font-family="Inconsolata" font-size="14.00" fill="#000000"> &#160;&#160;&#160;&#160;&#160;&#160;&#160;&#160;&#160;&#160;&#160;if ev == &quot;change&quot; then</text>
<text text-anchor="middle" x="3989.5" y="-238.8003" font-family="Inconsolata" font-size="14.00" fill="#000000"> &#160;&#160;&#160;&#160;&#160;&#160;&#160;&#160;&#160;&#160;&#160;&#160;&#160;&#160;watcher:onchange(fname)</text>
<text text-anchor="middle" x="3989.5" y="-223.4003" font-family="Inconsolata" font-size="14.00" fill="#000000"> &#160;&#160;&#160;&#160;&#160;&#160;&#160;&#160;&#160;&#160;&#160;elseif ev == &quot;rename&quot; then</text>
<text text-anchor="middle" x="3989.5" y="-208.0002" font-family="Inconsolata" font-size="14.00" fill="#000000"> &#160;&#160;&#160;&#160;&#160;&#160;&#160;&#160;&#160;&#160;&#160;&#160;&#160;&#160;watcher:onrename(fname)</text>
<text text-anchor="middle" x="3989.5" y="-192.6002" font-family="Inconsolata" font-size="14.00" fill="#000000"> &#160;&#160;&#160;&#160;&#160;&#160;&#160;&#160;&#160;&#160;&#160;else</text>
<text text-anchor="middle" x="3989.5" y="-177.2002" font-family="Inconsolata" font-size="14.00" fill="#000000"> &#160;&#160;&#160;&#160;&#160;&#160;&#160;&#160;&#160;&#160;&#160;&#160;&#160;&#160;print(&quot;Unrecognized event in watch(&quot; .. dir .. &quot;): &quot; ..ev)</text>
<text text-anchor="middle" x="3989.5" y="-161.8002" font-family="Inconsolata" font-size="14.00" fill="#000000"> &#160;&#160;&#160;&#160;&#160;&#160;&#160;&#160;&#160;&#160;&#160;end</text>
<text text-anchor="middle" x="3989.5" y="-146.4001" font-family="Inconsolata" font-size="14.00" fill="#000000"> &#160;&#160;&#160;&#160;&#160;&#160;&#160;end</text>
<text text-anchor="middle" x="3989.5" y="-131.0001" font-family="Inconsolata" font-size="14.00" fill="#000000"> &#160;&#160;&#160;end)</text>
<text text-anchor="middle" x="3989.5" y="-115.6001" font-family="Inconsolata" font-size="14.00" fill="#000000">end</text>
</g>
<!-- codeblock_10&#45;&gt;leaf_53 -->
<g id="edge53" class="edge">
<title>codeblock_10&#45;&gt;leaf_53</title>
<path fill="none" stroke="#000000" stroke-dasharray="5,2" d="M3816.9256,-567.9213C3822.058,-560.5362 3828.5624,-551.1769 3836.0207,-540.445"/>
<polygon fill="#000000" stroke="#000000" points="3839.0704,-542.1898 3841.9031,-531.9807 3833.3222,-538.195 3839.0704,-542.1898"/>
</g>
<!-- leaf_54 -->
<g id="node55" class="node">
<title>leaf_54</title>
<polygon fill="none" stroke="#c0c0c0" points="4528.5,-346.8009 4288.5,-346.8009 4288.5,-292.4 4528.5,-292.4 4528.5,-346.8009"/>
<text text-anchor="middle" x="4408.5" y="-331.5005" font-family="Inconsolata" font-size="14.00" fill="#000000">local function stop(watcher)</text>
<text text-anchor="middle" x="4408.5" y="-316.1005" font-family="Inconsolata" font-size="14.00" fill="#000000"> &#160;&#160;uv.fs_event_stop(watcher.fse)</text>
<text text-anchor="middle" x="4408.5" y="-300.7004" font-family="Inconsolata" font-size="14.00" fill="#000000">end</text>
</g>
<!-- codeblock_11&#45;&gt;leaf_54 -->
<g id="edge54" class="edge">
<title>codeblock_11&#45;&gt;leaf_54</title>
<path fill="none" stroke="#000000" stroke-dasharray="5,2" d="M4226.5095,-569.5675C4243.7612,-560.1938 4264.2355,-547.2076 4279.5,-531.8008 4331.7674,-479.0465 4372.0999,-401.2159 4392.8958,-355.9367"/>
<polygon fill="#000000" stroke="#000000" points="4396.101,-357.3431 4397.0341,-346.7895 4389.7233,-354.4578 4396.101,-357.3431"/>
</g>
<!-- leaf_55 -->
<g id="node56" class="node">
<title>leaf_55</title>
<polygon fill="none" stroke="#c0c0c0" points="4962,-424.5012 4547,-424.5012 4547,-214.6997 4962,-214.6997 4962,-424.5012"/>
<text text-anchor="middle" x="4754.5" y="-409.1006" font-family="Inconsolata" font-size="14.00" fill="#000000">local _W = {__call = watch}</text>
<text text-anchor="middle" x="4754.5" y="-393.7006" font-family="Inconsolata" font-size="14.00" fill="#000000">_W.__index = _W</text>
<text text-anchor="middle" x="4754.5" y="-362.3005" font-family="Inconsolata" font-size="14.00" fill="#000000">local function Watcher(handlers)</text>
<text text-anchor="middle" x="4754.5" y="-346.9005" font-family="Inconsolata" font-size="14.00" fill="#000000"> &#160;&#160;handlers = handlers or {}</text>
<text text-anchor="middle" x="4754.5" y="-331.5005" font-family="Inconsolata" font-size="14.00" fill="#000000"> &#160;&#160;local watcher = {}</text>
<text text-anchor="middle" x="4754.5" y="-316.1005" font-family="Inconsolata" font-size="14.00" fill="#000000"> &#160;&#160;watcher.onchange = handlers.onchange or function() end</text>
<text text-anchor="middle" x="4754.5" y="-300.7004" font-family="Inconsolata" font-size="14.00" fill="#000000"> &#160;&#160;watcher.onrename = handlers.onrename or function() end</text>
<text text-anchor="middle" x="4754.5" y="-285.3004" font-family="Inconsolata" font-size="14.00" fill="#000000"> &#160;&#160;watcher.stop = stop</text>
<text text-anchor="middle" x="4754.5" y="-269.9004" font-family="Inconsolata" font-size="14.00" fill="#000000"> &#160;&#160;return setmetatable(watcher, _W)</text>
<text text-anchor="middle" x="4754.5" y="-254.5003" font-family="Inconsolata" font-size="14.00" fill="#000000">end</text>
<text text-anchor="middle" x="4754.5" y="-223.1003" font-family="Inconsolata" font-size="14.00" fill="#000000">_W.idEst = _W</text>
</g>
<!-- codeblock_12&#45;&gt;leaf_55 -->
<g id="edge55" class="edge">
<title>codeblock_12&#45;&gt;leaf_55</title>
<path fill="none" stroke="#000000" stroke-dasharray="5,2" d="M4572.5973,-567.9213C4592.9426,-540.1473 4633.7423,-484.4504 4671.5544,-432.832"/>
<polygon fill="#000000" stroke="#000000" points="4674.5078,-434.7229 4677.5938,-424.5875 4668.8608,-430.5863 4674.5078,-434.7229"/>
</g>
<!-- leaf_56 -->
<g id="node57" class="node">
<title>leaf_56</title>
<polygon fill="none" stroke="#c0c0c0" points="5094.5,-337.6004 4980.5,-337.6004 4980.5,-301.6004 5094.5,-301.6004 5094.5,-337.6004"/>
<text text-anchor="middle" x="5037.5" y="-316.1005" font-family="Inconsolata" font-size="14.00" fill="#000000">return Watcher</text>
</g>
<!-- codeblock_13&#45;&gt;leaf_56 -->
<g id="edge56" class="edge">
<title>codeblock_13&#45;&gt;leaf_56</title>
<path fill="none" stroke="#000000" stroke-dasharray="5,2" d="M4916.2973,-569.152C4937.8538,-557.3068 4963.7771,-541.7841 4971.5,-531.8008 5014.6983,-475.9588 5029.8624,-391.5245 5034.9982,-347.9072"/>
<polygon fill="#000000" stroke="#000000" points="5038.5022,-348.0583 5036.0988,-337.7397 5031.5429,-347.3049 5038.5022,-348.0583"/>
</g>
<!-- leaf_16 -->
<g id="node17" class="node">
<title>leaf_16</title>
<polygon fill="none" stroke="#c0c0c0" points="499,-71.6012 0,-71.6012 0,.2011 499,.2011 499,-71.6012"/>
<text text-anchor="middle" x="249.5" y="-8.2" font-family="Inconsolata" font-size="14.00" fill="#000000">Actual, re&#45;entrant event response is inherently similar to callbacks.</text>
</g>
<!-- raw_15&#45;&gt;leaf_16 -->
<g id="edge16" class="edge">
<title>raw_15&#45;&gt;leaf_16</title>
<path fill="none" stroke="#000000" stroke-dasharray="5,2" d="M2182.9524,-301.5222C2189.7523,-259.7828 2199.6402,-156.5235 2142.5,-107.4 2109.2164,-78.7862 655.2973,-75.2209 509.5596,-71.0661"/>
<polygon fill="#000000" stroke="#000000" points="509.4216,-67.5573 499.2836,-70.6349 509.128,-74.5512 509.4216,-67.5573"/>
</g>
<!-- leaf_18 -->
<g id="node19" class="node">
<title>leaf_18</title>
<polygon fill="none" stroke="#c0c0c0" points="995.5,-55.6021 517.5,-55.6021 517.5,-15.7979 995.5,-15.7979 995.5,-55.6021"/>
<text text-anchor="middle" x="756.5" y="-24.2" font-family="Inconsolata" font-size="14.00" fill="#000000">First&#45;class continuations are arguably the best way to model this.</text>
</g>
<!-- raw_17&#45;&gt;leaf_18 -->
<g id="edge18" class="edge">
<title>raw_17&#45;&gt;leaf_18</title>
<path fill="none" stroke="#000000" stroke-dasharray="5,2" d="M2255.0219,-301.5645C2261.9849,-259.915 2272.2931,-156.8341 2215.5,-107.4 2164.731,-63.2095 1071.5568,-77.2044 1004.5,-71.4 965.3144,-68.0082 922.8712,-62.5587 884.3601,-56.9282"/>
<polygon fill="#000000" stroke="#000000" points="884.5397,-53.4168 874.1351,-55.4158 883.5153,-60.3414 884.5397,-53.4168"/>
</g>
<!-- leaf_20 -->
<g id="node21" class="node">
<title>leaf_20</title>
<polygon fill="none" stroke="#c0c0c0" points="1569,-70.9004 1014,-70.9004 1014,-.4996 1569,-.4996 1569,-70.9004"/>
<text text-anchor="middle" x="1291.5" y="-39.6001" font-family="Inconsolata" font-size="14.00" fill="#000000">Registered callbacks are a) usable from stock LuaJIT and b) more dynamic than</text>
<text text-anchor="middle" x="1291.5" y="-24.2" font-family="Inconsolata" font-size="14.00" fill="#000000">continuations. &#160;If you want that dynamicism with continuations, you can of</text>
<text text-anchor="middle" x="1291.5" y="-8.8" font-family="Inconsolata" font-size="14.00" fill="#000000">course have it, but you still have to write it.</text>
</g>
<!-- raw_19&#45;&gt;leaf_20 -->
<g id="edge20" class="edge">
<title>raw_19&#45;&gt;leaf_20</title>
<path fill="none" stroke="#000000" stroke-dasharray="5,2" d="M2326.9508,-301.6452C2333.7625,-260.1679 2343.7706,-157.4281 2287.5,-107.4 2230.4497,-56.6788 1693.3801,-76.8509 1579.0506,-71.2095"/>
<polygon fill="#000000" stroke="#000000" points="1579.2761,-67.7169 1569.0689,-70.5565 1578.819,-74.7019 1579.2761,-67.7169"/>
</g>
<!-- leaf_22 -->
<g id="node23" class="node">
<title>leaf_22</title>
<polygon fill="none" stroke="#c0c0c0" points="2149.5,-55.6021 1587.5,-55.6021 1587.5,-15.7979 2149.5,-15.7979 2149.5,-55.6021"/>
<text text-anchor="middle" x="1868.5" y="-24.2" font-family="Inconsolata" font-size="14.00" fill="#000000">Since we do want to be able to update handlers, we don&#39;t need the extra layer.</text>
</g>
<!-- raw_21&#45;&gt;leaf_22 -->
<g id="edge22" class="edge">
<title>raw_21&#45;&gt;leaf_22</title>
<path fill="none" stroke="#000000" stroke-dasharray="5,2" d="M2398.6674,-301.6939C2404.7746,-260.771 2413.2172,-159.8933 2359.5,-107.4 2353.4361,-101.4743 2169.0513,-75.7093 2028.0176,-56.7543"/>
<polygon fill="#000000" stroke="#000000" points="2028.3179,-53.2633 2017.9411,-55.4016 2027.3865,-60.201 2028.3179,-53.2633"/>
</g>
<!-- leaf_33 -->
<g id="node34" class="node">
<title>leaf_33</title>
<polygon fill="none" stroke="#c0c0c0" points="2387,-55.6021 2168,-55.6021 2168,-15.7979 2387,-15.7979 2387,-55.6021"/>
<text text-anchor="middle" x="2277.5" y="-24.2" font-family="Inconsolata" font-size="14.00" fill="#000000">To set up a watcher, register</text>
</g>
<!-- raw_23&#45;&gt;leaf_33 -->
<g id="edge33" class="edge">
<title>raw_23&#45;&gt;leaf_33</title>
<path fill="none" stroke="#000000" stroke-dasharray="5,2" d="M2469.6472,-301.5189C2473.3342,-261.9548 2476.5935,-166.5267 2431.5,-107.4 2414.8485,-85.5666 2389.9391,-70.1305 2364.981,-59.3265"/>
<polygon fill="#000000" stroke="#000000" points="2366.0104,-55.9658 2355.4302,-55.4088 2363.3538,-62.4421 2366.0104,-55.9658"/>
</g>
<!-- leaf_34 -->
<g id="node35" class="node">
<title>leaf_34</title>
<polygon fill="none" stroke="#c0c0c0" points="2459.5,-53.7 2405.5,-53.7 2405.5,-17.7 2459.5,-17.7 2459.5,-53.7"/>
<text text-anchor="middle" x="2432.5" y="-32.2" font-family="Inconsolata" font-size="14.00" fill="#000000"> </text>
</g>
<!-- prespace_24&#45;&gt;leaf_34 -->
<g id="edge34" class="edge">
<title>prespace_24&#45;&gt;leaf_34</title>
<path fill="none" stroke="#000000" stroke-dasharray="5,2" d="M2556.988,-301.3673C2553.1525,-263.1013 2540.5608,-172.5732 2503.5,-107.4 2502.6806,-105.959 2477.9953,-81.1425 2457.9608,-61.1046"/>
<polygon fill="#000000" stroke="#000000" points="2460.3901,-58.5842 2450.8429,-53.9906 2455.4417,-63.5353 2460.3901,-58.5842"/>
</g>
<!-- leaf_35 -->
<g id="node36" class="node">
<title>leaf_35</title>
<polygon fill="none" stroke="#c0c0c0" points="2655,-53.7 2478,-53.7 2478,-17.7 2655,-17.7 2655,-53.7"/>
<text text-anchor="middle" x="2566.5" y="-32.2" font-family="Inconsolata" font-size="14.00" fill="#000000">watcher:onchange(fname)</text>
</g>
<!-- literal_25&#45;&gt;leaf_35 -->
<g id="edge35" class="edge">
<title>literal_25&#45;&gt;leaf_35</title>
<path fill="none" stroke="#000000" stroke-dasharray="5,2" d="M2653.3786,-301.6114C2650.5452,-264.1805 2641.2276,-175.7178 2613.5,-107.4 2606.9965,-91.3762 2596.715,-75.1282 2587.4244,-62.1602"/>
<polygon fill="#000000" stroke="#000000" points="2589.9672,-59.712 2581.2094,-53.7495 2584.3375,-63.872 2589.9672,-59.712"/>
</g>
<!-- leaf_36 -->
<g id="node37" class="node">
<title>leaf_36</title>
<polygon fill="none" stroke="#c0c0c0" points="2738,-53.7 2673,-53.7 2673,-17.7 2738,-17.7 2738,-53.7"/>
<text text-anchor="middle" x="2705.5" y="-32.2" font-family="Inconsolata" font-size="14.00" fill="#000000"> and/or</text>
</g>
<!-- raw_26&#45;&gt;leaf_36 -->
<g id="edge36" class="edge">
<title>raw_26&#45;&gt;leaf_36</title>
<path fill="none" stroke="#000000" stroke-dasharray="5,2" d="M2728.8981,-301.4093C2724.656,-253.2358 2713.1067,-122.0823 2707.9933,-64.0144"/>
<polygon fill="#000000" stroke="#000000" points="2711.4523,-63.394 2707.0886,-53.7396 2704.4793,-64.0081 2711.4523,-63.394"/>
</g>
<!-- leaf_37 -->
<g id="node38" class="node">
<title>leaf_37</title>
<polygon fill="none" stroke="#c0c0c0" points="2810.5,-53.7 2756.5,-53.7 2756.5,-17.7 2810.5,-17.7 2810.5,-53.7"/>
</g>
<!-- prespace_27&#45;&gt;leaf_37 -->
<g id="edge37" class="edge">
<title>prespace_27&#45;&gt;leaf_37</title>
<path fill="none" stroke="#000000" stroke-dasharray="5,2" d="M2819.0651,-301.4093C2812.6037,-253.1357 2794.9892,-121.5366 2787.2415,-63.6532"/>
<polygon fill="#000000" stroke="#000000" points="2790.7104,-63.1869 2785.9146,-53.7396 2783.7723,-64.1156 2790.7104,-63.1869"/>
</g>
<!-- leaf_38 -->
<g id="node39" class="node">
<title>leaf_38</title>
<polygon fill="none" stroke="#c0c0c0" points="3006,-53.7 2829,-53.7 2829,-17.7 3006,-17.7 3006,-53.7"/>
<text text-anchor="middle" x="2917.5" y="-32.2" font-family="Inconsolata" font-size="14.00" fill="#000000">watcher:onrename(fname)</text>
</g>
<!-- literal_28&#45;&gt;leaf_38 -->
<g id="edge38" class="edge">
<title>literal_28&#45;&gt;leaf_38</title>
<path fill="none" stroke="#000000" stroke-dasharray="5,2" d="M2917.5,-301.4093C2917.5,-253.2358 2917.5,-122.0823 2917.5,-64.0144"/>
<polygon fill="#000000" stroke="#000000" points="2921.0001,-63.7396 2917.5,-53.7396 2914.0001,-63.7397 2921.0001,-63.7396"/>
</g>
<!-- leaf_39 -->
<g id="node40" class="node">
<title>leaf_39</title>
<polygon fill="none" stroke="#c0c0c0" points="3103,-53.7 3024,-53.7 3024,-17.7 3103,-17.7 3103,-53.7"/>
<text text-anchor="middle" x="3063.5" y="-32.2" font-family="Inconsolata" font-size="14.00" fill="#000000">. &#160;That&#39;s</text>
</g>
<!-- raw_29&#45;&gt;leaf_39 -->
<g id="edge39" class="edge">
<title>raw_29&#45;&gt;leaf_39</title>
<path fill="none" stroke="#000000" stroke-dasharray="5,2" d="M2994.8764,-301.6057C2998.0744,-264.5299 3007.4774,-177.2494 3029.5,-107.4 3034.3335,-92.0695 3041.824,-75.819 3048.5454,-62.6719"/>
<polygon fill="#000000" stroke="#000000" points="3051.7038,-64.1855 3053.2547,-53.7048 3045.5064,-60.9308 3051.7038,-64.1855"/>
</g>
<!-- leaf_40 -->
<g id="node41" class="node">
<title>leaf_40</title>
<polygon fill="none" stroke="#c0c0c0" points="3175.5,-53.7 3121.5,-53.7 3121.5,-17.7 3175.5,-17.7 3175.5,-53.7"/>
<text text-anchor="middle" x="3148.5" y="-32.2" font-family="Inconsolata" font-size="14.00" fill="#000000"> </text>
</g>
<!-- prespace_30&#45;&gt;leaf_40 -->
<g id="edge40" class="edge">
<title>prespace_30&#45;&gt;leaf_40</title>
<path fill="none" stroke="#000000" stroke-dasharray="5,2" d="M3088.6008,-301.4093C3099.4832,-253.1357 3129.1498,-121.5366 3142.1985,-63.6532"/>
<polygon fill="#000000" stroke="#000000" points="3145.6484,-64.2646 3144.4333,-53.7396 3138.8198,-62.7251 3145.6484,-64.2646"/>
</g>
<!-- leaf_41 -->
<g id="node42" class="node">
<title>leaf_41</title>
<polygon fill="none" stroke="#c0c0c0" points="3433.5,-53.7 3193.5,-53.7 3193.5,-17.7 3433.5,-17.7 3433.5,-53.7"/>
<text text-anchor="middle" x="3313.5" y="-32.2" font-family="Inconsolata" font-size="14.00" fill="#000000">function onchange(watcher,fname)</text>
</g>
<!-- literal_31&#45;&gt;leaf_41 -->
<g id="edge41" class="edge">
<title>literal_31&#45;&gt;leaf_41</title>
<path fill="none" stroke="#000000" stroke-dasharray="5,2" d="M3179.7531,-301.6028C3178.9866,-263.0111 3181.6914,-170.6754 3220.5,-107.4 3232.5913,-87.6859 3252.2275,-71.3646 3270.3481,-59.3003"/>
<polygon fill="#000000" stroke="#000000" points="3272.5373,-62.0551 3279.0821,-53.7235 3268.7701,-56.1552 3272.5373,-62.0551"/>
</g>
<!-- leaf_42 -->
<g id="node43" class="node">
<title>leaf_42</title>
<polygon fill="none" stroke="#c0c0c0" points="3505.5,-53.7 3451.5,-53.7 3451.5,-17.7 3505.5,-17.7 3505.5,-53.7"/>
<text text-anchor="middle" x="3478.5" y="-32.2" font-family="Inconsolata" font-size="14.00" fill="#000000">!</text>
</g>
<!-- raw_32&#45;&gt;leaf_42 -->
<g id="edge42" class="edge">
<title>raw_32&#45;&gt;leaf_42</title>
<path fill="none" stroke="#000000" stroke-dasharray="5,2" d="M3253.5885,-301.4182C3248.2011,-260.8033 3241.4685,-161.9975 3292.5,-107.4 3339.3158,-57.3128 3382.6107,-104.7724 3442.5,-71.4 3447.4978,-68.6151 3452.2785,-64.9429 3456.6302,-61.0134"/>
<polygon fill="#000000" stroke="#000000" points="3459.2862,-63.31 3463.954,-53.7989 3454.3738,-58.3232 3459.2862,-63.31"/>
</g>
<!-- leaf_44 -->
<g id="node45" class="node">
<title>leaf_44</title>
<polygon fill="none" stroke="#c0c0c0" points="4051,-55.6021 3524,-55.6021 3524,-15.7979 4051,-15.7979 4051,-55.6021"/>
<text text-anchor="middle" x="3787.5" y="-24.2" font-family="Inconsolata" font-size="14.00" fill="#000000">This can be done on creation, after creation, or after setting the watch.</text>
</g>
<!-- raw_43&#45;&gt;leaf_44 -->
<g id="edge44" class="edge">
<title>raw_43&#45;&gt;leaf_44</title>
<path fill="none" stroke="#000000" stroke-dasharray="5,2" d="M3325.3721,-301.4734C3319.4453,-260.534 3311.5195,-160.3729 3364.5,-107.4 3374.4483,-97.4532 3520.0091,-74.2706 3637.6346,-56.9414"/>
<polygon fill="#000000" stroke="#000000" points="3638.4591,-60.3579 3647.8442,-55.4416 3637.4416,-53.4322 3638.4591,-60.3579"/>
</g>
<!-- leaf_49 -->
<g id="node50" class="node">
<title>leaf_49</title>
<polygon fill="none" stroke="#c0c0c0" points="4239.5,-55.6021 4069.5,-55.6021 4069.5,-15.7979 4239.5,-15.7979 4239.5,-55.6021"/>
<text text-anchor="middle" x="4154.5" y="-24.2" font-family="Inconsolata" font-size="14.00" fill="#000000">To stop watching, call</text>
</g>
<!-- raw_45&#45;&gt;leaf_49 -->
<g id="edge49" class="edge">
<title>raw_45&#45;&gt;leaf_49</title>
<path fill="none" stroke="#000000" stroke-dasharray="5,2" d="M3397.073,-301.6719C3390.3121,-260.2515 3380.4045,-157.6244 3436.5,-107.4 3488.1579,-61.1488 3991.6653,-85.7586 4059.5,-71.4 4073.2319,-68.4934 4087.617,-63.9387 4100.919,-59.043"/>
<polygon fill="#000000" stroke="#000000" points="4102.289,-62.2666 4110.3886,-55.4367 4099.7977,-55.7249 4102.289,-62.2666"/>
</g>
<!-- leaf_50 -->
<g id="node51" class="node">
<title>leaf_50</title>
<polygon fill="none" stroke="#c0c0c0" points="4311.5,-53.7 4257.5,-53.7 4257.5,-17.7 4311.5,-17.7 4311.5,-53.7"/>
<text text-anchor="middle" x="4284.5" y="-32.2" font-family="Inconsolata" font-size="14.00" fill="#000000"> </text>
</g>
<!-- prespace_46&#45;&gt;leaf_50 -->
<g id="edge50" class="edge">
<title>prespace_46&#45;&gt;leaf_50</title>
<path fill="none" stroke="#000000" stroke-dasharray="5,2" d="M3489.93,-301.4235C3487.4295,-259.4736 3487.9008,-155.7974 3547.5,-107.4 3608.0437,-58.2357 4177.1684,-102.9355 4248.5,-71.4 4254.0699,-68.9376 4259.2586,-65.1986 4263.8654,-61.0528"/>
<polygon fill="#000000" stroke="#000000" points="4266.4634,-63.404 4271.0334,-53.8454 4261.5001,-58.4678 4266.4634,-63.404"/>
</g>
<!-- leaf_51 -->
<g id="node52" class="node">
<title>leaf_51</title>
<polygon fill="none" stroke="#c0c0c0" points="4443.5,-53.7 4329.5,-53.7 4329.5,-17.7 4443.5,-17.7 4443.5,-53.7"/>
<text text-anchor="middle" x="4386.5" y="-32.2" font-family="Inconsolata" font-size="14.00" fill="#000000">watcher:stop()</text>
</g>
<!-- literal_47&#45;&gt;leaf_51 -->
<g id="edge51" class="edge">
<title>literal_47&#45;&gt;leaf_51</title>
<path fill="none" stroke="#000000" stroke-dasharray="5,2" d="M3584.4327,-301.6017C3578.4991,-260.0315 3570.6181,-157.1076 3627.5,-107.4 3685.559,-56.6639 4246.2697,-92.2534 4320.5,-71.4 4330.7646,-68.5164 4341.2118,-63.8277 4350.6757,-58.7829"/>
<polygon fill="#000000" stroke="#000000" points="4352.4002,-61.8286 4359.41,-53.8842 4348.976,-55.7233 4352.4002,-61.8286"/>
</g>
<!-- leaf_52 -->
<g id="node53" class="node">
<title>leaf_52</title>
<polygon fill="none" stroke="#c0c0c0" points="4515.5,-53.7 4461.5,-53.7 4461.5,-17.7 4515.5,-17.7 4515.5,-53.7"/>
<text text-anchor="middle" x="4488.5" y="-32.2" font-family="Inconsolata" font-size="14.00" fill="#000000">.</text>
</g>
<!-- raw_48&#45;&gt;leaf_52 -->
<g id="edge52" class="edge">
<title>raw_48&#45;&gt;leaf_52</title>
<path fill="none" stroke="#000000" stroke-dasharray="5,2" d="M3660.0391,-301.6339C3653.2061,-260.1324 3643.1554,-157.3447 3699.5,-107.4 3762.1816,-51.8381 4375.8307,-105.1333 4452.5,-71.4 4458.0742,-68.9475 4463.265,-65.2129 4467.8724,-61.0686"/>
<polygon fill="#000000" stroke="#000000" points="4470.4705,-63.4196 4475.0402,-53.8609 4465.507,-58.4835 4470.4705,-63.4196"/>
</g>
</g>
</svg>
