<?xml version="1.0" encoding="UTF-8" standalone="no"?>
<!DOCTYPE svg PUBLIC "-//W3C//DTD SVG 1.1//EN"
 "http://www.w3.org/Graphics/SVG/1.1/DTD/svg11.dtd">
<!-- Generated by graphviz version 2.40.1 (20161225.0304)
 -->
<!-- Title: lpegNode Pages: 1 -->
<svg width="5103pt" height="771pt"
 viewBox="0.00 0.00 5102.50 771.20" xmlns="http://www.w3.org/2000/svg" xmlns:xlink="http://www.w3.org/1999/xlink">
<g id="graph0" class="graph" transform="scale(1 1) rotate(0) translate(4 767.2009)">
<title>lpegNode</title>
<polygon fill="#ffffff" stroke="transparent" points="-4,4 -4,-767.2009 5098.5,-767.2009 5098.5,4 -4,4"/>
<!-- doc_0 -->
<g id="node1" class="node">
<title>doc_0</title>
<ellipse fill="none" stroke="#000000" cx="3122.5" cy="-745.2009" rx="42.1216" ry="18"/>
<text text-anchor="middle" x="3122.5" y="-741.0009" font-family="Helvetica,sans-Serif" font-size="14.00" fill="#000000">doc &#45; 81</text>
</g>
<!-- section_1 -->
<g id="node2" class="node">
<title>section_1</title>
<ellipse fill="none" stroke="#000000" cx="3122.5" cy="-673.2009" rx="60.9826" ry="18"/>
<text text-anchor="middle" x="3122.5" y="-669.0009" font-family="Helvetica,sans-Serif" font-size="14.00" fill="#000000">section: 1&#45;81</text>
</g>
<!-- doc_0&#45;&gt;section_1 -->
<g id="edge1" class="edge">
<title>doc_0&#45;&gt;section_1</title>
<path fill="none" stroke="#000000" stroke-dasharray="5,2" d="M3122.5,-727.0322C3122.5,-719.3318 3122.5,-710.1752 3122.5,-701.6175"/>
<polygon fill="#000000" stroke="#000000" points="3126.0001,-701.6141 3122.5,-691.6141 3119.0001,-701.6142 3126.0001,-701.6141"/>
</g>
<!-- header_2 -->
<g id="node3" class="node">
<title>header_2</title>
<ellipse fill="none" stroke="#000000" cx="2107.5" cy="-601.2009" rx="54.9955" ry="18"/>
<text text-anchor="middle" x="2107.5" y="-597.0009" font-family="Helvetica,sans-Serif" font-size="14.00" fill="#000000">1 : Watcher</text>
</g>
<!-- section_1&#45;&gt;header_2 -->
<g id="edge2" class="edge">
<title>section_1&#45;&gt;header_2</title>
<path fill="none" stroke="#000000" stroke-dasharray="5,2" d="M3063.1698,-668.9922C2884.9516,-656.3502 2355.3209,-618.7803 2171.3299,-605.7287"/>
<polygon fill="#000000" stroke="#000000" points="2171.4926,-602.2315 2161.2699,-605.0151 2170.9972,-609.214 2171.4926,-602.2315"/>
</g>
<!-- prose_3 -->
<g id="node4" class="node">
<title>prose_3</title>
<ellipse fill="none" stroke="#000000" cx="2407.5" cy="-601.2009" rx="32.4585" ry="18"/>
<text text-anchor="middle" x="2407.5" y="-597.0009" font-family="Helvetica,sans-Serif" font-size="14.00" fill="#000000">prose</text>
</g>
<!-- section_1&#45;&gt;prose_3 -->
<g id="edge3" class="edge">
<title>section_1&#45;&gt;prose_3</title>
<path fill="none" stroke="#000000" stroke-dasharray="5,2" d="M3063.8664,-668.4231C2959.5093,-659.7613 2734.7244,-640.389 2545.5,-619.2009 2513.0309,-615.5652 2476.3591,-610.7481 2448.984,-607.0121"/>
<polygon fill="#000000" stroke="#000000" points="2449.3587,-603.5308 2438.9755,-605.6379 2448.4064,-610.4657 2449.3587,-603.5308"/>
</g>
<!-- prose_4 -->
<g id="node5" class="node">
<title>prose_4</title>
<ellipse fill="none" stroke="#000000" cx="2586.5" cy="-601.2009" rx="32.4585" ry="18"/>
<text text-anchor="middle" x="2586.5" y="-597.0009" font-family="Helvetica,sans-Serif" font-size="14.00" fill="#000000">prose</text>
</g>
<!-- section_1&#45;&gt;prose_4 -->
<g id="edge4" class="edge">
<title>section_1&#45;&gt;prose_4</title>
<path fill="none" stroke="#000000" stroke-dasharray="5,2" d="M3064.5675,-667.6241C2979.3032,-659.0911 2815.1232,-641.4215 2676.5,-619.2009 2660.1088,-616.5735 2642.1536,-613.1035 2626.6218,-609.9119"/>
<polygon fill="#000000" stroke="#000000" points="2627.3098,-606.4802 2616.806,-607.8664 2625.8817,-613.333 2627.3098,-606.4802"/>
</g>
<!-- prose_5 -->
<g id="node6" class="node">
<title>prose_5</title>
<ellipse fill="none" stroke="#000000" cx="2717.5" cy="-601.2009" rx="32.4585" ry="18"/>
<text text-anchor="middle" x="2717.5" y="-597.0009" font-family="Helvetica,sans-Serif" font-size="14.00" fill="#000000">prose</text>
</g>
<!-- section_1&#45;&gt;prose_5 -->
<g id="edge5" class="edge">
<title>section_1&#45;&gt;prose_5</title>
<path fill="none" stroke="#000000" stroke-dasharray="5,2" d="M3066.187,-666.2348C2998.4538,-657.4016 2881.4989,-640.6985 2782.5,-619.2009 2773.8643,-617.3256 2764.6713,-614.9917 2756,-612.6325"/>
<polygon fill="#000000" stroke="#000000" points="2756.6977,-609.1936 2746.125,-609.8774 2754.8165,-615.9361 2756.6977,-609.1936"/>
</g>
<!-- prose_6 -->
<g id="node7" class="node">
<title>prose_6</title>
<ellipse fill="none" stroke="#000000" cx="2823.5" cy="-601.2009" rx="32.4585" ry="18"/>
<text text-anchor="middle" x="2823.5" y="-597.0009" font-family="Helvetica,sans-Serif" font-size="14.00" fill="#000000">prose</text>
</g>
<!-- section_1&#45;&gt;prose_6 -->
<g id="edge6" class="edge">
<title>section_1&#45;&gt;prose_6</title>
<path fill="none" stroke="#000000" stroke-dasharray="5,2" d="M3070.7325,-663.5793C3020.665,-653.8651 2942.8401,-637.6855 2876.5,-619.2009 2871.1759,-617.7174 2865.6015,-616.0046 2860.1508,-614.2377"/>
<polygon fill="#000000" stroke="#000000" points="2861.1476,-610.8807 2850.5539,-611.0365 2858.9326,-617.521 2861.1476,-610.8807"/>
</g>
<!-- prose_7 -->
<g id="node8" class="node">
<title>prose_7</title>
<ellipse fill="none" stroke="#000000" cx="2917.5" cy="-601.2009" rx="32.4585" ry="18"/>
<text text-anchor="middle" x="2917.5" y="-597.0009" font-family="Helvetica,sans-Serif" font-size="14.00" fill="#000000">prose</text>
</g>
<!-- section_1&#45;&gt;prose_7 -->
<g id="edge7" class="edge">
<title>section_1&#45;&gt;prose_7</title>
<path fill="none" stroke="#000000" stroke-dasharray="5,2" d="M3082.9739,-659.3185C3045.8577,-646.2826 2990.7549,-626.9294 2954.4877,-614.1917"/>
<polygon fill="#000000" stroke="#000000" points="2955.3835,-610.7967 2944.7886,-610.7852 2953.0638,-617.4012 2955.3835,-610.7967"/>
</g>
<!-- prose_8 -->
<g id="node9" class="node">
<title>prose_8</title>
<ellipse fill="none" stroke="#000000" cx="3225.5" cy="-601.2009" rx="32.4585" ry="18"/>
<text text-anchor="middle" x="3225.5" y="-597.0009" font-family="Helvetica,sans-Serif" font-size="14.00" fill="#000000">prose</text>
</g>
<!-- section_1&#45;&gt;prose_8 -->
<g id="edge8" class="edge">
<title>section_1&#45;&gt;prose_8</title>
<path fill="none" stroke="#000000" stroke-dasharray="5,2" d="M3146.3892,-656.5017C3161.4319,-645.9863 3180.9368,-632.3518 3196.8152,-621.2524"/>
<polygon fill="#000000" stroke="#000000" points="3199.0212,-623.9807 3205.212,-615.3828 3195.0107,-618.2435 3199.0212,-623.9807"/>
</g>
<!-- prose_9 -->
<g id="node10" class="node">
<title>prose_9</title>
<ellipse fill="none" stroke="#000000" cx="3491.5" cy="-601.2009" rx="32.4585" ry="18"/>
<text text-anchor="middle" x="3491.5" y="-597.0009" font-family="Helvetica,sans-Serif" font-size="14.00" fill="#000000">prose</text>
</g>
<!-- section_1&#45;&gt;prose_9 -->
<g id="edge9" class="edge">
<title>section_1&#45;&gt;prose_9</title>
<path fill="none" stroke="#000000" stroke-dasharray="5,2" d="M3173.4205,-663.2652C3247.5138,-648.8079 3383.5553,-622.2633 3451.162,-609.0717"/>
<polygon fill="#000000" stroke="#000000" points="3451.8705,-612.4996 3461.0151,-607.1492 3450.5298,-605.6291 3451.8705,-612.4996"/>
</g>
<!-- codeblock_10 -->
<g id="node11" class="node">
<title>codeblock_10</title>
<ellipse fill="none" stroke="#000000" cx="3804.5" cy="-601.2009" rx="77.4211" ry="18"/>
<text text-anchor="middle" x="3804.5" y="-597.0009" font-family="Helvetica,sans-Serif" font-size="14.00" fill="#000000">code block 21&#45;50</text>
</g>
<!-- section_1&#45;&gt;codeblock_10 -->
<g id="edge10" class="edge">
<title>section_1&#45;&gt;codeblock_10</title>
<path fill="none" stroke="#000000" stroke-dasharray="5,2" d="M3179.7662,-667.1552C3301.0584,-654.3501 3584.1486,-624.4638 3723.7421,-609.7266"/>
<polygon fill="#000000" stroke="#000000" points="3724.3705,-613.1798 3733.9478,-608.6492 3723.6355,-606.2185 3724.3705,-613.1798"/>
</g>
<!-- codeblock_11 -->
<g id="node12" class="node">
<title>codeblock_11</title>
<ellipse fill="none" stroke="#000000" cx="4192.5" cy="-601.2009" rx="77.4211" ry="18"/>
<text text-anchor="middle" x="4192.5" y="-597.0009" font-family="Helvetica,sans-Serif" font-size="14.00" fill="#000000">code block 52&#45;56</text>
</g>
<!-- section_1&#45;&gt;codeblock_11 -->
<g id="edge11" class="edge">
<title>section_1&#45;&gt;codeblock_11</title>
<path fill="none" stroke="#000000" stroke-dasharray="5,2" d="M3181.9357,-669.2015C3361.4471,-657.1222 3898.5505,-620.9807 4107.7676,-606.9025"/>
<polygon fill="#000000" stroke="#000000" points="4108.0375,-610.3923 4117.7799,-606.2288 4107.5675,-603.4081 4108.0375,-610.3923"/>
</g>
<!-- codeblock_12 -->
<g id="node13" class="node">
<title>codeblock_12</title>
<ellipse fill="none" stroke="#000000" cx="4559.5" cy="-601.2009" rx="77.4211" ry="18"/>
<text text-anchor="middle" x="4559.5" y="-597.0009" font-family="Helvetica,sans-Serif" font-size="14.00" fill="#000000">code block 58&#45;76</text>
</g>
<!-- section_1&#45;&gt;codeblock_12 -->
<g id="edge12" class="edge">
<title>section_1&#45;&gt;codeblock_12</title>
<path fill="none" stroke="#000000" stroke-dasharray="5,2" d="M3182.6911,-670.7567C3354.0545,-663.7187 3859.2337,-642.4201 4278.5,-619.2009 4344.4382,-615.5492 4419.0349,-610.739 4474.7901,-607.01"/>
<polygon fill="#000000" stroke="#000000" points="4475.2319,-610.4883 4484.9752,-606.3268 4474.7634,-603.504 4475.2319,-610.4883"/>
</g>
<!-- codeblock_13 -->
<g id="node14" class="node">
<title>codeblock_13</title>
<ellipse fill="none" stroke="#000000" cx="4884.5" cy="-601.2009" rx="77.4211" ry="18"/>
<text text-anchor="middle" x="4884.5" y="-597.0009" font-family="Helvetica,sans-Serif" font-size="14.00" fill="#000000">code block 78&#45;80</text>
</g>
<!-- section_1&#45;&gt;codeblock_13 -->
<g id="edge13" class="edge">
<title>section_1&#45;&gt;codeblock_13</title>
<path fill="none" stroke="#000000" stroke-dasharray="5,2" d="M3183.1182,-671.9168C3388.5433,-667.3806 4077.2014,-650.6637 4645.5,-619.2009 4697.355,-616.33 4755.4565,-611.9799 4801.388,-608.2754"/>
<polygon fill="#000000" stroke="#000000" points="4801.9087,-611.7447 4811.5926,-607.4469 4801.3421,-604.7677 4801.9087,-611.7447"/>
</g>
<!-- leaf_14 -->
<g id="node15" class="node">
<title>leaf_14</title>
<polygon fill="none" stroke="#c0c0c0" points="2134,-345.3005 2055,-345.3005 2055,-309.3005 2134,-309.3005 2134,-345.3005"/>
<text text-anchor="middle" x="2094.5" y="-323.8005" font-family="Inconsolata" font-size="14.00" fill="#000000">* Watcher</text>
</g>
<!-- header_2&#45;&gt;leaf_14 -->
<g id="edge14" class="edge">
<title>header_2&#45;&gt;leaf_14</title>
<path fill="none" stroke="#000000" stroke-dasharray="5,2" d="M2106.6268,-582.8042C2104.4066,-536.0256 2098.5326,-412.2641 2095.8593,-355.9399"/>
<polygon fill="#000000" stroke="#000000" points="2099.3396,-355.4399 2095.3694,-345.6171 2092.3475,-355.7718 2099.3396,-355.4399"/>
</g>
<!-- raw_15 -->
<g id="node16" class="node">
<title>raw_15</title>
<ellipse fill="none" stroke="#000000" cx="2179.5" cy="-327.3005" rx="27" ry="18"/>
<text text-anchor="middle" x="2179.5" y="-323.1005" font-family="Helvetica,sans-Serif" font-size="14.00" fill="#000000">raw</text>
</g>
<!-- prose_3&#45;&gt;raw_15 -->
<g id="edge15" class="edge">
<title>prose_3&#45;&gt;raw_15</title>
<path fill="none" stroke="#000000" stroke-dasharray="5,2" d="M2376.3121,-596.5543C2327.6092,-588.647 2236.8464,-571.0803 2215.5,-547.2009 2167.5239,-493.532 2170.2729,-401.6988 2175.3532,-355.5397"/>
<polygon fill="#000000" stroke="#000000" points="2178.858,-355.7123 2176.595,-345.3619 2171.9095,-354.8644 2178.858,-355.7123"/>
</g>
<!-- raw_17 -->
<g id="node18" class="node">
<title>raw_17</title>
<ellipse fill="none" stroke="#000000" cx="2251.5" cy="-327.3005" rx="27" ry="18"/>
<text text-anchor="middle" x="2251.5" y="-323.1005" font-family="Helvetica,sans-Serif" font-size="14.00" fill="#000000">raw</text>
</g>
<!-- prose_4&#45;&gt;raw_17 -->
<g id="edge17" class="edge">
<title>prose_4&#45;&gt;raw_17</title>
<path fill="none" stroke="#000000" stroke-dasharray="5,2" d="M2555.1198,-596.526C2480.2979,-585.2469 2296.9099,-556.7664 2287.5,-547.2009 2236.7847,-495.6467 2240.9405,-402.1269 2246.8736,-355.4209"/>
<polygon fill="#000000" stroke="#000000" points="2250.3563,-355.7874 2248.2674,-345.4005 2243.423,-354.8229 2250.3563,-355.7874"/>
</g>
<!-- raw_19 -->
<g id="node20" class="node">
<title>raw_19</title>
<ellipse fill="none" stroke="#000000" cx="2323.5" cy="-327.3005" rx="27" ry="18"/>
<text text-anchor="middle" x="2323.5" y="-323.1005" font-family="Helvetica,sans-Serif" font-size="14.00" fill="#000000">raw</text>
</g>
<!-- prose_5&#45;&gt;raw_19 -->
<g id="edge19" class="edge">
<title>prose_5&#45;&gt;raw_19</title>
<path fill="none" stroke="#000000" stroke-dasharray="5,2" d="M2687.1778,-594.6345C2669.7661,-590.99 2647.4603,-586.534 2627.5,-583.2009 2568.2302,-573.3035 2402.5966,-589.0763 2359.5,-547.2009 2307.5053,-496.6795 2312.3432,-402.2846 2318.6693,-355.3241"/>
<polygon fill="#000000" stroke="#000000" points="2322.1576,-355.6593 2320.1486,-345.2567 2315.2319,-354.6417 2322.1576,-355.6593"/>
</g>
<!-- raw_21 -->
<g id="node22" class="node">
<title>raw_21</title>
<ellipse fill="none" stroke="#000000" cx="2395.5" cy="-327.3005" rx="27" ry="18"/>
<text text-anchor="middle" x="2395.5" y="-323.1005" font-family="Helvetica,sans-Serif" font-size="14.00" fill="#000000">raw</text>
</g>
<!-- prose_6&#45;&gt;raw_21 -->
<g id="edge21" class="edge">
<title>prose_6&#45;&gt;raw_21</title>
<path fill="none" stroke="#000000" stroke-dasharray="5,2" d="M2795.2577,-592.3165C2783.9279,-589.0325 2770.6889,-585.5438 2758.5,-583.2009 2686.7085,-569.4013 2484.5356,-597.5166 2431.5,-547.2009 2378.9058,-497.3039 2384.022,-402.6192 2390.5402,-355.4586"/>
<polygon fill="#000000" stroke="#000000" points="2394.0348,-355.7562 2392.0623,-345.3466 2387.1127,-354.7142 2394.0348,-355.7562"/>
</g>
<!-- raw_23 -->
<g id="node24" class="node">
<title>raw_23</title>
<ellipse fill="none" stroke="#000000" cx="2467.5" cy="-327.3005" rx="27" ry="18"/>
<text text-anchor="middle" x="2467.5" y="-323.1005" font-family="Helvetica,sans-Serif" font-size="14.00" fill="#000000">raw</text>
</g>
<!-- prose_7&#45;&gt;raw_23 -->
<g id="edge23" class="edge">
<title>prose_7&#45;&gt;raw_23</title>
<path fill="none" stroke="#000000" stroke-dasharray="5,2" d="M2890.8726,-590.8352C2882.5397,-587.9514 2873.2374,-585.0942 2864.5,-583.2009 2785.7086,-566.127 2562.2708,-602.3878 2503.5,-547.2009 2450.6506,-497.5742 2455.8852,-402.7641 2462.4852,-355.5168"/>
<polygon fill="#000000" stroke="#000000" points="2465.9826,-355.798 2464.0256,-345.3855 2459.0622,-354.7457 2465.9826,-355.798"/>
</g>
<!-- prespace_24 -->
<g id="node25" class="node">
<title>prespace_24</title>
<ellipse fill="none" stroke="#000000" cx="2558.5" cy="-327.3005" rx="46.4736" ry="18"/>
<text text-anchor="middle" x="2558.5" y="-323.1005" font-family="Helvetica,sans-Serif" font-size="14.00" fill="#000000">prespace</text>
</g>
<!-- prose_7&#45;&gt;prespace_24 -->
<g id="edge24" class="edge">
<title>prose_7&#45;&gt;prespace_24</title>
<path fill="none" stroke="#000000" stroke-dasharray="5,2" d="M2890.8192,-591.0693C2882.4842,-588.195 2873.194,-585.2843 2864.5,-583.2009 2809.9169,-570.1203 2656.2422,-584.7244 2614.5,-547.2009 2559.5947,-497.8446 2555.0658,-402.909 2556.5809,-355.575"/>
<polygon fill="#000000" stroke="#000000" points="2560.0845,-355.5675 2557.0241,-345.4244 2553.0912,-355.2622 2560.0845,-355.5675"/>
</g>
<!-- literal_25 -->
<g id="node26" class="node">
<title>literal_25</title>
<ellipse fill="none" stroke="#000000" cx="2654.5" cy="-327.3005" rx="31.481" ry="18"/>
<text text-anchor="middle" x="2654.5" y="-323.1005" font-family="Helvetica,sans-Serif" font-size="14.00" fill="#000000">literal</text>
</g>
<!-- prose_7&#45;&gt;literal_25 -->
<g id="edge25" class="edge">
<title>prose_7&#45;&gt;literal_25</title>
<path fill="none" stroke="#000000" stroke-dasharray="5,2" d="M2890.4569,-591.326C2882.1891,-588.4943 2873.0272,-585.5429 2864.5,-583.2009 2790.0267,-562.7468 2748.32,-602.5908 2694.5,-547.2009 2643.9498,-495.1762 2645.8967,-401.873 2650.6259,-355.3181"/>
<polygon fill="#000000" stroke="#000000" points="2654.1093,-355.6622 2651.7582,-345.3315 2647.1538,-354.8735 2654.1093,-355.6622"/>
</g>
<!-- raw_26 -->
<g id="node27" class="node">
<title>raw_26</title>
<ellipse fill="none" stroke="#000000" cx="2730.5" cy="-327.3005" rx="27" ry="18"/>
<text text-anchor="middle" x="2730.5" y="-323.1005" font-family="Helvetica,sans-Serif" font-size="14.00" fill="#000000">raw</text>
</g>
<!-- prose_7&#45;&gt;raw_26 -->
<g id="edge26" class="edge">
<title>prose_7&#45;&gt;raw_26</title>
<path fill="none" stroke="#000000" stroke-dasharray="5,2" d="M2889.9221,-591.7346C2846.9221,-576.9197 2768.5666,-549.6804 2766.5,-547.2009 2720.5259,-492.0403 2722.2947,-401.2618 2726.7422,-355.5164"/>
<polygon fill="#000000" stroke="#000000" points="2730.238,-355.7442 2727.8403,-345.4243 2723.2791,-354.987 2730.238,-355.7442"/>
</g>
<!-- prespace_27 -->
<g id="node28" class="node">
<title>prespace_27</title>
<ellipse fill="none" stroke="#000000" cx="2821.5" cy="-327.3005" rx="46.4736" ry="18"/>
<text text-anchor="middle" x="2821.5" y="-323.1005" font-family="Helvetica,sans-Serif" font-size="14.00" fill="#000000">prespace</text>
</g>
<!-- prose_7&#45;&gt;prespace_27 -->
<g id="edge27" class="edge">
<title>prose_7&#45;&gt;prespace_27</title>
<path fill="none" stroke="#000000" stroke-dasharray="5,2" d="M2902.6981,-584.79C2894.2208,-574.6119 2884.0076,-560.9008 2877.5,-547.2009 2846.7243,-482.411 2831.3986,-398.5492 2825.1135,-355.516"/>
<polygon fill="#000000" stroke="#000000" points="2828.5626,-354.9079 2823.7065,-345.4915 2821.6305,-355.881 2828.5626,-354.9079"/>
</g>
<!-- literal_28 -->
<g id="node29" class="node">
<title>literal_28</title>
<ellipse fill="none" stroke="#000000" cx="2917.5" cy="-327.3005" rx="31.481" ry="18"/>
<text text-anchor="middle" x="2917.5" y="-323.1005" font-family="Helvetica,sans-Serif" font-size="14.00" fill="#000000">literal</text>
</g>
<!-- prose_7&#45;&gt;literal_28 -->
<g id="edge28" class="edge">
<title>prose_7&#45;&gt;literal_28</title>
<path fill="none" stroke="#000000" stroke-dasharray="5,2" d="M2917.5,-582.8042C2917.5,-536.0256 2917.5,-412.2641 2917.5,-355.9399"/>
<polygon fill="#000000" stroke="#000000" points="2921.0001,-355.617 2917.5,-345.6171 2914.0001,-355.6171 2921.0001,-355.617"/>
</g>
<!-- raw_29 -->
<g id="node30" class="node">
<title>raw_29</title>
<ellipse fill="none" stroke="#000000" cx="2993.5" cy="-327.3005" rx="27" ry="18"/>
<text text-anchor="middle" x="2993.5" y="-323.1005" font-family="Helvetica,sans-Serif" font-size="14.00" fill="#000000">raw</text>
</g>
<!-- prose_7&#45;&gt;raw_29 -->
<g id="edge29" class="edge">
<title>prose_7&#45;&gt;raw_29</title>
<path fill="none" stroke="#000000" stroke-dasharray="5,2" d="M2932.7398,-584.9864C2941.3723,-574.878 2951.595,-561.1711 2957.5,-547.2009 2984.9227,-482.3239 2991.5483,-398.4989 2993.0881,-355.4942"/>
<polygon fill="#000000" stroke="#000000" points="2996.5871,-355.5743 2993.3795,-345.4767 2989.5901,-355.3707 2996.5871,-355.5743"/>
</g>
<!-- prespace_30 -->
<g id="node31" class="node">
<title>prespace_30</title>
<ellipse fill="none" stroke="#000000" cx="3084.5" cy="-327.3005" rx="46.4736" ry="18"/>
<text text-anchor="middle" x="3084.5" y="-323.1005" font-family="Helvetica,sans-Serif" font-size="14.00" fill="#000000">prespace</text>
</g>
<!-- prose_7&#45;&gt;prespace_30 -->
<g id="edge30" class="edge">
<title>prose_7&#45;&gt;prespace_30</title>
<path fill="none" stroke="#000000" stroke-dasharray="5,2" d="M2947.6777,-594.3038C2973.1839,-586.9119 3008.784,-572.6457 3029.5,-547.2009 3075.5042,-490.6952 3083.7331,-400.8937 3084.7645,-355.5189"/>
<polygon fill="#000000" stroke="#000000" points="3088.2643,-355.5455 3084.8895,-345.5026 3081.2648,-355.4581 3088.2643,-355.5455"/>
</g>
<!-- literal_31 -->
<g id="node32" class="node">
<title>literal_31</title>
<ellipse fill="none" stroke="#000000" cx="3180.5" cy="-327.3005" rx="31.481" ry="18"/>
<text text-anchor="middle" x="3180.5" y="-323.1005" font-family="Helvetica,sans-Serif" font-size="14.00" fill="#000000">literal</text>
</g>
<!-- prose_7&#45;&gt;literal_31 -->
<g id="edge31" class="edge">
<title>prose_7&#45;&gt;literal_31</title>
<path fill="none" stroke="#000000" stroke-dasharray="5,2" d="M2949.426,-597.6862C3004.4289,-590.9662 3113.6557,-574.4874 3139.5,-547.2009 3189.2985,-494.6233 3188.3031,-401.9654 3184.0894,-355.5146"/>
<polygon fill="#000000" stroke="#000000" points="3187.5688,-355.1333 3183.0687,-345.5417 3180.6052,-355.8462 3187.5688,-355.1333"/>
</g>
<!-- raw_32 -->
<g id="node33" class="node">
<title>raw_32</title>
<ellipse fill="none" stroke="#000000" cx="3256.5" cy="-327.3005" rx="27" ry="18"/>
<text text-anchor="middle" x="3256.5" y="-323.1005" font-family="Helvetica,sans-Serif" font-size="14.00" fill="#000000">raw</text>
</g>
<!-- prose_7&#45;&gt;raw_32 -->
<g id="edge32" class="edge">
<title>prose_7&#45;&gt;raw_32</title>
<path fill="none" stroke="#000000" stroke-dasharray="5,2" d="M2949.7941,-600.017C3019.9688,-596.748 3183.0781,-585.154 3220.5,-547.2009 3271.2748,-495.7053 3267.0916,-402.1585 3261.1394,-355.4337"/>
<polygon fill="#000000" stroke="#000000" points="3264.5891,-354.8298 3259.7414,-345.4091 3257.6562,-355.7967 3264.5891,-354.8298"/>
</g>
<!-- raw_43 -->
<g id="node44" class="node">
<title>raw_43</title>
<ellipse fill="none" stroke="#000000" cx="3328.5" cy="-327.3005" rx="27" ry="18"/>
<text text-anchor="middle" x="3328.5" y="-323.1005" font-family="Helvetica,sans-Serif" font-size="14.00" fill="#000000">raw</text>
</g>
<!-- prose_8&#45;&gt;raw_43 -->
<g id="edge43" class="edge">
<title>prose_8&#45;&gt;raw_43</title>
<path fill="none" stroke="#000000" stroke-dasharray="5,2" d="M3248.7957,-588.5091C3263.7359,-579.1092 3282.2,-564.8876 3292.5,-547.2009 3328.1252,-486.027 3331.2142,-399.9491 3330.0786,-355.8278"/>
<polygon fill="#000000" stroke="#000000" points="3333.5667,-355.4256 3329.7161,-345.5552 3326.571,-355.6725 3333.5667,-355.4256"/>
</g>
<!-- raw_45 -->
<g id="node46" class="node">
<title>raw_45</title>
<ellipse fill="none" stroke="#000000" cx="3400.5" cy="-327.3005" rx="27" ry="18"/>
<text text-anchor="middle" x="3400.5" y="-323.1005" font-family="Helvetica,sans-Serif" font-size="14.00" fill="#000000">raw</text>
</g>
<!-- prose_9&#45;&gt;raw_45 -->
<g id="edge45" class="edge">
<title>prose_9&#45;&gt;raw_45</title>
<path fill="none" stroke="#000000" stroke-dasharray="5,2" d="M3471.5567,-586.9434C3459.4375,-577.168 3444.7552,-563.1189 3436.5,-547.2009 3403.9913,-484.5162 3399.5389,-399.4269 3399.6608,-355.7507"/>
<polygon fill="#000000" stroke="#000000" points="3403.1625,-355.6167 3399.7761,-345.5776 3396.1629,-355.5373 3403.1625,-355.6167"/>
</g>
<!-- prespace_46 -->
<g id="node47" class="node">
<title>prespace_46</title>
<ellipse fill="none" stroke="#000000" cx="3491.5" cy="-327.3005" rx="46.4736" ry="18"/>
<text text-anchor="middle" x="3491.5" y="-323.1005" font-family="Helvetica,sans-Serif" font-size="14.00" fill="#000000">prespace</text>
</g>
<!-- prose_9&#45;&gt;prespace_46 -->
<g id="edge46" class="edge">
<title>prose_9&#45;&gt;prespace_46</title>
<path fill="none" stroke="#000000" stroke-dasharray="5,2" d="M3491.5,-582.8042C3491.5,-536.0256 3491.5,-412.2641 3491.5,-355.9399"/>
<polygon fill="#000000" stroke="#000000" points="3495.0001,-355.617 3491.5,-345.6171 3488.0001,-355.6171 3495.0001,-355.617"/>
</g>
<!-- literal_47 -->
<g id="node48" class="node">
<title>literal_47</title>
<ellipse fill="none" stroke="#000000" cx="3587.5" cy="-327.3005" rx="31.481" ry="18"/>
<text text-anchor="middle" x="3587.5" y="-323.1005" font-family="Helvetica,sans-Serif" font-size="14.00" fill="#000000">literal</text>
</g>
<!-- prose_9&#45;&gt;literal_47 -->
<g id="edge47" class="edge">
<title>prose_9&#45;&gt;literal_47</title>
<path fill="none" stroke="#000000" stroke-dasharray="5,2" d="M3511.324,-586.8807C3523.3956,-577.0803 3538.0697,-563.0269 3546.5,-547.2009 3579.9107,-484.4795 3586.5059,-399.0664 3587.5502,-355.4502"/>
<polygon fill="#000000" stroke="#000000" points="3591.052,-355.3548 3587.7091,-345.3012 3584.0529,-355.2451 3591.052,-355.3548"/>
</g>
<!-- raw_48 -->
<g id="node49" class="node">
<title>raw_48</title>
<ellipse fill="none" stroke="#000000" cx="3663.5" cy="-327.3005" rx="27" ry="18"/>
<text text-anchor="middle" x="3663.5" y="-323.1005" font-family="Helvetica,sans-Serif" font-size="14.00" fill="#000000">raw</text>
</g>
<!-- prose_9&#45;&gt;raw_48 -->
<g id="edge48" class="edge">
<title>prose_9&#45;&gt;raw_48</title>
<path fill="none" stroke="#000000" stroke-dasharray="5,2" d="M3523.193,-597.5759C3554.6791,-592.2099 3601.8599,-579.0672 3627.5,-547.2009 3672.5151,-491.2549 3671.178,-400.8299 3667.0403,-355.3384"/>
<polygon fill="#000000" stroke="#000000" points="3670.5135,-354.8964 3666.0137,-345.3046 3663.5498,-355.609 3670.5135,-354.8964"/>
</g>
<!-- leaf_53 -->
<g id="node54" class="node">
<title>leaf_53</title>
<polygon fill="none" stroke="#c0c0c0" points="4270.5,-547.1013 3708.5,-547.1013 3708.5,-107.4996 4270.5,-107.4996 4270.5,-547.1013"/>
<text text-anchor="middle" x="3989.5" y="-532.0009" font-family="Inconsolata" font-size="14.00" fill="#000000">local uv = require &quot;luv&quot;</text>
<text text-anchor="middle" x="3989.5" y="-500.6008" font-family="Inconsolata" font-size="14.00" fill="#000000">local function watch(watcher, dir, recur)</text>
<text text-anchor="middle" x="3989.5" y="-485.2008" font-family="Inconsolata" font-size="14.00" fill="#000000"> &#160;&#160;&#160;watcher.dir = dir</text>
<text text-anchor="middle" x="3989.5" y="-469.8008" font-family="Inconsolata" font-size="14.00" fill="#000000"> &#160;&#160;&#160;&#45;&#45; default to a recursive watch</text>
<text text-anchor="middle" x="3989.5" y="-454.4007" font-family="Inconsolata" font-size="14.00" fill="#000000"> &#160;&#160;&#160;if recur == nil then</text>
<text text-anchor="middle" x="3989.5" y="-439.0007" font-family="Inconsolata" font-size="14.00" fill="#000000"> &#160;&#160;&#160;&#160;&#160;&#160;&#160;recur = true</text>
<text text-anchor="middle" x="3989.5" y="-423.6007" font-family="Inconsolata" font-size="14.00" fill="#000000"> &#160;&#160;&#160;end</text>
<text text-anchor="middle" x="3989.5" y="-408.2007" font-family="Inconsolata" font-size="14.00" fill="#000000"> &#160;&#160;&#160;local fse = uv.new_fs_event()</text>
<text text-anchor="middle" x="3989.5" y="-392.8006" font-family="Inconsolata" font-size="14.00" fill="#000000"> &#160;&#160;&#160;watcher.fse = fse</text>
<text text-anchor="middle" x="3989.5" y="-377.4006" font-family="Inconsolata" font-size="14.00" fill="#000000"> &#160;&#160;&#160;uv.fs_event_start(fse, dir,{recursive = recur},function (err,fname,status)</text>
<text text-anchor="middle" x="3989.5" y="-362.0006" font-family="Inconsolata" font-size="14.00" fill="#000000"> &#160;&#160;&#160;&#160;&#160;&#160;&#160;if(err) then</text>
<text text-anchor="middle" x="3989.5" y="-346.6005" font-family="Inconsolata" font-size="14.00" fill="#000000"> &#160;&#160;&#160;&#160;&#160;&#160;&#160;&#160;&#160;&#160;&#160;print(&quot;Error &quot;..err)</text>
<text text-anchor="middle" x="3989.5" y="-331.2005" font-family="Inconsolata" font-size="14.00" fill="#000000"> &#160;&#160;&#160;&#160;&#160;&#160;&#160;else</text>
<text text-anchor="middle" x="3989.5" y="-315.8005" font-family="Inconsolata" font-size="14.00" fill="#000000"> &#160;&#160;&#160;&#160;&#160;&#160;&#160;&#160;&#160;&#160;&#160;local ev = nil</text>
<text text-anchor="middle" x="3989.5" y="-300.4004" font-family="Inconsolata" font-size="14.00" fill="#000000"> &#160;&#160;&#160;&#160;&#160;&#160;&#160;&#160;&#160;&#160;&#160;for k,v in pairs(status) do</text>
<text text-anchor="middle" x="3989.5" y="-285.0004" font-family="Inconsolata" font-size="14.00" fill="#000000"> &#160;&#160;&#160;&#160;&#160;&#160;&#160;&#160;&#160;&#160;&#160;&#160;&#160;&#160;&#160;ev = k</text>
<text text-anchor="middle" x="3989.5" y="-269.6004" font-family="Inconsolata" font-size="14.00" fill="#000000"> &#160;&#160;&#160;&#160;&#160;&#160;&#160;&#160;&#160;&#160;&#160;end</text>
<text text-anchor="middle" x="3989.5" y="-254.2003" font-family="Inconsolata" font-size="14.00" fill="#000000"> &#160;&#160;&#160;&#160;&#160;&#160;&#160;&#160;&#160;&#160;&#160;if ev == &quot;change&quot; then</text>
<text text-anchor="middle" x="3989.5" y="-238.8003" font-family="Inconsolata" font-size="14.00" fill="#000000"> &#160;&#160;&#160;&#160;&#160;&#160;&#160;&#160;&#160;&#160;&#160;&#160;&#160;&#160;watcher:onchange(fname)</text>
<text text-anchor="middle" x="3989.5" y="-223.4003" font-family="Inconsolata" font-size="14.00" fill="#000000"> &#160;&#160;&#160;&#160;&#160;&#160;&#160;&#160;&#160;&#160;&#160;elseif ev == &quot;rename&quot; then</text>
<text text-anchor="middle" x="3989.5" y="-208.0002" font-family="Inconsolata" font-size="14.00" fill="#000000"> &#160;&#160;&#160;&#160;&#160;&#160;&#160;&#160;&#160;&#160;&#160;&#160;&#160;&#160;watcher:onrename(fname)</text>
<text text-anchor="middle" x="3989.5" y="-192.6002" font-family="Inconsolata" font-size="14.00" fill="#000000"> &#160;&#160;&#160;&#160;&#160;&#160;&#160;&#160;&#160;&#160;&#160;else</text>
<text text-anchor="middle" x="3989.5" y="-177.2002" font-family="Inconsolata" font-size="14.00" fill="#000000"> &#160;&#160;&#160;&#160;&#160;&#160;&#160;&#160;&#160;&#160;&#160;&#160;&#160;&#160;print(&quot;Unrecognized event in watch(&quot; .. dir .. &quot;): &quot; ..ev)</text>
<text text-anchor="middle" x="3989.5" y="-161.8002" font-family="Inconsolata" font-size="14.00" fill="#000000"> &#160;&#160;&#160;&#160;&#160;&#160;&#160;&#160;&#160;&#160;&#160;end</text>
<text text-anchor="middle" x="3989.5" y="-146.4001" font-family="Inconsolata" font-size="14.00" fill="#000000"> &#160;&#160;&#160;&#160;&#160;&#160;&#160;end</text>
<text text-anchor="middle" x="3989.5" y="-131.0001" font-family="Inconsolata" font-size="14.00" fill="#000000"> &#160;&#160;&#160;end)</text>
<text text-anchor="middle" x="3989.5" y="-115.6001" font-family="Inconsolata" font-size="14.00" fill="#000000">end</text>
</g>
<!-- codeblock_10&#45;&gt;leaf_53 -->
<g id="edge53" class="edge">
<title>codeblock_10&#45;&gt;leaf_53</title>
<path fill="none" stroke="#000000" stroke-dasharray="5,2" d="M3816.6384,-583.2295C3821.6348,-575.832 3827.9658,-566.4588 3835.2335,-555.6986"/>
<polygon fill="#000000" stroke="#000000" points="3838.2704,-557.4555 3840.9672,-547.2096 3832.4696,-553.5374 3838.2704,-557.4555"/>
</g>
<!-- leaf_54 -->
<g id="node55" class="node">
<title>leaf_54</title>
<polygon fill="none" stroke="#c0c0c0" points="4528.5,-354.5009 4288.5,-354.5009 4288.5,-300.1 4528.5,-300.1 4528.5,-354.5009"/>
<text text-anchor="middle" x="4408.5" y="-339.2005" font-family="Inconsolata" font-size="14.00" fill="#000000">local function stop(watcher)</text>
<text text-anchor="middle" x="4408.5" y="-323.8005" font-family="Inconsolata" font-size="14.00" fill="#000000"> &#160;&#160;uv.fs_event_stop(watcher.fse)</text>
<text text-anchor="middle" x="4408.5" y="-308.4004" font-family="Inconsolata" font-size="14.00" fill="#000000">end</text>
</g>
<!-- codeblock_11&#45;&gt;leaf_54 -->
<g id="edge54" class="edge">
<title>codeblock_11&#45;&gt;leaf_54</title>
<path fill="none" stroke="#000000" stroke-dasharray="5,2" d="M4227.0348,-584.835C4244.2234,-575.5056 4264.4809,-562.5996 4279.5,-547.2009 4333.1651,-492.1791 4373.3808,-410.623 4393.7011,-363.8459"/>
<polygon fill="#000000" stroke="#000000" points="4397.0205,-364.985 4397.7329,-354.4141 4390.5839,-362.2335 4397.0205,-364.985"/>
</g>
<!-- leaf_55 -->
<g id="node56" class="node">
<title>leaf_55</title>
<polygon fill="none" stroke="#c0c0c0" points="4962,-462.9012 4547,-462.9012 4547,-191.6997 4962,-191.6997 4962,-462.9012"/>
<text text-anchor="middle" x="4754.5" y="-447.9007" font-family="Inconsolata" font-size="14.00" fill="#000000">local _W = {__call = watch}</text>
<text text-anchor="middle" x="4754.5" y="-432.5006" font-family="Inconsolata" font-size="14.00" fill="#000000">_W.__index = _W</text>
<text text-anchor="middle" x="4754.5" y="-401.1006" font-family="Inconsolata" font-size="14.00" fill="#000000">function _W.run(watcher)</text>
<text text-anchor="middle" x="4754.5" y="-385.7006" font-family="Inconsolata" font-size="14.00" fill="#000000"> &#160;&#160;uv.run()</text>
<text text-anchor="middle" x="4754.5" y="-370.3005" font-family="Inconsolata" font-size="14.00" fill="#000000">end</text>
<text text-anchor="middle" x="4754.5" y="-338.9005" font-family="Inconsolata" font-size="14.00" fill="#000000">local function Watcher(handlers)</text>
<text text-anchor="middle" x="4754.5" y="-323.5005" font-family="Inconsolata" font-size="14.00" fill="#000000"> &#160;&#160;handlers = handlers or {}</text>
<text text-anchor="middle" x="4754.5" y="-308.1005" font-family="Inconsolata" font-size="14.00" fill="#000000"> &#160;&#160;local watcher = {}</text>
<text text-anchor="middle" x="4754.5" y="-292.7004" font-family="Inconsolata" font-size="14.00" fill="#000000"> &#160;&#160;watcher.onchange = handlers.onchange or function() end</text>
<text text-anchor="middle" x="4754.5" y="-277.3004" font-family="Inconsolata" font-size="14.00" fill="#000000"> &#160;&#160;watcher.onrename = handlers.onrename or function() end</text>
<text text-anchor="middle" x="4754.5" y="-261.9004" font-family="Inconsolata" font-size="14.00" fill="#000000"> &#160;&#160;watcher.stop = stop</text>
<text text-anchor="middle" x="4754.5" y="-246.5003" font-family="Inconsolata" font-size="14.00" fill="#000000"> &#160;&#160;return setmetatable(watcher, _W)</text>
<text text-anchor="middle" x="4754.5" y="-231.1003" font-family="Inconsolata" font-size="14.00" fill="#000000">end</text>
<text text-anchor="middle" x="4754.5" y="-199.7003" font-family="Inconsolata" font-size="14.00" fill="#000000">_W.idEst = _W</text>
</g>
<!-- codeblock_12&#45;&gt;leaf_55 -->
<g id="edge55" class="edge">
<title>codeblock_12&#45;&gt;leaf_55</title>
<path fill="none" stroke="#000000" stroke-dasharray="5,2" d="M4572.2945,-583.2295C4589.0853,-559.6448 4620.1734,-515.978 4651.9761,-471.3073"/>
<polygon fill="#000000" stroke="#000000" points="4654.9709,-473.1356 4657.9194,-462.9592 4649.2684,-469.0757 4654.9709,-473.1356"/>
</g>
<!-- leaf_56 -->
<g id="node57" class="node">
<title>leaf_56</title>
<polygon fill="none" stroke="#c0c0c0" points="5094.5,-345.3005 4980.5,-345.3005 4980.5,-309.3005 5094.5,-309.3005 5094.5,-345.3005"/>
<text text-anchor="middle" x="5037.5" y="-323.8005" font-family="Inconsolata" font-size="14.00" fill="#000000">return Watcher</text>
</g>
<!-- codeblock_13&#45;&gt;leaf_56 -->
<g id="edge56" class="edge">
<title>codeblock_13&#45;&gt;leaf_56</title>
<path fill="none" stroke="#000000" stroke-dasharray="5,2" d="M4922.4104,-585.3352C4939.5967,-576.414 4958.8557,-563.7154 4971.5,-547.2009 5016.1597,-488.8717 5030.7235,-400.5529 5035.3781,-355.6582"/>
<polygon fill="#000000" stroke="#000000" points="5038.8835,-355.7646 5036.3387,-345.48 5031.9145,-355.1068 5038.8835,-355.7646"/>
</g>
<!-- leaf_16 -->
<g id="node17" class="node">
<title>leaf_16</title>
<polygon fill="none" stroke="#c0c0c0" points="499,-71.6012 0,-71.6012 0,.2011 499,.2011 499,-71.6012"/>
<text text-anchor="middle" x="249.5" y="-8.2" font-family="Inconsolata" font-size="14.00" fill="#000000">Actual, re&#45;entrant event response is inherently similar to callbacks.</text>
</g>
<!-- raw_15&#45;&gt;leaf_16 -->
<g id="edge16" class="edge">
<title>raw_15&#45;&gt;leaf_16</title>
<path fill="none" stroke="#000000" stroke-dasharray="5,2" d="M2183.0966,-309.2218C2190.4347,-266.4276 2201.7953,-158.6827 2142.5,-107.4 2109.3014,-78.6876 655.3029,-75.2144 509.5598,-71.0658"/>
<polygon fill="#000000" stroke="#000000" points="509.4215,-67.557 499.2836,-70.6349 509.1282,-74.5508 509.4215,-67.557"/>
</g>
<!-- leaf_18 -->
<g id="node19" class="node">
<title>leaf_18</title>
<polygon fill="none" stroke="#c0c0c0" points="995.5,-55.6021 517.5,-55.6021 517.5,-15.7979 995.5,-15.7979 995.5,-55.6021"/>
<text text-anchor="middle" x="756.5" y="-24.2" font-family="Inconsolata" font-size="14.00" fill="#000000">First&#45;class continuations are arguably the best way to model this.</text>
</g>
<!-- raw_17&#45;&gt;leaf_18 -->
<g id="edge18" class="edge">
<title>raw_17&#45;&gt;leaf_18</title>
<path fill="none" stroke="#000000" stroke-dasharray="5,2" d="M2255.1629,-309.2637C2262.6606,-266.5615 2274.4402,-159.0031 2215.5,-107.4 2164.8589,-63.0629 1071.5568,-77.2044 1004.5,-71.4 965.3144,-68.0082 922.8712,-62.5587 884.3601,-56.9282"/>
<polygon fill="#000000" stroke="#000000" points="884.5397,-53.4168 874.1351,-55.4158 883.5153,-60.3414 884.5397,-53.4168"/>
</g>
<!-- leaf_20 -->
<g id="node21" class="node">
<title>leaf_20</title>
<polygon fill="none" stroke="#c0c0c0" points="1569,-70.9004 1014,-70.9004 1014,-.4996 1569,-.4996 1569,-70.9004"/>
<text text-anchor="middle" x="1291.5" y="-39.6001" font-family="Inconsolata" font-size="14.00" fill="#000000">Registered callbacks are a) usable from stock LuaJIT and b) more dynamic than</text>
<text text-anchor="middle" x="1291.5" y="-24.2" font-family="Inconsolata" font-size="14.00" fill="#000000">continuations. &#160;If you want that dynamicism with continuations, you can of</text>
<text text-anchor="middle" x="1291.5" y="-8.8" font-family="Inconsolata" font-size="14.00" fill="#000000">course have it, but you still have to write it.</text>
</g>
<!-- raw_19&#45;&gt;leaf_20 -->
<g id="edge20" class="edge">
<title>raw_19&#45;&gt;leaf_20</title>
<path fill="none" stroke="#000000" stroke-dasharray="5,2" d="M2327.0914,-309.3445C2334.4326,-266.8191 2345.8948,-159.6195 2287.5,-107.4 2230.5965,-56.5142 1693.3895,-76.8403 1579.0511,-71.209"/>
<polygon fill="#000000" stroke="#000000" points="1579.2759,-67.7163 1569.0689,-70.5565 1578.8192,-74.7014 1579.2759,-67.7163"/>
</g>
<!-- leaf_22 -->
<g id="node23" class="node">
<title>leaf_22</title>
<polygon fill="none" stroke="#c0c0c0" points="2149.5,-55.6021 1587.5,-55.6021 1587.5,-15.7979 2149.5,-15.7979 2149.5,-55.6021"/>
<text text-anchor="middle" x="1868.5" y="-24.2" font-family="Inconsolata" font-size="14.00" fill="#000000">Since we do want to be able to update handlers, we don&#39;t need the extra layer.</text>
</g>
<!-- raw_21&#45;&gt;leaf_22 -->
<g id="edge22" class="edge">
<title>raw_21&#45;&gt;leaf_22</title>
<path fill="none" stroke="#000000" stroke-dasharray="5,2" d="M2398.8096,-309.387C2405.426,-267.4235 2415.2315,-162.1774 2359.5,-107.4 2353.4579,-101.4614 2169.3503,-75.7358 2028.3533,-56.7906"/>
<polygon fill="#000000" stroke="#000000" points="2028.6557,-53.2999 2018.279,-55.4386 2027.7246,-60.2377 2028.6557,-53.2999"/>
</g>
<!-- leaf_33 -->
<g id="node34" class="node">
<title>leaf_33</title>
<polygon fill="none" stroke="#c0c0c0" points="2387,-55.6021 2168,-55.6021 2168,-15.7979 2387,-15.7979 2387,-55.6021"/>
<text text-anchor="middle" x="2277.5" y="-24.2" font-family="Inconsolata" font-size="14.00" fill="#000000">To set up a watcher, register</text>
</g>
<!-- raw_23&#45;&gt;leaf_33 -->
<g id="edge33" class="edge">
<title>raw_23&#45;&gt;leaf_33</title>
<path fill="none" stroke="#000000" stroke-dasharray="5,2" d="M2469.7956,-309.1874C2473.922,-268.5911 2478.2414,-169.0561 2431.5,-107.4 2414.9907,-85.6228 2390.2563,-70.2167 2365.4143,-59.4228"/>
<polygon fill="#000000" stroke="#000000" points="2366.4844,-56.0784 2355.905,-55.508 2363.8197,-62.5513 2366.4844,-56.0784"/>
</g>
<!-- leaf_34 -->
<g id="node35" class="node">
<title>leaf_34</title>
<polygon fill="none" stroke="#c0c0c0" points="2459.5,-53.7 2405.5,-53.7 2405.5,-17.7 2459.5,-17.7 2459.5,-53.7"/>
<text text-anchor="middle" x="2432.5" y="-32.2" font-family="Inconsolata" font-size="14.00" fill="#000000"> </text>
</g>
<!-- prespace_24&#45;&gt;leaf_34 -->
<g id="edge34" class="edge">
<title>prespace_24&#45;&gt;leaf_34</title>
<path fill="none" stroke="#000000" stroke-dasharray="5,2" d="M2557.2226,-309.3046C2553.7837,-270.1886 2541.8245,-175.4687 2503.5,-107.4 2502.6867,-105.9555 2478.0003,-81.1397 2457.9639,-61.1029"/>
<polygon fill="#000000" stroke="#000000" points="2460.3928,-58.5821 2450.8452,-53.9892 2455.4448,-63.5336 2460.3928,-58.5821"/>
</g>
<!-- leaf_35 -->
<g id="node36" class="node">
<title>leaf_35</title>
<polygon fill="none" stroke="#c0c0c0" points="2655,-53.7 2478,-53.7 2478,-17.7 2655,-17.7 2655,-53.7"/>
<text text-anchor="middle" x="2566.5" y="-32.2" font-family="Inconsolata" font-size="14.00" fill="#000000">watcher:onchange(fname)</text>
</g>
<!-- literal_25&#45;&gt;leaf_35 -->
<g id="edge35" class="edge">
<title>literal_25&#45;&gt;leaf_35</title>
<path fill="none" stroke="#000000" stroke-dasharray="5,2" d="M2653.5378,-309.2476C2650.9793,-270.8057 2642.112,-178.5627 2613.5,-107.4 2606.9869,-91.2008 2596.5742,-74.7926 2587.2032,-61.7683"/>
<polygon fill="#000000" stroke="#000000" points="2590.0143,-59.683 2581.2471,-53.7342 2584.391,-63.8519 2590.0143,-59.683"/>
</g>
<!-- leaf_36 -->
<g id="node37" class="node">
<title>leaf_36</title>
<polygon fill="none" stroke="#c0c0c0" points="2738,-53.7 2673,-53.7 2673,-17.7 2738,-17.7 2738,-53.7"/>
<text text-anchor="middle" x="2705.5" y="-32.2" font-family="Inconsolata" font-size="14.00" fill="#000000"> and/or</text>
</g>
<!-- raw_26&#45;&gt;leaf_36 -->
<g id="edge36" class="edge">
<title>raw_26&#45;&gt;leaf_36</title>
<path fill="none" stroke="#000000" stroke-dasharray="5,2" d="M2728.9361,-309.0595C2724.7095,-259.7605 2713.0344,-123.5812 2707.9355,-64.1081"/>
<polygon fill="#000000" stroke="#000000" points="2711.4048,-63.5985 2707.0633,-53.934 2704.4304,-64.1965 2711.4048,-63.5985"/>
</g>
<!-- leaf_37 -->
<g id="node38" class="node">
<title>leaf_37</title>
<polygon fill="none" stroke="#c0c0c0" points="2810.5,-53.7 2756.5,-53.7 2756.5,-17.7 2810.5,-17.7 2810.5,-53.7"/>
</g>
<!-- prespace_27&#45;&gt;leaf_37 -->
<g id="edge37" class="edge">
<title>prespace_27&#45;&gt;leaf_37</title>
<path fill="none" stroke="#000000" stroke-dasharray="5,2" d="M2819.1229,-309.0595C2812.6985,-259.7605 2794.9523,-123.5812 2787.202,-64.1081"/>
<polygon fill="#000000" stroke="#000000" points="2790.6391,-63.3979 2785.8762,-53.934 2783.6978,-64.3025 2790.6391,-63.3979"/>
</g>
<!-- leaf_38 -->
<g id="node39" class="node">
<title>leaf_38</title>
<polygon fill="none" stroke="#c0c0c0" points="3006,-53.7 2829,-53.7 2829,-17.7 3006,-17.7 3006,-53.7"/>
<text text-anchor="middle" x="2917.5" y="-32.2" font-family="Inconsolata" font-size="14.00" fill="#000000">watcher:onrename(fname)</text>
</g>
<!-- literal_28&#45;&gt;leaf_38 -->
<g id="edge38" class="edge">
<title>literal_28&#45;&gt;leaf_38</title>
<path fill="none" stroke="#000000" stroke-dasharray="5,2" d="M2917.5,-309.0595C2917.5,-259.7605 2917.5,-123.5812 2917.5,-64.1081"/>
<polygon fill="#000000" stroke="#000000" points="2921.0001,-63.934 2917.5,-53.934 2914.0001,-63.9341 2921.0001,-63.934"/>
</g>
<!-- leaf_39 -->
<g id="node40" class="node">
<title>leaf_39</title>
<polygon fill="none" stroke="#c0c0c0" points="3103,-53.7 3024,-53.7 3024,-17.7 3103,-17.7 3103,-53.7"/>
<text text-anchor="middle" x="3063.5" y="-32.2" font-family="Inconsolata" font-size="14.00" fill="#000000">. &#160;That&#39;s</text>
</g>
<!-- raw_29&#45;&gt;leaf_39 -->
<g id="edge39" class="edge">
<title>raw_29&#45;&gt;leaf_39</title>
<path fill="none" stroke="#000000" stroke-dasharray="5,2" d="M2994.737,-309.2361C2997.7156,-271.1531 3006.7941,-180.1491 3029.5,-107.4 3034.2562,-92.1614 3041.6726,-76.028 3048.3666,-62.932"/>
<polygon fill="#000000" stroke="#000000" points="3051.5124,-64.4695 3053.0649,-53.989 3045.3156,-61.2139 3051.5124,-64.4695"/>
</g>
<!-- leaf_40 -->
<g id="node41" class="node">
<title>leaf_40</title>
<polygon fill="none" stroke="#c0c0c0" points="3175.5,-53.7 3121.5,-53.7 3121.5,-17.7 3175.5,-17.7 3175.5,-53.7"/>
<text text-anchor="middle" x="3148.5" y="-32.2" font-family="Inconsolata" font-size="14.00" fill="#000000"> </text>
</g>
<!-- prespace_30&#45;&gt;leaf_40 -->
<g id="edge40" class="edge">
<title>prespace_30&#45;&gt;leaf_40</title>
<path fill="none" stroke="#000000" stroke-dasharray="5,2" d="M3088.5035,-309.0595C3099.346,-259.6582 3129.3361,-123.0158 3142.3461,-63.7389"/>
<polygon fill="#000000" stroke="#000000" points="3145.7728,-64.4519 3144.498,-53.934 3138.9356,-62.9512 3145.7728,-64.4519"/>
</g>
<!-- leaf_41 -->
<g id="node42" class="node">
<title>leaf_41</title>
<polygon fill="none" stroke="#c0c0c0" points="3433.5,-53.7 3193.5,-53.7 3193.5,-17.7 3433.5,-17.7 3433.5,-53.7"/>
<text text-anchor="middle" x="3313.5" y="-32.2" font-family="Inconsolata" font-size="14.00" fill="#000000">function onchange(watcher,fname)</text>
</g>
<!-- literal_31&#45;&gt;leaf_41 -->
<g id="edge41" class="edge">
<title>literal_31&#45;&gt;leaf_41</title>
<path fill="none" stroke="#000000" stroke-dasharray="5,2" d="M3179.5928,-309.259C3178.4449,-269.6476 3180.3381,-173.3532 3220.5,-107.4 3232.4372,-87.797 3251.8604,-71.5693 3269.8771,-59.5392"/>
<polygon fill="#000000" stroke="#000000" points="3272.0348,-62.3138 3278.5697,-53.9744 3268.2606,-56.4183 3272.0348,-62.3138"/>
</g>
<!-- leaf_42 -->
<g id="node43" class="node">
<title>leaf_42</title>
<polygon fill="none" stroke="#c0c0c0" points="3505.5,-53.7 3451.5,-53.7 3451.5,-17.7 3505.5,-17.7 3505.5,-53.7"/>
<text text-anchor="middle" x="3478.5" y="-32.2" font-family="Inconsolata" font-size="14.00" fill="#000000">!</text>
</g>
<!-- raw_32&#45;&gt;leaf_42 -->
<g id="edge42" class="edge">
<title>raw_32&#45;&gt;leaf_42</title>
<path fill="none" stroke="#000000" stroke-dasharray="5,2" d="M3253.4852,-309.4087C3247.603,-267.9502 3239.4363,-164.5017 3292.5,-107.4 3339.1708,-57.1777 3382.6107,-104.7724 3442.5,-71.4 3447.4978,-68.6151 3452.2785,-64.9429 3456.6302,-61.0134"/>
<polygon fill="#000000" stroke="#000000" points="3459.2862,-63.31 3463.954,-53.7989 3454.3738,-58.3232 3459.2862,-63.31"/>
</g>
<!-- leaf_44 -->
<g id="node45" class="node">
<title>leaf_44</title>
<polygon fill="none" stroke="#c0c0c0" points="4051,-55.6021 3524,-55.6021 3524,-15.7979 4051,-15.7979 4051,-55.6021"/>
<text text-anchor="middle" x="3787.5" y="-24.2" font-family="Inconsolata" font-size="14.00" fill="#000000">This can be done on creation, after creation, or after setting the watch.</text>
</g>
<!-- raw_43&#45;&gt;leaf_44 -->
<g id="edge44" class="edge">
<title>raw_43&#45;&gt;leaf_44</title>
<path fill="none" stroke="#000000" stroke-dasharray="5,2" d="M3325.2268,-309.1603C3318.7938,-267.1724 3309.5359,-162.6749 3364.5,-107.4 3374.4195,-97.4245 3519.9855,-74.2471 3637.6201,-56.9269"/>
<polygon fill="#000000" stroke="#000000" points="3638.445,-60.3434 3647.8305,-55.4279 3637.4281,-53.4177 3638.445,-60.3434"/>
</g>
<!-- leaf_49 -->
<g id="node50" class="node">
<title>leaf_49</title>
<polygon fill="none" stroke="#c0c0c0" points="4239.5,-55.6021 4069.5,-55.6021 4069.5,-15.7979 4239.5,-15.7979 4239.5,-55.6021"/>
<text text-anchor="middle" x="4154.5" y="-24.2" font-family="Inconsolata" font-size="14.00" fill="#000000">To stop watching, call</text>
</g>
<!-- raw_45&#45;&gt;leaf_49 -->
<g id="edge49" class="edge">
<title>raw_45&#45;&gt;leaf_49</title>
<path fill="none" stroke="#000000" stroke-dasharray="5,2" d="M3396.9326,-309.3712C3389.6438,-266.9042 3378.2881,-159.8232 3436.5,-107.4 3488.024,-60.9997 3991.6653,-85.7586 4059.5,-71.4 4073.2319,-68.4934 4087.617,-63.9387 4100.919,-59.043"/>
<polygon fill="#000000" stroke="#000000" points="4102.289,-62.2666 4110.3886,-55.4367 4099.7977,-55.7249 4102.289,-62.2666"/>
</g>
<!-- leaf_50 -->
<g id="node51" class="node">
<title>leaf_50</title>
<polygon fill="none" stroke="#c0c0c0" points="4311.5,-53.7 4257.5,-53.7 4257.5,-17.7 4311.5,-17.7 4311.5,-53.7"/>
<text text-anchor="middle" x="4284.5" y="-32.2" font-family="Inconsolata" font-size="14.00" fill="#000000"> </text>
</g>
<!-- prespace_46&#45;&gt;leaf_50 -->
<g id="edge50" class="edge">
<title>prespace_46&#45;&gt;leaf_50</title>
<path fill="none" stroke="#000000" stroke-dasharray="5,2" d="M3489.7295,-309.1267C3486.6673,-266.1242 3485.7892,-157.957 3547.5,-107.4 3607.8303,-57.974 4177.1684,-102.9355 4248.5,-71.4 4254.0699,-68.9376 4259.2586,-65.1986 4263.8654,-61.0528"/>
<polygon fill="#000000" stroke="#000000" points="4266.4634,-63.404 4271.0334,-53.8454 4261.5001,-58.4678 4266.4634,-63.404"/>
</g>
<!-- leaf_51 -->
<g id="node52" class="node">
<title>leaf_51</title>
<polygon fill="none" stroke="#c0c0c0" points="4443.5,-53.7 4329.5,-53.7 4329.5,-17.7 4443.5,-17.7 4443.5,-53.7"/>
<text text-anchor="middle" x="4386.5" y="-32.2" font-family="Inconsolata" font-size="14.00" fill="#000000">watcher:stop()</text>
</g>
<!-- literal_47&#45;&gt;leaf_51 -->
<g id="edge51" class="edge">
<title>literal_47&#45;&gt;leaf_51</title>
<path fill="none" stroke="#000000" stroke-dasharray="5,2" d="M3584.28,-309.3019C3577.8103,-266.6832 3568.4968,-159.2943 3627.5,-107.4 3685.3968,-56.4789 4246.2697,-92.2534 4320.5,-71.4 4330.7646,-68.5164 4341.2118,-63.8277 4350.6757,-58.7829"/>
<polygon fill="#000000" stroke="#000000" points="4352.4002,-61.8286 4359.41,-53.8842 4348.976,-55.7233 4352.4002,-61.8286"/>
</g>
<!-- leaf_52 -->
<g id="node53" class="node">
<title>leaf_52</title>
<polygon fill="none" stroke="#c0c0c0" points="4515.5,-53.7 4461.5,-53.7 4461.5,-17.7 4515.5,-17.7 4515.5,-53.7"/>
<text text-anchor="middle" x="4488.5" y="-32.2" font-family="Inconsolata" font-size="14.00" fill="#000000">.</text>
</g>
<!-- raw_48&#45;&gt;leaf_52 -->
<g id="edge52" class="edge">
<title>raw_48&#45;&gt;leaf_52</title>
<path fill="none" stroke="#000000" stroke-dasharray="5,2" d="M3659.8985,-309.3332C3652.5351,-266.7829 3641.028,-159.533 3699.5,-107.4 3762.0208,-51.6572 4375.8307,-105.1333 4452.5,-71.4 4458.0742,-68.9475 4463.265,-65.2129 4467.8724,-61.0686"/>
<polygon fill="#000000" stroke="#000000" points="4470.4705,-63.4196 4475.0402,-53.8609 4465.507,-58.4835 4470.4705,-63.4196"/>
</g>
</g>
</svg>
