<?xml version="1.0" encoding="UTF-8" standalone="no"?><svg xmlns="http://www.w3.org/2000/svg" xmlns:xlink="http://www.w3.org/1999/xlink" contentScriptType="application/ecmascript" contentStyleType="text/css" height="1135px" preserveAspectRatio="none" style="width:1161px;height:1135px;background:#000000;" version="1.1" viewBox="0 0 1161 1135" width="1161px" zoomAndPan="magnify"><defs><filter height="300%" id="fwa3ib13a3o9z" width="300%" x="-1" y="-1"><feGaussianBlur result="blurOut" stdDeviation="2.0"/><feColorMatrix in="blurOut" result="blurOut2" type="matrix" values="0 0 0 0 0 0 0 0 0 0 0 0 0 0 0 0 0 0 .4 0"/><feOffset dx="4.0" dy="4.0" in="blurOut2" result="blurOut3"/><feBlend in="SourceGraphic" in2="blurOut3" mode="normal"/></filter></defs><g><rect fill="#00008B" height="1123.2539" style="stroke:#A80036;stroke-width:1.0;" width="458.5" x="57" y="6"/><text fill="#FFFF00" font-family="sans-serif" font-size="13" font-weight="bold" lengthAdjust="spacing" textLength="91" x="238.75" y="18.5684">Modeselektor</text><rect fill="#006400" height="1123.2539" style="stroke:#A80036;stroke-width:1.0;" width="457.5" x="656" y="6"/><text fill="#FFFF00" font-family="sans-serif" font-size="13" font-weight="bold" lengthAdjust="spacing" textLength="54" x="855.75" y="18.5684">Maestro</text><rect fill="#FF0000" filter="url(#fwa3ib13a3o9z)" height="171.332" style="stroke:#A80036;stroke-width:1.0;" width="10" x="90" y="76.3105"/><rect fill="#FF0000" filter="url(#fwa3ib13a3o9z)" height="743.2793" style="stroke:#A80036;stroke-width:1.0;" width="10" x="302" y="332.9746"/><rect fill="#A9A9A9" filter="url(#fwa3ib13a3o9z)" height="708.9688" style="stroke:#A80036;stroke-width:1.0;" width="10" x="307" y="367.2852"/><rect fill="#FF0000" filter="url(#fwa3ib13a3o9z)" height="708.9688" style="stroke:#A80036;stroke-width:1.0;" width="10" x="454" y="367.2852"/><rect fill="#A9A9A9" filter="url(#fwa3ib13a3o9z)" height="488.1055" style="stroke:#A80036;stroke-width:1.0;" width="10" x="459" y="406.5957"/><rect fill="#A9A9A9" filter="url(#fwa3ib13a3o9z)" height="109.9316" style="stroke:#A80036;stroke-width:1.0;" width="10" x="459" y="966.3223"/><rect fill="#FF0000" filter="url(#fwa3ib13a3o9z)" height="488.1055" style="stroke:#A80036;stroke-width:1.0;" width="10" x="704" y="406.5957"/><rect fill="#A9A9A9" filter="url(#fwa3ib13a3o9z)" height="71.6211" style="stroke:#A80036;stroke-width:1.0;" width="10" x="709" y="498.5957"/><rect fill="#A9A9A9" filter="url(#fwa3ib13a3o9z)" height="71.6211" style="stroke:#A80036;stroke-width:1.0;" width="10" x="709" y="692.8379"/><rect fill="#A9A9A9" filter="url(#fwa3ib13a3o9z)" height="71.6211" style="stroke:#A80036;stroke-width:1.0;" width="10" x="709" y="793.7695"/><rect fill="#FF0000" filter="url(#fwa3ib13a3o9z)" height="100.9316" style="stroke:#A80036;stroke-width:1.0;" width="10" x="709" y="966.3223"/><rect fill="#A9A9A9" filter="url(#fwa3ib13a3o9z)" height="71.6211" style="stroke:#A80036;stroke-width:1.0;" width="10" x="709" y="966.3223"/><rect fill="#FF0000" filter="url(#fwa3ib13a3o9z)" height="71.6211" style="stroke:#A80036;stroke-width:1.0;" width="10" x="894" y="498.5957"/><rect fill="#FF0000" filter="url(#fwa3ib13a3o9z)" height="71.6211" style="stroke:#A80036;stroke-width:1.0;" width="10" x="894" y="793.7695"/><rect fill="#FF0000" filter="url(#fwa3ib13a3o9z)" height="71.6211" style="stroke:#A80036;stroke-width:1.0;" width="10" x="894" y="966.3223"/><rect fill="#FF0000" filter="url(#fwa3ib13a3o9z)" height="71.6211" style="stroke:#A80036;stroke-width:1.0;" width="10" x="1037.5" y="692.8379"/><line style="stroke:#A80036;stroke-width:1.0;stroke-dasharray:5.0,5.0;" x1="95" x2="95" y1="66.3105" y2="1085.2539"/><line style="stroke:#A80036;stroke-width:1.0;stroke-dasharray:5.0,5.0;" x1="307" x2="307" y1="210.832" y2="1085.2539"/><line style="stroke:#A80036;stroke-width:1.0;stroke-dasharray:5.0,5.0;" x1="458.5" x2="458.5" y1="159.832" y2="1085.2539"/><line style="stroke:#A80036;stroke-width:1.0;stroke-dasharray:5.0,5.0;" x1="709" x2="709" y1="410.7852" y2="1085.2539"/><line style="stroke:#A80036;stroke-width:1.0;stroke-dasharray:5.0,5.0;" x1="898.5" x2="898.5" y1="461.7852" y2="1085.2539"/><line style="stroke:#A80036;stroke-width:1.0;stroke-dasharray:5.0,5.0;" x1="1042.5" x2="1042.5" y1="656.0273" y2="1085.2539"/><rect fill="#FEFECE" filter="url(#fwa3ib13a3o9z)" height="36" style="stroke:#A80036;stroke-width:1.5;" width="64" x="61" y="25.3105"/><ellipse cx="79" cy="43.3105" fill="#ADD1B2" rx="11" ry="11" style="stroke:#A80036;stroke-width:1.0;"/><path d="M80.126,39.9336 L83.5708,50.0605 L81.1055,50.0605 L79.2461,44.6235 L77.1294,50.0605 L74.6641,50.0605 L78.0757,41.187 L77.7354,40.1992 Q77.5278,39.585 77.2041,39.3359 Q76.8804,39.0952 76.1001,39.0952 L75.1704,39.0952 L75.1704,37.1445 L76.4155,37.1445 Q77.9263,37.1445 78.7148,37.7588 Q79.6362,38.4893 80.126,39.9336 Z " fill="#000000"/><text fill="#000000" font-family="sans-serif" font-size="14" lengthAdjust="spacing" textLength="22" x="96" y="45.8457">Act</text><rect fill="#FEFECE" filter="url(#fwa3ib13a3o9z)" height="36" style="stroke:#A80036;stroke-width:1.5;" width="64" x="61" y="1084.2539"/><ellipse cx="79" cy="1102.2539" fill="#ADD1B2" rx="11" ry="11" style="stroke:#A80036;stroke-width:1.0;"/><path d="M80.126,1098.877 L83.5708,1109.0039 L81.1055,1109.0039 L79.2461,1103.5669 L77.1294,1109.0039 L74.6641,1109.0039 L78.0757,1100.1304 L77.7354,1099.1426 Q77.5278,1098.5283 77.2041,1098.2793 Q76.8804,1098.0386 76.1001,1098.0386 L75.1704,1098.0386 L75.1704,1096.0879 L76.4155,1096.0879 Q77.9263,1096.0879 78.7148,1096.7021 Q79.6362,1097.4326 80.126,1098.877 Z " fill="#000000"/><text fill="#000000" font-family="sans-serif" font-size="14" lengthAdjust="spacing" textLength="22" x="96" y="1104.7891">Act</text><rect fill="#FEFECE" filter="url(#fwa3ib13a3o9z)" height="36" style="stroke:#A80036;stroke-width:1.5;" width="144" x="233" y="1084.2539"/><ellipse cx="251" cy="1102.2539" fill="#FFD700" rx="11" ry="11" style="stroke:#A80036;stroke-width:1.0;"/><path d="M246.9868,1104.4141 Q246.9868,1103.4097 247.6509,1102.7871 Q248.3149,1102.1646 249.5767,1101.9902 Q248.4561,1101.8325 247.8584,1101.3054 Q247.2607,1100.7783 247.2607,1099.9482 Q247.2607,1098.8276 248.3025,1098.1843 Q249.3442,1097.541 251.2036,1097.541 Q252.0835,1097.541 252.5732,1097.6157 Q253.063,1097.6904 254.0674,1097.9395 L254.0674,1099.7241 Q253.1958,1099.4419 252.5774,1099.3298 Q251.959,1099.2178 251.4692,1099.2178 Q250.4897,1099.2178 250,1099.4917 Q249.5103,1099.7656 249.5103,1100.2139 Q249.5103,1100.5791 249.9875,1100.8447 Q250.4648,1101.1104 251.3281,1101.1104 L252.5815,1101.1104 L252.5815,1102.9614 L251.3281,1102.9614 Q250.3237,1102.9614 249.7717,1103.3557 Q249.2197,1103.75 249.2197,1104.2979 Q249.2197,1104.8042 249.7759,1105.1528 Q250.332,1105.5015 251.4443,1105.5015 Q252.2744,1105.5015 252.8596,1105.3977 Q253.4448,1105.2939 254.4243,1104.9038 L254.4243,1106.7217 Q253.312,1107.0205 252.6355,1107.1035 Q251.959,1107.1865 251.0459,1107.1865 Q249.1865,1107.1865 248.0867,1106.4727 Q246.9868,1105.7588 246.9868,1104.4141 Z " fill="#000000"/><text fill="#000000" font-family="sans-serif" font-size="14" lengthAdjust="spacing" textLength="102" x="268" y="1104.7891">CheckRespond</text><rect fill="#FEFECE" filter="url(#fwa3ib13a3o9z)" height="36" style="stroke:#A80036;stroke-width:1.5;" width="101" x="406.5" y="1084.2539"/><ellipse cx="424.5" cy="1102.2539" fill="#33FF22" rx="11" ry="11" style="stroke:#A80036;stroke-width:1.0;"/><path d="M420.1289,1098.457 L428.1143,1098.457 L428.1143,1100.3247 L425.3335,1100.3247 L425.3335,1104.7241 Q425.3335,1105.3467 425.6406,1105.6123 Q425.9478,1105.8862 426.645,1105.8862 L427.1265,1105.8862 L427.1265,1107.7539 L426.479,1107.7539 Q424.3872,1107.7539 423.6401,1107.0898 Q422.9097,1106.4424 422.9097,1104.6079 L422.9097,1100.3247 L420.1289,1100.3247 Z " fill="#000000"/><text fill="#000000" font-family="sans-serif" font-size="14" lengthAdjust="spacing" textLength="59" x="441.5" y="1104.7891">Dispatch</text><rect fill="#FEFECE" filter="url(#fwa3ib13a3o9z)" height="36" style="stroke:#A80036;stroke-width:1.5;" width="94" x="660" y="1084.2539"/><ellipse cx="678" cy="1102.2539" fill="#ADD1B2" rx="11" ry="11" style="stroke:#A80036;stroke-width:1.0;"/><path d="M679.126,1098.877 L682.5708,1109.0039 L680.1055,1109.0039 L678.2461,1103.5669 L676.1294,1109.0039 L673.6641,1109.0039 L677.0757,1100.1304 L676.7354,1099.1426 Q676.5278,1098.5283 676.2041,1098.2793 Q675.8804,1098.0386 675.1001,1098.0386 L674.1704,1098.0386 L674.1704,1096.0879 L675.4155,1096.0879 Q676.9263,1096.0879 677.7148,1096.7021 Q678.6362,1097.4326 679.126,1098.877 Z " fill="#000000"/><text fill="#000000" font-family="sans-serif" font-size="14" lengthAdjust="spacing" textLength="52" x="695" y="1104.7891">Process</text><rect fill="#FEFECE" filter="url(#fwa3ib13a3o9z)" height="36" style="stroke:#A80036;stroke-width:1.5;" width="129" x="832.5" y="1084.2539"/><ellipse cx="850.5" cy="1102.2539" fill="#33FF22" rx="11" ry="11" style="stroke:#A80036;stroke-width:1.0;"/><path d="M846.1289,1098.457 L854.1143,1098.457 L854.1143,1100.3247 L851.3335,1100.3247 L851.3335,1104.7241 Q851.3335,1105.3467 851.6406,1105.6123 Q851.9478,1105.8862 852.645,1105.8862 L853.1265,1105.8862 L853.1265,1107.7539 L852.479,1107.7539 Q850.3872,1107.7539 849.6401,1107.0898 Q848.9097,1106.4424 848.9097,1104.6079 L848.9097,1100.3247 L846.1289,1100.3247 Z " fill="#000000"/><text fill="#000000" font-family="sans-serif" font-size="14" lengthAdjust="spacing" textLength="87" x="867.5" y="1104.7891">DispatchOne</text><rect fill="#FEFECE" filter="url(#fwa3ib13a3o9z)" height="36" style="stroke:#A80036;stroke-width:1.5;" width="130" x="975.5" y="1084.2539"/><ellipse cx="993.5" cy="1102.2539" fill="#33FF22" rx="11" ry="11" style="stroke:#A80036;stroke-width:1.0;"/><path d="M989.1289,1098.457 L997.1143,1098.457 L997.1143,1100.3247 L994.3335,1100.3247 L994.3335,1104.7241 Q994.3335,1105.3467 994.6406,1105.6123 Q994.9478,1105.8862 995.645,1105.8862 L996.1265,1105.8862 L996.1265,1107.7539 L995.479,1107.7539 Q993.3872,1107.7539 992.6401,1107.0898 Q991.9097,1106.4424 991.9097,1104.6079 L991.9097,1100.3247 L989.1289,1100.3247 Z " fill="#000000"/><text fill="#000000" font-family="sans-serif" font-size="14" lengthAdjust="spacing" textLength="88" x="1010.5" y="1104.7891">DispatchTwo</text><rect fill="#FF0000" filter="url(#fwa3ib13a3o9z)" height="171.332" style="stroke:#A80036;stroke-width:1.0;" width="10" x="90" y="76.3105"/><rect fill="#FF0000" filter="url(#fwa3ib13a3o9z)" height="743.2793" style="stroke:#A80036;stroke-width:1.0;" width="10" x="302" y="332.9746"/><rect fill="#A9A9A9" filter="url(#fwa3ib13a3o9z)" height="708.9688" style="stroke:#A80036;stroke-width:1.0;" width="10" x="307" y="367.2852"/><rect fill="#FF0000" filter="url(#fwa3ib13a3o9z)" height="708.9688" style="stroke:#A80036;stroke-width:1.0;" width="10" x="454" y="367.2852"/><rect fill="#A9A9A9" filter="url(#fwa3ib13a3o9z)" height="488.1055" style="stroke:#A80036;stroke-width:1.0;" width="10" x="459" y="406.5957"/><rect fill="#A9A9A9" filter="url(#fwa3ib13a3o9z)" height="109.9316" style="stroke:#A80036;stroke-width:1.0;" width="10" x="459" y="966.3223"/><rect fill="#FF0000" filter="url(#fwa3ib13a3o9z)" height="488.1055" style="stroke:#A80036;stroke-width:1.0;" width="10" x="704" y="406.5957"/><rect fill="#A9A9A9" filter="url(#fwa3ib13a3o9z)" height="71.6211" style="stroke:#A80036;stroke-width:1.0;" width="10" x="709" y="498.5957"/><rect fill="#A9A9A9" filter="url(#fwa3ib13a3o9z)" height="71.6211" style="stroke:#A80036;stroke-width:1.0;" width="10" x="709" y="692.8379"/><rect fill="#A9A9A9" filter="url(#fwa3ib13a3o9z)" height="71.6211" style="stroke:#A80036;stroke-width:1.0;" width="10" x="709" y="793.7695"/><rect fill="#FF0000" filter="url(#fwa3ib13a3o9z)" height="100.9316" style="stroke:#A80036;stroke-width:1.0;" width="10" x="709" y="966.3223"/><rect fill="#A9A9A9" filter="url(#fwa3ib13a3o9z)" height="71.6211" style="stroke:#A80036;stroke-width:1.0;" width="10" x="709" y="966.3223"/><rect fill="#FF0000" filter="url(#fwa3ib13a3o9z)" height="71.6211" style="stroke:#A80036;stroke-width:1.0;" width="10" x="894" y="498.5957"/><rect fill="#FF0000" filter="url(#fwa3ib13a3o9z)" height="71.6211" style="stroke:#A80036;stroke-width:1.0;" width="10" x="894" y="793.7695"/><rect fill="#FF0000" filter="url(#fwa3ib13a3o9z)" height="71.6211" style="stroke:#A80036;stroke-width:1.0;" width="10" x="894" y="966.3223"/><rect fill="#FF0000" filter="url(#fwa3ib13a3o9z)" height="71.6211" style="stroke:#A80036;stroke-width:1.0;" width="10" x="1037.5" y="692.8379"/><rect fill="#808080" filter="url(#fwa3ib13a3o9z)" height="3" style="stroke:#808080;stroke-width:1.0;" width="1154.5" x="0" y="99.3213"/><line style="stroke:#000000;stroke-width:1.0;" x1="0" x2="1154.5" y1="99.3213" y2="99.3213"/><line style="stroke:#000000;stroke-width:1.0;" x1="0" x2="1154.5" y1="102.3213" y2="102.3213"/><rect fill="#808080" filter="url(#fwa3ib13a3o9z)" height="28.0215" style="stroke:#000000;stroke-width:2.0;" width="119" x="517.75" y="86.3105"/><text fill="#000000" font-family="sans-serif" font-size="17" font-weight="bold" lengthAdjust="spacing" textLength="105" x="523.75" y="106.7461">First Tick =</text><polygon fill="#00BFFF" points="394.5,141.6426,404.5,145.6426,394.5,149.6426,398.5,145.6426" style="stroke:#00BFFF;stroke-width:1.0;"/><line style="stroke:#00BFFF;stroke-width:1.0;" x1="100" x2="400.5" y1="145.6426" y2="145.6426"/><text fill="#FFFF00" font-family="sans-serif" font-size="13" font-weight="bold" lengthAdjust="spacing" textLength="9" x="107" y="140.9004">1</text><text fill="#FFFF00" font-family="sans-serif" font-size="13" lengthAdjust="spacing" textLength="36" x="120" y="140.9004">coro()</text><rect fill="#FEFECE" filter="url(#fwa3ib13a3o9z)" height="36" style="stroke:#A80036;stroke-width:1.5;" width="101" x="406.5" y="124.332"/><ellipse cx="424.5" cy="142.332" fill="#33FF22" rx="11" ry="11" style="stroke:#A80036;stroke-width:1.0;"/><path d="M420.1289,138.5352 L428.1143,138.5352 L428.1143,140.4028 L425.3335,140.4028 L425.3335,144.8022 Q425.3335,145.4248 425.6406,145.6904 Q425.9478,145.9644 426.645,145.9644 L427.1265,145.9644 L427.1265,147.832 L426.479,147.832 Q424.3872,147.832 423.6401,147.168 Q422.9097,146.5205 422.9097,144.686 L422.9097,140.4028 L420.1289,140.4028 Z " fill="#000000"/><text fill="#000000" font-family="sans-serif" font-size="14" lengthAdjust="spacing" textLength="59" x="441.5" y="144.8672">Dispatch</text><polygon fill="#00BFFF" points="221,192.6426,231,196.6426,221,200.6426,225,196.6426" style="stroke:#00BFFF;stroke-width:1.0;"/><line style="stroke:#00BFFF;stroke-width:1.0;" x1="100" x2="227" y1="196.6426" y2="196.6426"/><text fill="#FFFF00" font-family="sans-serif" font-size="13" font-weight="bold" lengthAdjust="spacing" textLength="9" x="107" y="191.9004">2</text><text fill="#FFFF00" font-family="sans-serif" font-size="13" lengthAdjust="spacing" textLength="96" x="120" y="191.9004">uv.new_check()</text><rect fill="#FEFECE" filter="url(#fwa3ib13a3o9z)" height="36" style="stroke:#A80036;stroke-width:1.5;" width="144" x="233" y="175.332"/><ellipse cx="251" cy="193.332" fill="#FFD700" rx="11" ry="11" style="stroke:#A80036;stroke-width:1.0;"/><path d="M246.9868,195.4922 Q246.9868,194.4878 247.6509,193.8652 Q248.3149,193.2427 249.5767,193.0684 Q248.4561,192.9106 247.8584,192.3835 Q247.2607,191.8564 247.2607,191.0264 Q247.2607,189.9058 248.3025,189.2625 Q249.3442,188.6191 251.2036,188.6191 Q252.0835,188.6191 252.5732,188.6938 Q253.063,188.7686 254.0674,189.0176 L254.0674,190.8022 Q253.1958,190.52 252.5774,190.408 Q251.959,190.2959 251.4692,190.2959 Q250.4897,190.2959 250,190.5698 Q249.5103,190.8438 249.5103,191.292 Q249.5103,191.6572 249.9875,191.9229 Q250.4648,192.1885 251.3281,192.1885 L252.5815,192.1885 L252.5815,194.0396 L251.3281,194.0396 Q250.3237,194.0396 249.7717,194.4338 Q249.2197,194.8281 249.2197,195.376 Q249.2197,195.8823 249.7759,196.231 Q250.332,196.5796 251.4443,196.5796 Q252.2744,196.5796 252.8596,196.4758 Q253.4448,196.3721 254.4243,195.9819 L254.4243,197.7998 Q253.312,198.0986 252.6355,198.1816 Q251.959,198.2646 251.0459,198.2646 Q249.1865,198.2646 248.0867,197.5508 Q246.9868,196.8369 246.9868,195.4922 Z " fill="#000000"/><text fill="#000000" font-family="sans-serif" font-size="14" lengthAdjust="spacing" textLength="102" x="268" y="195.8672">CheckRespond</text><polygon fill="#00BFFF" points="11,243.6426,1,247.6426,11,251.6426,7,247.6426" style="stroke:#00BFFF;stroke-width:1.0;"/><line style="stroke:#00BFFF;stroke-width:1.0;" x1="5" x2="94" y1="247.6426" y2="247.6426"/><text fill="#FFFF00" font-family="sans-serif" font-size="13" font-weight="bold" lengthAdjust="spacing" textLength="9" x="17" y="242.9004">3</text><text fill="#FFFF00" font-family="sans-serif" font-size="13" lengthAdjust="spacing" textLength="58" x="30" y="242.9004">return nil</text><line style="stroke:#A80036;stroke-width:2.0;" x1="86" x2="104" y1="238.6426" y2="256.6426"/><line style="stroke:#A80036;stroke-width:2.0;" x1="86" x2="104" y1="256.6426" y2="238.6426"/><rect fill="#808080" filter="url(#fwa3ib13a3o9z)" height="3" style="stroke:#808080;stroke-width:1.0;" width="1154.5" x="0" y="278.6533"/><line style="stroke:#000000;stroke-width:1.0;" x1="0" x2="1154.5" y1="278.6533" y2="278.6533"/><line style="stroke:#000000;stroke-width:1.0;" x1="0" x2="1154.5" y1="281.6533" y2="281.6533"/><rect fill="#808080" filter="url(#fwa3ib13a3o9z)" height="28.0215" style="stroke:#000000;stroke-width:2.0;" width="140" x="507.25" y="265.6426"/><text fill="#000000" font-family="sans-serif" font-size="17" font-weight="bold" lengthAdjust="spacing" textLength="126" x="513.25" y="286.0781">Second Tick =</text><line style="stroke:#00BFFF;stroke-width:1.0;" x1="307" x2="354" y1="319.9746" y2="319.9746"/><line style="stroke:#00BFFF;stroke-width:1.0;" x1="354" x2="354" y1="319.9746" y2="332.9746"/><line style="stroke:#00BFFF;stroke-width:1.0;" x1="313" x2="354" y1="332.9746" y2="332.9746"/><polygon fill="#00BFFF" points="323,328.9746,313,332.9746,323,336.9746,319,332.9746" style="stroke:#00BFFF;stroke-width:1.0;"/><text fill="#FFFF00" font-family="sans-serif" font-size="13" font-weight="bold" lengthAdjust="spacing" textLength="9" x="319" y="315.2324">4</text><text fill="#FFFF00" font-family="sans-serif" font-size="13" lengthAdjust="spacing" textLength="93" x="332" y="315.2324">check callback</text><polygon fill="#00BFFF" points="442,363.2852,452,367.2852,442,371.2852,446,367.2852" style="stroke:#00BFFF;stroke-width:1.0;"/><line style="stroke:#00BFFF;stroke-width:1.0;" x1="317" x2="448" y1="367.2852" y2="367.2852"/><text fill="#FFFF00" font-family="sans-serif" font-size="13" font-weight="bold" lengthAdjust="spacing" textLength="9" x="324" y="362.543">5</text><text fill="#FFFF00" font-family="sans-serif" font-size="13" lengthAdjust="spacing" textLength="110" x="337" y="362.543">resume(Dispatch)</text><polygon fill="#00BFFF" points="648,392.5957,658,396.5957,648,400.5957,652,396.5957" style="stroke:#00BFFF;stroke-width:1.0;"/><line style="stroke:#00BFFF;stroke-width:1.0;" x1="464" x2="654" y1="396.5957" y2="396.5957"/><text fill="#FFFF00" font-family="sans-serif" font-size="13" font-weight="bold" lengthAdjust="spacing" textLength="9" x="471" y="391.8535">6</text><text fill="#FFFF00" font-family="sans-serif" font-size="13" lengthAdjust="spacing" textLength="71" x="484" y="391.8535">:dispatch()?</text><rect fill="#FEFECE" filter="url(#fwa3ib13a3o9z)" height="36" style="stroke:#A80036;stroke-width:1.5;" width="94" x="660" y="375.2852"/><ellipse cx="678" cy="393.2852" fill="#ADD1B2" rx="11" ry="11" style="stroke:#A80036;stroke-width:1.0;"/><path d="M679.126,389.9082 L682.5708,400.0352 L680.1055,400.0352 L678.2461,394.5981 L676.1294,400.0352 L673.6641,400.0352 L677.0757,391.1616 L676.7354,390.1738 Q676.5278,389.5596 676.2041,389.3105 Q675.8804,389.0698 675.1001,389.0698 L674.1704,389.0698 L674.1704,387.1191 L675.4155,387.1191 Q676.9263,387.1191 677.7148,387.7334 Q678.6362,388.4639 679.126,389.9082 Z " fill="#000000"/><text fill="#000000" font-family="sans-serif" font-size="14" lengthAdjust="spacing" textLength="52" x="695" y="395.8203">Process</text><polygon fill="#00BFFF" points="820.5,443.5957,830.5,447.5957,820.5,451.5957,824.5,447.5957" style="stroke:#00BFFF;stroke-width:1.0;"/><line style="stroke:#00BFFF;stroke-width:1.0;" x1="714" x2="826.5" y1="447.5957" y2="447.5957"/><text fill="#FFFF00" font-family="sans-serif" font-size="13" font-weight="bold" lengthAdjust="spacing" textLength="9" x="721" y="442.8535">7</text><text fill="#FFFF00" font-family="sans-serif" font-size="13" lengthAdjust="spacing" textLength="36" x="734" y="442.8535">coro()</text><rect fill="#FEFECE" filter="url(#fwa3ib13a3o9z)" height="36" style="stroke:#A80036;stroke-width:1.5;" width="129" x="832.5" y="426.2852"/><ellipse cx="850.5" cy="444.2852" fill="#33FF22" rx="11" ry="11" style="stroke:#A80036;stroke-width:1.0;"/><path d="M846.1289,440.4883 L854.1143,440.4883 L854.1143,442.356 L851.3335,442.356 L851.3335,446.7554 Q851.3335,447.3779 851.6406,447.6436 Q851.9478,447.9175 852.645,447.9175 L853.1265,447.9175 L853.1265,449.7852 L852.479,449.7852 Q850.3872,449.7852 849.6401,449.1211 Q848.9097,448.4736 848.9097,446.6392 L848.9097,442.356 L846.1289,442.356 Z " fill="#000000"/><text fill="#000000" font-family="sans-serif" font-size="14" lengthAdjust="spacing" textLength="87" x="867.5" y="446.8203">DispatchOne</text><polygon fill="#00BFFF" points="882,494.5957,892,498.5957,882,502.5957,886,498.5957" style="stroke:#00BFFF;stroke-width:1.0;"/><line style="stroke:#00BFFF;stroke-width:1.0;" x1="719" x2="888" y1="498.5957" y2="498.5957"/><text fill="#FFFF00" font-family="sans-serif" font-size="13" font-weight="bold" lengthAdjust="spacing" textLength="9" x="726" y="493.8535">8</text><text fill="#FFFF00" font-family="sans-serif" font-size="13" lengthAdjust="spacing" textLength="135" x="739" y="493.8535">resume(DispatchOne)</text><line style="stroke:#00BFFF;stroke-width:1.0;" x1="904" x2="946" y1="527.9063" y2="527.9063"/><line style="stroke:#00BFFF;stroke-width:1.0;" x1="946" x2="946" y1="527.9063" y2="540.9063"/><line style="stroke:#00BFFF;stroke-width:1.0;" x1="905" x2="946" y1="540.9063" y2="540.9063"/><polygon fill="#00BFFF" points="915,536.9063,905,540.9063,915,544.9063,911,540.9063" style="stroke:#00BFFF;stroke-width:1.0;"/><text fill="#FFFF00" font-family="sans-serif" font-size="13" font-weight="bold" lengthAdjust="spacing" textLength="9" x="911" y="523.1641">9</text><text fill="#FFFF00" font-family="sans-serif" font-size="13" lengthAdjust="spacing" textLength="66" x="924" y="523.1641">callAgents</text><line style="stroke:#FF0000;stroke-width:1.0;" x1="714" x2="724" y1="570.2168" y2="566.2168"/><line style="stroke:#FF0000;stroke-width:1.0;" x1="714" x2="724" y1="570.2168" y2="574.2168"/><line style="stroke:#FF0000;stroke-width:1.0;" x1="714" x2="898" y1="570.2168" y2="570.2168"/><text fill="#FFFF00" font-family="sans-serif" font-size="13" font-weight="bold" lengthAdjust="spacing" textLength="18" x="805" y="565.4746">10</text><text fill="#FFFF00" font-family="sans-serif" font-size="13" lengthAdjust="spacing" textLength="65" x="827" y="565.4746">yield(msg)</text><line style="stroke:#00BFFF;stroke-width:1.0;" x1="714" x2="756" y1="599.5273" y2="599.5273"/><line style="stroke:#00BFFF;stroke-width:1.0;" x1="756" x2="756" y1="599.5273" y2="612.5273"/><line style="stroke:#00BFFF;stroke-width:1.0;" x1="715" x2="756" y1="612.5273" y2="612.5273"/><polygon fill="#00BFFF" points="725,608.5273,715,612.5273,725,616.5273,721,612.5273" style="stroke:#00BFFF;stroke-width:1.0;"/><text fill="#FFFF00" font-family="sans-serif" font-size="13" font-weight="bold" lengthAdjust="spacing" textLength="18" x="721" y="594.7852">11</text><text fill="#FFFF00" font-family="sans-serif" font-size="13" lengthAdjust="spacing" textLength="144" x="743" y="594.7852">dispatchmessage(msg)</text><polygon fill="#00BFFF" points="963.5,637.8379,973.5,641.8379,963.5,645.8379,967.5,641.8379" style="stroke:#00BFFF;stroke-width:1.0;"/><line style="stroke:#00BFFF;stroke-width:1.0;" x1="714" x2="969.5" y1="641.8379" y2="641.8379"/><text fill="#FFFF00" font-family="sans-serif" font-size="13" font-weight="bold" lengthAdjust="spacing" textLength="18" x="721" y="637.0957">12</text><text fill="#FFFF00" font-family="sans-serif" font-size="13" lengthAdjust="spacing" textLength="36" x="743" y="637.0957">coro()</text><rect fill="#FEFECE" filter="url(#fwa3ib13a3o9z)" height="36" style="stroke:#A80036;stroke-width:1.5;" width="130" x="975.5" y="620.5273"/><ellipse cx="993.5" cy="638.5273" fill="#33FF22" rx="11" ry="11" style="stroke:#A80036;stroke-width:1.0;"/><path d="M989.1289,634.7305 L997.1143,634.7305 L997.1143,636.5981 L994.3335,636.5981 L994.3335,640.9976 Q994.3335,641.6201 994.6406,641.8857 Q994.9478,642.1597 995.645,642.1597 L996.1265,642.1597 L996.1265,644.0273 L995.479,644.0273 Q993.3872,644.0273 992.6401,643.3633 Q991.9097,642.7158 991.9097,640.8813 L991.9097,636.5981 L989.1289,636.5981 Z " fill="#000000"/><text fill="#000000" font-family="sans-serif" font-size="14" lengthAdjust="spacing" textLength="88" x="1010.5" y="641.0625">DispatchTwo</text><polygon fill="#00BFFF" points="1025.5,688.8379,1035.5,692.8379,1025.5,696.8379,1029.5,692.8379" style="stroke:#00BFFF;stroke-width:1.0;"/><line style="stroke:#00BFFF;stroke-width:1.0;" x1="719" x2="1031.5" y1="692.8379" y2="692.8379"/><text fill="#FFFF00" font-family="sans-serif" font-size="13" font-weight="bold" lengthAdjust="spacing" textLength="18" x="726" y="688.0957">13</text><text fill="#FFFF00" font-family="sans-serif" font-size="13" lengthAdjust="spacing" textLength="136" x="748" y="688.0957">resume(DispatchTwo)</text><line style="stroke:#00BFFF;stroke-width:1.0;" x1="1047.5" x2="1089.5" y1="722.1484" y2="722.1484"/><line style="stroke:#00BFFF;stroke-width:1.0;" x1="1089.5" x2="1089.5" y1="722.1484" y2="735.1484"/><line style="stroke:#00BFFF;stroke-width:1.0;" x1="1048.5" x2="1089.5" y1="735.1484" y2="735.1484"/><polygon fill="#00BFFF" points="1058.5,731.1484,1048.5,735.1484,1058.5,739.1484,1054.5,735.1484" style="stroke:#00BFFF;stroke-width:1.0;"/><text fill="#FFFF00" font-family="sans-serif" font-size="13" font-weight="bold" lengthAdjust="spacing" textLength="18" x="1054.5" y="717.4063">14</text><text fill="#FFFF00" font-family="sans-serif" font-size="13" lengthAdjust="spacing" textLength="66" x="1076.5" y="717.4063">callAgents</text><line style="stroke:#FF0000;stroke-width:1.0;" x1="714" x2="724" y1="764.459" y2="760.459"/><line style="stroke:#FF0000;stroke-width:1.0;" x1="714" x2="724" y1="764.459" y2="768.459"/><line style="stroke:#FF0000;stroke-width:1.0;" x1="714" x2="1041.5" y1="764.459" y2="764.459"/><text fill="#FFFF00" font-family="sans-serif" font-size="13" font-weight="bold" lengthAdjust="spacing" textLength="18" x="959.5" y="759.7168">15</text><text fill="#FFFF00" font-family="sans-serif" font-size="13" lengthAdjust="spacing" textLength="54" x="981.5" y="759.7168">yield(nil)</text><polygon fill="#00BFFF" points="882,789.7695,892,793.7695,882,797.7695,886,793.7695" style="stroke:#00BFFF;stroke-width:1.0;"/><line style="stroke:#00BFFF;stroke-width:1.0;" x1="719" x2="888" y1="793.7695" y2="793.7695"/><text fill="#FFFF00" font-family="sans-serif" font-size="13" font-weight="bold" lengthAdjust="spacing" textLength="18" x="726" y="789.0273">16</text><text fill="#FFFF00" font-family="sans-serif" font-size="13" lengthAdjust="spacing" textLength="135" x="748" y="789.0273">resume(DispatchOne)</text><line style="stroke:#00BFFF;stroke-width:1.0;" x1="904" x2="946" y1="823.0801" y2="823.0801"/><line style="stroke:#00BFFF;stroke-width:1.0;" x1="946" x2="946" y1="823.0801" y2="836.0801"/><line style="stroke:#00BFFF;stroke-width:1.0;" x1="905" x2="946" y1="836.0801" y2="836.0801"/><polygon fill="#00BFFF" points="915,832.0801,905,836.0801,915,840.0801,911,836.0801" style="stroke:#00BFFF;stroke-width:1.0;"/><text fill="#FFFF00" font-family="sans-serif" font-size="13" font-weight="bold" lengthAdjust="spacing" textLength="18" x="911" y="818.3379">17</text><text fill="#FFFF00" font-family="sans-serif" font-size="13" lengthAdjust="spacing" textLength="66" x="933" y="818.3379">callAgents</text><line style="stroke:#FF0000;stroke-width:1.0;" x1="714" x2="724" y1="865.3906" y2="861.3906"/><line style="stroke:#FF0000;stroke-width:1.0;" x1="714" x2="724" y1="865.3906" y2="869.3906"/><line style="stroke:#FF0000;stroke-width:1.0;" x1="714" x2="898" y1="865.3906" y2="865.3906"/><text fill="#FFFF00" font-family="sans-serif" font-size="13" font-weight="bold" lengthAdjust="spacing" textLength="18" x="770" y="860.6484">18</text><text fill="#FFFF00" font-family="sans-serif" font-size="13" lengthAdjust="spacing" textLength="100" x="792" y="860.6484">yield(throwable)</text><line style="stroke:#FF0000;stroke-width:1.0;" x1="464" x2="474" y1="894.7012" y2="890.7012"/><line style="stroke:#FF0000;stroke-width:1.0;" x1="464" x2="474" y1="894.7012" y2="898.7012"/><line style="stroke:#FF0000;stroke-width:1.0;" x1="464" x2="708" y1="894.7012" y2="894.7012"/><text fill="#FFFF00" font-family="sans-serif" font-size="13" font-weight="bold" lengthAdjust="spacing" textLength="18" x="491" y="889.959">19</text><text fill="#FFFF00" font-family="sans-serif" font-size="13" lengthAdjust="spacing" textLength="189" x="513" y="889.959">yield(throwable, DispatchOne)</text><line style="stroke:#00BFFF;stroke-width:1.0;" x1="464" x2="506" y1="924.0117" y2="924.0117"/><line style="stroke:#00BFFF;stroke-width:1.0;" x1="506" x2="506" y1="924.0117" y2="937.0117"/><line style="stroke:#00BFFF;stroke-width:1.0;" x1="465" x2="506" y1="937.0117" y2="937.0117"/><polygon fill="#00BFFF" points="475,933.0117,465,937.0117,475,941.0117,471,937.0117" style="stroke:#00BFFF;stroke-width:1.0;"/><text fill="#FFFF00" font-family="sans-serif" font-size="13" font-weight="bold" lengthAdjust="spacing" textLength="18" x="471" y="919.2695">20</text><text fill="#FFFF00" font-family="sans-serif" font-size="13" lengthAdjust="spacing" textLength="169" x="493" y="919.2695">.hist:something(throwable)</text><polygon fill="#00BFFF" points="882,962.3223,892,966.3223,882,970.3223,886,966.3223" style="stroke:#00BFFF;stroke-width:1.0;"/><line style="stroke:#00BFFF;stroke-width:1.0;" x1="469" x2="888" y1="966.3223" y2="966.3223"/><text fill="#FFFF00" font-family="sans-serif" font-size="13" font-weight="bold" lengthAdjust="spacing" textLength="18" x="476" y="961.5801">21</text><text fill="#FFFF00" font-family="sans-serif" font-size="13" lengthAdjust="spacing" textLength="155" x="498" y="961.5801">resume(DispatchOne, ...)</text><line style="stroke:#00BFFF;stroke-width:1.0;" x1="904" x2="946" y1="995.6328" y2="995.6328"/><line style="stroke:#00BFFF;stroke-width:1.0;" x1="946" x2="946" y1="995.6328" y2="1008.6328"/><line style="stroke:#00BFFF;stroke-width:1.0;" x1="905" x2="946" y1="1008.6328" y2="1008.6328"/><polygon fill="#00BFFF" points="915,1004.6328,905,1008.6328,915,1012.6328,911,1008.6328" style="stroke:#00BFFF;stroke-width:1.0;"/><text fill="#FFFF00" font-family="sans-serif" font-size="13" font-weight="bold" lengthAdjust="spacing" textLength="18" x="911" y="990.8906">22</text><text fill="#FFFF00" font-family="sans-serif" font-size="13" lengthAdjust="spacing" textLength="66" x="933" y="990.8906">callAgents</text><polygon fill="#00BFFF" points="725,1033.9434,715,1037.9434,725,1041.9434,721,1037.9434" style="stroke:#00BFFF;stroke-width:1.0;"/><line style="stroke:#00BFFF;stroke-width:1.0;" x1="719" x2="898" y1="1037.9434" y2="1037.9434"/><text fill="#FFFF00" font-family="sans-serif" font-size="13" font-weight="bold" lengthAdjust="spacing" textLength="18" x="812" y="1033.2012">23</text><text fill="#FFFF00" font-family="sans-serif" font-size="13" lengthAdjust="spacing" textLength="58" x="834" y="1033.2012">return nil</text><line style="stroke:#A80036;stroke-width:2.0;" x1="890" x2="908" y1="1028.9434" y2="1046.9434"/><line style="stroke:#A80036;stroke-width:2.0;" x1="890" x2="908" y1="1046.9434" y2="1028.9434"/><polygon fill="#00BFFF" points="11,1063.2539,1,1067.2539,11,1071.2539,7,1067.2539" style="stroke:#00BFFF;stroke-width:1.0;"/><line style="stroke:#00BFFF;stroke-width:1.0;" x1="5" x2="708" y1="1067.2539" y2="1067.2539"/><text fill="#FFFF00" font-family="sans-serif" font-size="13" font-weight="bold" lengthAdjust="spacing" textLength="18" x="622" y="1062.5117">24</text><text fill="#FFFF00" font-family="sans-serif" font-size="13" lengthAdjust="spacing" textLength="58" x="644" y="1062.5117">return nil</text><line style="stroke:#A80036;stroke-width:2.0;" x1="700" x2="718" y1="1058.2539" y2="1076.2539"/><line style="stroke:#A80036;stroke-width:2.0;" x1="700" x2="718" y1="1076.2539" y2="1058.2539"/><!--MD5=[6f3c6d353a5f4004d058a0911a2ffa30]
@startuml
autonumber
'hide footbox
skinparam sequenceMessageAlign direction
skinparam backgroundColor black

skinparam arrow {
   FontColor yellow
   Color DeepSkyBlue
}


skinparam sequence {
   DividerBackgroundColor gray
   LifeLineBackgroundColor red
   BoxFontColor yellow
}

box Modeselektor #DarkBlue
participant Act as modeAct <<(λ,#ADD1B2)>>
participant CheckRespond as modeResp <<(ε,#FFD700)>>
participant Dispatch as modeDisp <<(τ, #33FF22)>>
end box

box Maestro #DarkGreen
participant Process as maeProc <<(λ,#ADD1B2)>>
participant DispatchOne as maeDisp1 <<(τ, #33FF22)>>
participant DispatchTwo as maeDisp2 <<(τ, #33FF22)>>
end box

=== First Tick ===

activate modeAct
modeAct -> modeDisp ** : coro()
modeAct -> modeResp  ** :  uv.new_check()
[<- modeAct !! : return nil

=== Second Tick ===

modeResp -> modeResp ++ : check callback
modeResp -> modeDisp ++ : resume(Dispatch)
activate modeResp #DarkGray
modeDisp -> maeProc ** : :dispatch()?
activate modeDisp #DarkGray
activate maeProc
maeProc -> maeDisp1 ** : coro()
maeProc -> maeDisp1 ++ : resume(DispatchOne)
activate maeProc #DarkGray
maeDisp1 -> maeDisp1  : callAgents
maeDisp1 -[#red]>> maeProc - - : yield(msg)
deactivate maeProc
maeProc -> maeProc : dispatchmessage(msg)
maeProc -> maeDisp2 ** : coro()
maeProc -> maeDisp2 ++ : resume(DispatchTwo)
activate maeProc #DarkGray
maeDisp2 -> maeDisp2 : callAgents
maeDisp2 -[#red]>> maeProc - - : yield(nil)
deactivate maeProc
maeProc -> maeDisp1 ++ : resume(DispatchOne)
activate maeProc #DarkGray
maeDisp1 -> maeDisp1  : callAgents
maeDisp1 -[#red]>> maeProc - - : yield(throwable)
deactivate maeProc
maeProc -[#red]>> modeDisp - - : yield(throwable, DispatchOne)
deactivate modeDisp
modeDisp -> modeDisp : .hist:something(throwable)
modeDisp -> maeDisp1 ++ : resume(DispatchOne, ...)
activate modeDisp #DarkGray
activate maeProc
activate maeProc #DarkGray
maeDisp1 -> maeDisp1  : callAgents
maeDisp1 -> maeProc : return nil
deactivate maeProc
destroy maeDisp1
[<- maeProc !! : return nil
@enduml

@startuml
autonumber
skinparam sequenceMessageAlign direction
skinparam backgroundColor black

skinparam arrow {
   FontColor yellow
   Color DeepSkyBlue
}


skinparam sequence {
   DividerBackgroundColor gray
   LifeLineBackgroundColor red
   BoxFontColor yellow
}

box Modeselektor #DarkBlue
participant Act as modeAct <<(λ,#ADD1B2)>>
participant CheckRespond as modeResp <<(ε,#FFD700)>>
participant Dispatch as modeDisp <<(τ, #33FF22)>>
end box

box Maestro #DarkGreen
participant Process as maeProc <<(λ,#ADD1B2)>>
participant DispatchOne as maeDisp1 <<(τ, #33FF22)>>
participant DispatchTwo as maeDisp2 <<(τ, #33FF22)>>
end box

=== First Tick ===

activate modeAct
modeAct -> modeDisp ** : coro()
modeAct -> modeResp  ** :  uv.new_check()
[<- modeAct !! : return nil

=== Second Tick ===

modeResp -> modeResp ++ : check callback
modeResp -> modeDisp ++ : resume(Dispatch)
activate modeResp #DarkGray
modeDisp -> maeProc ** : :dispatch()?
activate modeDisp #DarkGray
activate maeProc
maeProc -> maeDisp1 ** : coro()
maeProc -> maeDisp1 ++ : resume(DispatchOne)
activate maeProc #DarkGray
maeDisp1 -> maeDisp1  : callAgents
maeDisp1 -[#red]>> maeProc - - : yield(msg)
deactivate maeProc
maeProc -> maeProc : dispatchmessage(msg)
maeProc -> maeDisp2 ** : coro()
maeProc -> maeDisp2 ++ : resume(DispatchTwo)
activate maeProc #DarkGray
maeDisp2 -> maeDisp2 : callAgents
maeDisp2 -[#red]>> maeProc - - : yield(nil)
deactivate maeProc
maeProc -> maeDisp1 ++ : resume(DispatchOne)
activate maeProc #DarkGray
maeDisp1 -> maeDisp1  : callAgents
maeDisp1 -[#red]>> maeProc - - : yield(throwable)
deactivate maeProc
maeProc -[#red]>> modeDisp - - : yield(throwable, DispatchOne)
deactivate modeDisp
modeDisp -> modeDisp : .hist:something(throwable)
modeDisp -> maeDisp1 ++ : resume(DispatchOne, ...)
activate modeDisp #DarkGray
activate maeProc
activate maeProc #DarkGray
maeDisp1 -> maeDisp1  : callAgents
maeDisp1 -> maeProc : return nil
deactivate maeProc
destroy maeDisp1
[<- maeProc !! : return nil
@enduml

PlantUML version 1.2021.3(Mon Mar 22 09:53:19 PDT 2021)
(GPL source distribution)
Java Runtime: OpenJDK Runtime Environment
JVM: OpenJDK 64-Bit Server VM
Default Encoding: UTF-8
Language: en
Country: US
--></g></svg>