<?xml version="1.0" encoding="UTF-8" standalone="no"?><svg xmlns="http://www.w3.org/2000/svg" xmlns:xlink="http://www.w3.org/1999/xlink" contentScriptType="application/ecmascript" contentStyleType="text/css" height="196px" preserveAspectRatio="none" style="width:193px;height:196px;" version="1.1" viewBox="0 0 193 196" width="193px" zoomAndPan="magnify"><defs><filter height="300%" id="fm5y3lzfdznl3" width="300%" x="-1" y="-1"><feGaussianBlur result="blurOut" stdDeviation="2.0"/><feColorMatrix in="blurOut" result="blurOut2" type="matrix" values="0 0 0 0 0 0 0 0 0 0 0 0 0 0 0 0 0 0 .4 0"/><feOffset dx="4.0" dy="4.0" in="blurOut2" result="blurOut3"/><feBlend in="SourceGraphic" in2="blurOut3" mode="normal"/></filter></defs><g><!--MD5=[4272a0a1957754cd214430d460c5f4ca]
class Foo1--><rect codeLine="10" fill="#FEFECE" filter="url(#fm5y3lzfdznl3)" height="175.6406" id="Foo1" style="stroke:#A80036;stroke-width:1.5;" width="172" x="7" y="7"/><ellipse cx="74.75" cy="23" fill="#ADD1B2" rx="11" ry="11" style="stroke:#A80036;stroke-width:1.0;"/><path d="M77.2231,29.1431 Q76.6421,29.4419 76.0029,29.5913 Q75.3638,29.7407 74.6582,29.7407 Q72.1514,29.7407 70.8315,28.0889 Q69.5117,26.437 69.5117,23.3159 Q69.5117,20.1865 70.8315,18.5347 Q72.1514,16.8828 74.6582,16.8828 Q75.3638,16.8828 76.0112,17.0322 Q76.6587,17.1816 77.2231,17.4805 L77.2231,20.2031 Q76.5923,19.6221 75.9988,19.3523 Q75.4053,19.0825 74.7744,19.0825 Q73.4297,19.0825 72.7449,20.1492 Q72.0601,21.2158 72.0601,23.3159 Q72.0601,25.4077 72.7449,26.4744 Q73.4297,27.541 74.7744,27.541 Q75.4053,27.541 75.9988,27.2712 Q76.5923,27.0015 77.2231,26.4204 Z " fill="#000000"/><text fill="#000000" font-family="sans-serif" font-size="12" lengthAdjust="spacing" textLength="28" x="95.25" y="27.5352">Foo1</text><line style="stroke:#A80036;stroke-width:1.5;" x1="8" x2="178" y1="39" y2="39"/><text fill="#000000" font-family="sans-serif" font-size="11" lengthAdjust="spacing" textLength="65" x="13" y="53.6348">You can use</text><text fill="#000000" font-family="sans-serif" font-size="11" lengthAdjust="spacing" textLength="66" x="13" y="66.5898">several lines</text><line style="stroke:#A80036;stroke-width:1.0;stroke-dasharray:1.0,2.0;" x1="8" x2="178" y1="72.9102" y2="72.9102"/><text fill="#000000" font-family="sans-serif" font-size="11" lengthAdjust="spacing" textLength="63" x="13" y="87.5449">as you want</text><text fill="#000000" font-family="sans-serif" font-size="11" lengthAdjust="spacing" textLength="56" x="13" y="100.5">and group</text><line style="stroke:#A80036;stroke-width:1.0;" x1="8" x2="178" y1="106.8203" y2="106.8203"/><line style="stroke:#A80036;stroke-width:1.0;" x1="8" x2="178" y1="108.8203" y2="108.8203"/><text fill="#000000" font-family="sans-serif" font-size="11" lengthAdjust="spacing" textLength="86" x="13" y="121.4551">things together.</text><line style="stroke:#A80036;stroke-width:1.5;" x1="8" x2="178" y1="127.7754" y2="127.7754"/><text fill="#000000" font-family="sans-serif" font-size="11" lengthAdjust="spacing" textLength="160" x="13" y="142.4102">You can have as many groups</text><text fill="#000000" font-family="sans-serif" font-size="11" lengthAdjust="spacing" textLength="63" x="13" y="155.3652">as you want</text><line style="stroke:#A80036;stroke-width:1.0;" x1="8" x2="178" y1="161.6855" y2="161.6855"/><text fill="#000000" font-family="sans-serif" font-size="11" lengthAdjust="spacing" textLength="64" x="13" y="176.3203">End of class</text><!--MD5=[0edbcb922873b0244e226d241cd73963]
@startuml
class Foo1 {
  You can use
  several lines
  ..
  as you want
  and group
  ==
  things together.
  __
  You can have as many groups
  as you want
  - -
  End of class
}
@enduml

PlantUML version 1.2021.3(Mon Mar 22 09:53:19 PDT 2021)
(GPL source distribution)
Java Runtime: OpenJDK Runtime Environment
JVM: OpenJDK 64-Bit Server VM
Default Encoding: UTF-8
Language: en
Country: US
--></g></svg>