<?xml version="1.0" encoding="UTF-8" standalone="no"?><svg xmlns="http://www.w3.org/2000/svg" xmlns:xlink="http://www.w3.org/1999/xlink" contentScriptType="application/ecmascript" contentStyleType="text/css" height="673px" preserveAspectRatio="none" style="width:1002px;height:673px;" version="1.1" viewBox="0 0 1002 673" width="1002px" zoomAndPan="magnify"><defs><filter height="300%" id="f12rv7eix2zxtt" width="300%" x="-1" y="-1"><feGaussianBlur result="blurOut" stdDeviation="2.0"/><feColorMatrix in="blurOut" result="blurOut2" type="matrix" values="0 0 0 0 0 0 0 0 0 0 0 0 0 0 0 0 0 0 .4 0"/><feOffset dx="4.0" dy="4.0" in="blurOut2" result="blurOut3"/><feBlend in="SourceGraphic" in2="blurOut3" mode="normal"/></filter></defs><g><!--MD5=[363201aa367f43d0e234a1bc944d969d]
cluster zone_orb--><polygon fill="#FFFFFF" filter="url(#f12rv7eix2zxtt)" points="16,118,87,118,94,140.4883,231,140.4883,231,217,16,217,16,118" style="stroke:#000000;stroke-width:1.5;"/><line style="stroke:#000000;stroke-width:1.5;" x1="16" x2="94" y1="140.4883" y2="140.4883"/><text fill="#000000" font-family="sans-serif" font-size="14" font-weight="bold" lengthAdjust="spacing" textLength="65" x="20" y="133.5352">zone_orb</text><!--MD5=[5ddb8fc057f35ee943288cba1bba63a1]
class Zoneherd--><rect codeLine="5" fill="#FEFECE" filter="url(#f12rv7eix2zxtt)" height="48" id="Zoneherd" style="stroke:#A80036;stroke-width:1.5;" width="87" x="127.5" y="153"/><ellipse cx="142.5" cy="169" fill="#ADD1B2" rx="11" ry="11" style="stroke:#A80036;stroke-width:1.0;"/><path d="M144.9731,175.1431 Q144.3921,175.4419 143.7529,175.5913 Q143.1138,175.7407 142.4082,175.7407 Q139.9014,175.7407 138.5815,174.0889 Q137.2617,172.437 137.2617,169.3159 Q137.2617,166.1865 138.5815,164.5347 Q139.9014,162.8828 142.4082,162.8828 Q143.1138,162.8828 143.7612,163.0322 Q144.4087,163.1816 144.9731,163.4805 L144.9731,166.2031 Q144.3423,165.6221 143.7488,165.3523 Q143.1553,165.0825 142.5244,165.0825 Q141.1797,165.0825 140.4949,166.1492 Q139.8101,167.2158 139.8101,169.3159 Q139.8101,171.4077 140.4949,172.4744 Q141.1797,173.541 142.5244,173.541 Q143.1553,173.541 143.7488,173.2712 Q144.3423,173.0015 144.9731,172.4204 Z " fill="#000000"/><text fill="#000000" font-family="sans-serif" font-size="12" lengthAdjust="spacing" textLength="55" x="156.5" y="173.5352">Zoneherd</text><line style="stroke:#A80036;stroke-width:1.5;" x1="128.5" x2="213.5" y1="185" y2="185"/><line style="stroke:#A80036;stroke-width:1.5;" x1="128.5" x2="213.5" y1="193" y2="193"/><!--MD5=[ad801415d4a054e52db0882645a380ef]
class Zone--><rect codeLine="6" fill="#FEFECE" filter="url(#f12rv7eix2zxtt)" height="48" id="Zone" style="stroke:#A80036;stroke-width:1.5;" width="60" x="32" y="153"/><ellipse cx="47" cy="169" fill="#ADD1B2" rx="11" ry="11" style="stroke:#A80036;stroke-width:1.0;"/><path d="M49.4731,175.1431 Q48.8921,175.4419 48.2529,175.5913 Q47.6138,175.7407 46.9082,175.7407 Q44.4014,175.7407 43.0815,174.0889 Q41.7617,172.437 41.7617,169.3159 Q41.7617,166.1865 43.0815,164.5347 Q44.4014,162.8828 46.9082,162.8828 Q47.6138,162.8828 48.2612,163.0322 Q48.9087,163.1816 49.4731,163.4805 L49.4731,166.2031 Q48.8423,165.6221 48.2488,165.3523 Q47.6553,165.0825 47.0244,165.0825 Q45.6797,165.0825 44.9949,166.1492 Q44.3101,167.2158 44.3101,169.3159 Q44.3101,171.4077 44.9949,172.4744 Q45.6797,173.541 47.0244,173.541 Q47.6553,173.541 48.2488,173.2712 Q48.8423,173.0015 49.4731,172.4204 Z " fill="#000000"/><text fill="#000000" font-family="sans-serif" font-size="12" lengthAdjust="spacing" textLength="28" x="61" y="173.5352">Zone</text><line style="stroke:#A80036;stroke-width:1.5;" x1="33" x2="91" y1="185" y2="185"/><line style="stroke:#A80036;stroke-width:1.5;" x1="33" x2="91" y1="193" y2="193"/><!--MD5=[d5cfd2ffba4e8ff8ddf4cc2afccf5efd]
class Modeselektor--><rect codeLine="2" fill="#FEFECE" filter="url(#f12rv7eix2zxtt)" height="48" id="Modeselektor" style="stroke:#A80036;stroke-width:1.5;" width="110" x="463" y="7"/><ellipse cx="478" cy="23" fill="#ADD1B2" rx="11" ry="11" style="stroke:#A80036;stroke-width:1.0;"/><path d="M480.4731,29.1431 Q479.8921,29.4419 479.2529,29.5913 Q478.6138,29.7407 477.9082,29.7407 Q475.4014,29.7407 474.0815,28.0889 Q472.7617,26.437 472.7617,23.3159 Q472.7617,20.1865 474.0815,18.5347 Q475.4014,16.8828 477.9082,16.8828 Q478.6138,16.8828 479.2612,17.0322 Q479.9087,17.1816 480.4731,17.4805 L480.4731,20.2031 Q479.8423,19.6221 479.2488,19.3523 Q478.6553,19.0825 478.0244,19.0825 Q476.6797,19.0825 475.9949,20.1492 Q475.3101,21.2158 475.3101,23.3159 Q475.3101,25.4077 475.9949,26.4744 Q476.6797,27.541 478.0244,27.541 Q478.6553,27.541 479.2488,27.2712 Q479.8423,27.0015 480.4731,26.4204 Z " fill="#000000"/><text fill="#000000" font-family="sans-serif" font-size="12" lengthAdjust="spacing" textLength="78" x="492" y="27.5352">Modeselektor</text><line style="stroke:#A80036;stroke-width:1.5;" x1="464" x2="572" y1="39" y2="39"/><line style="stroke:#A80036;stroke-width:1.5;" x1="464" x2="572" y1="47" y2="47"/><!--MD5=[aa065577ddfbe096d78ffc081aafab1a]
class Historian--><rect codeLine="3" fill="#FEFECE" filter="url(#f12rv7eix2zxtt)" height="48" id="Historian" style="stroke:#A80036;stroke-width:1.5;" width="83" x="698.5" y="153"/><ellipse cx="713.5" cy="169" fill="#ADD1B2" rx="11" ry="11" style="stroke:#A80036;stroke-width:1.0;"/><path d="M715.9731,175.1431 Q715.3921,175.4419 714.7529,175.5913 Q714.1138,175.7407 713.4082,175.7407 Q710.9014,175.7407 709.5815,174.0889 Q708.2617,172.437 708.2617,169.3159 Q708.2617,166.1865 709.5815,164.5347 Q710.9014,162.8828 713.4082,162.8828 Q714.1138,162.8828 714.7612,163.0322 Q715.4087,163.1816 715.9731,163.4805 L715.9731,166.2031 Q715.3423,165.6221 714.7488,165.3523 Q714.1553,165.0825 713.5244,165.0825 Q712.1797,165.0825 711.4949,166.1492 Q710.8101,167.2158 710.8101,169.3159 Q710.8101,171.4077 711.4949,172.4744 Q712.1797,173.541 713.5244,173.541 Q714.1553,173.541 714.7488,173.2712 Q715.3423,173.0015 715.9731,172.4204 Z " fill="#000000"/><text fill="#000000" font-family="sans-serif" font-size="12" lengthAdjust="spacing" textLength="51" x="727.5" y="173.5352">Historian</text><line style="stroke:#A80036;stroke-width:1.5;" x1="699.5" x2="780.5" y1="185" y2="185"/><line style="stroke:#A80036;stroke-width:1.5;" x1="699.5" x2="780.5" y1="193" y2="193"/><!--MD5=[19e6b5743d44f55a3efe24266b36edb9]
class Valiant--><rect codeLine="8" fill="#FEFECE" filter="url(#f12rv7eix2zxtt)" height="48" id="Valiant" style="stroke:#A80036;stroke-width:1.5;" width="71" x="592.5" y="153"/><ellipse cx="607.5" cy="169" fill="#ADD1B2" rx="11" ry="11" style="stroke:#A80036;stroke-width:1.0;"/><path d="M609.9731,175.1431 Q609.3921,175.4419 608.7529,175.5913 Q608.1138,175.7407 607.4082,175.7407 Q604.9014,175.7407 603.5815,174.0889 Q602.2617,172.437 602.2617,169.3159 Q602.2617,166.1865 603.5815,164.5347 Q604.9014,162.8828 607.4082,162.8828 Q608.1138,162.8828 608.7612,163.0322 Q609.4087,163.1816 609.9731,163.4805 L609.9731,166.2031 Q609.3423,165.6221 608.7488,165.3523 Q608.1553,165.0825 607.5244,165.0825 Q606.1797,165.0825 605.4949,166.1492 Q604.8101,167.2158 604.8101,169.3159 Q604.8101,171.4077 605.4949,172.4744 Q606.1797,173.541 607.5244,173.541 Q608.1553,173.541 608.7488,173.2712 Q609.3423,173.0015 609.9731,172.4204 Z " fill="#000000"/><text fill="#000000" font-family="sans-serif" font-size="12" lengthAdjust="spacing" textLength="39" x="621.5" y="173.5352">Valiant</text><line style="stroke:#A80036;stroke-width:1.5;" x1="593.5" x2="662.5" y1="185" y2="185"/><line style="stroke:#A80036;stroke-width:1.5;" x1="593.5" x2="662.5" y1="193" y2="193"/><!--MD5=[1a92dde9e55492538210c31a1573ada9]
class Maestro--><rect codeLine="9" fill="#FEFECE" filter="url(#f12rv7eix2zxtt)" height="48" id="Maestro" style="stroke:#A80036;stroke-width:1.5;" width="78" x="362" y="153"/><ellipse cx="377" cy="169" fill="#ADD1B2" rx="11" ry="11" style="stroke:#A80036;stroke-width:1.0;"/><path d="M379.4731,175.1431 Q378.8921,175.4419 378.2529,175.5913 Q377.6138,175.7407 376.9082,175.7407 Q374.4014,175.7407 373.0815,174.0889 Q371.7617,172.437 371.7617,169.3159 Q371.7617,166.1865 373.0815,164.5347 Q374.4014,162.8828 376.9082,162.8828 Q377.6138,162.8828 378.2612,163.0322 Q378.9087,163.1816 379.4731,163.4805 L379.4731,166.2031 Q378.8423,165.6221 378.2488,165.3523 Q377.6553,165.0825 377.0244,165.0825 Q375.6797,165.0825 374.9949,166.1492 Q374.3101,167.2158 374.3101,169.3159 Q374.3101,171.4077 374.9949,172.4744 Q375.6797,173.541 377.0244,173.541 Q377.6553,173.541 378.2488,173.2712 Q378.8423,173.0015 379.4731,172.4204 Z " fill="#000000"/><text fill="#000000" font-family="sans-serif" font-size="12" lengthAdjust="spacing" textLength="46" x="391" y="173.5352">Maestro</text><line style="stroke:#A80036;stroke-width:1.5;" x1="363" x2="439" y1="185" y2="185"/><line style="stroke:#A80036;stroke-width:1.5;" x1="363" x2="439" y1="193" y2="193"/><!--MD5=[9d44916250b776386006c440668bcfbb]
class Agent--><rect codeLine="10" fill="#FEFECE" filter="url(#f12rv7eix2zxtt)" height="48" id="Agent" style="stroke:#A80036;stroke-width:1.5;" width="65" x="810.5" y="323.5"/><ellipse cx="825.5" cy="339.5" fill="#ADD1B2" rx="11" ry="11" style="stroke:#A80036;stroke-width:1.0;"/><path d="M827.9731,345.6431 Q827.3921,345.9419 826.7529,346.0913 Q826.1138,346.2407 825.4082,346.2407 Q822.9014,346.2407 821.5815,344.5889 Q820.2617,342.937 820.2617,339.8159 Q820.2617,336.6865 821.5815,335.0347 Q822.9014,333.3828 825.4082,333.3828 Q826.1138,333.3828 826.7612,333.5322 Q827.4087,333.6816 827.9731,333.9805 L827.9731,336.7031 Q827.3423,336.1221 826.7488,335.8523 Q826.1553,335.5825 825.5244,335.5825 Q824.1797,335.5825 823.4949,336.6492 Q822.8101,337.7158 822.8101,339.8159 Q822.8101,341.9077 823.4949,342.9744 Q824.1797,344.041 825.5244,344.041 Q826.1553,344.041 826.7488,343.7712 Q827.3423,343.5015 827.9731,342.9204 Z " fill="#000000"/><text fill="#000000" font-family="sans-serif" font-size="12" lengthAdjust="spacing" textLength="33" x="839.5" y="344.0352">Agent</text><line style="stroke:#A80036;stroke-width:1.5;" x1="811.5" x2="874.5" y1="355.5" y2="355.5"/><line style="stroke:#A80036;stroke-width:1.5;" x1="811.5" x2="874.5" y1="363.5" y2="363.5"/><path d="M816.5,164.5 L816.5,189.8105 A0,0 0 0 0 816.5,189.8105 L896.74,189.8105 L851.52,323.33 L904.74,189.8105 L993.5,189.8105 A0,0 0 0 0 993.5,189.8105 L993.5,174.5 L983.5,164.5 L816.5,164.5 A0,0 0 0 0 816.5,164.5 " fill="#FBFB77" filter="url(#f12rv7eix2zxtt)" style="stroke:#A80036;stroke-width:1.0;"/><path d="M983.5,164.5 L983.5,174.5 L993.5,174.5 L983.5,164.5 " fill="#FBFB77" style="stroke:#A80036;stroke-width:1.0;"/><text fill="#000000" font-family="sans-serif" font-size="13" lengthAdjust="spacing" textLength="156" x="822.5" y="182.0684">These will be specialized</text><!--MD5=[fa22f29c53ed6d2510bea2e0aa245b7f]
class Window--><rect codeLine="12" fill="#FEFECE" filter="url(#f12rv7eix2zxtt)" height="48" id="Window" style="stroke:#A80036;stroke-width:1.5;" width="76" x="662" y="478"/><ellipse cx="677" cy="494" fill="#ADD1B2" rx="11" ry="11" style="stroke:#A80036;stroke-width:1.0;"/><path d="M679.4731,500.1431 Q678.8921,500.4419 678.2529,500.5913 Q677.6138,500.7407 676.9082,500.7407 Q674.4014,500.7407 673.0815,499.0889 Q671.7617,497.437 671.7617,494.3159 Q671.7617,491.1865 673.0815,489.5347 Q674.4014,487.8828 676.9082,487.8828 Q677.6138,487.8828 678.2612,488.0322 Q678.9087,488.1816 679.4731,488.4805 L679.4731,491.2031 Q678.8423,490.6221 678.2488,490.3523 Q677.6553,490.0825 677.0244,490.0825 Q675.6797,490.0825 674.9949,491.1492 Q674.3101,492.2158 674.3101,494.3159 Q674.3101,496.4077 674.9949,497.4744 Q675.6797,498.541 677.0244,498.541 Q677.6553,498.541 678.2488,498.2712 Q678.8423,498.0015 679.4731,497.4204 Z " fill="#000000"/><text fill="#000000" font-family="sans-serif" font-size="12" lengthAdjust="spacing" textLength="44" x="691" y="498.5352">Window</text><line style="stroke:#A80036;stroke-width:1.5;" x1="663" x2="737" y1="510" y2="510"/><line style="stroke:#A80036;stroke-width:1.5;" x1="663" x2="737" y1="518" y2="518"/><!--MD5=[e029e7788e4da8f06a31c832b2369a14]
class Mailbox--><rect codeLine="13" fill="#FEFECE" filter="url(#f12rv7eix2zxtt)" height="48" id="Mailbox" style="stroke:#A80036;stroke-width:1.5;" width="77" x="249.5" y="153"/><ellipse cx="264.5" cy="169" fill="#ADD1B2" rx="11" ry="11" style="stroke:#A80036;stroke-width:1.0;"/><path d="M266.9731,175.1431 Q266.3921,175.4419 265.7529,175.5913 Q265.1138,175.7407 264.4082,175.7407 Q261.9014,175.7407 260.5815,174.0889 Q259.2617,172.437 259.2617,169.3159 Q259.2617,166.1865 260.5815,164.5347 Q261.9014,162.8828 264.4082,162.8828 Q265.1138,162.8828 265.7612,163.0322 Q266.4087,163.1816 266.9731,163.4805 L266.9731,166.2031 Q266.3423,165.6221 265.7488,165.3523 Q265.1553,165.0825 264.5244,165.0825 Q263.1797,165.0825 262.4949,166.1492 Q261.8101,167.2158 261.8101,169.3159 Q261.8101,171.4077 262.4949,172.4744 Q263.1797,173.541 264.5244,173.541 Q265.1553,173.541 265.7488,173.2712 Q266.3423,173.0015 266.9731,172.4204 Z " fill="#000000"/><text fill="#000000" font-family="sans-serif" font-size="12" lengthAdjust="spacing" textLength="45" x="278.5" y="173.5352">Mailbox</text><line style="stroke:#A80036;stroke-width:1.5;" x1="250.5" x2="325.5" y1="185" y2="185"/><line style="stroke:#A80036;stroke-width:1.5;" x1="250.5" x2="325.5" y1="193" y2="193"/><rect fill="#FEFECE" filter="url(#f12rv7eix2zxtt)" height="34.1328" style="stroke:#A80036;stroke-width:1.5;" width="34" x="678" y="330.5"/><text fill="#000000" font-family="sans-serif" font-size="12" lengthAdjust="spacing" textLength="20" x="685" y="344.1016">hist</text><line style="stroke:#A80036;stroke-width:1.5;" x1="679" x2="711" y1="348.6328" y2="348.6328"/><rect fill="#FEFECE" filter="url(#f12rv7eix2zxtt)" height="34.1328" style="stroke:#A80036;stroke-width:1.5;" width="37" x="562.5" y="330.5"/><text fill="#000000" font-family="sans-serif" font-size="12" lengthAdjust="spacing" textLength="23" x="569.5" y="344.1016">eval</text><line style="stroke:#A80036;stroke-width:1.5;" x1="563.5" x2="598.5" y1="348.6328" y2="348.6328"/><rect fill="#FEFECE" filter="url(#f12rv7eix2zxtt)" height="34.1328" style="stroke:#A80036;stroke-width:1.5;" width="102" x="551" y="625.5"/><text fill="#000000" font-family="sans-serif" font-size="12" lengthAdjust="spacing" textLength="88" x="558" y="639.1016">suggestWindow</text><line style="stroke:#A80036;stroke-width:1.5;" x1="552" x2="652" y1="643.6328" y2="643.6328"/><rect fill="#FEFECE" filter="url(#f12rv7eix2zxtt)" height="33.9102" style="stroke:#A80036;stroke-width:1.5;" width="93" x="232.5" y="626"/><text fill="#000000" font-family="sans-serif" font-size="12" lengthAdjust="spacing" textLength="62" x="248" y="639.6016">suggestBuf</text><line style="stroke:#A80036;stroke-width:1.0;" x1="232.5" x2="325.5" y1="644.1328" y2="644.1328"/><text fill="#000000" font-family="sans-serif" font-size="10" lengthAdjust="spacing" textLength="76" x="241" y="655.8008">suggestWindow</text><rect fill="#FEFECE" filter="url(#f12rv7eix2zxtt)" height="33.9102" style="stroke:#A80036;stroke-width:1.5;" width="71" x="73.5" y="485.5"/><text fill="#000000" font-family="sans-serif" font-size="12" lengthAdjust="spacing" textLength="44" x="87" y="499.1016">suggest</text><line style="stroke:#A80036;stroke-width:1.0;" x1="73.5" x2="144.5" y1="503.6328" y2="503.6328"/><text fill="#000000" font-family="sans-serif" font-size="10" lengthAdjust="spacing" textLength="54" x="82" y="515.3008">suggestBuf</text><rect fill="#FEFECE" filter="url(#f12rv7eix2zxtt)" height="34.1328" style="stroke:#A80036;stroke-width:1.5;" width="63" x="305.5" y="485"/><text fill="#000000" font-family="sans-serif" font-size="12" lengthAdjust="spacing" textLength="49" x="312.5" y="498.6016">zoneBox</text><line style="stroke:#A80036;stroke-width:1.5;" x1="306.5" x2="367.5" y1="503.1328" y2="503.1328"/><rect fill="#FEFECE" filter="url(#f12rv7eix2zxtt)" height="34.1328" style="stroke:#A80036;stroke-width:1.5;" width="82" x="188" y="485"/><text fill="#000000" font-family="sans-serif" font-size="12" lengthAdjust="spacing" textLength="68" x="195" y="498.6016">maestroBox</text><line style="stroke:#A80036;stroke-width:1.5;" x1="189" x2="269" y1="503.1328" y2="503.1328"/><rect fill="#FEFECE" filter="url(#f12rv7eix2zxtt)" height="97.0195" style="stroke:#A80036;stroke-width:1.5;" width="102" x="132" y="301"/><text fill="#000000" font-family="sans-serif" font-size="12" lengthAdjust="spacing" textLength="55" x="155.5" y="314.6016">zoneherd</text><line style="stroke:#A80036;stroke-width:1.0;" x1="132" x2="234" y1="319.1328" y2="319.1328"/><text fill="#000000" font-family="sans-serif" font-size="10" lengthAdjust="spacing" textLength="58" x="154" y="330.8008">maestroBox</text><line style="stroke:#A80036;stroke-width:1.0;" x1="132" x2="234" y1="334.9102" y2="334.9102"/><text fill="#000000" font-family="sans-serif" font-size="10" lengthAdjust="spacing" textLength="38" x="164" y="346.5781">suggest</text><line style="stroke:#A80036;stroke-width:1.0;" x1="132" x2="234" y1="350.6875" y2="350.6875"/><text fill="#000000" font-family="sans-serif" font-size="10" lengthAdjust="spacing" textLength="28" x="152" y="362.3555">result</text><text fill="#000000" font-family="sans-serif" font-size="10" lengthAdjust="spacing" textLength="24" x="205" y="362.3555">zone</text><line style="stroke:#A80036;stroke-width:1.0;" x1="200" x2="200" y1="350.6875" y2="366.4648"/><line style="stroke:#A80036;stroke-width:1.0;" x1="132" x2="234" y1="366.4648" y2="366.4648"/><text fill="#000000" font-family="sans-serif" font-size="10" lengthAdjust="spacing" textLength="47" x="142.5" y="378.1328">command</text><text fill="#000000" font-family="sans-serif" font-size="10" lengthAdjust="spacing" textLength="24" x="205" y="378.1328">zone</text><line style="stroke:#A80036;stroke-width:1.0;" x1="200" x2="200" y1="366.4648" y2="382.2422"/><line style="stroke:#A80036;stroke-width:1.0;" x1="132" x2="234" y1="382.2422" y2="382.2422"/><text fill="#000000" font-family="sans-serif" font-size="10" lengthAdjust="spacing" textLength="35" x="148.5" y="393.9102">prompt</text><text fill="#000000" font-family="sans-serif" font-size="10" lengthAdjust="spacing" textLength="24" x="205" y="393.9102">zone</text><line style="stroke:#A80036;stroke-width:1.0;" x1="200" x2="200" y1="382.2422" y2="398.0195"/><rect fill="#FEFECE" filter="url(#f12rv7eix2zxtt)" height="34.1328" style="stroke:#A80036;stroke-width:1.5;" width="91" x="424.5" y="625.5"/><text fill="#000000" font-family="sans-serif" font-size="12" lengthAdjust="spacing" textLength="77" x="431.5" y="639.1016">suggestAgent</text><line style="stroke:#A80036;stroke-width:1.5;" x1="425.5" x2="514.5" y1="643.6328" y2="643.6328"/><rect fill="#FEFECE" filter="url(#f12rv7eix2zxtt)" height="81.2422" style="stroke:#A80036;stroke-width:1.5;" width="116" x="412" y="463"/><text fill="#000000" font-family="sans-serif" font-size="12" lengthAdjust="spacing" textLength="38" x="451" y="476.6016">agents</text><line style="stroke:#A80036;stroke-width:1.0;" x1="412" x2="528" y1="481.1328" y2="481.1328"/><text fill="#000000" font-family="sans-serif" font-size="10" lengthAdjust="spacing" textLength="67" x="436.5" y="492.8008">suggestAgent</text><line style="stroke:#A80036;stroke-width:1.0;" x1="412" x2="528" y1="496.9102" y2="496.9102"/><text fill="#000000" font-family="sans-serif" font-size="10" lengthAdjust="spacing" textLength="48" x="426.5" y="508.5781">editAgent</text><text fill="#000000" font-family="sans-serif" font-size="10" lengthAdjust="spacing" textLength="29" x="494" y="508.5781">Agent</text><line style="stroke:#A80036;stroke-width:1.0;" x1="489" x2="489" y1="496.9102" y2="512.6875"/><line style="stroke:#A80036;stroke-width:1.0;" x1="412" x2="528" y1="512.6875" y2="512.6875"/><text fill="#000000" font-family="sans-serif" font-size="10" lengthAdjust="spacing" textLength="57" x="422" y="524.3555">resultAgent</text><text fill="#000000" font-family="sans-serif" font-size="10" lengthAdjust="spacing" textLength="29" x="494" y="524.3555">Agent</text><line style="stroke:#A80036;stroke-width:1.0;" x1="489" x2="489" y1="512.6875" y2="528.4648"/><line style="stroke:#A80036;stroke-width:1.0;" x1="412" x2="528" y1="528.4648" y2="528.4648"/><text fill="#000000" font-family="sans-serif" font-size="10" lengthAdjust="spacing" textLength="65" x="418" y="540.1328">sessionAgent</text><text fill="#000000" font-family="sans-serif" font-size="10" lengthAdjust="spacing" textLength="29" x="494" y="540.1328">Agent</text><line style="stroke:#A80036;stroke-width:1.0;" x1="489" x2="489" y1="528.4648" y2="544.2422"/><rect fill="#FEFECE" filter="url(#f12rv7eix2zxtt)" height="49.6875" style="stroke:#A80036;stroke-width:1.5;" width="61" x="399.5" y="323.5"/><text fill="#000000" font-family="sans-serif" font-size="12" lengthAdjust="spacing" textLength="47" x="406.5" y="337.1016">maestro</text><line style="stroke:#A80036;stroke-width:1.0;" x1="399.5" x2="460.5" y1="341.6328" y2="341.6328"/><text fill="#000000" font-family="sans-serif" font-size="10" lengthAdjust="spacing" textLength="33" x="413.5" y="353.3008">agents</text><line style="stroke:#A80036;stroke-width:1.0;" x1="399.5" x2="460.5" y1="357.4102" y2="357.4102"/><text fill="#000000" font-family="sans-serif" font-size="10" lengthAdjust="spacing" textLength="42" x="409" y="369.0781">zoneBox</text><rect fill="#FEFECE" filter="url(#f12rv7eix2zxtt)" height="81.2422" style="stroke:#A80036;stroke-width:1.5;" width="57" x="489.5" y="138"/><text fill="#000000" font-family="sans-serif" font-size="12" lengthAdjust="spacing" textLength="39" x="498.5" y="151.6016">modeS</text><line style="stroke:#A80036;stroke-width:1.0;" x1="489.5" x2="546.5" y1="156.1328" y2="156.1328"/><text fill="#000000" font-family="sans-serif" font-size="10" lengthAdjust="spacing" textLength="29" x="503.5" y="167.8008">zones</text><line style="stroke:#A80036;stroke-width:1.0;" x1="489.5" x2="546.5" y1="171.9102" y2="171.9102"/><text fill="#000000" font-family="sans-serif" font-size="10" lengthAdjust="spacing" textLength="18" x="509" y="183.5781">hist</text><line style="stroke:#A80036;stroke-width:1.0;" x1="489.5" x2="546.5" y1="187.6875" y2="187.6875"/><text fill="#000000" font-family="sans-serif" font-size="10" lengthAdjust="spacing" textLength="40" x="498" y="199.3555">maestro</text><line style="stroke:#A80036;stroke-width:1.0;" x1="489.5" x2="546.5" y1="203.4648" y2="203.4648"/><text fill="#000000" font-family="sans-serif" font-size="10" lengthAdjust="spacing" textLength="20" x="508" y="215.1328">eval</text><!--MD5=[6aceb0d3f1a99514926aa65a7d0da68d]
entity newSuggestAgent--><ellipse cx="600" cy="502" fill="#FEFECE" filter="url(#f12rv7eix2zxtt)" rx="8" ry="8" style="stroke:#A80036;stroke-width:1.5;"/><text fill="#000000" font-family="sans-serif" font-size="14" lengthAdjust="spacing" textLength="28" x="586" y="532.5352">new</text><!--MD5=[f772ba0f65ca90910bafec754dc35484]
entity newZoneMailbox--><ellipse cx="304" cy="347.5" fill="#FEFECE" filter="url(#f12rv7eix2zxtt)" rx="8" ry="8" style="stroke:#A80036;stroke-width:1.5;"/><text fill="#000000" font-family="sans-serif" font-size="14" lengthAdjust="spacing" textLength="28" x="290" y="378.0352">new</text><!--MD5=[fb25853734bb91f1c4c5d85331a5d23e]
link suggestBuf to suggestWindow--><path d="M327,652.5 C380.09,652.5 373.91,599.59 424.5,583.5 C463.04,571.24 476.85,571.57 515.5,583.5 C539.84,591.01 563.45,607.98 579.84,621.8 " fill="none" id="suggestBuf-to-suggestWindow" style="stroke:#A80036;stroke-width:1.0;"/><polygon fill="#A80036" points="583.84,625.23,579.6099,616.3359,580.0437,621.976,574.4035,622.4099,583.84,625.23" style="stroke:#A80036;stroke-width:1.0;"/><!--MD5=[2130ee18450a1b57e42d750b075b7ff3]
link suggest to suggestBuf--><path d="M146,512 C164.4,512 158.53,531.47 171,545 C195.87,571.97 227.48,599.55 250.06,618.28 " fill="none" id="suggest-to-suggestBuf" style="stroke:#A80036;stroke-width:1.0;"/><polygon fill="#A80036" points="254.17,621.67,249.7941,612.8467,250.3207,618.4789,244.6884,619.0055,254.17,621.67" style="stroke:#A80036;stroke-width:1.0;"/><!--MD5=[9e1ea55bc3b884645d981a5d5789d0f2]
link zoneherd to maestroBox--><path d="M235,326.5 C265.36,326.5 244.54,433.31 234.04,479.8 " fill="none" id="zoneherd-to-maestroBox" style="stroke:#A80036;stroke-width:1.0;"/><polygon fill="#A80036" points="232.88,484.9,238.7861,477.0185,233.9949,480.0259,230.9875,475.2347,232.88,484.9" style="stroke:#A80036;stroke-width:1.0;"/><!--MD5=[52242d75421bfe6c597e437224302930]
link zoneherd to suggest--><path d="M131,341.5 C104.14,341.5 105.21,431.39 107.41,476.21 " fill="none" id="zoneherd-to-suggest" style="stroke:#A80036;stroke-width:1.0;"/><polygon fill="#A80036" points="107.68,481.44,111.2111,472.2459,107.4225,476.4466,103.2217,472.658,107.68,481.44" style="stroke:#A80036;stroke-width:1.0;"/><!--MD5=[7915660d9642596b01872fee0ac2d4a3]
link agents to suggestAgent--><path d="M529,488 C554.34,488 534.99,520.65 528,545 C526.81,549.15 499.61,593.58 482.88,620.69 " fill="none" id="agents-to-suggestAgent" style="stroke:#A80036;stroke-width:1.0;"/><polygon fill="#A80036" points="480.09,625.2,488.2218,619.6436,482.7169,620.9456,481.4148,615.4407,480.09,625.2" style="stroke:#A80036;stroke-width:1.0;"/><!--MD5=[6021cdfa81bb9c69274f0462c6867f79]
link maestro to agents--><path d="M462,349.5 C504.35,349.5 496.66,409.27 485.07,453.73 " fill="none" id="maestro-to-agents" style="stroke:#A80036;stroke-width:1.0;"/><polygon fill="#A80036" points="483.72,458.8,489.9011,451.1323,485.0065,453.9684,482.1704,449.0738,483.72,458.8" style="stroke:#A80036;stroke-width:1.0;"/><!--MD5=[af0a1b3fae5823acfa9cdebf07951dd1]
link maestro to zoneBox--><path d="M399,364.5 C373.97,364.5 351.55,441.57 341.95,479.89 " fill="none" id="maestro-to-zoneBox" style="stroke:#A80036;stroke-width:1.0;"/><polygon fill="#A80036" points="340.73,484.81,346.7719,477.0321,341.9292,479.9559,339.0054,475.1133,340.73,484.81" style="stroke:#A80036;stroke-width:1.0;"/><!--MD5=[8be20b92c2e4f5d8d8b197fdb2729d90]
link modeS to zoneherd--><path d="M489,163 C458.19,163 474.1,198.73 458,225 C445.88,244.78 446.7,254.75 427,267 C362.96,306.82 330.18,269.41 260,297 C255.66,298.71 251.29,300.68 246.98,302.82 " fill="none" id="modeS-to-zoneherd" style="stroke:#A80036;stroke-width:1.0;"/><polygon fill="#A80036" points="242.31,305.21,252.1436,304.6624,246.7591,302.9284,248.4931,297.5439,242.31,305.21" style="stroke:#A80036;stroke-width:1.0;"/><!--MD5=[050013092dba0143481184e818902342]
link modeS to hist--><path d="M548,179 C553.57,179 592.43,262.73 596,267 C618.72,294.15 651.89,318.52 673.46,332.91 " fill="none" id="modeS-to-hist" style="stroke:#A80036;stroke-width:1.0;"/><polygon fill="#A80036" points="677.88,335.83,672.5774,327.5304,673.7088,333.073,668.1662,334.2044,677.88,335.83" style="stroke:#A80036;stroke-width:1.0;"/><!--MD5=[1cf6441db7083b95a29820a1c9a8dfca]
link modeS to maestro--><path d="M489,194 C455.24,194 479.99,235.44 468,267 C461.9,283.06 453.84,300.33 446.71,314.66 " fill="none" id="modeS-to-maestro" style="stroke:#A80036;stroke-width:1.0;"/><polygon fill="#A80036" points="444.33,319.4,451.9406,313.1487,446.5718,314.9307,444.7898,309.5619,444.33,319.4" style="stroke:#A80036;stroke-width:1.0;"/><!--MD5=[18c04dc7ac08bd3df07b85dfc8952055]
link modeS to eval--><path d="M519,217 C519,258.94 545.79,301.7 564.15,326.07 " fill="none" id="modeS-to-eval" style="stroke:#A80036;stroke-width:1.0;"/><polygon fill="#A80036" points="567.24,330.12,564.9414,320.5431,564.199,326.151,558.5911,325.4087,567.24,330.12" style="stroke:#A80036;stroke-width:1.0;"/><!--MD5=[c484056f3e2b58ee61469f499b6afbe3]
link Modeselektor to modeS--><path codeLine="67" d="M518,55.14 C518,71 518,92.85 518,113.61 " fill="none" id="Modeselektor-to-modeS" style="stroke:#A80036;stroke-width:1.0;"/><polygon fill="none" points="525,113.75,518,133.75,511,113.75,525,113.75" style="stroke:#A80036;stroke-width:1.0;"/><text fill="#000000" font-family="sans-serif" font-size="13" lengthAdjust="spacing" textLength="25" x="519" y="98.5684">new</text><!--MD5=[f2e8523e8ef4f17540437fe33c547aa5]
link Zoneherd to zoneherd--><path codeLine="68" d="M172.64,201.08 C174.03,220.61 176.1,249.67 178.03,276.69 " fill="none" id="Zoneherd-to-zoneherd" style="stroke:#A80036;stroke-width:1.0;"/><polygon fill="none" points="185.02,276.31,179.46,296.76,171.05,277.3,185.02,276.31" style="stroke:#A80036;stroke-width:1.0;"/><text fill="#000000" font-family="sans-serif" font-size="13" lengthAdjust="spacing" textLength="25" x="178" y="263.5684">new</text><!--MD5=[4e5fc715d49e53b9d95c2e161d1de1b6]
link Zone to suggest--><path codeLine="69" d="M62.43,201.31 C63.51,241.68 67.24,327.09 80,398 C83.85,419.39 90.24,442.74 96.04,461.79 " fill="none" id="Zone-to-suggest" style="stroke:#A80036;stroke-width:1.0;"/><polygon fill="none" points="102.8,459.96,102.17,481.14,89.45,464.19,102.8,459.96" style="stroke:#A80036;stroke-width:1.0;"/><text fill="#000000" font-family="sans-serif" font-size="13" lengthAdjust="spacing" textLength="25" x="81" y="352.5684">new</text><!--MD5=[7e553973a1a2c39709c81aa79c2713c8]
link Historian to hist--><path codeLine="70" d="M733.84,201.08 C726.29,229.33 713.43,277.51 704.58,310.62 " fill="none" id="Historian-to-hist" style="stroke:#A80036;stroke-width:1.0;"/><polygon fill="none" points="711.26,312.75,699.34,330.27,697.73,309.14,711.26,312.75" style="stroke:#A80036;stroke-width:1.0;"/><text fill="#000000" font-family="sans-serif" font-size="13" lengthAdjust="spacing" textLength="25" x="721" y="263.5684">new</text><!--MD5=[47b252ff409282657661eb2bf302b72c]
link Valiant to eval--><path codeLine="71" d="M621.56,201.08 C613.68,229.33 600.24,277.51 591.01,310.62 " fill="none" id="Valiant-to-eval" style="stroke:#A80036;stroke-width:1.0;"/><polygon fill="none" points="597.64,312.88,585.53,330.27,584.16,309.12,597.64,312.88" style="stroke:#A80036;stroke-width:1.0;"/><text fill="#000000" font-family="sans-serif" font-size="13" lengthAdjust="spacing" textLength="25" x="608" y="263.5684">new</text><!--MD5=[a2f3c846ca0382a6381058c3224e5069]
link Maestro to maestro--><path codeLine="72" d="M404.97,201.08 C409.3,226.24 416.35,267.21 421.87,299.26 " fill="none" id="Maestro-to-maestro" style="stroke:#A80036;stroke-width:1.0;"/><polygon fill="none" points="428.82,298.35,425.31,319.24,415.02,300.72,428.82,298.35" style="stroke:#A80036;stroke-width:1.0;"/><text fill="#000000" font-family="sans-serif" font-size="13" lengthAdjust="spacing" textLength="25" x="416" y="263.5684">new</text><!--MD5=[d5fe3aef5fa46266326374c2d799f9d0]
link Agent to newSuggestAgent--><path codeLine="73" d="M810.35,363.67 C769.87,383.15 699.55,419.23 645,459 C636.94,464.88 628.77,472.06 621.65,478.8 " fill="none" id="Agent-to-newSuggestAgent" style="stroke:#A80036;stroke-width:1.0;"/><polygon fill="none" points="626.56,483.78,607.46,492.95,616.68,473.87,626.56,483.78" style="stroke:#A80036;stroke-width:1.0;"/><!--MD5=[657e03f459c9e6eb8b83da7d4641f420]
link Mailbox to newZoneMailbox--><path codeLine="74" d="M290.19,201.08 C293.1,231.68 298.22,285.65 301.34,318.53 " fill="none" id="Mailbox-to-newZoneMailbox" style="stroke:#A80036;stroke-width:1.0;"/><polygon fill="none" points="308.32,317.9,303.24,338.48,294.38,319.23,308.32,317.9" style="stroke:#A80036;stroke-width:1.0;"/><!--MD5=[71675fa34d67da7ab0660e50cc6de069]
link Window to suggestWindow--><path codeLine="75" d="M683.6,526.18 C667.64,548.74 643.23,583.23 625.27,608.61 " fill="none" id="Window-to-suggestWindow" style="stroke:#A80036;stroke-width:1.0;"/><polygon fill="none" points="630.81,612.91,613.54,625.19,619.38,604.82,630.81,612.91" style="stroke:#A80036;stroke-width:1.0;"/><text fill="#000000" font-family="sans-serif" font-size="13" lengthAdjust="spacing" textLength="25" x="649" y="588.5684">new</text><!--MD5=[35c7d05548e172152d44f7042d837adb]
link newSuggestAgent to suggestAgent--><path codeLine="76" d="M592.26,511.25 C572.17,532.65 517.93,590.43 488.92,621.35 " fill="none" id="newSuggestAgent-to-suggestAgent" style="stroke:#A80036;stroke-width:1.0;"/><polygon fill="#A80036" points="485.17,625.34,494.2431,621.5087,488.5892,621.6919,488.4061,616.038,485.17,625.34" style="stroke:#A80036;stroke-width:1.0;"/><!--MD5=[dfd222cd1bde6be498aecbcb41039bf8]
link newSuggestAgent to suggestWindow--><path codeLine="77" d="M600.12,511.25 C600.42,532.39 601.24,589.02 601.69,620.2 " fill="none" id="newSuggestAgent-to-suggestWindow" style="stroke:#A80036;stroke-width:1.0;"/><polygon fill="#A80036" points="601.77,625.34,605.641,616.2838,601.6986,620.3405,597.6418,616.3981,601.77,625.34" style="stroke:#A80036;stroke-width:1.0;"/><!--MD5=[3eca986712b60f1727d4337cde5c20ce]
link newZoneMailbox to zoneBox--><path codeLine="78" d="M305.77,356.7 C310.76,379.72 324.99,445.49 332.4,479.72 " fill="none" id="newZoneMailbox-to-zoneBox" style="stroke:#A80036;stroke-width:1.0;"/><polygon fill="#A80036" points="333.52,484.93,335.5262,475.2876,332.4626,480.0431,327.7071,476.9795,333.52,484.93" style="stroke:#A80036;stroke-width:1.0;"/><!--MD5=[7c9f40b4db6c865f73dc06b9e6717755]
link newZoneMailbox to maestroBox--><path codeLine="79" d="M299.97,356.7 C288.6,379.81 256.03,446.04 239.26,480.14 " fill="none" id="newZoneMailbox-to-maestroBox" style="stroke:#A80036;stroke-width:1.0;"/><polygon fill="#A80036" points="236.9,484.93,244.4705,478.6303,239.1132,480.4465,237.2969,475.0891,236.9,484.93" style="stroke:#A80036;stroke-width:1.0;"/><!--MD5=[7a913bee3ce3786d59a8092a85ccb28a]
@startuml
class Modeselektor
class Historian
package zone_orb <<Folder>> {
   class Zoneherd
   class Zone
}
class Valiant
class Maestro
class Agent
note top: These will be specialized
class Window
class Mailbox


object hist

object eval


object suggestWindow

map suggestBuf {
   suggestWindow *-> suggestWindow
}

map suggest {
   suggestBuf *- -> suggestBuf
}

object zoneBox

object maestroBox

map zoneherd {
    maestroBox *- -> maestroBox
    suggest *- -> suggest
    result  => zone
    command => zone
    prompt   => zone
}

object suggestAgent

map agents {
   suggestAgent *- -> suggestAgent
   editAgent => Agent
   resultAgent => Agent
   sessionAgent => Agent
}

map maestro {
   agents *- -> agents
   zoneBox *- -> zoneBox
}

map modeS {
   zones *- -> zoneherd
   hist  *- -> hist
   maestro *- -> maestro
   eval    *- -> eval
}

circle "new" as newSuggestAgent
circle "new" as newZoneMailbox

Modeselektor - -|> modeS : new
Zoneherd - -|> zoneherd : new
Zone - -|> suggest : new
Historian - -|> hist : new
Valiant - -|> eval : new
Maestro - -|> maestro : new
Agent - -|> newSuggestAgent
Mailbox - -|> newZoneMailbox
Window - -|> suggestWindow : new
newSuggestAgent - -> suggestAgent
newSuggestAgent - -> suggestWindow
newZoneMailbox - -> zoneBox
newZoneMailbox - -> maestroBox
@enduml

PlantUML version 1.2021.3(Mon Mar 22 06:53:19 HST 2021)
(GPL source distribution)
Java Runtime: OpenJDK Runtime Environment
JVM: OpenJDK 64-Bit Server VM
Default Encoding: UTF-8
Language: en
Country: US
--></g></svg>