<?xml version="1.0" encoding="UTF-8" standalone="no"?><svg xmlns="http://www.w3.org/2000/svg" xmlns:xlink="http://www.w3.org/1999/xlink" contentScriptType="application/ecmascript" contentStyleType="text/css" height="511px" preserveAspectRatio="none" style="width:554px;height:511px;" version="1.1" viewBox="0 0 554 511" width="554px" zoomAndPan="magnify"><defs><filter height="300%" id="f1nne74tlldund" width="300%" x="-1" y="-1"><feGaussianBlur result="blurOut" stdDeviation="2.0"/><feColorMatrix in="blurOut" result="blurOut2" type="matrix" values="0 0 0 0 0 0 0 0 0 0 0 0 0 0 0 0 0 0 .4 0"/><feOffset dx="4.0" dy="4.0" in="blurOut2" result="blurOut3"/><feBlend in="SourceGraphic" in2="blurOut3" mode="normal"/></filter></defs><g><!--MD5=[d5cfd2ffba4e8ff8ddf4cc2afccf5efd]
class Modeselektor--><rect codeLine="2" fill="#FEFECE" filter="url(#f1nne74tlldund)" height="48" id="Modeselektor" style="stroke:#A80036;stroke-width:1.5;" width="110" x="212.5" y="7"/><ellipse cx="227.5" cy="23" fill="#ADD1B2" rx="11" ry="11" style="stroke:#A80036;stroke-width:1.0;"/><path d="M229.9731,29.1431 Q229.3921,29.4419 228.7529,29.5913 Q228.1138,29.7407 227.4082,29.7407 Q224.9014,29.7407 223.5815,28.0889 Q222.2617,26.437 222.2617,23.3159 Q222.2617,20.1865 223.5815,18.5347 Q224.9014,16.8828 227.4082,16.8828 Q228.1138,16.8828 228.7612,17.0322 Q229.4087,17.1816 229.9731,17.4805 L229.9731,20.2031 Q229.3423,19.6221 228.7488,19.3523 Q228.1553,19.0825 227.5244,19.0825 Q226.1797,19.0825 225.4949,20.1492 Q224.8101,21.2158 224.8101,23.3159 Q224.8101,25.4077 225.4949,26.4744 Q226.1797,27.541 227.5244,27.541 Q228.1553,27.541 228.7488,27.2712 Q229.3423,27.0015 229.9731,26.4204 Z " fill="#000000"/><text fill="#000000" font-family="sans-serif" font-size="12" lengthAdjust="spacing" textLength="78" x="241.5" y="27.5352">Modeselektor</text><line style="stroke:#A80036;stroke-width:1.5;" x1="213.5" x2="321.5" y1="39" y2="39"/><line style="stroke:#A80036;stroke-width:1.5;" x1="213.5" x2="321.5" y1="47" y2="47"/><!--MD5=[aa065577ddfbe096d78ffc081aafab1a]
class Historian--><rect codeLine="3" fill="#FEFECE" filter="url(#f1nne74tlldund)" height="48" id="Historian" style="stroke:#A80036;stroke-width:1.5;" width="83" x="113" y="151"/><ellipse cx="128" cy="167" fill="#ADD1B2" rx="11" ry="11" style="stroke:#A80036;stroke-width:1.0;"/><path d="M130.4731,173.1431 Q129.8921,173.4419 129.2529,173.5913 Q128.6138,173.7407 127.9082,173.7407 Q125.4014,173.7407 124.0815,172.0889 Q122.7617,170.437 122.7617,167.3159 Q122.7617,164.1865 124.0815,162.5347 Q125.4014,160.8828 127.9082,160.8828 Q128.6138,160.8828 129.2612,161.0322 Q129.9087,161.1816 130.4731,161.4805 L130.4731,164.2031 Q129.8423,163.6221 129.2488,163.3523 Q128.6553,163.0825 128.0244,163.0825 Q126.6797,163.0825 125.9949,164.1492 Q125.3101,165.2158 125.3101,167.3159 Q125.3101,169.4077 125.9949,170.4744 Q126.6797,171.541 128.0244,171.541 Q128.6553,171.541 129.2488,171.2712 Q129.8423,171.0015 130.4731,170.4204 Z " fill="#000000"/><text fill="#000000" font-family="sans-serif" font-size="12" lengthAdjust="spacing" textLength="51" x="142" y="171.5352">Historian</text><line style="stroke:#A80036;stroke-width:1.5;" x1="114" x2="195" y1="183" y2="183"/><line style="stroke:#A80036;stroke-width:1.5;" x1="114" x2="195" y1="191" y2="191"/><!--MD5=[5ddb8fc057f35ee943288cba1bba63a1]
class Zoneherd--><rect codeLine="4" fill="#FEFECE" filter="url(#f1nne74tlldund)" height="48" id="Zoneherd" style="stroke:#A80036;stroke-width:1.5;" width="87" x="453" y="151"/><ellipse cx="468" cy="167" fill="#ADD1B2" rx="11" ry="11" style="stroke:#A80036;stroke-width:1.0;"/><path d="M470.4731,173.1431 Q469.8921,173.4419 469.2529,173.5913 Q468.6138,173.7407 467.9082,173.7407 Q465.4014,173.7407 464.0815,172.0889 Q462.7617,170.437 462.7617,167.3159 Q462.7617,164.1865 464.0815,162.5347 Q465.4014,160.8828 467.9082,160.8828 Q468.6138,160.8828 469.2612,161.0322 Q469.9087,161.1816 470.4731,161.4805 L470.4731,164.2031 Q469.8423,163.6221 469.2488,163.3523 Q468.6553,163.0825 468.0244,163.0825 Q466.6797,163.0825 465.9949,164.1492 Q465.3101,165.2158 465.3101,167.3159 Q465.3101,169.4077 465.9949,170.4744 Q466.6797,171.541 468.0244,171.541 Q468.6553,171.541 469.2488,171.2712 Q469.8423,171.0015 470.4731,170.4204 Z " fill="#000000"/><text fill="#000000" font-family="sans-serif" font-size="12" lengthAdjust="spacing" textLength="55" x="482" y="171.5352">Zoneherd</text><line style="stroke:#A80036;stroke-width:1.5;" x1="454" x2="539" y1="183" y2="183"/><line style="stroke:#A80036;stroke-width:1.5;" x1="454" x2="539" y1="191" y2="191"/><!--MD5=[19e6b5743d44f55a3efe24266b36edb9]
class Valiant--><rect codeLine="5" fill="#FEFECE" filter="url(#f1nne74tlldund)" height="48" id="Valiant" style="stroke:#A80036;stroke-width:1.5;" width="71" x="7" y="151"/><ellipse cx="22" cy="167" fill="#ADD1B2" rx="11" ry="11" style="stroke:#A80036;stroke-width:1.0;"/><path d="M24.4731,173.1431 Q23.8921,173.4419 23.2529,173.5913 Q22.6138,173.7407 21.9082,173.7407 Q19.4014,173.7407 18.0815,172.0889 Q16.7617,170.437 16.7617,167.3159 Q16.7617,164.1865 18.0815,162.5347 Q19.4014,160.8828 21.9082,160.8828 Q22.6138,160.8828 23.2612,161.0322 Q23.9087,161.1816 24.4731,161.4805 L24.4731,164.2031 Q23.8423,163.6221 23.2488,163.3523 Q22.6553,163.0825 22.0244,163.0825 Q20.6797,163.0825 19.9949,164.1492 Q19.3101,165.2158 19.3101,167.3159 Q19.3101,169.4077 19.9949,170.4744 Q20.6797,171.541 22.0244,171.541 Q22.6553,171.541 23.2488,171.2712 Q23.8423,171.0015 24.4731,170.4204 Z " fill="#000000"/><text fill="#000000" font-family="sans-serif" font-size="12" lengthAdjust="spacing" textLength="39" x="36" y="171.5352">Valiant</text><line style="stroke:#A80036;stroke-width:1.5;" x1="8" x2="77" y1="183" y2="183"/><line style="stroke:#A80036;stroke-width:1.5;" x1="8" x2="77" y1="191" y2="191"/><!--MD5=[1a92dde9e55492538210c31a1573ada9]
class Maestro--><rect codeLine="6" fill="#FEFECE" filter="url(#f1nne74tlldund)" height="48" id="Maestro" style="stroke:#A80036;stroke-width:1.5;" width="78" x="339.5" y="151"/><ellipse cx="354.5" cy="167" fill="#ADD1B2" rx="11" ry="11" style="stroke:#A80036;stroke-width:1.0;"/><path d="M356.9731,173.1431 Q356.3921,173.4419 355.7529,173.5913 Q355.1138,173.7407 354.4082,173.7407 Q351.9014,173.7407 350.5815,172.0889 Q349.2617,170.437 349.2617,167.3159 Q349.2617,164.1865 350.5815,162.5347 Q351.9014,160.8828 354.4082,160.8828 Q355.1138,160.8828 355.7612,161.0322 Q356.4087,161.1816 356.9731,161.4805 L356.9731,164.2031 Q356.3423,163.6221 355.7488,163.3523 Q355.1553,163.0825 354.5244,163.0825 Q353.1797,163.0825 352.4949,164.1492 Q351.8101,165.2158 351.8101,167.3159 Q351.8101,169.4077 352.4949,170.4744 Q353.1797,171.541 354.5244,171.541 Q355.1553,171.541 355.7488,171.2712 Q356.3423,171.0015 356.9731,170.4204 Z " fill="#000000"/><text fill="#000000" font-family="sans-serif" font-size="12" lengthAdjust="spacing" textLength="46" x="368.5" y="171.5352">Maestro</text><line style="stroke:#A80036;stroke-width:1.5;" x1="340.5" x2="416.5" y1="183" y2="183"/><line style="stroke:#A80036;stroke-width:1.5;" x1="340.5" x2="416.5" y1="191" y2="191"/><rect fill="#FEFECE" filter="url(#f1nne74tlldund)" height="34.1328" style="stroke:#A80036;stroke-width:1.5;" width="34" x="151.5" y="306"/><text fill="#000000" font-family="sans-serif" font-size="12" lengthAdjust="spacing" textLength="20" x="158.5" y="319.6016">hist</text><line style="stroke:#A80036;stroke-width:1.5;" x1="152.5" x2="184.5" y1="324.1328" y2="324.1328"/><rect fill="#FEFECE" filter="url(#f1nne74tlldund)" height="34.1328" style="stroke:#A80036;stroke-width:1.5;" width="37" x="59" y="306"/><text fill="#000000" font-family="sans-serif" font-size="12" lengthAdjust="spacing" textLength="23" x="66" y="319.6016">eval</text><line style="stroke:#A80036;stroke-width:1.5;" x1="60" x2="95" y1="324.1328" y2="324.1328"/><rect fill="#FEFECE" filter="url(#f1nne74tlldund)" height="49.6875" style="stroke:#A80036;stroke-width:1.5;" width="82" x="421.5" y="299"/><text fill="#000000" font-family="sans-serif" font-size="12" lengthAdjust="spacing" textLength="55" x="435" y="312.6016">zoneherd</text><line style="stroke:#A80036;stroke-width:1.0;" x1="421.5" x2="503.5" y1="317.1328" y2="317.1328"/><text fill="#000000" font-family="sans-serif" font-size="10" lengthAdjust="spacing" textLength="38" x="426.5" y="328.8008">suggest</text><text fill="#000000" font-family="sans-serif" font-size="10" lengthAdjust="spacing" textLength="24" x="474.5" y="328.8008">zone</text><line style="stroke:#A80036;stroke-width:1.0;" x1="469.5" x2="469.5" y1="317.1328" y2="332.9102"/><line style="stroke:#A80036;stroke-width:1.0;" x1="421.5" x2="503.5" y1="332.9102" y2="332.9102"/><text fill="#000000" font-family="sans-serif" font-size="10" lengthAdjust="spacing" textLength="28" x="431.5" y="344.5781">result</text><text fill="#000000" font-family="sans-serif" font-size="10" lengthAdjust="spacing" textLength="24" x="474.5" y="344.5781">zone</text><line style="stroke:#A80036;stroke-width:1.0;" x1="469.5" x2="469.5" y1="332.9102" y2="348.6875"/><rect fill="#FEFECE" filter="url(#f1nne74tlldund)" height="81.2422" style="stroke:#A80036;stroke-width:1.5;" width="116" x="249.5" y="416"/><text fill="#000000" font-family="sans-serif" font-size="12" lengthAdjust="spacing" textLength="38" x="288.5" y="429.6016">agents</text><line style="stroke:#A80036;stroke-width:1.0;" x1="249.5" x2="365.5" y1="434.1328" y2="434.1328"/><text fill="#000000" font-family="sans-serif" font-size="10" lengthAdjust="spacing" textLength="67" x="254.5" y="445.8008">suggestAgent</text><text fill="#000000" font-family="sans-serif" font-size="10" lengthAdjust="spacing" textLength="29" x="331.5" y="445.8008">Agent</text><line style="stroke:#A80036;stroke-width:1.0;" x1="326.5" x2="326.5" y1="434.1328" y2="449.9102"/><line style="stroke:#A80036;stroke-width:1.0;" x1="249.5" x2="365.5" y1="449.9102" y2="449.9102"/><text fill="#000000" font-family="sans-serif" font-size="10" lengthAdjust="spacing" textLength="48" x="264" y="461.5781">editAgent</text><text fill="#000000" font-family="sans-serif" font-size="10" lengthAdjust="spacing" textLength="29" x="331.5" y="461.5781">Agent</text><line style="stroke:#A80036;stroke-width:1.0;" x1="326.5" x2="326.5" y1="449.9102" y2="465.6875"/><line style="stroke:#A80036;stroke-width:1.0;" x1="249.5" x2="365.5" y1="465.6875" y2="465.6875"/><text fill="#000000" font-family="sans-serif" font-size="10" lengthAdjust="spacing" textLength="57" x="259.5" y="477.3555">resultAgent</text><text fill="#000000" font-family="sans-serif" font-size="10" lengthAdjust="spacing" textLength="29" x="331.5" y="477.3555">Agent</text><line style="stroke:#A80036;stroke-width:1.0;" x1="326.5" x2="326.5" y1="465.6875" y2="481.4648"/><line style="stroke:#A80036;stroke-width:1.0;" x1="249.5" x2="365.5" y1="481.4648" y2="481.4648"/><text fill="#000000" font-family="sans-serif" font-size="10" lengthAdjust="spacing" textLength="65" x="255.5" y="493.1328">sessionAgent</text><text fill="#000000" font-family="sans-serif" font-size="10" lengthAdjust="spacing" textLength="29" x="331.5" y="493.1328">Agent</text><line style="stroke:#A80036;stroke-width:1.0;" x1="326.5" x2="326.5" y1="481.4648" y2="497.2422"/><rect fill="#FEFECE" filter="url(#f1nne74tlldund)" height="49.6875" style="stroke:#A80036;stroke-width:1.5;" width="101" x="256" y="299"/><text fill="#000000" font-family="sans-serif" font-size="12" lengthAdjust="spacing" textLength="47" x="283" y="312.6016">maestro</text><line style="stroke:#A80036;stroke-width:1.0;" x1="256" x2="357" y1="317.1328" y2="317.1328"/><text fill="#000000" font-family="sans-serif" font-size="10" lengthAdjust="spacing" textLength="33" x="290" y="328.8008">agents</text><line style="stroke:#A80036;stroke-width:1.0;" x1="256" x2="357" y1="332.9102" y2="332.9102"/><text fill="#000000" font-family="sans-serif" font-size="10" lengthAdjust="spacing" textLength="42" x="261" y="344.5781">zoneBox</text><text fill="#000000" font-family="sans-serif" font-size="10" lengthAdjust="spacing" textLength="39" x="313" y="344.5781">Mailbox</text><line style="stroke:#A80036;stroke-width:1.0;" x1="308" x2="308" y1="332.9102" y2="348.6875"/><rect fill="#FEFECE" filter="url(#f1nne74tlldund)" height="81.2422" style="stroke:#A80036;stroke-width:1.5;" width="57" x="239" y="136"/><text fill="#000000" font-family="sans-serif" font-size="12" lengthAdjust="spacing" textLength="39" x="248" y="149.6016">modeS</text><line style="stroke:#A80036;stroke-width:1.0;" x1="239" x2="296" y1="154.1328" y2="154.1328"/><text fill="#000000" font-family="sans-serif" font-size="10" lengthAdjust="spacing" textLength="29" x="253" y="165.8008">zones</text><line style="stroke:#A80036;stroke-width:1.0;" x1="239" x2="296" y1="169.9102" y2="169.9102"/><text fill="#000000" font-family="sans-serif" font-size="10" lengthAdjust="spacing" textLength="18" x="258.5" y="181.5781">hist</text><line style="stroke:#A80036;stroke-width:1.0;" x1="239" x2="296" y1="185.6875" y2="185.6875"/><text fill="#000000" font-family="sans-serif" font-size="10" lengthAdjust="spacing" textLength="40" x="247.5" y="197.3555">maestro</text><line style="stroke:#A80036;stroke-width:1.0;" x1="239" x2="296" y1="201.4648" y2="201.4648"/><text fill="#000000" font-family="sans-serif" font-size="10" lengthAdjust="spacing" textLength="20" x="257.5" y="213.1328">eval</text><!--MD5=[6021cdfa81bb9c69274f0462c6867f79]
link maestro to agents--><path d="M358.5,325 C395.06,325 370.32,370.37 344.13,407.3 " fill="none" id="maestro-to-agents" style="stroke:#A80036;stroke-width:1.0;"/><polygon fill="#A80036" points="340.93,411.76,349.4293,406.7839,343.847,407.6991,342.9319,402.1167,340.93,411.76" style="stroke:#A80036;stroke-width:1.0;"/><!--MD5=[8be20b92c2e4f5d8d8b197fdb2729d90]
link modeS to zoneherd--><path d="M297.5,161 C325.16,161 303.51,197.89 322.5,218 C342.7,239.39 357.31,231.26 381.5,248 C399.69,260.59 418.05,276.99 432.68,291.15 " fill="none" id="modeS-to-zoneherd" style="stroke:#A80036;stroke-width:1.0;"/><polygon fill="#A80036" points="436.32,294.7,432.6548,285.5585,432.7348,291.2148,427.0785,291.2948,436.32,294.7" style="stroke:#A80036;stroke-width:1.0;"/><!--MD5=[050013092dba0143481184e818902342]
link modeS to hist--><path d="M238.5,177 C227.76,177 203.23,255.35 198.5,265 C192.56,277.13 185.55,290.49 179.8,301.24 " fill="none" id="modeS-to-hist" style="stroke:#A80036;stroke-width:1.0;"/><polygon fill="#A80036" points="177.42,305.67,185.203,299.6346,179.7862,301.2654,178.1555,295.8486,177.42,305.67" style="stroke:#A80036;stroke-width:1.0;"/><!--MD5=[1cf6441db7083b95a29820a1c9a8dfca]
link modeS to maestro--><path d="M297.5,192 C317.04,192 314.31,251.19 310.46,289.69 " fill="none" id="modeS-to-maestro" style="stroke:#A80036;stroke-width:1.0;"/><polygon fill="#A80036" points="309.94,294.75,314.8424,286.2079,310.453,289.7764,306.8846,285.3871,309.94,294.75" style="stroke:#A80036;stroke-width:1.0;"/><!--MD5=[18c04dc7ac08bd3df07b85dfc8952055]
link modeS to eval--><path d="M238.5,207 C235.88,207 155.65,246.5 153.5,248 C131.25,263.58 109.41,285.77 94.89,301.78 " fill="none" id="modeS-to-eval" style="stroke:#A80036;stroke-width:1.0;"/><polygon fill="#A80036" points="91.36,305.71,100.3462,301.6791,94.6977,301.9872,94.3896,296.3387,91.36,305.71" style="stroke:#A80036;stroke-width:1.0;"/><!--MD5=[c484056f3e2b58ee61469f499b6afbe3]
link Modeselektor to modeS--><path codeLine="38" d="M267.5,55.13 C267.5,70.61 267.5,91.77 267.5,111.95 " fill="none" id="Modeselektor-to-modeS" style="stroke:#A80036;stroke-width:1.0;"/><polygon fill="none" points="274.5,111.95,267.5,131.95,260.5,111.95,274.5,111.95" style="stroke:#A80036;stroke-width:1.0;"/><text fill="#000000" font-family="sans-serif" font-size="13" lengthAdjust="spacing" textLength="25" x="268.5" y="98.5684">new</text><!--MD5=[f2e8523e8ef4f17540437fe33c547aa5]
link Zoneherd to zoneherd--><path codeLine="39" d="M491.11,199.13 C486.39,219.42 479.37,249.56 473.47,274.91 " fill="none" id="Zoneherd-to-zoneherd" style="stroke:#A80036;stroke-width:1.0;"/><polygon fill="none" points="480.2,276.86,468.85,294.75,466.56,273.68,480.2,276.86" style="stroke:#A80036;stroke-width:1.0;"/><text fill="#000000" font-family="sans-serif" font-size="13" lengthAdjust="spacing" textLength="25" x="480.5" y="261.5684">new</text><!--MD5=[7e553973a1a2c39709c81aa79c2713c8]
link Historian to hist--><path codeLine="40" d="M156.72,199.13 C158.95,222.38 162.41,258.54 165.01,285.62 " fill="none" id="Historian-to-hist" style="stroke:#A80036;stroke-width:1.0;"/><polygon fill="none" points="172,285.18,166.94,305.76,158.07,286.51,172,285.18" style="stroke:#A80036;stroke-width:1.0;"/><text fill="#000000" font-family="sans-serif" font-size="13" lengthAdjust="spacing" textLength="25" x="164.5" y="261.5684">new</text><!--MD5=[47b252ff409282657661eb2bf302b72c]
link Valiant to eval--><path codeLine="41" d="M38.63,199.17 C36.44,217.43 35.23,243.33 41.5,265 C43.88,273.24 47.85,281.43 52.3,288.93 " fill="none" id="Valiant-to-eval" style="stroke:#A80036;stroke-width:1.0;"/><polygon fill="none" points="58.29,285.29,63.73,305.77,46.71,293.15,58.29,285.29" style="stroke:#A80036;stroke-width:1.0;"/><text fill="#000000" font-family="sans-serif" font-size="13" lengthAdjust="spacing" textLength="25" x="42.5" y="261.5684">new</text><!--MD5=[a2f3c846ca0382a6381058c3224e5069]
link Maestro to maestro--><path codeLine="42" d="M368.7,199.32 C360.92,217.43 349.56,243.07 338.5,265 C336.49,268.99 334.34,273.11 332.14,277.21 " fill="none" id="Maestro-to-maestro" style="stroke:#A80036;stroke-width:1.0;"/><polygon fill="none" points="338.26,280.6,322.46,294.72,326,273.83,338.26,280.6" style="stroke:#A80036;stroke-width:1.0;"/><text fill="#000000" font-family="sans-serif" font-size="13" lengthAdjust="spacing" textLength="25" x="347.5" y="261.5684">new</text><!--MD5=[9d0279da944ea28537b8a0c404ea3ccf]
@startuml
class Modeselektor
class Historian
class Zoneherd
class Valiant
class Maestro


object hist

object eval

map zoneherd {
    suggest => zone
    result  => zone

}

map agents {
   suggestAgent => Agent
   editAgent => Agent
   resultAgent => Agent
   sessionAgent => Agent
}

map maestro {
   agents *- -> agents
   zoneBox => Mailbox
}

map modeS {
   zones *- -> zoneherd
   hist  *- -> hist
   maestro *- -> maestro
   eval    *- -> eval
}

Modeselektor - -|> modeS : new
Zoneherd - -|> zoneherd : new
Historian - -|> hist : new
Valiant - -|> eval : new
Maestro - -|> maestro : new
@enduml

PlantUML version 1.2021.3(Mon Mar 22 06:53:19 HST 2021)
(GPL source distribution)
Java Runtime: OpenJDK Runtime Environment
JVM: OpenJDK 64-Bit Server VM
Default Encoding: UTF-8
Language: en
Country: US
--></g></svg>