<?xml version="1.0" encoding="UTF-8" standalone="no"?><svg xmlns="http://www.w3.org/2000/svg" xmlns:xlink="http://www.w3.org/1999/xlink" contentScriptType="application/ecmascript" contentStyleType="text/css" height="199px" preserveAspectRatio="none" style="width:371px;height:199px;" version="1.1" viewBox="0 0 371 199" width="371px" zoomAndPan="magnify"><defs><filter height="300%" id="f1tlmsyk7880sq" width="300%" x="-1" y="-1"><feGaussianBlur result="blurOut" stdDeviation="2.0"/><feColorMatrix in="blurOut" result="blurOut2" type="matrix" values="0 0 0 0 0 0 0 0 0 0 0 0 0 0 0 0 0 0 .4 0"/><feOffset dx="4.0" dy="4.0" in="blurOut2" result="blurOut3"/><feBlend in="SourceGraphic" in2="blurOut3" mode="normal"/></filter></defs><g><!--MD5=[d5cfd2ffba4e8ff8ddf4cc2afccf5efd]
class Modeselektor--><rect codeLine="2" fill="#FEFECE" filter="url(#f1tlmsyk7880sq)" height="48" id="Modeselektor" style="stroke:#A80036;stroke-width:1.5;" width="110" x="7" y="7"/><ellipse cx="22" cy="23" fill="#ADD1B2" rx="11" ry="11" style="stroke:#A80036;stroke-width:1.0;"/><path d="M24.4731,29.1431 Q23.8921,29.4419 23.2529,29.5913 Q22.6138,29.7407 21.9082,29.7407 Q19.4014,29.7407 18.0815,28.0889 Q16.7617,26.437 16.7617,23.3159 Q16.7617,20.1865 18.0815,18.5347 Q19.4014,16.8828 21.9082,16.8828 Q22.6138,16.8828 23.2612,17.0322 Q23.9087,17.1816 24.4731,17.4805 L24.4731,20.2031 Q23.8423,19.6221 23.2488,19.3523 Q22.6553,19.0825 22.0244,19.0825 Q20.6797,19.0825 19.9949,20.1492 Q19.3101,21.2158 19.3101,23.3159 Q19.3101,25.4077 19.9949,26.4744 Q20.6797,27.541 22.0244,27.541 Q22.6553,27.541 23.2488,27.2712 Q23.8423,27.0015 24.4731,26.4204 Z " fill="#000000"/><text fill="#000000" font-family="sans-serif" font-size="12" lengthAdjust="spacing" textLength="78" x="36" y="27.5352">Modeselektor</text><line style="stroke:#A80036;stroke-width:1.5;" x1="8" x2="116" y1="39" y2="39"/><line style="stroke:#A80036;stroke-width:1.5;" x1="8" x2="116" y1="47" y2="47"/><!--MD5=[aa065577ddfbe096d78ffc081aafab1a]
class Historian--><rect codeLine="3" fill="#FEFECE" filter="url(#f1tlmsyk7880sq)" height="48" id="Historian" style="stroke:#A80036;stroke-width:1.5;" width="83" x="274.5" y="7"/><ellipse cx="289.5" cy="23" fill="#ADD1B2" rx="11" ry="11" style="stroke:#A80036;stroke-width:1.0;"/><path d="M291.9731,29.1431 Q291.3921,29.4419 290.7529,29.5913 Q290.1138,29.7407 289.4082,29.7407 Q286.9014,29.7407 285.5815,28.0889 Q284.2617,26.437 284.2617,23.3159 Q284.2617,20.1865 285.5815,18.5347 Q286.9014,16.8828 289.4082,16.8828 Q290.1138,16.8828 290.7612,17.0322 Q291.4087,17.1816 291.9731,17.4805 L291.9731,20.2031 Q291.3423,19.6221 290.7488,19.3523 Q290.1553,19.0825 289.5244,19.0825 Q288.1797,19.0825 287.4949,20.1492 Q286.8101,21.2158 286.8101,23.3159 Q286.8101,25.4077 287.4949,26.4744 Q288.1797,27.541 289.5244,27.541 Q290.1553,27.541 290.7488,27.2712 Q291.3423,27.0015 291.9731,26.4204 Z " fill="#000000"/><text fill="#000000" font-family="sans-serif" font-size="12" lengthAdjust="spacing" textLength="51" x="303.5" y="27.5352">Historian</text><line style="stroke:#A80036;stroke-width:1.5;" x1="275.5" x2="356.5" y1="39" y2="39"/><line style="stroke:#A80036;stroke-width:1.5;" x1="275.5" x2="356.5" y1="47" y2="47"/><!--MD5=[5ddb8fc057f35ee943288cba1bba63a1]
class Zoneherd--><rect codeLine="4" fill="#FEFECE" filter="url(#f1tlmsyk7880sq)" height="48" id="Zoneherd" style="stroke:#A80036;stroke-width:1.5;" width="87" x="152.5" y="7"/><ellipse cx="167.5" cy="23" fill="#ADD1B2" rx="11" ry="11" style="stroke:#A80036;stroke-width:1.0;"/><path d="M169.9731,29.1431 Q169.3921,29.4419 168.7529,29.5913 Q168.1138,29.7407 167.4082,29.7407 Q164.9014,29.7407 163.5815,28.0889 Q162.2617,26.437 162.2617,23.3159 Q162.2617,20.1865 163.5815,18.5347 Q164.9014,16.8828 167.4082,16.8828 Q168.1138,16.8828 168.7612,17.0322 Q169.4087,17.1816 169.9731,17.4805 L169.9731,20.2031 Q169.3423,19.6221 168.7488,19.3523 Q168.1553,19.0825 167.5244,19.0825 Q166.1797,19.0825 165.4949,20.1492 Q164.8101,21.2158 164.8101,23.3159 Q164.8101,25.4077 165.4949,26.4744 Q166.1797,27.541 167.5244,27.541 Q168.1553,27.541 168.7488,27.2712 Q169.3423,27.0015 169.9731,26.4204 Z " fill="#000000"/><text fill="#000000" font-family="sans-serif" font-size="12" lengthAdjust="spacing" textLength="55" x="181.5" y="27.5352">Zoneherd</text><line style="stroke:#A80036;stroke-width:1.5;" x1="153.5" x2="238.5" y1="39" y2="39"/><line style="stroke:#A80036;stroke-width:1.5;" x1="153.5" x2="238.5" y1="47" y2="47"/><rect fill="#FEFECE" filter="url(#f1tlmsyk7880sq)" height="34.1328" style="stroke:#A80036;stroke-width:1.5;" width="69" x="161.5" y="143"/><text fill="#000000" font-family="sans-serif" font-size="12" lengthAdjust="spacing" textLength="55" x="168.5" y="156.6016">zoneherd</text><line style="stroke:#A80036;stroke-width:1.5;" x1="162.5" x2="229.5" y1="161.1328" y2="161.1328"/><rect fill="#FEFECE" filter="url(#f1tlmsyk7880sq)" height="34.1328" style="stroke:#A80036;stroke-width:1.5;" width="34" x="283" y="143"/><text fill="#000000" font-family="sans-serif" font-size="12" lengthAdjust="spacing" textLength="20" x="290" y="156.6016">hist</text><line style="stroke:#A80036;stroke-width:1.5;" x1="284" x2="316" y1="161.1328" y2="161.1328"/><rect fill="#FEFECE" filter="url(#f1tlmsyk7880sq)" height="49.6875" style="stroke:#A80036;stroke-width:1.5;" width="53" x="65.5" y="136"/><text fill="#000000" font-family="sans-serif" font-size="12" lengthAdjust="spacing" textLength="39" x="72.5" y="149.6016">modeS</text><line style="stroke:#A80036;stroke-width:1.0;" x1="65.5" x2="118.5" y1="154.1328" y2="154.1328"/><text fill="#000000" font-family="sans-serif" font-size="10" lengthAdjust="spacing" textLength="29" x="77.5" y="165.8008">zones</text><line style="stroke:#A80036;stroke-width:1.0;" x1="65.5" x2="118.5" y1="169.9102" y2="169.9102"/><text fill="#000000" font-family="sans-serif" font-size="10" lengthAdjust="spacing" textLength="18" x="83" y="181.5781">hist</text><!--MD5=[8be20b92c2e4f5d8d8b197fdb2729d90]
link modeS to zoneherd--><path d="M120,162 C131.75,167.99 144.53,171.62 156.15,173.07 " fill="none" id="modeS-to-zoneherd" style="stroke:#A80036;stroke-width:1.0;"/><polygon fill="#A80036" points="161.4,173.58,152.8303,168.7262,156.4236,173.0952,152.0546,176.6885,161.4,173.58" style="stroke:#A80036;stroke-width:1.0;"/><!--MD5=[050013092dba0143481184e818902342]
link modeS to hist--><path d="M120,177 C161.44,177 126.27,115.33 161.5,93.5 C187.57,77.35 202.04,82.08 230.5,93.5 C253.02,102.54 272.37,122.75 284.89,138.53 " fill="none" id="modeS-to-hist" style="stroke:#A80036;stroke-width:1.0;"/><polygon fill="#A80036" points="288.24,142.85,285.8864,133.2865,285.1762,138.8986,279.5641,138.1885,288.24,142.85" style="stroke:#A80036;stroke-width:1.0;"/><!--MD5=[c484056f3e2b58ee61469f499b6afbe3]
link Modeselektor to modeS--><path codeLine="13" d="M67.5,55.29 C72.25,75.4 79.16,104.64 84.43,126.95 " fill="none" id="Modeselektor-to-modeS" style="stroke:#A80036;stroke-width:1.0;"/><polygon fill="#A80036" points="85.6,131.89,87.4386,122.2143,84.458,127.0222,79.6501,124.0415,85.6,131.89" style="stroke:#A80036;stroke-width:1.0;"/><text fill="#000000" font-family="sans-serif" font-size="13" lengthAdjust="spacing" textLength="25" x="79" y="98.5684">new</text><!--MD5=[f2e8523e8ef4f17540437fe33c547aa5]
link Zoneherd to zoneherd--><path codeLine="14" d="M196,55.29 C196,78.76 196,114.68 196,137.49 " fill="none" id="Zoneherd-to-zoneherd" style="stroke:#A80036;stroke-width:1.0;"/><polygon fill="#A80036" points="196,142.71,200,133.71,196,137.71,192,133.71,196,142.71" style="stroke:#A80036;stroke-width:1.0;"/><text fill="#000000" font-family="sans-serif" font-size="13" lengthAdjust="spacing" textLength="25" x="197" y="98.5684">new</text><!--MD5=[7e553973a1a2c39709c81aa79c2713c8]
link Historian to hist--><path codeLine="15" d="M313.07,55.29 C310.11,78.76 305.58,114.68 302.71,137.49 " fill="none" id="Historian-to-hist" style="stroke:#A80036;stroke-width:1.0;"/><polygon fill="#A80036" points="302.05,142.71,307.1504,134.2847,302.679,137.7497,299.2139,133.2783,302.05,142.71" style="stroke:#A80036;stroke-width:1.0;"/><text fill="#000000" font-family="sans-serif" font-size="13" lengthAdjust="spacing" textLength="25" x="310" y="98.5684">new</text><!--MD5=[943335ce599af5dd4780178d73e2e477]
@startuml
class Modeselektor
class Historian
class Zoneherd

object zoneherd
object hist

map modeS {
   zones *-> zoneherd
   hist  *-> hist
}
Modeselektor - -> modeS : new
Zoneherd - -> zoneherd : new
Historian - -> hist : new
@enduml

PlantUML version 1.2021.3(Mon Mar 22 06:53:19 HST 2021)
(GPL source distribution)
Java Runtime: OpenJDK Runtime Environment
JVM: OpenJDK 64-Bit Server VM
Default Encoding: UTF-8
Language: en
Country: US
--></g></svg>